<?xml version="1.0" standalone="no"?>
<!DOCTYPE svg PUBLIC "-//W3C//DTD SVG 1.1//EN" "http://www.w3.org/Graphics/SVG/1.1/DTD/svg11.dtd">
<svg width="800" height="536" viewBox="-400 -450 800 536" xmlns="http://www.w3.org/2000/svg" version="1.1">
<title>OpenSCAD Model</title>
<path d="
M -18.7467,-10.0788 L -17.5131,-10.3141 L -16.3187,-10.7022 L -15.1824,-11.2369 L -14.1221,-11.9098 L -13.1545,-12.7103
 L -12.2949,-13.6257 L -11.5567,-14.6417 L -10.9517,-15.7422 L -10.4894,-16.9098 L -10.1771,-18.1262 L -10.0197,-19.3721
 L -10.0197,-20 L -10,-20 L -10,-296 L -50,-296 L -50,-312 L -10,-312
 L -10,-440 L -10.0788,-441.253 L -10.3142,-442.487 L -10.7022,-443.681 L -11.2369,-444.818 L -11.9098,-445.878
 L -12.7103,-446.845 L -13.6257,-447.705 L -14.6417,-448.443 L -15.7422,-449.048 L -16.9098,-449.511 L -18.1262,-449.823
 L -19.3721,-449.98 L -20,-449.98 L -20,-450 L -390,-450 L -391.253,-449.921 L -392.487,-449.686
 L -393.681,-449.298 L -394.818,-448.763 L -395.878,-448.09 L -396.845,-447.29 L -397.705,-446.374 L -398.443,-445.358
 L -399.048,-444.258 L -399.511,-443.09 L -399.823,-441.874 L -399.98,-440.628 L -399.98,-440 L -400,-440
 L -400,-312 L -360,-312 L -360,-296 L -400,-296 L -400,-20 L -399.921,-18.7467
 L -399.686,-17.5131 L -399.298,-16.3187 L -398.763,-15.1824 L -398.09,-14.1221 L -397.29,-13.1545 L -396.374,-12.2949
 L -395.358,-11.5567 L -394.258,-10.9517 L -393.09,-10.4894 L -391.874,-10.1771 L -390.628,-10.0197 L -390,-10.0197
 L -390,-10 L -20,-10 z
M -70,-423.5 L -70,-439.5 L -50,-439.5 L -50,-423.5 z
M -215,-423.5 L -215,-439.5 L -195,-439.5 L -195,-423.5 z
M -360,-423.5 L -360,-439.5 L -340,-439.5 L -340,-423.5 z
M -122.626,-429.504 L -122.875,-429.535 L -123.118,-429.598 L -123.352,-429.69 L -123.572,-429.811 L -123.775,-429.959
 L -123.958,-430.131 L -124.118,-430.324 L -124.253,-430.536 L -124.36,-430.764 L -124.437,-431.003 L -124.484,-431.249
 L -124.5,-431.5 L -124.484,-431.751 L -124.437,-431.997 L -124.36,-432.236 L -124.253,-432.464 L -124.118,-432.676
 L -123.958,-432.869 L -123.775,-433.041 L -123.572,-433.189 L -123.352,-433.31 L -123.118,-433.402 L -122.875,-433.465
 L -122.626,-433.496 L -122.374,-433.496 L -122.125,-433.465 L -121.882,-433.402 L -121.648,-433.31 L -121.428,-433.189
 L -121.225,-433.041 L -121.042,-432.869 L -120.882,-432.676 L -120.747,-432.464 L -120.64,-432.236 L -120.563,-431.997
 L -120.516,-431.751 L -120.5,-431.5 L -120.516,-431.249 L -120.563,-431.003 L -120.64,-430.764 L -120.747,-430.536
 L -120.882,-430.324 L -121.042,-430.131 L -121.225,-429.959 L -121.428,-429.811 L -121.648,-429.69 L -121.882,-429.598
 L -122.125,-429.535 L -122.374,-429.504 z
M -287.626,-429.504 L -287.875,-429.535 L -288.118,-429.598 L -288.352,-429.69 L -288.572,-429.811 L -288.775,-429.959
 L -288.958,-430.131 L -289.118,-430.324 L -289.253,-430.536 L -289.36,-430.764 L -289.437,-431.003 L -289.484,-431.249
 L -289.5,-431.5 L -289.484,-431.751 L -289.437,-431.997 L -289.36,-432.236 L -289.253,-432.464 L -289.118,-432.676
 L -288.958,-432.869 L -288.775,-433.041 L -288.572,-433.189 L -288.352,-433.31 L -288.118,-433.402 L -287.875,-433.465
 L -287.626,-433.496 L -287.374,-433.496 L -287.125,-433.465 L -286.882,-433.402 L -286.648,-433.31 L -286.428,-433.189
 L -286.225,-433.041 L -286.042,-432.869 L -285.882,-432.676 L -285.747,-432.464 L -285.64,-432.236 L -285.563,-431.997
 L -285.516,-431.751 L -285.5,-431.5 L -285.516,-431.249 L -285.563,-431.003 L -285.64,-430.764 L -285.747,-430.536
 L -285.882,-430.324 L -286.042,-430.131 L -286.225,-429.959 L -286.428,-429.811 L -286.648,-429.69 L -286.882,-429.598
 L -287.125,-429.535 L -287.374,-429.504 z
M -265.5,-30 L -265.5,-50 L -288,-50 L -288,-50.0592 L -289.884,-50.0592 L -293.621,-50.5314
 L -297.271,-51.4683 L -300.773,-52.8552 L -304.075,-54.6702 L -307.123,-56.8846 L -309.869,-59.4636 L -312.271,-62.3664
 L -314.289,-65.5474 L -315.893,-68.9563 L -317.057,-72.5393 L -317.763,-76.24 L -318,-80 L -318,-341.6
 L -317.98,-341.6 L -317.98,-342.228 L -317.823,-343.474 L -317.511,-344.69 L -317.048,-345.858 L -316.443,-346.958
 L -315.705,-347.974 L -314.845,-348.89 L -313.878,-349.69 L -312.818,-350.363 L -311.681,-350.898 L -310.487,-351.286
 L -309.253,-351.521 L -308,-351.6 L -301.2,-351.6 L -300.172,-351.665 L -299.161,-351.858 L -298.181,-352.176
 L -297.25,-352.614 L -296.38,-353.166 L -295.587,-353.822 L -294.882,-354.573 L -294.277,-355.406 L -293.78,-356.309
 L -293.401,-357.266 L -293.145,-358.263 L -293.016,-359.285 L -293.016,-359.8 L -293,-359.8 L -293.065,-360.828
 L -293.258,-361.839 L -293.576,-362.819 L -294.014,-363.75 L -294.566,-364.62 L -295.222,-365.413 L -295.973,-366.118
 L -296.806,-366.724 L -297.709,-367.22 L -298.666,-367.599 L -299.663,-367.855 L -300.685,-367.984 L -301.2,-367.984
 L -301.2,-368 L -308,-368 L -309.253,-368.079 L -310.487,-368.314 L -311.681,-368.702 L -312.818,-369.237
 L -313.878,-369.91 L -314.845,-370.71 L -315.705,-371.626 L -316.443,-372.642 L -317.048,-373.742 L -317.511,-374.91
 L -317.823,-376.126 L -317.98,-377.372 L -317.98,-378 L -318,-378 L -318,-380 L -317.941,-380
 L -317.941,-381.884 L -317.469,-385.621 L -316.532,-389.271 L -315.145,-392.773 L -313.33,-396.075 L -311.115,-399.123
 L -308.536,-401.869 L -305.634,-404.271 L -302.453,-406.289 L -299.044,-407.893 L -295.461,-409.057 L -291.76,-409.763
 L -288,-410 L -265.5,-410 L -265.5,-430 L -257.5,-430 L -257.5,-410 L -240,-410
 L -240,-409.98 L -239.372,-409.98 L -238.126,-409.823 L -236.91,-409.511 L -235.742,-409.048 L -234.642,-408.443
 L -233.626,-407.705 L -232.71,-406.845 L -231.91,-405.878 L -231.237,-404.818 L -230.702,-403.681 L -230.314,-402.487
 L -230.079,-401.253 L -230,-400 L -230,-379 L -229.99,-379 L -229.99,-378.686 L -229.911,-378.063
 L -229.755,-377.455 L -229.524,-376.871 L -229.222,-376.321 L -228.853,-375.813 L -228.423,-375.355 L -227.939,-374.955
 L -227.409,-374.618 L -226.841,-374.351 L -226.243,-374.157 L -225.627,-374.039 L -225,-374 L -185,-374
 L -185,-374.01 L -184.686,-374.01 L -184.063,-374.089 L -183.455,-374.245 L -182.871,-374.476 L -182.321,-374.778
 L -181.813,-375.147 L -181.355,-375.577 L -180.955,-376.061 L -180.618,-376.591 L -180.351,-377.159 L -180.157,-377.757
 L -180.039,-378.373 L -180,-379 L -180,-400 L -179.921,-401.253 L -179.686,-402.487 L -179.298,-403.681
 L -178.763,-404.818 L -178.09,-405.878 L -177.29,-406.845 L -176.374,-407.705 L -175.358,-408.443 L -174.258,-409.048
 L -173.09,-409.511 L -171.874,-409.823 L -170.628,-409.98 L -170,-409.98 L -170,-410 L -152.5,-410
 L -152.5,-430 L -144.5,-430 L -144.5,-410 L -122,-410 L -122,-409.941 L -120.116,-409.941
 L -116.379,-409.469 L -112.729,-408.532 L -109.227,-407.145 L -105.925,-405.33 L -102.877,-403.115 L -100.131,-400.536
 L -97.7295,-397.634 L -95.7108,-394.453 L -94.1067,-391.044 L -92.9425,-387.461 L -92.2366,-383.76 L -92,-380
 L -92,-80 L -92.0592,-80 L -92.0592,-78.1163 L -92.5314,-74.3786 L -93.4683,-70.7295 L -94.8552,-67.2266
 L -96.6702,-63.9252 L -98.8846,-60.8773 L -101.464,-58.1309 L -104.366,-55.7295 L -107.547,-53.7108 L -110.956,-52.1067
 L -114.539,-50.9425 L -118.24,-50.2365 L -122,-50 L -144.5,-50 L -144.5,-30 L -152.5,-30
 L -152.5,-50 L -173,-50 L -173,-50.0197 L -173.628,-50.0197 L -174.874,-50.1771 L -176.09,-50.4894
 L -177.258,-50.9517 L -178.358,-51.5567 L -179.374,-52.2949 L -180.29,-53.1545 L -181.09,-54.1221 L -181.763,-55.1824
 L -182.298,-56.3187 L -182.686,-57.5131 L -182.921,-58.7467 L -183,-60 L -183,-69 L -183.039,-69.6267
 L -183.157,-70.2435 L -183.351,-70.8406 L -183.618,-71.4088 L -183.955,-71.9389 L -184.355,-72.4227 L -184.813,-72.8526
 L -185.321,-73.2216 L -185.871,-73.5241 L -186.455,-73.7553 L -187.063,-73.9114 L -187.686,-73.9901 L -188.314,-73.9901
 L -188.937,-73.9114 L -189.545,-73.7553 L -190.129,-73.5241 L -190.679,-73.2216 L -191.187,-72.8526 L -191.645,-72.4227
 L -192.045,-71.9389 L -192.382,-71.4088 L -192.649,-70.8406 L -192.843,-70.2435 L -192.961,-69.6267 L -193,-69
 L -193,-62 L -193.095,-60.496 L -193.377,-59.0157 L -193.843,-57.5825 L -194.484,-56.2189 L -195.292,-54.9466
 L -196.252,-53.7854 L -197.351,-52.7538 L -198.57,-51.8681 L -199.891,-51.1421 L -201.292,-50.5873 L -202.751,-50.2125
 L -204.247,-50.0237 L -205,-50.0237 L -205,-50 L -206.504,-50.0946 L -207.984,-50.377 L -209.417,-50.8427
 L -210.781,-51.4843 L -212.053,-52.2918 L -213.215,-53.2524 L -214.246,-54.3509 L -215.132,-55.5701 L -215.858,-56.8906
 L -216.413,-58.2918 L -216.787,-59.7514 L -216.976,-61.2465 L -216.976,-62 L -217,-62 L -217,-69
 L -217.039,-69.6267 L -217.157,-70.2435 L -217.351,-70.8406 L -217.618,-71.4088 L -217.955,-71.9389 L -218.355,-72.4227
 L -218.813,-72.8526 L -219.321,-73.2216 L -219.871,-73.5241 L -220.455,-73.7553 L -221.063,-73.9114 L -221.686,-73.9901
 L -222,-73.9901 L -222,-74 L -222.627,-73.9606 L -223.243,-73.8429 L -223.841,-73.6489 L -224.409,-73.3815
 L -224.939,-73.0451 L -225.423,-72.6449 L -225.853,-72.1871 L -226.222,-71.6791 L -226.524,-71.1289 L -226.755,-70.5451
 L -226.911,-69.9369 L -226.99,-69.314 L -226.99,-69 L -227,-69 L -227,-60 L -227.079,-58.7467
 L -227.314,-57.5131 L -227.702,-56.3187 L -228.237,-55.1824 L -228.91,-54.1221 L -229.71,-53.1545 L -230.626,-52.2949
 L -231.642,-51.5567 L -232.742,-50.9517 L -233.91,-50.4894 L -235.126,-50.1771 L -236.372,-50.0197 L -237,-50.0197
 L -237,-50 L -257.5,-50 L -257.5,-30 z
M -308.469,-120.097 L -307.8,-120.269 L -307.158,-120.523 L -306.553,-120.856 L -305.994,-121.262 L -305.491,-121.735
 L -296.226,-131 L -216,-131 L -216,-130.989 L -215.655,-130.989 L -214.969,-130.903 L -214.3,-130.731
 L -213.658,-130.477 L -213.053,-130.144 L -212.494,-129.738 L -211.991,-129.265 L -211.55,-128.733 L -211.18,-128.15
 L -210.886,-127.525 L -210.673,-126.868 L -210.543,-126.189 L -210.457,-124.811 L -210.327,-124.132 L -210.114,-123.475
 L -209.82,-122.85 L -209.45,-122.267 L -209.009,-121.735 L -208.506,-121.262 L -207.947,-120.856 L -207.342,-120.523
 L -206.7,-120.269 L -206.031,-120.097 L -205.345,-120.011 L -204.655,-120.011 L -203.969,-120.097 L -203.3,-120.269
 L -202.658,-120.523 L -202.053,-120.856 L -201.494,-121.262 L -200.991,-121.735 L -200.55,-122.267 L -200.18,-122.85
 L -199.886,-123.475 L -199.673,-124.132 L -199.543,-124.811 L -199.457,-126.189 L -199.327,-126.868 L -199.114,-127.525
 L -198.82,-128.15 L -198.45,-128.733 L -198.009,-129.265 L -197.506,-129.738 L -196.947,-130.144 L -196.342,-130.477
 L -195.7,-130.731 L -195.031,-130.903 L -194.345,-130.989 L -194,-130.989 L -194,-131 L -113.774,-131
 L -104.509,-121.735 L -104.006,-121.262 L -103.447,-120.856 L -102.842,-120.523 L -102.2,-120.269 L -101.531,-120.097
 L -100.845,-120.011 L -100.155,-120.011 L -99.4694,-120.097 L -98.8004,-120.269 L -98.1582,-120.523 L -97.553,-120.856
 L -96.9942,-121.262 L -96.4907,-121.735 L -96.0504,-122.267 L -95.6803,-122.85 L -95.3862,-123.475 L -95.1728,-124.132
 L -95.0434,-124.811 L -95,-125.5 L -95.0434,-126.189 L -95.1728,-126.868 L -95.3862,-127.525 L -95.6803,-128.15
 L -96.0504,-128.733 L -96.4907,-129.265 L -106,-138.774 L -106,-219 L -105.957,-219.689 L -105.827,-220.368
 L -105.614,-221.025 L -105.32,-221.65 L -104.95,-222.233 L -104.509,-222.765 L -104.006,-223.238 L -103.447,-223.644
 L -102.842,-223.977 L -102.2,-224.231 L -101.531,-224.403 L -100.845,-224.489 L -100.5,-224.489 L -100.5,-224.511
 L -100.155,-224.511 L -99.4694,-224.597 L -98.8004,-224.769 L -98.1582,-225.023 L -97.553,-225.356 L -96.9942,-225.762
 L -96.4907,-226.235 L -96.0504,-226.767 L -95.6803,-227.35 L -95.3862,-227.975 L -95.1728,-228.632 L -95.0434,-229.311
 L -95,-230 L -95.0434,-230.689 L -95.1728,-231.368 L -95.3862,-232.025 L -95.6803,-232.65 L -96.0504,-233.233
 L -96.4907,-233.765 L -96.9942,-234.238 L -97.553,-234.644 L -98.1582,-234.977 L -98.8004,-235.231 L -99.4694,-235.403
 L -100.155,-235.489 L -100.5,-235.489 L -100.5,-235.511 L -100.845,-235.511 L -101.531,-235.597 L -102.2,-235.769
 L -102.842,-236.023 L -103.447,-236.356 L -104.006,-236.762 L -104.509,-237.235 L -104.95,-237.767 L -105.32,-238.35
 L -105.614,-238.975 L -105.827,-239.632 L -105.957,-240.311 L -106,-241 L -106,-321.226 L -96.4907,-330.735
 L -96.0504,-331.267 L -95.6803,-331.85 L -95.3862,-332.475 L -95.1728,-333.132 L -95.0434,-333.811 L -95,-334.5
 L -95.0434,-335.189 L -95.1728,-335.868 L -95.3862,-336.525 L -95.6803,-337.15 L -96.0504,-337.733 L -96.4907,-338.265
 L -96.9942,-338.738 L -97.553,-339.144 L -98.1582,-339.477 L -98.8004,-339.731 L -99.4694,-339.903 L -100.155,-339.989
 L -100.845,-339.989 L -101.531,-339.903 L -102.2,-339.731 L -102.842,-339.477 L -103.447,-339.144 L -104.006,-338.738
 L -104.509,-338.265 L -113.774,-329 L -296.226,-329 L -305.491,-338.265 L -305.994,-338.738 L -306.553,-339.144
 L -307.158,-339.477 L -307.8,-339.731 L -308.469,-339.903 L -309.155,-339.989 L -309.845,-339.989 L -310.531,-339.903
 L -311.2,-339.731 L -311.842,-339.477 L -312.447,-339.144 L -313.006,-338.738 L -313.509,-338.265 L -313.95,-337.733
 L -314.32,-337.15 L -314.614,-336.525 L -314.827,-335.868 L -314.957,-335.189 L -315,-334.5 L -314.957,-333.811
 L -314.827,-333.132 L -314.614,-332.475 L -314.32,-331.85 L -313.95,-331.267 L -313.509,-330.735 L -304,-321.226
 L -304,-138.774 L -313.509,-129.265 L -313.95,-128.733 L -314.32,-128.15 L -314.614,-127.525 L -314.827,-126.868
 L -314.957,-126.189 L -315,-125.5 L -314.957,-124.811 L -314.827,-124.132 L -314.614,-123.475 L -314.32,-122.85
 L -313.95,-122.267 L -313.509,-121.735 L -313.006,-121.262 L -312.447,-120.856 L -311.842,-120.523 L -311.2,-120.269
 L -310.531,-120.097 L -309.845,-120.011 L -309.155,-120.011 z
M -100.594,-333.003 L -100.781,-333.027 L -100.964,-333.073 L -101.139,-333.143 L -101.304,-333.234 L -101.456,-333.344
 L -101.593,-333.473 L -101.714,-333.618 L -101.814,-333.777 L -101.895,-333.948 L -101.953,-334.127 L -101.988,-334.312
 L -102,-334.5 L -101.988,-334.688 L -101.953,-334.873 L -101.895,-335.052 L -101.814,-335.223 L -101.714,-335.382
 L -101.593,-335.527 L -101.456,-335.656 L -101.304,-335.766 L -101.139,-335.857 L -100.964,-335.927 L -100.781,-335.973
 L -100.594,-335.997 L -100.406,-335.997 L -100.219,-335.973 L -100.036,-335.927 L -99.8613,-335.857 L -99.6963,-335.766
 L -99.5439,-335.656 L -99.4066,-335.527 L -99.2865,-335.382 L -99.1855,-335.223 L -99.1053,-335.052 L -99.0471,-334.873
 L -99.0118,-334.688 L -99,-334.5 L -99.0118,-334.312 L -99.0471,-334.127 L -99.1053,-333.948 L -99.1855,-333.777
 L -99.2865,-333.618 L -99.4066,-333.473 L -99.5439,-333.344 L -99.6963,-333.234 L -99.8613,-333.143 L -100.036,-333.073
 L -100.219,-333.027 L -100.406,-333.003 z
M -309.594,-333.003 L -309.781,-333.027 L -309.964,-333.073 L -310.139,-333.143 L -310.304,-333.234 L -310.456,-333.344
 L -310.593,-333.473 L -310.714,-333.618 L -310.814,-333.777 L -310.895,-333.948 L -310.953,-334.127 L -310.988,-334.312
 L -311,-334.5 L -310.988,-334.688 L -310.953,-334.873 L -310.895,-335.052 L -310.814,-335.223 L -310.714,-335.382
 L -310.593,-335.527 L -310.456,-335.656 L -310.304,-335.766 L -310.139,-335.857 L -309.964,-335.927 L -309.781,-335.973
 L -309.594,-335.997 L -309.406,-335.997 L -309.219,-335.973 L -309.036,-335.927 L -308.861,-335.857 L -308.696,-335.766
 L -308.544,-335.656 L -308.407,-335.527 L -308.286,-335.382 L -308.186,-335.223 L -308.105,-335.052 L -308.047,-334.873
 L -308.012,-334.688 L -308,-334.5 L -308.012,-334.312 L -308.047,-334.127 L -308.105,-333.948 L -308.186,-333.777
 L -308.286,-333.618 L -308.407,-333.473 L -308.544,-333.344 L -308.696,-333.234 L -308.861,-333.143 L -309.036,-333.073
 L -309.219,-333.027 L -309.406,-333.003 z
M -205.345,-258.452 L -206.031,-258.539 L -206.7,-258.71 L -207.342,-258.965 L -207.947,-259.297 L -208.506,-259.703
 L -209.009,-260.176 L -250.068,-301.235 L -250.508,-301.767 L -250.879,-302.35 L -251.173,-302.975 L -251.386,-303.632
 L -251.515,-304.311 L -251.559,-305 L -251.515,-305.689 L -251.386,-306.368 L -251.173,-307.025 L -250.879,-307.65
 L -250.508,-308.233 L -250.068,-308.765 L -249.565,-309.238 L -249.006,-309.644 L -248.401,-309.977 L -247.758,-310.231
 L -247.089,-310.403 L -246.404,-310.489 L -163.596,-310.489 L -162.911,-310.403 L -162.242,-310.231 L -161.599,-309.977
 L -160.994,-309.644 L -160.435,-309.238 L -159.932,-308.765 L -159.492,-308.233 L -159.121,-307.65 L -158.827,-307.025
 L -158.614,-306.368 L -158.485,-305.689 L -158.441,-305 L -158.485,-304.311 L -158.614,-303.632 L -158.827,-302.975
 L -159.121,-302.35 L -159.492,-301.767 L -159.932,-301.235 L -200.991,-260.176 L -201.494,-259.703 L -202.053,-259.297
 L -202.658,-258.965 L -203.3,-258.71 L -203.969,-258.539 L -204.655,-258.452 z
M -160.594,-283.503 L -160.781,-283.527 L -160.964,-283.573 L -161.139,-283.643 L -161.304,-283.734 L -161.456,-283.844
 L -161.593,-283.973 L -161.714,-284.118 L -161.814,-284.277 L -161.895,-284.448 L -161.953,-284.627 L -161.988,-284.812
 L -162,-285 L -161.988,-285.188 L -161.953,-285.373 L -161.895,-285.552 L -161.814,-285.723 L -161.714,-285.882
 L -161.593,-286.027 L -161.456,-286.156 L -161.304,-286.266 L -161.139,-286.357 L -160.964,-286.427 L -160.781,-286.473
 L -160.594,-286.497 L -160.406,-286.497 L -160.219,-286.473 L -160.036,-286.427 L -159.861,-286.357 L -159.696,-286.266
 L -159.544,-286.156 L -159.407,-286.027 L -159.286,-285.882 L -159.186,-285.723 L -159.105,-285.552 L -159.047,-285.373
 L -159.012,-285.188 L -159,-285 L -159.012,-284.812 L -159.047,-284.627 L -159.105,-284.448 L -159.186,-284.277
 L -159.286,-284.118 L -159.407,-283.973 L -159.544,-283.844 L -159.696,-283.734 L -159.861,-283.643 L -160.036,-283.573
 L -160.219,-283.527 L -160.406,-283.503 z
M -136.594,-283.503 L -136.781,-283.527 L -136.964,-283.573 L -137.139,-283.643 L -137.304,-283.734 L -137.456,-283.844
 L -137.593,-283.973 L -137.714,-284.118 L -137.814,-284.277 L -137.895,-284.448 L -137.953,-284.627 L -137.988,-284.812
 L -138,-285 L -137.988,-285.188 L -137.953,-285.373 L -137.895,-285.552 L -137.814,-285.723 L -137.714,-285.882
 L -137.593,-286.027 L -137.456,-286.156 L -137.304,-286.266 L -137.139,-286.357 L -136.964,-286.427 L -136.781,-286.473
 L -136.594,-286.497 L -136.406,-286.497 L -136.219,-286.473 L -136.036,-286.427 L -135.861,-286.357 L -135.696,-286.266
 L -135.544,-286.156 L -135.407,-286.027 L -135.286,-285.882 L -135.186,-285.723 L -135.105,-285.552 L -135.047,-285.373
 L -135.012,-285.188 L -135,-285 L -135.012,-284.812 L -135.047,-284.627 L -135.105,-284.448 L -135.186,-284.277
 L -135.286,-284.118 L -135.407,-283.973 L -135.544,-283.844 L -135.696,-283.734 L -135.861,-283.643 L -136.036,-283.573
 L -136.219,-283.527 L -136.406,-283.503 z
M -273.594,-283.503 L -273.781,-283.527 L -273.964,-283.573 L -274.139,-283.643 L -274.304,-283.734 L -274.456,-283.844
 L -274.593,-283.973 L -274.714,-284.118 L -274.814,-284.277 L -274.895,-284.448 L -274.953,-284.627 L -274.988,-284.812
 L -275,-285 L -274.988,-285.188 L -274.953,-285.373 L -274.895,-285.552 L -274.814,-285.723 L -274.714,-285.882
 L -274.593,-286.027 L -274.456,-286.156 L -274.304,-286.266 L -274.139,-286.357 L -273.964,-286.427 L -273.781,-286.473
 L -273.594,-286.497 L -273.406,-286.497 L -273.219,-286.473 L -273.036,-286.427 L -272.861,-286.357 L -272.696,-286.266
 L -272.544,-286.156 L -272.407,-286.027 L -272.286,-285.882 L -272.186,-285.723 L -272.105,-285.552 L -272.047,-285.373
 L -272.012,-285.188 L -272,-285 L -272.012,-284.812 L -272.047,-284.627 L -272.105,-284.448 L -272.186,-284.277
 L -272.286,-284.118 L -272.407,-283.973 L -272.544,-283.844 L -272.696,-283.734 L -272.861,-283.643 L -273.036,-283.573
 L -273.219,-283.527 L -273.406,-283.503 z
M -249.594,-283.503 L -249.781,-283.527 L -249.964,-283.573 L -250.139,-283.643 L -250.304,-283.734 L -250.456,-283.844
 L -250.593,-283.973 L -250.714,-284.118 L -250.814,-284.277 L -250.895,-284.448 L -250.953,-284.627 L -250.988,-284.812
 L -251,-285 L -250.988,-285.188 L -250.953,-285.373 L -250.895,-285.552 L -250.814,-285.723 L -250.714,-285.882
 L -250.593,-286.027 L -250.456,-286.156 L -250.304,-286.266 L -250.139,-286.357 L -249.964,-286.427 L -249.781,-286.473
 L -249.594,-286.497 L -249.406,-286.497 L -249.219,-286.473 L -249.036,-286.427 L -248.861,-286.357 L -248.696,-286.266
 L -248.544,-286.156 L -248.407,-286.027 L -248.286,-285.882 L -248.186,-285.723 L -248.105,-285.552 L -248.047,-285.373
 L -248.012,-285.188 L -248,-285 L -248.012,-284.812 L -248.047,-284.627 L -248.105,-284.448 L -248.186,-284.277
 L -248.286,-284.118 L -248.407,-283.973 L -248.544,-283.844 L -248.696,-283.734 L -248.861,-283.643 L -249.036,-283.573
 L -249.219,-283.527 L -249.406,-283.503 z
M -130.689,-183.485 L -131.368,-183.614 L -132.025,-183.827 L -132.65,-184.121 L -133.233,-184.492 L -133.765,-184.932
 L -174.824,-225.991 L -175.297,-226.494 L -175.703,-227.053 L -176.035,-227.658 L -176.29,-228.3 L -176.461,-228.969
 L -176.548,-229.655 L -176.548,-230.345 L -176.461,-231.031 L -176.29,-231.7 L -176.035,-232.342 L -175.703,-232.947
 L -175.297,-233.506 L -174.824,-234.009 L -133.765,-275.068 L -133.233,-275.508 L -132.65,-275.879 L -132.025,-276.173
 L -131.368,-276.386 L -130.689,-276.515 L -130,-276.559 L -129.311,-276.515 L -128.632,-276.386 L -127.975,-276.173
 L -127.35,-275.879 L -126.767,-275.508 L -126.235,-275.068 L -125.762,-274.565 L -125.356,-274.006 L -125.023,-273.401
 L -124.769,-272.758 L -124.597,-272.089 L -124.511,-271.404 L -124.511,-188.596 L -124.597,-187.911 L -124.769,-187.242
 L -125.023,-186.599 L -125.356,-185.994 L -125.762,-185.435 L -126.235,-184.932 L -126.767,-184.492 L -127.35,-184.121
 L -127.975,-183.827 L -128.632,-183.614 L -129.311,-183.485 L -130,-183.441 z
M -280.689,-183.485 L -281.368,-183.614 L -282.025,-183.827 L -282.65,-184.121 L -283.233,-184.492 L -283.765,-184.932
 L -284.238,-185.435 L -284.644,-185.994 L -284.977,-186.599 L -285.231,-187.242 L -285.403,-187.911 L -285.489,-188.596
 L -285.489,-271.404 L -285.403,-272.089 L -285.231,-272.758 L -284.977,-273.401 L -284.644,-274.006 L -284.238,-274.565
 L -283.765,-275.068 L -283.233,-275.508 L -282.65,-275.879 L -282.025,-276.173 L -281.368,-276.386 L -280.689,-276.515
 L -280,-276.559 L -279.311,-276.515 L -278.632,-276.386 L -277.975,-276.173 L -277.35,-275.879 L -276.767,-275.508
 L -276.235,-275.068 L -235.176,-234.009 L -234.703,-233.506 L -234.297,-232.947 L -233.965,-232.342 L -233.71,-231.7
 L -233.539,-231.031 L -233.452,-230.345 L -233.452,-229.655 L -233.539,-228.969 L -233.71,-228.3 L -233.965,-227.658
 L -234.297,-227.053 L -234.703,-226.494 L -235.176,-225.991 L -276.235,-184.932 L -276.767,-184.492 L -277.35,-184.121
 L -277.975,-183.827 L -278.632,-183.614 L -279.311,-183.485 L -280,-183.441 z
M -294.844,-237.503 L -295.031,-237.527 L -295.214,-237.573 L -295.389,-237.643 L -295.554,-237.734 L -295.706,-237.844
 L -295.843,-237.973 L -295.964,-238.118 L -296.064,-238.277 L -296.145,-238.448 L -296.203,-238.627 L -296.238,-238.812
 L -296.25,-239 L -296.238,-239.188 L -296.203,-239.373 L -296.145,-239.552 L -296.064,-239.723 L -295.964,-239.882
 L -295.843,-240.027 L -295.706,-240.156 L -295.554,-240.266 L -295.389,-240.357 L -295.214,-240.427 L -295.031,-240.473
 L -294.844,-240.497 L -294.656,-240.497 L -294.469,-240.473 L -294.286,-240.427 L -294.111,-240.357 L -293.946,-240.266
 L -293.794,-240.156 L -293.657,-240.027 L -293.536,-239.882 L -293.436,-239.723 L -293.355,-239.552 L -293.297,-239.373
 L -293.262,-239.188 L -293.25,-239 L -293.262,-238.812 L -293.297,-238.627 L -293.355,-238.448 L -293.436,-238.277
 L -293.536,-238.118 L -293.657,-237.973 L -293.794,-237.844 L -293.946,-237.734 L -294.111,-237.643 L -294.286,-237.573
 L -294.469,-237.527 L -294.656,-237.503 z
M -205.094,-236.503 L -205.281,-236.527 L -205.464,-236.573 L -205.639,-236.643 L -205.804,-236.734 L -205.956,-236.844
 L -206.093,-236.973 L -206.214,-237.118 L -206.314,-237.277 L -206.395,-237.448 L -206.453,-237.627 L -206.488,-237.812
 L -206.5,-238 L -206.488,-238.188 L -206.453,-238.373 L -206.395,-238.552 L -206.314,-238.723 L -206.214,-238.882
 L -206.093,-239.027 L -205.956,-239.156 L -205.804,-239.266 L -205.639,-239.357 L -205.464,-239.427 L -205.281,-239.473
 L -205.094,-239.497 L -204.906,-239.497 L -204.719,-239.473 L -204.536,-239.427 L -204.361,-239.357 L -204.196,-239.266
 L -204.044,-239.156 L -203.907,-239.027 L -203.786,-238.882 L -203.686,-238.723 L -203.605,-238.552 L -203.547,-238.373
 L -203.512,-238.188 L -203.5,-238 L -203.512,-237.812 L -203.547,-237.627 L -203.605,-237.448 L -203.686,-237.277
 L -203.786,-237.118 L -203.907,-236.973 L -204.044,-236.844 L -204.196,-236.734 L -204.361,-236.643 L -204.536,-236.573
 L -204.719,-236.527 L -204.906,-236.503 z
M -294.844,-231.503 L -295.031,-231.527 L -295.214,-231.573 L -295.389,-231.643 L -295.554,-231.734 L -295.706,-231.844
 L -295.843,-231.973 L -295.964,-232.118 L -296.064,-232.277 L -296.145,-232.448 L -296.203,-232.627 L -296.238,-232.812
 L -296.25,-233 L -296.238,-233.188 L -296.203,-233.373 L -296.145,-233.552 L -296.064,-233.723 L -295.964,-233.882
 L -295.843,-234.027 L -295.706,-234.156 L -295.554,-234.266 L -295.389,-234.357 L -295.214,-234.427 L -295.031,-234.473
 L -294.844,-234.497 L -294.656,-234.497 L -294.469,-234.473 L -294.286,-234.427 L -294.111,-234.357 L -293.946,-234.266
 L -293.794,-234.156 L -293.657,-234.027 L -293.536,-233.882 L -293.436,-233.723 L -293.355,-233.552 L -293.297,-233.373
 L -293.262,-233.188 L -293.25,-233 L -293.262,-232.812 L -293.297,-232.627 L -293.355,-232.448 L -293.436,-232.277
 L -293.536,-232.118 L -293.657,-231.973 L -293.794,-231.844 L -293.946,-231.734 L -294.111,-231.643 L -294.286,-231.573
 L -294.469,-231.527 L -294.656,-231.503 z
M -100.594,-228.503 L -100.781,-228.527 L -100.964,-228.573 L -101.139,-228.643 L -101.304,-228.734 L -101.456,-228.844
 L -101.593,-228.973 L -101.714,-229.118 L -101.814,-229.277 L -101.895,-229.448 L -101.953,-229.627 L -101.988,-229.812
 L -102,-230 L -101.988,-230.188 L -101.953,-230.373 L -101.895,-230.552 L -101.814,-230.723 L -101.714,-230.882
 L -101.593,-231.027 L -101.456,-231.156 L -101.304,-231.266 L -101.139,-231.357 L -100.964,-231.427 L -100.781,-231.473
 L -100.594,-231.497 L -100.406,-231.497 L -100.219,-231.473 L -100.036,-231.427 L -99.8613,-231.357 L -99.6963,-231.266
 L -99.5439,-231.156 L -99.4066,-231.027 L -99.2865,-230.882 L -99.1855,-230.723 L -99.1053,-230.552 L -99.0471,-230.373
 L -99.0118,-230.188 L -99,-230 L -99.0118,-229.812 L -99.0471,-229.627 L -99.1053,-229.448 L -99.1855,-229.277
 L -99.2865,-229.118 L -99.4066,-228.973 L -99.5439,-228.844 L -99.6963,-228.734 L -99.8613,-228.643 L -100.036,-228.573
 L -100.219,-228.527 L -100.406,-228.503 z
M -294.844,-225.503 L -295.031,-225.527 L -295.214,-225.573 L -295.389,-225.643 L -295.554,-225.734 L -295.706,-225.844
 L -295.843,-225.973 L -295.964,-226.118 L -296.064,-226.277 L -296.145,-226.448 L -296.203,-226.627 L -296.238,-226.812
 L -296.25,-227 L -296.238,-227.188 L -296.203,-227.373 L -296.145,-227.552 L -296.064,-227.723 L -295.964,-227.882
 L -295.843,-228.027 L -295.706,-228.156 L -295.554,-228.266 L -295.389,-228.357 L -295.214,-228.427 L -295.031,-228.473
 L -294.844,-228.497 L -294.656,-228.497 L -294.469,-228.473 L -294.286,-228.427 L -294.111,-228.357 L -293.946,-228.266
 L -293.794,-228.156 L -293.657,-228.027 L -293.536,-227.882 L -293.436,-227.723 L -293.355,-227.552 L -293.297,-227.373
 L -293.262,-227.188 L -293.25,-227 L -293.262,-226.812 L -293.297,-226.627 L -293.355,-226.448 L -293.436,-226.277
 L -293.536,-226.118 L -293.657,-225.973 L -293.794,-225.844 L -293.946,-225.734 L -294.111,-225.643 L -294.286,-225.573
 L -294.469,-225.527 L -294.656,-225.503 z
M -205.094,-220.503 L -205.281,-220.527 L -205.464,-220.573 L -205.639,-220.643 L -205.804,-220.734 L -205.956,-220.844
 L -206.093,-220.973 L -206.214,-221.118 L -206.314,-221.277 L -206.395,-221.448 L -206.453,-221.627 L -206.488,-221.812
 L -206.5,-222 L -206.488,-222.188 L -206.453,-222.373 L -206.395,-222.552 L -206.314,-222.723 L -206.214,-222.882
 L -206.093,-223.027 L -205.956,-223.156 L -205.804,-223.266 L -205.639,-223.357 L -205.464,-223.427 L -205.281,-223.473
 L -205.094,-223.497 L -204.906,-223.497 L -204.719,-223.473 L -204.536,-223.427 L -204.361,-223.357 L -204.196,-223.266
 L -204.044,-223.156 L -203.907,-223.027 L -203.786,-222.882 L -203.686,-222.723 L -203.605,-222.552 L -203.547,-222.373
 L -203.512,-222.188 L -203.5,-222 L -203.512,-221.812 L -203.547,-221.627 L -203.605,-221.448 L -203.686,-221.277
 L -203.786,-221.118 L -203.907,-220.973 L -204.044,-220.844 L -204.196,-220.734 L -204.361,-220.643 L -204.536,-220.573
 L -204.719,-220.527 L -204.906,-220.503 z
M -294.844,-219.503 L -295.031,-219.527 L -295.214,-219.573 L -295.389,-219.643 L -295.554,-219.734 L -295.706,-219.844
 L -295.843,-219.973 L -295.964,-220.118 L -296.064,-220.277 L -296.145,-220.448 L -296.203,-220.627 L -296.238,-220.812
 L -296.25,-221 L -296.238,-221.188 L -296.203,-221.373 L -296.145,-221.552 L -296.064,-221.723 L -295.964,-221.882
 L -295.843,-222.027 L -295.706,-222.156 L -295.554,-222.266 L -295.389,-222.357 L -295.214,-222.427 L -295.031,-222.473
 L -294.844,-222.497 L -294.656,-222.497 L -294.469,-222.473 L -294.286,-222.427 L -294.111,-222.357 L -293.946,-222.266
 L -293.794,-222.156 L -293.657,-222.027 L -293.536,-221.882 L -293.436,-221.723 L -293.355,-221.552 L -293.297,-221.373
 L -293.262,-221.188 L -293.25,-221 L -293.262,-220.812 L -293.297,-220.627 L -293.355,-220.448 L -293.436,-220.277
 L -293.536,-220.118 L -293.657,-219.973 L -293.794,-219.844 L -293.946,-219.734 L -294.111,-219.643 L -294.286,-219.573
 L -294.469,-219.527 L -294.656,-219.503 z
M -246.404,-149.511 L -247.089,-149.597 L -247.758,-149.769 L -248.401,-150.023 L -249.006,-150.356 L -249.565,-150.762
 L -250.068,-151.235 L -250.508,-151.767 L -250.879,-152.35 L -251.173,-152.975 L -251.386,-153.632 L -251.515,-154.311
 L -251.559,-155 L -251.515,-155.689 L -251.386,-156.368 L -251.173,-157.025 L -250.879,-157.65 L -250.508,-158.233
 L -250.068,-158.765 L -209.009,-199.824 L -208.506,-200.297 L -207.947,-200.703 L -207.342,-201.035 L -206.7,-201.29
 L -206.031,-201.461 L -205.345,-201.548 L -204.655,-201.548 L -203.969,-201.461 L -203.3,-201.29 L -202.658,-201.035
 L -202.053,-200.703 L -201.494,-200.297 L -200.991,-199.824 L -159.932,-158.765 L -159.492,-158.233 L -159.121,-157.65
 L -158.827,-157.025 L -158.614,-156.368 L -158.485,-155.689 L -158.441,-155 L -158.485,-154.311 L -158.614,-153.632
 L -158.827,-152.975 L -159.121,-152.35 L -159.492,-151.767 L -159.932,-151.235 L -160.435,-150.762 L -160.994,-150.356
 L -161.599,-150.023 L -162.242,-149.769 L -162.911,-149.597 L -163.596,-149.511 z
M -273.594,-173.503 L -273.781,-173.527 L -273.964,-173.573 L -274.139,-173.643 L -274.304,-173.734 L -274.456,-173.844
 L -274.593,-173.973 L -274.714,-174.118 L -274.814,-174.277 L -274.895,-174.448 L -274.953,-174.627 L -274.988,-174.812
 L -275,-175 L -274.988,-175.188 L -274.953,-175.373 L -274.895,-175.552 L -274.814,-175.723 L -274.714,-175.882
 L -274.593,-176.027 L -274.456,-176.156 L -274.304,-176.266 L -274.139,-176.357 L -273.964,-176.427 L -273.781,-176.473
 L -273.594,-176.497 L -273.406,-176.497 L -273.219,-176.473 L -273.036,-176.427 L -272.861,-176.357 L -272.696,-176.266
 L -272.544,-176.156 L -272.407,-176.027 L -272.286,-175.882 L -272.186,-175.723 L -272.105,-175.552 L -272.047,-175.373
 L -272.012,-175.188 L -272,-175 L -272.012,-174.812 L -272.047,-174.627 L -272.105,-174.448 L -272.186,-174.277
 L -272.286,-174.118 L -272.407,-173.973 L -272.544,-173.844 L -272.696,-173.734 L -272.861,-173.643 L -273.036,-173.573
 L -273.219,-173.527 L -273.406,-173.503 z
M -136.594,-173.503 L -136.781,-173.527 L -136.964,-173.573 L -137.139,-173.643 L -137.304,-173.734 L -137.456,-173.844
 L -137.593,-173.973 L -137.714,-174.118 L -137.814,-174.277 L -137.895,-174.448 L -137.953,-174.627 L -137.988,-174.812
 L -138,-175 L -137.988,-175.188 L -137.953,-175.373 L -137.895,-175.552 L -137.814,-175.723 L -137.714,-175.882
 L -137.593,-176.027 L -137.456,-176.156 L -137.304,-176.266 L -137.139,-176.357 L -136.964,-176.427 L -136.781,-176.473
 L -136.594,-176.497 L -136.406,-176.497 L -136.219,-176.473 L -136.036,-176.427 L -135.861,-176.357 L -135.696,-176.266
 L -135.544,-176.156 L -135.407,-176.027 L -135.286,-175.882 L -135.186,-175.723 L -135.105,-175.552 L -135.047,-175.373
 L -135.012,-175.188 L -135,-175 L -135.012,-174.812 L -135.047,-174.627 L -135.105,-174.448 L -135.186,-174.277
 L -135.286,-174.118 L -135.407,-173.973 L -135.544,-173.844 L -135.696,-173.734 L -135.861,-173.643 L -136.036,-173.573
 L -136.219,-173.527 L -136.406,-173.503 z
M -160.594,-173.503 L -160.781,-173.527 L -160.964,-173.573 L -161.139,-173.643 L -161.304,-173.734 L -161.456,-173.844
 L -161.593,-173.973 L -161.714,-174.118 L -161.814,-174.277 L -161.895,-174.448 L -161.953,-174.627 L -161.988,-174.812
 L -162,-175 L -161.988,-175.188 L -161.953,-175.373 L -161.895,-175.552 L -161.814,-175.723 L -161.714,-175.882
 L -161.593,-176.027 L -161.456,-176.156 L -161.304,-176.266 L -161.139,-176.357 L -160.964,-176.427 L -160.781,-176.473
 L -160.594,-176.497 L -160.406,-176.497 L -160.219,-176.473 L -160.036,-176.427 L -159.861,-176.357 L -159.696,-176.266
 L -159.544,-176.156 L -159.407,-176.027 L -159.286,-175.882 L -159.186,-175.723 L -159.105,-175.552 L -159.047,-175.373
 L -159.012,-175.188 L -159,-175 L -159.012,-174.812 L -159.047,-174.627 L -159.105,-174.448 L -159.186,-174.277
 L -159.286,-174.118 L -159.407,-173.973 L -159.544,-173.844 L -159.696,-173.734 L -159.861,-173.643 L -160.036,-173.573
 L -160.219,-173.527 L -160.406,-173.503 z
M -249.594,-173.503 L -249.781,-173.527 L -249.964,-173.573 L -250.139,-173.643 L -250.304,-173.734 L -250.456,-173.844
 L -250.593,-173.973 L -250.714,-174.118 L -250.814,-174.277 L -250.895,-174.448 L -250.953,-174.627 L -250.988,-174.812
 L -251,-175 L -250.988,-175.188 L -250.953,-175.373 L -250.895,-175.552 L -250.814,-175.723 L -250.714,-175.882
 L -250.593,-176.027 L -250.456,-176.156 L -250.304,-176.266 L -250.139,-176.357 L -249.964,-176.427 L -249.781,-176.473
 L -249.594,-176.497 L -249.406,-176.497 L -249.219,-176.473 L -249.036,-176.427 L -248.861,-176.357 L -248.696,-176.266
 L -248.544,-176.156 L -248.407,-176.027 L -248.286,-175.882 L -248.186,-175.723 L -248.105,-175.552 L -248.047,-175.373
 L -248.012,-175.188 L -248,-175 L -248.012,-174.812 L -248.047,-174.627 L -248.105,-174.448 L -248.186,-174.277
 L -248.286,-174.118 L -248.407,-173.973 L -248.544,-173.844 L -248.696,-173.734 L -248.861,-173.643 L -249.036,-173.573
 L -249.219,-173.527 L -249.406,-173.503 z
M -309.594,-124.003 L -309.781,-124.027 L -309.964,-124.073 L -310.139,-124.143 L -310.304,-124.234 L -310.456,-124.344
 L -310.593,-124.473 L -310.714,-124.618 L -310.814,-124.777 L -310.895,-124.948 L -310.953,-125.127 L -310.988,-125.312
 L -311,-125.5 L -310.988,-125.688 L -310.953,-125.873 L -310.895,-126.052 L -310.814,-126.223 L -310.714,-126.382
 L -310.593,-126.527 L -310.456,-126.656 L -310.304,-126.766 L -310.139,-126.857 L -309.964,-126.927 L -309.781,-126.973
 L -309.594,-126.997 L -309.406,-126.997 L -309.219,-126.973 L -309.036,-126.927 L -308.861,-126.857 L -308.696,-126.766
 L -308.544,-126.656 L -308.407,-126.527 L -308.286,-126.382 L -308.186,-126.223 L -308.105,-126.052 L -308.047,-125.873
 L -308.012,-125.688 L -308,-125.5 L -308.012,-125.312 L -308.047,-125.127 L -308.105,-124.948 L -308.186,-124.777
 L -308.286,-124.618 L -308.407,-124.473 L -308.544,-124.344 L -308.696,-124.234 L -308.861,-124.143 L -309.036,-124.073
 L -309.219,-124.027 L -309.406,-124.003 z
M -100.594,-124.003 L -100.781,-124.027 L -100.964,-124.073 L -101.139,-124.143 L -101.304,-124.234 L -101.456,-124.344
 L -101.593,-124.473 L -101.714,-124.618 L -101.814,-124.777 L -101.895,-124.948 L -101.953,-125.127 L -101.988,-125.312
 L -102,-125.5 L -101.988,-125.688 L -101.953,-125.873 L -101.895,-126.052 L -101.814,-126.223 L -101.714,-126.382
 L -101.593,-126.527 L -101.456,-126.656 L -101.304,-126.766 L -101.139,-126.857 L -100.964,-126.927 L -100.781,-126.973
 L -100.594,-126.997 L -100.406,-126.997 L -100.219,-126.973 L -100.036,-126.927 L -99.8613,-126.857 L -99.6963,-126.766
 L -99.5439,-126.656 L -99.4066,-126.527 L -99.2865,-126.382 L -99.1855,-126.223 L -99.1053,-126.052 L -99.0471,-125.873
 L -99.0118,-125.688 L -99,-125.5 L -99.0118,-125.312 L -99.0471,-125.127 L -99.1053,-124.948 L -99.1855,-124.777
 L -99.2865,-124.618 L -99.4066,-124.473 L -99.5439,-124.344 L -99.6963,-124.234 L -99.8613,-124.143 L -100.036,-124.073
 L -100.219,-124.027 L -100.406,-124.003 z
M -205.094,-124.003 L -205.281,-124.027 L -205.464,-124.073 L -205.639,-124.143 L -205.804,-124.234 L -205.956,-124.344
 L -206.093,-124.473 L -206.214,-124.618 L -206.314,-124.777 L -206.395,-124.948 L -206.453,-125.127 L -206.488,-125.312
 L -206.5,-125.5 L -206.488,-125.688 L -206.453,-125.873 L -206.395,-126.052 L -206.314,-126.223 L -206.214,-126.382
 L -206.093,-126.527 L -205.956,-126.656 L -205.804,-126.766 L -205.639,-126.857 L -205.464,-126.927 L -205.281,-126.973
 L -205.094,-126.997 L -204.906,-126.997 L -204.719,-126.973 L -204.536,-126.927 L -204.361,-126.857 L -204.196,-126.766
 L -204.044,-126.656 L -203.907,-126.527 L -203.786,-126.382 L -203.686,-126.223 L -203.605,-126.052 L -203.547,-125.873
 L -203.512,-125.688 L -203.5,-125.5 L -203.512,-125.312 L -203.547,-125.127 L -203.605,-124.948 L -203.686,-124.777
 L -203.786,-124.618 L -203.907,-124.473 L -204.044,-124.344 L -204.196,-124.234 L -204.361,-124.143 L -204.536,-124.073
 L -204.719,-124.027 L -204.906,-124.003 z
M -269.594,-418.503 L -269.781,-418.527 L -269.964,-418.573 L -270.139,-418.643 L -270.304,-418.734 L -270.456,-418.844
 L -270.593,-418.973 L -270.714,-419.118 L -270.814,-419.277 L -270.895,-419.448 L -270.953,-419.627 L -270.988,-419.812
 L -271,-420 L -270.988,-420.188 L -270.953,-420.373 L -270.895,-420.552 L -270.814,-420.723 L -270.714,-420.882
 L -270.593,-421.027 L -270.456,-421.156 L -270.304,-421.266 L -270.139,-421.357 L -269.964,-421.427 L -269.781,-421.473
 L -269.594,-421.497 L -269.406,-421.497 L -269.219,-421.473 L -269.036,-421.427 L -268.861,-421.357 L -268.696,-421.266
 L -268.544,-421.156 L -268.407,-421.027 L -268.286,-420.882 L -268.186,-420.723 L -268.105,-420.552 L -268.047,-420.373
 L -268.012,-420.188 L -268,-420 L -268.012,-419.812 L -268.047,-419.627 L -268.105,-419.448 L -268.186,-419.277
 L -268.286,-419.118 L -268.407,-418.973 L -268.544,-418.844 L -268.696,-418.734 L -268.861,-418.643 L -269.036,-418.573
 L -269.219,-418.527 L -269.406,-418.503 z
M -253.594,-418.503 L -253.781,-418.527 L -253.964,-418.573 L -254.139,-418.643 L -254.304,-418.734 L -254.456,-418.844
 L -254.593,-418.973 L -254.714,-419.118 L -254.814,-419.277 L -254.895,-419.448 L -254.953,-419.627 L -254.988,-419.812
 L -255,-420 L -254.988,-420.188 L -254.953,-420.373 L -254.895,-420.552 L -254.814,-420.723 L -254.714,-420.882
 L -254.593,-421.027 L -254.456,-421.156 L -254.304,-421.266 L -254.139,-421.357 L -253.964,-421.427 L -253.781,-421.473
 L -253.594,-421.497 L -253.406,-421.497 L -253.219,-421.473 L -253.036,-421.427 L -252.861,-421.357 L -252.696,-421.266
 L -252.544,-421.156 L -252.407,-421.027 L -252.286,-420.882 L -252.186,-420.723 L -252.105,-420.552 L -252.047,-420.373
 L -252.012,-420.188 L -252,-420 L -252.012,-419.812 L -252.047,-419.627 L -252.105,-419.448 L -252.186,-419.277
 L -252.286,-419.118 L -252.407,-418.973 L -252.544,-418.844 L -252.696,-418.734 L -252.861,-418.643 L -253.036,-418.573
 L -253.219,-418.527 L -253.406,-418.503 z
M -156.594,-418.503 L -156.781,-418.527 L -156.964,-418.573 L -157.139,-418.643 L -157.304,-418.734 L -157.456,-418.844
 L -157.593,-418.973 L -157.714,-419.118 L -157.814,-419.277 L -157.895,-419.448 L -157.953,-419.627 L -157.988,-419.812
 L -158,-420 L -157.988,-420.188 L -157.953,-420.373 L -157.895,-420.552 L -157.814,-420.723 L -157.714,-420.882
 L -157.593,-421.027 L -157.456,-421.156 L -157.304,-421.266 L -157.139,-421.357 L -156.964,-421.427 L -156.781,-421.473
 L -156.594,-421.497 L -156.406,-421.497 L -156.219,-421.473 L -156.036,-421.427 L -155.861,-421.357 L -155.696,-421.266
 L -155.544,-421.156 L -155.407,-421.027 L -155.286,-420.882 L -155.186,-420.723 L -155.105,-420.552 L -155.047,-420.373
 L -155.012,-420.188 L -155,-420 L -155.012,-419.812 L -155.047,-419.627 L -155.105,-419.448 L -155.186,-419.277
 L -155.286,-419.118 L -155.407,-418.973 L -155.544,-418.844 L -155.696,-418.734 L -155.861,-418.643 L -156.036,-418.573
 L -156.219,-418.527 L -156.406,-418.503 z
M -140.594,-418.503 L -140.781,-418.527 L -140.964,-418.573 L -141.139,-418.643 L -141.304,-418.734 L -141.456,-418.844
 L -141.593,-418.973 L -141.714,-419.118 L -141.814,-419.277 L -141.895,-419.448 L -141.953,-419.627 L -141.988,-419.812
 L -142,-420 L -141.988,-420.188 L -141.953,-420.373 L -141.895,-420.552 L -141.814,-420.723 L -141.714,-420.882
 L -141.593,-421.027 L -141.456,-421.156 L -141.304,-421.266 L -141.139,-421.357 L -140.964,-421.427 L -140.781,-421.473
 L -140.594,-421.497 L -140.406,-421.497 L -140.219,-421.473 L -140.036,-421.427 L -139.861,-421.357 L -139.696,-421.266
 L -139.544,-421.156 L -139.407,-421.027 L -139.286,-420.882 L -139.186,-420.723 L -139.105,-420.552 L -139.047,-420.373
 L -139.012,-420.188 L -139,-420 L -139.012,-419.812 L -139.047,-419.627 L -139.105,-419.448 L -139.186,-419.277
 L -139.286,-419.118 L -139.407,-418.973 L -139.544,-418.844 L -139.696,-418.734 L -139.861,-418.643 L -140.036,-418.573
 L -140.219,-418.527 L -140.406,-418.503 z
M -189.594,-412.003 L -189.678,-412.011 L -189.781,-412.027 L -189.812,-412.033 L -189.939,-412.066 L -190.067,-412.111
 L -190.139,-412.143 L -190.19,-412.168 L -190.304,-412.234 L -190.415,-412.312 L -190.456,-412.344 L -190.519,-412.399
 L -190.593,-412.473 L -190.615,-412.496 L -190.698,-412.597 L -190.775,-412.71 L -190.8,-412.754 L -190.814,-412.777
 L -190.841,-412.828 L -190.895,-412.948 L -190.939,-413.076 L -190.953,-413.127 L -190.971,-413.209 L -190.988,-413.312
 L -190.992,-413.343 L -191,-413.474 L -190.996,-413.61 L -190.99,-413.661 L -190.988,-413.688 L -190.98,-413.745
 L -190.953,-413.873 L -190.913,-414.003 L -190.895,-414.052 L -190.862,-414.129 L -190.814,-414.223 L -190.799,-414.25
 L -190.729,-414.36 L -190.646,-414.468 L -190.593,-414.527 L -190.553,-414.568 L -190.456,-414.656 L -190.347,-414.738
 L -190.304,-414.766 L -190.232,-414.809 L -190.139,-414.857 L -190.11,-414.87 L -189.988,-414.918 L -189.858,-414.957
 L -189.781,-414.973 L -189.724,-414.983 L -189.594,-414.997 L -189.458,-414.999 L -189.406,-414.997 L -189.322,-414.989
 L -189.219,-414.973 L -189.188,-414.967 L -189.061,-414.934 L -188.933,-414.889 L -188.861,-414.857 L -188.81,-414.832
 L -188.696,-414.766 L -188.585,-414.688 L -188.544,-414.656 L -188.481,-414.601 L -188.407,-414.527 L -188.385,-414.504
 L -188.302,-414.403 L -188.225,-414.29 L -188.186,-414.223 L -188.159,-414.172 L -188.105,-414.052 L -188.061,-413.924
 L -188.047,-413.873 L -188.029,-413.791 L -188.012,-413.688 L -188.008,-413.657 L -188,-413.526 L -188.004,-413.39
 L -188.012,-413.312 L -188.02,-413.255 L -188.047,-413.127 L -188.087,-412.997 L -188.105,-412.948 L -188.138,-412.871
 L -188.186,-412.777 L -188.201,-412.75 L -188.271,-412.64 L -188.354,-412.532 L -188.407,-412.473 L -188.447,-412.432
 L -188.544,-412.344 L -188.653,-412.262 L -188.696,-412.234 L -188.768,-412.191 L -188.861,-412.143 L -188.89,-412.13
 L -189.012,-412.082 L -189.142,-412.043 L -189.192,-412.033 L -189.219,-412.027 L -189.276,-412.017 L -189.406,-412.003
 L -189.542,-412.001 z
M -220.459,-407.708 L -220.642,-407.753 L -220.818,-407.82 L -220.984,-407.908 L -221.138,-408.017 L -221.277,-408.144
 L -221.399,-408.287 L -221.503,-408.445 L -221.585,-408.614 L -221.646,-408.792 L -221.684,-408.977 L -221.698,-409.165
 L -221.693,-409.262 L -221.723,-409.354 L -221.758,-409.539 L -221.769,-409.727 L -221.762,-409.824 L -221.791,-409.917
 L -221.822,-410.103 L -221.83,-410.291 L -221.822,-410.388 L -221.848,-410.481 L -221.876,-410.667 L -221.881,-410.856
 L -221.871,-410.952 L -221.896,-411.046 L -221.921,-411.233 L -221.922,-411.421 L -221.911,-411.518 L -221.934,-411.612
 L -221.955,-411.799 L -221.953,-411.987 L -221.94,-412.084 L -221.962,-412.178 L -221.98,-412.366 L -221.975,-412.554
 L -221.96,-412.65 L -221.98,-412.745 L -221.995,-412.933 L -221.986,-413.121 L -221.97,-413.217 L -221.988,-413.312
 L -222,-413.5 L -221.988,-413.688 L -221.953,-413.873 L -221.895,-414.052 L -221.814,-414.223 L -221.714,-414.382
 L -221.593,-414.527 L -221.456,-414.656 L -221.304,-414.766 L -221.139,-414.857 L -220.964,-414.927 L -220.781,-414.973
 L -220.594,-414.997 L -220.406,-414.997 L -220.219,-414.973 L -220.036,-414.927 L -219.861,-414.857 L -219.696,-414.766
 L -219.544,-414.656 L -219.407,-414.527 L -219.286,-414.382 L -219.186,-414.223 L -219.105,-414.052 L -219.047,-413.873
 L -219.012,-413.688 L -219,-413.5 L -219.012,-413.312 L -219.025,-413.242 L -219.011,-413.173 L -218.995,-412.985
 L -219.004,-412.797 L -219.016,-412.727 L -219,-412.658 L -218.982,-412.47 L -218.987,-412.282 L -218.998,-412.212
 L -218.981,-412.143 L -218.96,-411.956 L -218.962,-411.768 L -218.971,-411.697 L -218.953,-411.629 L -218.928,-411.442
 L -218.927,-411.254 L -218.935,-411.183 L -218.916,-411.115 L -218.888,-410.929 L -218.883,-410.741 L -218.89,-410.67
 L -218.87,-410.602 L -218.838,-410.416 L -218.831,-410.228 L -218.836,-410.158 L -218.815,-410.09 L -218.78,-409.905
 L -218.769,-409.717 L -218.774,-409.646 L -218.751,-409.579 L -218.713,-409.394 L -218.698,-409.207 L -218.708,-409.018
 L -218.74,-408.833 L -218.796,-408.653 L -218.874,-408.481 L -218.973,-408.321 L -219.091,-408.174 L -219.226,-408.043
 L -219.377,-407.93 L -219.541,-407.837 L -219.715,-407.766 L -219.897,-407.716 L -220.083,-407.69 L -220.272,-407.687
 z
M -204.776,-384.176 L -206.24,-384.53 L -207.649,-385.065 L -208.98,-385.773 L -210.211,-386.642 L -210.348,-386.766
 L -210.677,-387.007 L -210.811,-387.134 L -211.136,-387.381 L -211.268,-387.51 L -211.588,-387.762 L -211.719,-387.894
 L -212.034,-388.152 L -212.162,-388.286 L -212.473,-388.549 L -212.599,-388.685 L -212.905,-388.954 L -213.028,-389.092
 L -213.33,-389.366 L -213.45,-389.506 L -213.748,-389.785 L -214.708,-390.947 L -215.516,-392.219 L -216.157,-393.583
 L -216.623,-395.016 L -216.905,-396.496 L -217,-398 L -216.905,-399.504 L -216.623,-400.984 L -216.157,-402.417
 L -215.516,-403.781 L -214.708,-405.053 L -213.748,-406.215 L -212.649,-407.246 L -211.43,-408.132 L -210.109,-408.858
 L -208.708,-409.413 L -207.249,-409.787 L -205.753,-409.976 L -204.247,-409.976 L -202.751,-409.787 L -201.292,-409.413
 L -199.891,-408.858 L -198.57,-408.132 L -197.351,-407.246 L -196.252,-406.215 L -196.124,-406.098 L -195.994,-405.983
 L -195.862,-405.871 L -195.728,-405.761 L -195.592,-405.654 L -195.454,-405.549 L -195.314,-405.446 L -195.173,-405.346
 L -194.06,-404.33 L -193.083,-403.182 L -192.258,-401.921 L -191.597,-400.567 L -191.112,-399.14 L -190.809,-397.664
 L -190.693,-396.161 L -190.767,-394.656 L -191.028,-393.172 L -191.474,-391.732 L -192.097,-390.36 L -192.886,-389.076
 L -193.83,-387.902 L -194.915,-386.855 L -196.121,-385.953 L -197.432,-385.208 L -198.825,-384.634 L -200.279,-384.239
 L -201.771,-384.029 L -203.278,-384.008 z
M -40.1256,-405.004 L -40.3748,-405.035 L -40.618,-405.098 L -40.8516,-405.19 L -41.0717,-405.311 L -41.2749,-405.459
 L -41.4579,-405.631 L -41.618,-405.824 L -41.7526,-406.036 L -41.8596,-406.264 L -41.9372,-406.503 L -41.9842,-406.749
 L -42,-407 L -41.9842,-407.251 L -41.9372,-407.497 L -41.8596,-407.736 L -41.7526,-407.964 L -41.618,-408.176
 L -41.4579,-408.369 L -41.2749,-408.541 L -41.0717,-408.689 L -40.8516,-408.81 L -40.618,-408.902 L -40.3748,-408.965
 L -40.1256,-408.996 L -39.8744,-408.996 L -39.6252,-408.965 L -39.382,-408.902 L -39.1485,-408.81 L -38.9284,-408.689
 L -38.7252,-408.541 L -38.5421,-408.369 L -38.382,-408.176 L -38.2474,-407.964 L -38.1405,-407.736 L -38.0628,-407.497
 L -38.0158,-407.251 L -38,-407 L -38.0158,-406.749 L -38.0628,-406.503 L -38.1405,-406.264 L -38.2474,-406.036
 L -38.382,-405.824 L -38.5421,-405.631 L -38.7252,-405.459 L -38.9284,-405.311 L -39.1485,-405.19 L -39.382,-405.098
 L -39.6252,-405.035 L -39.8744,-405.004 z
M -370.126,-405.004 L -370.375,-405.035 L -370.618,-405.098 L -370.852,-405.19 L -371.072,-405.311 L -371.275,-405.459
 L -371.458,-405.631 L -371.618,-405.824 L -371.753,-406.036 L -371.86,-406.264 L -371.937,-406.503 L -371.984,-406.749
 L -372,-407 L -371.984,-407.251 L -371.937,-407.497 L -371.86,-407.736 L -371.753,-407.964 L -371.618,-408.176
 L -371.458,-408.369 L -371.275,-408.541 L -371.072,-408.689 L -370.852,-408.81 L -370.618,-408.902 L -370.375,-408.965
 L -370.126,-408.996 L -369.874,-408.996 L -369.625,-408.965 L -369.382,-408.902 L -369.148,-408.81 L -368.928,-408.689
 L -368.725,-408.541 L -368.542,-408.369 L -368.382,-408.176 L -368.247,-407.964 L -368.14,-407.736 L -368.063,-407.497
 L -368.016,-407.251 L -368,-407 L -368.016,-406.749 L -368.063,-406.503 L -368.14,-406.264 L -368.247,-406.036
 L -368.382,-405.824 L -368.542,-405.631 L -368.725,-405.459 L -368.928,-405.311 L -369.148,-405.19 L -369.382,-405.098
 L -369.625,-405.035 L -369.874,-405.004 z
M -48,-367 L -48,-387 L -32,-387 L -32,-367 z
M -378,-367 L -378,-387 L -362,-387 L -362,-367 z
M -189.594,-381.003 L -189.781,-381.027 L -189.964,-381.073 L -190.139,-381.143 L -190.304,-381.234 L -190.456,-381.344
 L -190.593,-381.473 L -190.714,-381.618 L -190.814,-381.777 L -190.895,-381.948 L -190.953,-382.127 L -190.988,-382.312
 L -191,-382.5 L -190.988,-382.688 L -190.953,-382.873 L -190.895,-383.052 L -190.814,-383.223 L -190.714,-383.382
 L -190.593,-383.527 L -190.456,-383.656 L -190.304,-383.766 L -190.139,-383.857 L -189.964,-383.927 L -189.781,-383.973
 L -189.594,-383.997 L -189.406,-383.997 L -189.242,-383.976 L -189.079,-384 L -188.891,-384.003 L -188.727,-383.985
 L -188.564,-384.012 L -188.376,-384.018 L -188.212,-384.003 L -188.05,-384.033 L -187.862,-384.042 L -187.698,-384.03
 L -187.536,-384.062 L -187.348,-384.076 L -187.184,-384.066 L -187.022,-384.101 L -186.835,-384.118 L -186.67,-384.111
 L -186.51,-384.149 L -186.322,-384.169 L -186.158,-384.165 L -185.998,-384.205 L -185.811,-384.228 L -185.646,-384.228
 L -185.487,-384.271 L -185.301,-384.297 L -185.112,-384.3 L -184.925,-384.279 L -184.742,-384.235 L -184.566,-384.168
 L -184.4,-384.079 L -184.246,-383.971 L -184.107,-383.844 L -183.985,-383.7 L -183.881,-383.543 L -183.799,-383.373
 L -183.738,-383.195 L -183.7,-383.01 L -183.686,-382.823 L -183.695,-382.634 L -183.728,-382.449 L -183.783,-382.269
 L -183.861,-382.098 L -183.96,-381.937 L -184.078,-381.79 L -184.213,-381.659 L -184.364,-381.547 L -184.528,-381.454
 L -184.702,-381.382 L -184.884,-381.332 L -185.071,-381.306 L -185.259,-381.303 L -185.446,-381.257 L -185.633,-381.234
 L -185.821,-381.234 L -186.009,-381.191 L -186.197,-381.171 L -186.385,-381.175 L -186.574,-381.135 L -186.762,-381.118
 L -186.95,-381.126 L -187.139,-381.089 L -187.327,-381.076 L -187.515,-381.086 L -187.705,-381.052 L -187.893,-381.043
 L -188.081,-381.056 L -188.272,-381.026 L -188.46,-381.019 L -188.648,-381.037 L -188.839,-381.01 L -189.027,-381.006
 L -189.214,-381.027 L -189.406,-381.003 z
M -216.144,-377.01 L -216.327,-377.054 L -216.504,-377.121 L -216.67,-377.21 L -216.824,-377.318 L -216.963,-377.445
 L -217.072,-377.573 L -217.134,-377.598 L -217.299,-377.689 L -217.451,-377.801 L -217.588,-377.93 L -217.694,-378.06
 L -217.757,-378.086 L -217.92,-378.18 L -218.07,-378.294 L -218.204,-378.426 L -218.309,-378.557 L -218.37,-378.584
 L -218.532,-378.681 L -218.68,-378.798 L -218.812,-378.932 L -218.914,-379.065 L -218.975,-379.094 L -219.135,-379.193
 L -219.281,-379.312 L -219.411,-379.449 L -219.511,-379.584 L -219.571,-379.613 L -219.729,-379.716 L -219.873,-379.837
 L -220.001,-379.976 L -220.098,-380.113 L -220.158,-380.143 L -220.314,-380.249 L -220.456,-380.373 L -220.581,-380.514
 L -220.676,-380.652 L -220.736,-380.683 L -220.89,-380.791 L -221.03,-380.918 L -221.152,-381.061 L -221.244,-381.201
 L -221.304,-381.234 L -221.456,-381.344 L -221.593,-381.473 L -221.714,-381.618 L -221.814,-381.777 L -221.895,-381.948
 L -221.953,-382.127 L -221.988,-382.312 L -222,-382.5 L -221.988,-382.688 L -221.953,-382.873 L -221.895,-383.052
 L -221.814,-383.223 L -221.714,-383.382 L -221.593,-383.527 L -221.456,-383.656 L -221.304,-383.766 L -221.139,-383.857
 L -220.964,-383.927 L -220.781,-383.973 L -220.594,-383.997 L -220.406,-383.997 L -220.219,-383.973 L -220.036,-383.927
 L -219.861,-383.857 L -219.696,-383.766 L -219.544,-383.656 L -219.407,-383.527 L -219.286,-383.382 L -219.212,-383.265
 L -219.173,-383.244 L -219.018,-383.136 L -218.879,-383.009 L -218.756,-382.866 L -218.68,-382.751 L -218.64,-382.731
 L -218.484,-382.625 L -218.342,-382.501 L -218.217,-382.361 L -218.139,-382.246 L -218.099,-382.227 L -217.941,-382.124
 L -217.797,-382.003 L -217.669,-381.864 L -217.589,-381.751 L -217.549,-381.733 L -217.389,-381.633 L -217.243,-381.514
 L -217.113,-381.377 L -217.031,-381.266 L -216.99,-381.248 L -216.828,-381.151 L -216.68,-381.034 L -216.548,-380.9
 L -216.464,-380.79 L -216.423,-380.773 L -216.26,-380.679 L -216.11,-380.565 L -215.975,-380.433 L -215.889,-380.325
 L -215.848,-380.308 L -215.683,-380.217 L -215.531,-380.106 L -215.394,-379.976 L -215.306,-379.869 L -215.264,-379.853
 L -215.098,-379.765 L -214.944,-379.656 L -214.805,-379.529 L -214.683,-379.386 L -214.58,-379.228 L -214.497,-379.059
 L -214.436,-378.881 L -214.399,-378.696 L -214.384,-378.508 L -214.393,-378.32 L -214.426,-378.135 L -214.482,-377.955
 L -214.56,-377.783 L -214.658,-377.623 L -214.776,-377.476 L -214.912,-377.345 L -215.063,-377.232 L -215.226,-377.139
 L -215.401,-377.067 L -215.582,-377.018 L -215.769,-376.992 L -215.957,-376.989 z
M -301.594,-358.303 L -301.781,-358.327 L -301.964,-358.373 L -302.139,-358.443 L -302.304,-358.534 L -302.456,-358.644
 L -302.593,-358.773 L -302.714,-358.918 L -302.814,-359.077 L -302.895,-359.248 L -302.953,-359.427 L -302.988,-359.612
 L -303,-359.8 L -302.988,-359.988 L -302.953,-360.173 L -302.895,-360.352 L -302.814,-360.523 L -302.714,-360.682
 L -302.593,-360.827 L -302.456,-360.956 L -302.304,-361.066 L -302.139,-361.157 L -301.964,-361.227 L -301.781,-361.273
 L -301.594,-361.297 L -301.406,-361.297 L -301.219,-361.273 L -301.036,-361.227 L -300.861,-361.157 L -300.696,-361.066
 L -300.544,-360.956 L -300.407,-360.827 L -300.286,-360.682 L -300.186,-360.523 L -300.105,-360.352 L -300.047,-360.173
 L -300.012,-359.988 L -300,-359.8 L -300.012,-359.612 L -300.047,-359.427 L -300.105,-359.248 L -300.186,-359.077
 L -300.286,-358.918 L -300.407,-358.773 L -300.544,-358.644 L -300.696,-358.534 L -300.861,-358.443 L -301.036,-358.373
 L -301.219,-358.327 L -301.406,-358.303 z
M -311.094,-358.303 L -311.281,-358.327 L -311.464,-358.373 L -311.639,-358.443 L -311.804,-358.534 L -311.956,-358.644
 L -312.093,-358.773 L -312.214,-358.918 L -312.314,-359.077 L -312.395,-359.248 L -312.453,-359.427 L -312.488,-359.612
 L -312.5,-359.8 L -312.488,-359.988 L -312.453,-360.173 L -312.395,-360.352 L -312.314,-360.523 L -312.214,-360.682
 L -312.093,-360.827 L -311.956,-360.956 L -311.804,-361.066 L -311.639,-361.157 L -311.464,-361.227 L -311.281,-361.273
 L -311.094,-361.297 L -310.906,-361.297 L -310.719,-361.273 L -310.536,-361.227 L -310.361,-361.157 L -310.196,-361.066
 L -310.044,-360.956 L -309.907,-360.827 L -309.786,-360.682 L -309.686,-360.523 L -309.605,-360.352 L -309.547,-360.173
 L -309.512,-359.988 L -309.5,-359.8 L -309.512,-359.612 L -309.547,-359.427 L -309.605,-359.248 L -309.686,-359.077
 L -309.786,-358.918 L -309.907,-358.773 L -310.044,-358.644 L -310.196,-358.534 L -310.361,-358.443 L -310.536,-358.373
 L -310.719,-358.327 L -310.906,-358.303 z
M -40.1256,-345.004 L -40.3748,-345.035 L -40.618,-345.098 L -40.8516,-345.19 L -41.0717,-345.311 L -41.2749,-345.459
 L -41.4579,-345.631 L -41.618,-345.824 L -41.7526,-346.036 L -41.8596,-346.264 L -41.9372,-346.503 L -41.9842,-346.749
 L -42,-347 L -41.9842,-347.251 L -41.9372,-347.497 L -41.8596,-347.736 L -41.7526,-347.964 L -41.618,-348.176
 L -41.4579,-348.369 L -41.2749,-348.541 L -41.0717,-348.689 L -40.8516,-348.81 L -40.618,-348.902 L -40.3748,-348.965
 L -40.1256,-348.996 L -39.8744,-348.996 L -39.6252,-348.965 L -39.382,-348.902 L -39.1485,-348.81 L -38.9284,-348.689
 L -38.7252,-348.541 L -38.5421,-348.369 L -38.382,-348.176 L -38.2474,-347.964 L -38.1405,-347.736 L -38.0628,-347.497
 L -38.0158,-347.251 L -38,-347 L -38.0158,-346.749 L -38.0628,-346.503 L -38.1405,-346.264 L -38.2474,-346.036
 L -38.382,-345.824 L -38.5421,-345.631 L -38.7252,-345.459 L -38.9284,-345.311 L -39.1485,-345.19 L -39.382,-345.098
 L -39.6252,-345.035 L -39.8744,-345.004 z
M -370.126,-345.004 L -370.375,-345.035 L -370.618,-345.098 L -370.852,-345.19 L -371.072,-345.311 L -371.275,-345.459
 L -371.458,-345.631 L -371.618,-345.824 L -371.753,-346.036 L -371.86,-346.264 L -371.937,-346.503 L -371.984,-346.749
 L -372,-347 L -371.984,-347.251 L -371.937,-347.497 L -371.86,-347.736 L -371.753,-347.964 L -371.618,-348.176
 L -371.458,-348.369 L -371.275,-348.541 L -371.072,-348.689 L -370.852,-348.81 L -370.618,-348.902 L -370.375,-348.965
 L -370.126,-348.996 L -369.874,-348.996 L -369.625,-348.965 L -369.382,-348.902 L -369.148,-348.81 L -368.928,-348.689
 L -368.725,-348.541 L -368.542,-348.369 L -368.382,-348.176 L -368.247,-347.964 L -368.14,-347.736 L -368.063,-347.497
 L -368.016,-347.251 L -368,-347 L -368.016,-346.749 L -368.063,-346.503 L -368.14,-346.264 L -368.247,-346.036
 L -368.382,-345.824 L -368.542,-345.631 L -368.725,-345.459 L -368.928,-345.311 L -369.148,-345.19 L -369.382,-345.098
 L -369.625,-345.035 L -369.874,-345.004 z
M -354.594,-281.003 L -354.781,-281.027 L -354.964,-281.073 L -355.139,-281.143 L -355.304,-281.234 L -355.456,-281.344
 L -355.593,-281.473 L -355.714,-281.618 L -355.814,-281.777 L -355.895,-281.948 L -355.953,-282.127 L -355.988,-282.312
 L -356,-282.5 L -355.988,-282.688 L -355.953,-282.873 L -355.895,-283.052 L -355.814,-283.223 L -355.714,-283.382
 L -355.593,-283.527 L -355.456,-283.656 L -355.304,-283.766 L -355.139,-283.857 L -354.964,-283.927 L -354.781,-283.973
 L -354.594,-283.997 L -354.406,-283.997 L -354.219,-283.973 L -354.036,-283.927 L -353.861,-283.857 L -353.696,-283.766
 L -353.544,-283.656 L -353.407,-283.527 L -353.286,-283.382 L -353.186,-283.223 L -353.105,-283.052 L -353.047,-282.873
 L -353.012,-282.688 L -353,-282.5 L -353.012,-282.312 L -353.047,-282.127 L -353.105,-281.948 L -353.186,-281.777
 L -353.286,-281.618 L -353.407,-281.473 L -353.544,-281.344 L -353.696,-281.234 L -353.861,-281.143 L -354.036,-281.073
 L -354.219,-281.027 L -354.406,-281.003 z
M -55.5942,-281.003 L -55.7811,-281.027 L -55.9635,-281.073 L -56.1387,-281.143 L -56.3037,-281.234 L -56.4561,-281.344
 L -56.5934,-281.473 L -56.7135,-281.618 L -56.8145,-281.777 L -56.8947,-281.948 L -56.9529,-282.127 L -56.9882,-282.312
 L -57,-282.5 L -56.9882,-282.688 L -56.9529,-282.873 L -56.8947,-283.052 L -56.8145,-283.223 L -56.7135,-283.382
 L -56.5934,-283.527 L -56.4561,-283.656 L -56.3037,-283.766 L -56.1387,-283.857 L -55.9635,-283.927 L -55.7811,-283.973
 L -55.5942,-283.997 L -55.4058,-283.997 L -55.2189,-283.973 L -55.0365,-283.927 L -54.8613,-283.857 L -54.6963,-283.766
 L -54.5439,-283.656 L -54.4066,-283.527 L -54.2865,-283.382 L -54.1855,-283.223 L -54.1053,-283.052 L -54.0471,-282.873
 L -54.0118,-282.688 L -54,-282.5 L -54.0118,-282.312 L -54.0471,-282.127 L -54.1053,-281.948 L -54.1855,-281.777
 L -54.2865,-281.618 L -54.4066,-281.473 L -54.5439,-281.344 L -54.6963,-281.234 L -54.8613,-281.143 L -55.0365,-281.073
 L -55.2189,-281.027 L -55.4058,-281.003 z
M -24.5942,-281.003 L -24.7811,-281.027 L -24.9635,-281.073 L -25.1387,-281.143 L -25.3037,-281.234 L -25.4561,-281.344
 L -25.5935,-281.473 L -25.7135,-281.618 L -25.8145,-281.777 L -25.8947,-281.948 L -25.9529,-282.127 L -25.9882,-282.312
 L -26,-282.5 L -25.9882,-282.688 L -25.9529,-282.873 L -25.8947,-283.052 L -25.8145,-283.223 L -25.7135,-283.382
 L -25.5935,-283.527 L -25.4561,-283.656 L -25.3037,-283.766 L -25.1387,-283.857 L -24.9635,-283.927 L -24.7811,-283.973
 L -24.5942,-283.997 L -24.4058,-283.997 L -24.2189,-283.973 L -24.0365,-283.927 L -23.8613,-283.857 L -23.6963,-283.766
 L -23.5439,-283.656 L -23.4066,-283.527 L -23.2865,-283.382 L -23.1855,-283.223 L -23.1053,-283.052 L -23.0471,-282.873
 L -23.0118,-282.688 L -23,-282.5 L -23.0118,-282.312 L -23.0471,-282.127 L -23.1053,-281.948 L -23.1855,-281.777
 L -23.2865,-281.618 L -23.4066,-281.473 L -23.5439,-281.344 L -23.6963,-281.234 L -23.8613,-281.143 L -24.0365,-281.073
 L -24.2189,-281.027 L -24.4058,-281.003 z
M -385.594,-281.003 L -385.781,-281.027 L -385.964,-281.073 L -386.139,-281.143 L -386.304,-281.234 L -386.456,-281.344
 L -386.593,-281.473 L -386.714,-281.618 L -386.814,-281.777 L -386.895,-281.948 L -386.953,-282.127 L -386.988,-282.312
 L -387,-282.5 L -386.988,-282.688 L -386.953,-282.873 L -386.895,-283.052 L -386.814,-283.223 L -386.714,-283.382
 L -386.593,-283.527 L -386.456,-283.656 L -386.304,-283.766 L -386.139,-283.857 L -385.964,-283.927 L -385.781,-283.973
 L -385.594,-283.997 L -385.406,-283.997 L -385.219,-283.973 L -385.036,-283.927 L -384.861,-283.857 L -384.696,-283.766
 L -384.544,-283.656 L -384.407,-283.527 L -384.286,-283.382 L -384.186,-283.223 L -384.105,-283.052 L -384.047,-282.873
 L -384.012,-282.688 L -384,-282.5 L -384.012,-282.312 L -384.047,-282.127 L -384.105,-281.948 L -384.186,-281.777
 L -384.286,-281.618 L -384.407,-281.473 L -384.544,-281.344 L -384.696,-281.234 L -384.861,-281.143 L -385.036,-281.073
 L -385.219,-281.027 L -385.406,-281.003 z
M -370.753,-255.024 L -372.249,-255.213 L -373.708,-255.587 L -375.109,-256.142 L -376.43,-256.868 L -377.649,-257.754
 L -378.748,-258.785 L -379.708,-259.947 L -380.516,-261.219 L -381.157,-262.583 L -381.623,-264.016 L -381.905,-265.496
 L -382,-267 L -381.905,-268.504 L -381.623,-269.984 L -381.157,-271.417 L -380.516,-272.781 L -379.708,-274.053
 L -378.748,-275.215 L -377.649,-276.246 L -376.43,-277.132 L -375.109,-277.858 L -373.708,-278.413 L -372.249,-278.787
 L -370.753,-278.976 L -369.247,-278.976 L -367.751,-278.787 L -366.292,-278.413 L -364.891,-277.858 L -363.57,-277.132
 L -362.351,-276.246 L -361.252,-275.215 L -360.292,-274.053 L -359.484,-272.781 L -358.843,-271.417 L -358.377,-269.984
 L -358.095,-268.504 L -358,-267 L -358.095,-265.496 L -358.377,-264.016 L -358.843,-262.583 L -359.484,-261.219
 L -360.292,-259.947 L -361.252,-258.785 L -362.351,-257.754 L -363.57,-256.868 L -364.891,-256.142 L -366.292,-255.587
 L -367.751,-255.213 L -369.247,-255.024 z
M -40.7535,-255.024 L -42.2486,-255.213 L -43.7082,-255.587 L -45.1093,-256.142 L -46.4299,-256.868 L -47.6491,-257.754
 L -48.7476,-258.785 L -49.7082,-259.947 L -50.5157,-261.219 L -51.1573,-262.583 L -51.623,-264.016 L -51.9054,-265.496
 L -52,-267 L -51.9054,-268.504 L -51.623,-269.984 L -51.1573,-271.417 L -50.5157,-272.781 L -49.7082,-274.053
 L -48.7476,-275.215 L -47.6491,-276.246 L -46.4299,-277.132 L -45.1093,-277.858 L -43.7082,-278.413 L -42.2486,-278.787
 L -40.7535,-278.976 L -39.2465,-278.976 L -37.7514,-278.787 L -36.2918,-278.413 L -34.8907,-277.858 L -33.5701,-277.132
 L -32.3509,-276.246 L -31.2524,-275.215 L -30.2918,-274.053 L -29.4843,-272.781 L -28.8427,-271.417 L -28.377,-269.984
 L -28.0946,-268.504 L -28,-267 L -28.0946,-265.496 L -28.377,-264.016 L -28.8427,-262.583 L -29.4843,-261.219
 L -30.2918,-259.947 L -31.2524,-258.785 L -32.3509,-257.754 L -33.5701,-256.868 L -34.8907,-256.142 L -36.2918,-255.587
 L -37.7514,-255.213 L -39.2465,-255.024 z
M -23.2512,-263.008 L -23.7495,-263.071 L -24.2361,-263.196 L -24.7031,-263.381 L -25.1433,-263.623 L -25.5497,-263.918
 L -25.9159,-264.262 L -26.2361,-264.649 L -26.5052,-265.073 L -26.7191,-265.528 L -26.8743,-266.005 L -26.9685,-266.499
 L -27,-267 L -26.9685,-267.501 L -26.8743,-267.995 L -26.7191,-268.472 L -26.5052,-268.927 L -26.2361,-269.351
 L -25.9159,-269.738 L -25.5497,-270.082 L -25.1433,-270.377 L -24.7031,-270.619 L -24.2361,-270.804 L -23.7495,-270.929
 L -23.2512,-270.992 L -22.7488,-270.992 L -22.2505,-270.929 L -21.7639,-270.804 L -21.2969,-270.619 L -20.8567,-270.377
 L -20.4503,-270.082 L -20.0841,-269.738 L -19.7639,-269.351 L -19.4948,-268.927 L -19.2809,-268.472 L -19.1257,-267.995
 L -19.0316,-267.501 L -19,-267 L -19.0316,-266.499 L -19.1257,-266.005 L -19.2809,-265.528 L -19.4948,-265.073
 L -19.7639,-264.649 L -20.0841,-264.262 L -20.4503,-263.918 L -20.8567,-263.623 L -21.2969,-263.381 L -21.7639,-263.196
 L -22.2505,-263.071 L -22.7488,-263.008 z
M -387.251,-263.008 L -387.75,-263.071 L -388.236,-263.196 L -388.703,-263.381 L -389.143,-263.623 L -389.55,-263.918
 L -389.916,-264.262 L -390.236,-264.649 L -390.505,-265.073 L -390.719,-265.528 L -390.874,-266.005 L -390.968,-266.499
 L -391,-267 L -390.968,-267.501 L -390.874,-267.995 L -390.719,-268.472 L -390.505,-268.927 L -390.236,-269.351
 L -389.916,-269.738 L -389.55,-270.082 L -389.143,-270.377 L -388.703,-270.619 L -388.236,-270.804 L -387.75,-270.929
 L -387.251,-270.992 L -386.749,-270.992 L -386.25,-270.929 L -385.764,-270.804 L -385.297,-270.619 L -384.857,-270.377
 L -384.45,-270.082 L -384.084,-269.738 L -383.764,-269.351 L -383.495,-268.927 L -383.281,-268.472 L -383.126,-267.995
 L -383.032,-267.501 L -383,-267 L -383.032,-266.499 L -383.126,-266.005 L -383.281,-265.528 L -383.495,-265.073
 L -383.764,-264.649 L -384.084,-264.262 L -384.45,-263.918 L -384.857,-263.623 L -385.297,-263.381 L -385.764,-263.196
 L -386.25,-263.071 L -386.749,-263.008 z
M -24.5942,-250.003 L -24.7811,-250.027 L -24.9635,-250.073 L -25.1387,-250.143 L -25.3037,-250.234 L -25.4561,-250.344
 L -25.5935,-250.473 L -25.7135,-250.618 L -25.8145,-250.777 L -25.8947,-250.948 L -25.9529,-251.127 L -25.9882,-251.312
 L -26,-251.5 L -25.9882,-251.688 L -25.9529,-251.873 L -25.8947,-252.052 L -25.8145,-252.223 L -25.7135,-252.382
 L -25.5935,-252.527 L -25.4561,-252.656 L -25.3037,-252.766 L -25.1387,-252.857 L -24.9635,-252.927 L -24.7811,-252.973
 L -24.5942,-252.997 L -24.4058,-252.997 L -24.2189,-252.973 L -24.0365,-252.927 L -23.8613,-252.857 L -23.6963,-252.766
 L -23.5439,-252.656 L -23.4066,-252.527 L -23.2865,-252.382 L -23.1855,-252.223 L -23.1053,-252.052 L -23.0471,-251.873
 L -23.0118,-251.688 L -23,-251.5 L -23.0118,-251.312 L -23.0471,-251.127 L -23.1053,-250.948 L -23.1855,-250.777
 L -23.2865,-250.618 L -23.4066,-250.473 L -23.5439,-250.344 L -23.6963,-250.234 L -23.8613,-250.143 L -24.0365,-250.073
 L -24.2189,-250.027 L -24.4058,-250.003 z
M -55.5942,-250.003 L -55.7811,-250.027 L -55.9635,-250.073 L -56.1387,-250.143 L -56.3037,-250.234 L -56.4561,-250.344
 L -56.5934,-250.473 L -56.7135,-250.618 L -56.8145,-250.777 L -56.8947,-250.948 L -56.9529,-251.127 L -56.9882,-251.312
 L -57,-251.5 L -56.9882,-251.688 L -56.9529,-251.873 L -56.8947,-252.052 L -56.8145,-252.223 L -56.7135,-252.382
 L -56.5934,-252.527 L -56.4561,-252.656 L -56.3037,-252.766 L -56.1387,-252.857 L -55.9635,-252.927 L -55.7811,-252.973
 L -55.5942,-252.997 L -55.4058,-252.997 L -55.2189,-252.973 L -55.0365,-252.927 L -54.8613,-252.857 L -54.6963,-252.766
 L -54.5439,-252.656 L -54.4066,-252.527 L -54.2865,-252.382 L -54.1855,-252.223 L -54.1053,-252.052 L -54.0471,-251.873
 L -54.0118,-251.688 L -54,-251.5 L -54.0118,-251.312 L -54.0471,-251.127 L -54.1053,-250.948 L -54.1855,-250.777
 L -54.2865,-250.618 L -54.4066,-250.473 L -54.5439,-250.344 L -54.6963,-250.234 L -54.8613,-250.143 L -55.0365,-250.073
 L -55.2189,-250.027 L -55.4058,-250.003 z
M -354.594,-250.003 L -354.781,-250.027 L -354.964,-250.073 L -355.139,-250.143 L -355.304,-250.234 L -355.456,-250.344
 L -355.593,-250.473 L -355.714,-250.618 L -355.814,-250.777 L -355.895,-250.948 L -355.953,-251.127 L -355.988,-251.312
 L -356,-251.5 L -355.988,-251.688 L -355.953,-251.873 L -355.895,-252.052 L -355.814,-252.223 L -355.714,-252.382
 L -355.593,-252.527 L -355.456,-252.656 L -355.304,-252.766 L -355.139,-252.857 L -354.964,-252.927 L -354.781,-252.973
 L -354.594,-252.997 L -354.406,-252.997 L -354.219,-252.973 L -354.036,-252.927 L -353.861,-252.857 L -353.696,-252.766
 L -353.544,-252.656 L -353.407,-252.527 L -353.286,-252.382 L -353.186,-252.223 L -353.105,-252.052 L -353.047,-251.873
 L -353.012,-251.688 L -353,-251.5 L -353.012,-251.312 L -353.047,-251.127 L -353.105,-250.948 L -353.186,-250.777
 L -353.286,-250.618 L -353.407,-250.473 L -353.544,-250.344 L -353.696,-250.234 L -353.861,-250.143 L -354.036,-250.073
 L -354.219,-250.027 L -354.406,-250.003 z
M -385.594,-250.003 L -385.781,-250.027 L -385.964,-250.073 L -386.139,-250.143 L -386.304,-250.234 L -386.456,-250.344
 L -386.593,-250.473 L -386.714,-250.618 L -386.814,-250.777 L -386.895,-250.948 L -386.953,-251.127 L -386.988,-251.312
 L -387,-251.5 L -386.988,-251.688 L -386.953,-251.873 L -386.895,-252.052 L -386.814,-252.223 L -386.714,-252.382
 L -386.593,-252.527 L -386.456,-252.656 L -386.304,-252.766 L -386.139,-252.857 L -385.964,-252.927 L -385.781,-252.973
 L -385.594,-252.997 L -385.406,-252.997 L -385.219,-252.973 L -385.036,-252.927 L -384.861,-252.857 L -384.696,-252.766
 L -384.544,-252.656 L -384.407,-252.527 L -384.286,-252.382 L -384.186,-252.223 L -384.105,-252.052 L -384.047,-251.873
 L -384.012,-251.688 L -384,-251.5 L -384.012,-251.312 L -384.047,-251.127 L -384.105,-250.948 L -384.186,-250.777
 L -384.286,-250.618 L -384.407,-250.473 L -384.544,-250.344 L -384.696,-250.234 L -384.861,-250.143 L -385.036,-250.073
 L -385.219,-250.027 L -385.406,-250.003 z
M -140.594,-38.5029 L -140.781,-38.5266 L -140.964,-38.5734 L -141.139,-38.6427 L -141.304,-38.7335 L -141.456,-38.8442
 L -141.593,-38.9732 L -141.714,-39.1183 L -141.814,-39.2774 L -141.895,-39.4478 L -141.953,-39.627 L -141.988,-39.812
 L -142,-40 L -141.988,-40.188 L -141.953,-40.373 L -141.895,-40.5522 L -141.814,-40.7226 L -141.714,-40.8817
 L -141.593,-41.0268 L -141.456,-41.1558 L -141.304,-41.2665 L -141.139,-41.3572 L -140.964,-41.4266 L -140.781,-41.4734
 L -140.594,-41.497 L -140.406,-41.497 L -140.219,-41.4734 L -140.036,-41.4266 L -139.861,-41.3572 L -139.696,-41.2665
 L -139.544,-41.1558 L -139.407,-41.0268 L -139.286,-40.8817 L -139.186,-40.7226 L -139.105,-40.5522 L -139.047,-40.373
 L -139.012,-40.188 L -139,-40 L -139.012,-39.812 L -139.047,-39.627 L -139.105,-39.4478 L -139.186,-39.2774
 L -139.286,-39.1183 L -139.407,-38.9732 L -139.544,-38.8442 L -139.696,-38.7335 L -139.861,-38.6427 L -140.036,-38.5734
 L -140.219,-38.5266 L -140.406,-38.5029 z
M -156.594,-38.5029 L -156.781,-38.5266 L -156.964,-38.5734 L -157.139,-38.6427 L -157.304,-38.7335 L -157.456,-38.8442
 L -157.593,-38.9732 L -157.714,-39.1183 L -157.814,-39.2774 L -157.895,-39.4478 L -157.953,-39.627 L -157.988,-39.812
 L -158,-40 L -157.988,-40.188 L -157.953,-40.373 L -157.895,-40.5522 L -157.814,-40.7226 L -157.714,-40.8817
 L -157.593,-41.0268 L -157.456,-41.1558 L -157.304,-41.2665 L -157.139,-41.3572 L -156.964,-41.4266 L -156.781,-41.4734
 L -156.594,-41.497 L -156.406,-41.497 L -156.219,-41.4734 L -156.036,-41.4266 L -155.861,-41.3572 L -155.696,-41.2665
 L -155.544,-41.1558 L -155.407,-41.0268 L -155.286,-40.8817 L -155.186,-40.7226 L -155.105,-40.5522 L -155.047,-40.373
 L -155.012,-40.188 L -155,-40 L -155.012,-39.812 L -155.047,-39.627 L -155.105,-39.4478 L -155.186,-39.2774
 L -155.286,-39.1183 L -155.407,-38.9732 L -155.544,-38.8442 L -155.696,-38.7335 L -155.861,-38.6427 L -156.036,-38.5734
 L -156.219,-38.5266 L -156.406,-38.5029 z
M -253.594,-38.5029 L -253.781,-38.5266 L -253.964,-38.5734 L -254.139,-38.6427 L -254.304,-38.7335 L -254.456,-38.8442
 L -254.593,-38.9732 L -254.714,-39.1183 L -254.814,-39.2774 L -254.895,-39.4478 L -254.953,-39.627 L -254.988,-39.812
 L -255,-40 L -254.988,-40.188 L -254.953,-40.373 L -254.895,-40.5522 L -254.814,-40.7226 L -254.714,-40.8817
 L -254.593,-41.0268 L -254.456,-41.1558 L -254.304,-41.2665 L -254.139,-41.3572 L -253.964,-41.4266 L -253.781,-41.4734
 L -253.594,-41.497 L -253.406,-41.497 L -253.219,-41.4734 L -253.036,-41.4266 L -252.861,-41.3572 L -252.696,-41.2665
 L -252.544,-41.1558 L -252.407,-41.0268 L -252.286,-40.8817 L -252.186,-40.7226 L -252.105,-40.5522 L -252.047,-40.373
 L -252.012,-40.188 L -252,-40 L -252.012,-39.812 L -252.047,-39.627 L -252.105,-39.4478 L -252.186,-39.2774
 L -252.286,-39.1183 L -252.407,-38.9732 L -252.544,-38.8442 L -252.696,-38.7335 L -252.861,-38.6427 L -253.036,-38.5734
 L -253.219,-38.5266 L -253.406,-38.5029 z
M -269.594,-38.5029 L -269.781,-38.5266 L -269.964,-38.5734 L -270.139,-38.6427 L -270.304,-38.7335 L -270.456,-38.8442
 L -270.593,-38.9732 L -270.714,-39.1183 L -270.814,-39.2774 L -270.895,-39.4478 L -270.953,-39.627 L -270.988,-39.812
 L -271,-40 L -270.988,-40.188 L -270.953,-40.373 L -270.895,-40.5522 L -270.814,-40.7226 L -270.714,-40.8817
 L -270.593,-41.0268 L -270.456,-41.1558 L -270.304,-41.2665 L -270.139,-41.3572 L -269.964,-41.4266 L -269.781,-41.4734
 L -269.594,-41.497 L -269.406,-41.497 L -269.219,-41.4734 L -269.036,-41.4266 L -268.861,-41.3572 L -268.696,-41.2665
 L -268.544,-41.1558 L -268.407,-41.0268 L -268.286,-40.8817 L -268.186,-40.7226 L -268.105,-40.5522 L -268.047,-40.373
 L -268.012,-40.188 L -268,-40 L -268.012,-39.812 L -268.047,-39.627 L -268.105,-39.4478 L -268.186,-39.2774
 L -268.286,-39.1183 L -268.407,-38.9732 L -268.544,-38.8442 L -268.696,-38.7335 L -268.861,-38.6427 L -269.036,-38.5734
 L -269.219,-38.5266 L -269.406,-38.5029 z
M -70,-20.5 L -70,-36.5 L -50,-36.5 L -50,-20.5 z
M -215,-20.5 L -215,-36.5 L -195,-36.5 L -195,-20.5 z
M -360,-20.5 L -360,-36.5 L -340,-36.5 L -340,-20.5 z
M -122.626,-26.504 L -122.875,-26.5354 L -123.118,-26.5979 L -123.352,-26.6904 L -123.572,-26.8114 L -123.775,-26.959
 L -123.958,-27.1309 L -124.118,-27.3244 L -124.253,-27.5365 L -124.36,-27.7638 L -124.437,-28.0026 L -124.484,-28.2493
 L -124.5,-28.5 L -124.484,-28.7507 L -124.437,-28.9974 L -124.36,-29.2362 L -124.253,-29.4635 L -124.118,-29.6756
 L -123.958,-29.8691 L -123.775,-30.041 L -123.572,-30.1886 L -123.352,-30.3096 L -123.118,-30.4021 L -122.875,-30.4646
 L -122.626,-30.496 L -122.374,-30.496 L -122.125,-30.4646 L -121.882,-30.4021 L -121.648,-30.3096 L -121.428,-30.1886
 L -121.225,-30.041 L -121.042,-29.8691 L -120.882,-29.6756 L -120.747,-29.4635 L -120.64,-29.2362 L -120.563,-28.9974
 L -120.516,-28.7507 L -120.5,-28.5 L -120.516,-28.2493 L -120.563,-28.0026 L -120.64,-27.7638 L -120.747,-27.5365
 L -120.882,-27.3244 L -121.042,-27.1309 L -121.225,-26.959 L -121.428,-26.8114 L -121.648,-26.6904 L -121.882,-26.5979
 L -122.125,-26.5354 L -122.374,-26.504 z
M -287.626,-26.504 L -287.875,-26.5354 L -288.118,-26.5979 L -288.352,-26.6904 L -288.572,-26.8114 L -288.775,-26.959
 L -288.958,-27.1309 L -289.118,-27.3244 L -289.253,-27.5365 L -289.36,-27.7638 L -289.437,-28.0026 L -289.484,-28.2493
 L -289.5,-28.5 L -289.484,-28.7507 L -289.437,-28.9974 L -289.36,-29.2362 L -289.253,-29.4635 L -289.118,-29.6756
 L -288.958,-29.8691 L -288.775,-30.041 L -288.572,-30.1886 L -288.352,-30.3096 L -288.118,-30.4021 L -287.875,-30.4646
 L -287.626,-30.496 L -287.374,-30.496 L -287.125,-30.4646 L -286.882,-30.4021 L -286.648,-30.3096 L -286.428,-30.1886
 L -286.225,-30.041 L -286.042,-29.8691 L -285.882,-29.6756 L -285.747,-29.4635 L -285.64,-29.2362 L -285.563,-28.9974
 L -285.516,-28.7507 L -285.5,-28.5 L -285.516,-28.2493 L -285.563,-28.0026 L -285.64,-27.7638 L -285.747,-27.5365
 L -285.882,-27.3244 L -286.042,-27.1309 L -286.225,-26.959 L -286.428,-26.8114 L -286.648,-26.6904 L -286.882,-26.5979
 L -287.125,-26.5354 L -287.374,-26.504 z
M 41.2533,-10.0788 L 42.4869,-10.3141 L 43.6813,-10.7022 L 44.8176,-11.2369 L 45.8779,-11.9098 L 46.8455,-12.7103
 L 47.7051,-13.6257 L 48.4433,-14.6417 L 49.0483,-15.7422 L 49.5106,-16.9098 L 49.8229,-18.1262 L 49.9803,-19.3721
 L 49.9803,-20 L 50,-20 L 50,-86 L 70,-86 L 70,-380 L 70.0197,-380
 L 70.0197,-380.628 L 70.1771,-381.874 L 70.4894,-383.09 L 70.9517,-384.258 L 71.5567,-385.358 L 72.2949,-386.374
 L 73.1545,-387.29 L 74.1221,-388.09 L 75.1824,-388.763 L 76.3187,-389.298 L 77.5131,-389.686 L 78.7467,-389.921
 L 80,-390 L 330,-390 L 330,-389.98 L 330.628,-389.98 L 331.874,-389.823 L 333.09,-389.511
 L 334.258,-389.048 L 335.358,-388.443 L 336.374,-387.705 L 337.29,-386.845 L 338.09,-385.878 L 338.763,-384.818
 L 339.298,-383.681 L 339.686,-382.487 L 339.921,-381.253 L 340,-380 L 340,-86 L 360,-86
 L 360,-20 L 360.079,-18.7467 L 360.314,-17.5131 L 360.702,-16.3187 L 361.237,-15.1824 L 361.91,-14.1221
 L 362.71,-13.1545 L 363.626,-12.2949 L 364.642,-11.5567 L 365.742,-10.9517 L 366.91,-10.4894 L 368.126,-10.1771
 L 369.372,-10.0197 L 370,-10.0197 L 370,-10 L 390,-10 L 391.253,-10.0788 L 392.487,-10.3141
 L 393.681,-10.7022 L 394.818,-11.2369 L 395.878,-11.9098 L 396.845,-12.7103 L 397.705,-13.6257 L 398.443,-14.6417
 L 399.048,-15.7422 L 399.511,-16.9098 L 399.823,-18.1262 L 399.98,-19.3721 L 399.98,-20 L 400,-20
 L 400,-440 L 399.921,-441.253 L 399.686,-442.487 L 399.298,-443.681 L 398.763,-444.818 L 398.09,-445.878
 L 397.29,-446.845 L 396.374,-447.705 L 395.358,-448.443 L 394.258,-449.048 L 393.09,-449.511 L 391.874,-449.823
 L 390.628,-449.98 L 390,-449.98 L 390,-450 L 20,-450 L 18.7467,-449.921 L 17.5131,-449.686
 L 16.3187,-449.298 L 15.1824,-448.763 L 14.1221,-448.09 L 13.1545,-447.29 L 12.2949,-446.374 L 11.5567,-445.358
 L 10.9517,-444.258 L 10.4894,-443.09 L 10.1771,-441.874 L 10.0197,-440.628 L 10.0197,-440 L 10,-440
 L 10,-20 L 10.0788,-18.7467 L 10.3142,-17.5131 L 10.7022,-16.3187 L 11.2369,-15.1824 L 11.9098,-14.1221
 L 12.7103,-13.1545 L 13.6257,-12.2949 L 14.6417,-11.5567 L 15.7422,-10.9517 L 16.9098,-10.4894 L 18.1262,-10.1771
 L 19.3721,-10.0197 L 20,-10.0197 L 20,-10 L 40,-10 z
M 212.877,-406.95 L 210.677,-406.322 L 207.387,-415.04 L 207.786,-415.243 L 208.169,-415.478 L 208.532,-415.741
 L 208.873,-416.032 L 209.19,-416.349 L 209.481,-416.689 L 209.745,-417.052 L 209.979,-417.435 L 210.184,-417.834
 L 210.355,-418.248 L 210.494,-418.674 L 210.599,-419.11 L 210.669,-419.553 L 210.704,-420 L 210.704,-420.448
 L 210.67,-420.896 L 210.6,-421.338 L 210.495,-421.774 L 210.356,-422.2 L 210.185,-422.615 L 209.981,-423.015
 L 209.747,-423.396 L 209.484,-423.76 L 209.192,-424.101 L 208.876,-424.418 L 208.535,-424.709 L 208.172,-424.973
 L 207.79,-425.207 L 207.391,-425.41 L 206.977,-425.582 L 206.55,-425.721 L 206.114,-425.825 L 205.671,-425.896
 L 205.225,-425.931 L 204.775,-425.931 L 204.329,-425.896 L 203.886,-425.825 L 203.45,-425.721 L 203.023,-425.582
 L 202.609,-425.41 L 202.21,-425.207 L 201.828,-424.973 L 201.465,-424.709 L 201.124,-424.418 L 200.808,-424.101
 L 200.516,-423.76 L 200.253,-423.396 L 200.019,-423.015 L 199.815,-422.615 L 199.644,-422.2 L 199.505,-421.774
 L 199.4,-421.338 L 199.33,-420.896 L 199.296,-420.448 L 199.296,-420 L 199.331,-419.553 L 199.401,-419.11
 L 199.506,-418.674 L 199.645,-418.248 L 199.816,-417.834 L 200.021,-417.435 L 200.255,-417.052 L 200.519,-416.689
 L 200.81,-416.349 L 201.127,-416.032 L 201.468,-415.741 L 201.831,-415.478 L 202.214,-415.243 L 202.745,-414.705
 L 198.981,-406.18 L 196.877,-406.925 L 192.458,-404.19 L 188.933,-408.015 L 191.724,-412.349 L 189.851,-416.565
 L 184.792,-417.756 L 185.004,-422.952 L 190.042,-424.044 L 191.699,-428.35 L 188.965,-432.769 L 192.788,-436.293
 L 197.123,-433.502 L 201.339,-435.376 L 202.53,-440.434 L 207.727,-440.223 L 208.817,-435.184 L 213.123,-433.527
 L 217.542,-436.262 L 221.067,-432.438 L 218.276,-428.104 L 220.149,-423.888 L 225.208,-422.696 L 224.996,-417.5
 L 219.958,-416.408 L 218.301,-412.103 L 221.035,-407.684 L 217.212,-404.159 z
M 247.974,-433.187 L 247.974,-437.097 L 255.682,-437.097 L 255.682,-433.187 z
M 167.901,-404.565 L 174.112,-427.744 L 169.655,-428.938 L 171.209,-434.737 L 187.676,-430.325 L 186.122,-424.526
 L 181.647,-425.726 L 175.437,-402.547 z
M 157.82,-429.287 L 157.82,-433.196 L 165.529,-433.196 L 165.529,-429.287 z
M 264.716,-406.823 L 262.761,-407.338 L 261.146,-408.15 L 259.935,-409.219 L 259.08,-410.474 L 258.536,-411.85
 L 258.244,-413.612 L 258.146,-416.028 L 258.146,-423.199 L 258.364,-426.083 L 259.018,-428.286 L 260.166,-429.931
 L 261.871,-431.14 L 264.002,-431.883 L 266.43,-432.131 L 269.304,-431.832 L 271.627,-430.936 L 273.369,-429.546
 L 274.499,-427.767 L 275.117,-425.393 L 275.324,-422.217 L 275.324,-418.956 L 265.633,-418.956 L 265.633,-413.638
 L 265.873,-411.488 L 266.226,-411.127 L 266.8,-411.007 L 267.511,-411.166 L 267.939,-411.646 L 268.227,-414.119
 L 268.227,-417.362 L 275.324,-417.362 L 275.324,-415.547 L 275.036,-412.044 L 274.557,-410.779 L 273.693,-409.432
 L 272.496,-408.216 L 271.016,-407.347 L 269.188,-406.826 L 266.948,-406.652 z
M 267.819,-424.756 L 267.615,-427.221 L 267.305,-427.638 L 266.781,-427.776 L 266.151,-427.658 L 265.818,-427.304
 L 265.633,-424.756 L 265.633,-422.958 L 267.819,-422.958 z
M 228.276,-403.595 L 228.276,-431.686 L 235.892,-431.686 L 235.763,-429.514 L 236.813,-430.664 L 237.968,-431.481
 L 239.228,-431.969 L 240.599,-432.131 L 242.223,-431.896 L 243.609,-431.195 L 244.641,-430.188 L 245.194,-429.036
 L 245.509,-424.886 L 245.509,-414.527 L 245.409,-411.657 L 245.11,-409.756 L 244.504,-408.481 L 243.48,-407.495
 L 242.12,-406.863 L 240.506,-406.652 L 239.167,-406.814 L 237.931,-407.302 L 236.795,-408.109 L 235.763,-409.232
 L 235.763,-403.595 z
M 237.534,-412.234 L 237.847,-412.616 L 237.999,-414.745 L 238,-423.818 L 237.856,-426.194 L 237.541,-426.556
 L 236.93,-426.676 L 236.32,-426.537 L 235.976,-426.12 L 235.793,-423.811 L 235.793,-415.052 L 235.984,-412.662
 L 236.337,-412.245 L 236.948,-412.106 z
M 247.974,-407.097 L 247.974,-431.686 L 255.682,-431.686 L 255.682,-407.097 z
M 360.906,-428.503 L 360.719,-428.527 L 360.536,-428.573 L 360.361,-428.643 L 360.196,-428.734 L 360.044,-428.844
 L 359.907,-428.973 L 359.786,-429.118 L 359.686,-429.277 L 359.605,-429.448 L 359.547,-429.627 L 359.512,-429.812
 L 359.5,-430 L 359.512,-430.188 L 359.547,-430.373 L 359.605,-430.552 L 359.686,-430.723 L 359.786,-430.882
 L 359.907,-431.027 L 360.044,-431.156 L 360.196,-431.266 L 360.361,-431.357 L 360.536,-431.427 L 360.719,-431.473
 L 360.906,-431.497 L 361.094,-431.497 L 361.281,-431.473 L 361.464,-431.427 L 361.639,-431.357 L 361.804,-431.266
 L 361.956,-431.156 L 362.093,-431.027 L 362.214,-430.882 L 362.314,-430.723 L 362.395,-430.552 L 362.453,-430.373
 L 362.488,-430.188 L 362.5,-430 L 362.488,-429.812 L 362.453,-429.627 L 362.395,-429.448 L 362.314,-429.277
 L 362.214,-429.118 L 362.093,-428.973 L 361.956,-428.844 L 361.804,-428.734 L 361.639,-428.643 L 361.464,-428.573
 L 361.281,-428.527 L 361.094,-428.503 z
M 380.906,-428.503 L 380.719,-428.527 L 380.536,-428.573 L 380.361,-428.643 L 380.196,-428.734 L 380.044,-428.844
 L 379.907,-428.973 L 379.786,-429.118 L 379.686,-429.277 L 379.605,-429.448 L 379.547,-429.627 L 379.512,-429.812
 L 379.5,-430 L 379.512,-430.188 L 379.547,-430.373 L 379.605,-430.552 L 379.686,-430.723 L 379.786,-430.882
 L 379.907,-431.027 L 380.044,-431.156 L 380.196,-431.266 L 380.361,-431.357 L 380.536,-431.427 L 380.719,-431.473
 L 380.906,-431.497 L 381.094,-431.497 L 381.281,-431.473 L 381.464,-431.427 L 381.639,-431.357 L 381.804,-431.266
 L 381.956,-431.156 L 382.093,-431.027 L 382.214,-430.882 L 382.314,-430.723 L 382.395,-430.552 L 382.453,-430.373
 L 382.488,-430.188 L 382.5,-430 L 382.488,-429.812 L 382.453,-429.627 L 382.395,-429.448 L 382.314,-429.277
 L 382.214,-429.118 L 382.093,-428.973 L 381.956,-428.844 L 381.804,-428.734 L 381.639,-428.643 L 381.464,-428.573
 L 381.281,-428.527 L 381.094,-428.503 z
M 48.9058,-428.503 L 48.7189,-428.527 L 48.5365,-428.573 L 48.3613,-428.643 L 48.1963,-428.734 L 48.0439,-428.844
 L 47.9065,-428.973 L 47.7865,-429.118 L 47.6855,-429.277 L 47.6053,-429.448 L 47.5471,-429.627 L 47.5118,-429.812
 L 47.5,-430 L 47.5118,-430.188 L 47.5471,-430.373 L 47.6053,-430.552 L 47.6855,-430.723 L 47.7865,-430.882
 L 47.9065,-431.027 L 48.0439,-431.156 L 48.1963,-431.266 L 48.3613,-431.357 L 48.5365,-431.427 L 48.7189,-431.473
 L 48.9058,-431.497 L 49.0942,-431.497 L 49.2811,-431.473 L 49.4635,-431.427 L 49.6387,-431.357 L 49.8037,-431.266
 L 49.9561,-431.156 L 50.0934,-431.027 L 50.2135,-430.882 L 50.3145,-430.723 L 50.3947,-430.552 L 50.4529,-430.373
 L 50.4882,-430.188 L 50.5,-430 L 50.4882,-429.812 L 50.4529,-429.627 L 50.3947,-429.448 L 50.3145,-429.277
 L 50.2135,-429.118 L 50.0934,-428.973 L 49.9561,-428.844 L 49.8037,-428.734 L 49.6387,-428.643 L 49.4635,-428.573
 L 49.2811,-428.527 L 49.0942,-428.503 z
M 28.9058,-428.503 L 28.7189,-428.527 L 28.5365,-428.573 L 28.3613,-428.643 L 28.1963,-428.734 L 28.0439,-428.844
 L 27.9066,-428.973 L 27.7865,-429.118 L 27.6855,-429.277 L 27.6053,-429.448 L 27.5471,-429.627 L 27.5118,-429.812
 L 27.5,-430 L 27.5118,-430.188 L 27.5471,-430.373 L 27.6053,-430.552 L 27.6855,-430.723 L 27.7865,-430.882
 L 27.9066,-431.027 L 28.0439,-431.156 L 28.1963,-431.266 L 28.3613,-431.357 L 28.5365,-431.427 L 28.7189,-431.473
 L 28.9058,-431.497 L 29.0942,-431.497 L 29.2811,-431.473 L 29.4635,-431.427 L 29.6387,-431.357 L 29.8037,-431.266
 L 29.9561,-431.156 L 30.0934,-431.027 L 30.2135,-430.882 L 30.3145,-430.723 L 30.3947,-430.552 L 30.4529,-430.373
 L 30.4882,-430.188 L 30.5,-430 L 30.4882,-429.812 L 30.4529,-429.627 L 30.3947,-429.448 L 30.3145,-429.277
 L 30.2135,-429.118 L 30.0934,-428.973 L 29.9561,-428.844 L 29.8037,-428.734 L 29.6387,-428.643 L 29.4635,-428.573
 L 29.2811,-428.527 L 29.0942,-428.503 z
M 157.82,-403.196 L 157.82,-427.786 L 165.529,-427.786 L 165.529,-403.196 z
M 362,-370 L 362,-390 L 378,-390 L 378,-370 z
M 32,-370 L 32,-390 L 48,-390 L 48,-370 z
M 369.874,-312.004 L 369.625,-312.035 L 369.382,-312.098 L 369.148,-312.19 L 368.928,-312.311 L 368.725,-312.459
 L 368.542,-312.631 L 368.382,-312.824 L 368.247,-313.036 L 368.14,-313.264 L 368.063,-313.503 L 368.016,-313.749
 L 368,-314 L 368.016,-314.251 L 368.063,-314.497 L 368.14,-314.736 L 368.247,-314.964 L 368.382,-315.176
 L 368.542,-315.369 L 368.725,-315.541 L 368.928,-315.689 L 369.148,-315.81 L 369.382,-315.902 L 369.625,-315.965
 L 369.874,-315.996 L 370.126,-315.996 L 370.375,-315.965 L 370.618,-315.902 L 370.852,-315.81 L 371.072,-315.689
 L 371.275,-315.541 L 371.458,-315.369 L 371.618,-315.176 L 371.753,-314.964 L 371.86,-314.736 L 371.937,-314.497
 L 371.984,-314.251 L 372,-314 L 371.984,-313.749 L 371.937,-313.503 L 371.86,-313.264 L 371.753,-313.036
 L 371.618,-312.824 L 371.458,-312.631 L 371.275,-312.459 L 371.072,-312.311 L 370.852,-312.19 L 370.618,-312.098
 L 370.375,-312.035 L 370.126,-312.004 z
M 39.8744,-312.004 L 39.6252,-312.035 L 39.382,-312.098 L 39.1485,-312.19 L 38.9284,-312.311 L 38.7252,-312.459
 L 38.5421,-312.631 L 38.382,-312.824 L 38.2474,-313.036 L 38.1405,-313.264 L 38.0628,-313.503 L 38.0158,-313.749
 L 38,-314 L 38.0158,-314.251 L 38.0628,-314.497 L 38.1405,-314.736 L 38.2474,-314.964 L 38.382,-315.176
 L 38.5421,-315.369 L 38.7252,-315.541 L 38.9284,-315.689 L 39.1485,-315.81 L 39.382,-315.902 L 39.6252,-315.965
 L 39.8744,-315.996 L 40.1256,-315.996 L 40.3748,-315.965 L 40.618,-315.902 L 40.8515,-315.81 L 41.0716,-315.689
 L 41.2748,-315.541 L 41.4579,-315.369 L 41.618,-315.176 L 41.7526,-314.964 L 41.8595,-314.736 L 41.9372,-314.497
 L 41.9842,-314.251 L 42,-314 L 41.9842,-313.749 L 41.9372,-313.503 L 41.8595,-313.264 L 41.7526,-313.036
 L 41.618,-312.824 L 41.4579,-312.631 L 41.2748,-312.459 L 41.0716,-312.311 L 40.8515,-312.19 L 40.618,-312.098
 L 40.3748,-312.035 L 40.1256,-312.004 z
M 362,-238 L 362,-258 L 378,-258 L 378,-238 z
M 32,-238 L 32,-258 L 48,-258 L 48,-238 z
M 39.8744,-180.004 L 39.6252,-180.035 L 39.382,-180.098 L 39.1485,-180.19 L 38.9284,-180.311 L 38.7252,-180.459
 L 38.5421,-180.631 L 38.382,-180.824 L 38.2474,-181.036 L 38.1405,-181.264 L 38.0628,-181.503 L 38.0158,-181.749
 L 38,-182 L 38.0158,-182.251 L 38.0628,-182.497 L 38.1405,-182.736 L 38.2474,-182.964 L 38.382,-183.176
 L 38.5421,-183.369 L 38.7252,-183.541 L 38.9284,-183.689 L 39.1485,-183.81 L 39.382,-183.902 L 39.6252,-183.965
 L 39.8744,-183.996 L 40.1256,-183.996 L 40.3748,-183.965 L 40.618,-183.902 L 40.8515,-183.81 L 41.0716,-183.689
 L 41.2748,-183.541 L 41.4579,-183.369 L 41.618,-183.176 L 41.7526,-182.964 L 41.8595,-182.736 L 41.9372,-182.497
 L 41.9842,-182.251 L 42,-182 L 41.9842,-181.749 L 41.9372,-181.503 L 41.8595,-181.264 L 41.7526,-181.036
 L 41.618,-180.824 L 41.4579,-180.631 L 41.2748,-180.459 L 41.0716,-180.311 L 40.8515,-180.19 L 40.618,-180.098
 L 40.3748,-180.035 L 40.1256,-180.004 z
M 369.874,-180.004 L 369.625,-180.035 L 369.382,-180.098 L 369.148,-180.19 L 368.928,-180.311 L 368.725,-180.459
 L 368.542,-180.631 L 368.382,-180.824 L 368.247,-181.036 L 368.14,-181.264 L 368.063,-181.503 L 368.016,-181.749
 L 368,-182 L 368.016,-182.251 L 368.063,-182.497 L 368.14,-182.736 L 368.247,-182.964 L 368.382,-183.176
 L 368.542,-183.369 L 368.725,-183.541 L 368.928,-183.689 L 369.148,-183.81 L 369.382,-183.902 L 369.625,-183.965
 L 369.874,-183.996 L 370.126,-183.996 L 370.375,-183.965 L 370.618,-183.902 L 370.852,-183.81 L 371.072,-183.689
 L 371.275,-183.541 L 371.458,-183.369 L 371.618,-183.176 L 371.753,-182.964 L 371.86,-182.736 L 371.937,-182.497
 L 371.984,-182.251 L 372,-182 L 371.984,-181.749 L 371.937,-181.503 L 371.86,-181.264 L 371.753,-181.036
 L 371.618,-180.824 L 371.458,-180.631 L 371.275,-180.459 L 371.072,-180.311 L 370.852,-180.19 L 370.618,-180.098
 L 370.375,-180.035 L 370.126,-180.004 z
M 362,-106 L 362,-126 L 378,-126 L 378,-106 z
M 32,-106 L 32,-126 L 48,-126 L 48,-106 z
M 141.493,-363.701 L 140.959,-364.837 L 140.286,-365.898 L 139.485,-366.865 L 138.57,-367.725 L 137.554,-368.463
 L 136.453,-369.068 L 135.286,-369.53 L 134.069,-369.843 L 132.823,-370 L 90,-370 L 90,-350
 L 106,-350 L 106,-238 L 90,-238 L 90,-218 L 106,-218 L 106,-106
 L 90,-106 L 90,-86 L 106,-86 L 106,-66 L 244,-66 z
M 320,-86 L 304,-86 L 304,-198 L 320,-198 L 320,-218 L 304,-218
 L 304,-330 L 320,-330 L 320,-350 L 304,-350 L 304,-370 L 166,-370
 L 268.507,-72.299 L 269.041,-71.1627 L 269.714,-70.1024 L 270.515,-69.1348 L 271.43,-68.2751 L 272.446,-67.537
 L 273.547,-66.932 L 274.714,-66.4697 L 275.931,-66.1574 L 277.177,-66 L 320,-66 z
M -370,85.9803 L -369.372,85.9803 L -368.126,85.8229 L -366.91,85.5106 L -365.742,85.0483 L -364.642,84.4433
 L -363.626,83.7051 L -362.71,82.8455 L -361.91,81.8779 L -361.237,80.8176 L -360.702,79.6813 L -360.314,78.4869
 L -360.079,77.2533 L -360,76 L -359.98,76 L -359.98,75.3721 L -359.823,74.1262 L -359.511,72.9098
 L -359.048,71.7422 L -358.443,70.6417 L -357.705,69.6257 L -356.845,68.7103 L -355.878,67.9098 L -354.818,67.2369
 L -353.681,66.7022 L -352.487,66.3142 L -351.253,66.0788 L -350,66 L -60,66 L -60,66.0197
 L -59.3721,66.0197 L -58.1262,66.1771 L -56.9098,66.4894 L -55.7422,66.9517 L -54.6417,67.5567 L -53.6257,68.2949
 L -52.7103,69.1545 L -51.9098,70.1221 L -51.2369,71.1824 L -50.7022,72.3187 L -50.3142,73.5131 L -50.0788,74.7467
 L -49.9212,77.2533 L -49.6858,78.4869 L -49.2978,79.6813 L -48.7631,80.8176 L -48.0902,81.8779 L -47.2897,82.8455
 L -46.3743,83.7051 L -45.3583,84.4433 L -44.2578,85.0483 L -43.0902,85.5106 L -41.8738,85.8229 L -40.6279,85.9803
 L -40,85.9803 L -40,86 L -20,86 L -18.7467,85.9212 L -17.5131,85.6859 L -16.3187,85.2978
 L -15.1824,84.7631 L -14.1221,84.0902 L -13.1545,83.2897 L -12.2949,82.3743 L -11.5567,81.3583 L -10.9517,80.2578
 L -10.4894,79.0902 L -10.1771,77.8738 L -10.0197,76.6279 L -10.0197,76 L -10,76 L -10,26
 L -50,26 L -50,10 L -70,10 L -70,26 L -195,26 L -195,10
 L -215,10 L -215,26 L -340,26 L -340,10 L -360,10 L -360,26
 L -400,26 L -400,76 L -399.921,77.2533 L -399.686,78.4869 L -399.298,79.6813 L -398.763,80.8176
 L -398.09,81.8779 L -397.29,82.8455 L -396.374,83.7051 L -395.358,84.4433 L -394.258,85.0483 L -393.09,85.5106
 L -391.874,85.8229 L -390.628,85.9803 L -390,85.9803 L -390,86 L -370,86 z
M 40,85.9803 L 40.6279,85.9803 L 41.8738,85.8229 L 43.0902,85.5106 L 44.2578,85.0483 L 45.3583,84.4433
 L 46.3743,83.7051 L 47.2897,82.8455 L 48.0902,81.8779 L 48.7631,80.8176 L 49.2978,79.6813 L 49.6858,78.4869
 L 49.9212,77.2533 L 50,76 L 50.0197,76 L 50.0197,75.3721 L 50.1771,74.1262 L 50.4894,72.9098
 L 50.9517,71.7422 L 51.5567,70.6417 L 52.2949,69.6257 L 53.1545,68.7103 L 54.1221,67.9098 L 55.1824,67.2369
 L 56.3187,66.7022 L 57.5131,66.3142 L 58.7467,66.0788 L 60,66 L 350,66 L 350,66.0197
 L 350.628,66.0197 L 351.874,66.1771 L 353.09,66.4894 L 354.258,66.9517 L 355.358,67.5567 L 356.374,68.2949
 L 357.29,69.1545 L 358.09,70.1221 L 358.763,71.1824 L 359.298,72.3187 L 359.686,73.5131 L 359.921,74.7467
 L 360.079,77.2533 L 360.314,78.4869 L 360.702,79.6813 L 361.237,80.8176 L 361.91,81.8779 L 362.71,82.8455
 L 363.626,83.7051 L 364.642,84.4433 L 365.742,85.0483 L 366.91,85.5106 L 368.126,85.8229 L 369.372,85.9803
 L 370,85.9803 L 370,86 L 390,86 L 391.253,85.9212 L 392.487,85.6859 L 393.681,85.2978
 L 394.818,84.7631 L 395.878,84.0902 L 396.845,83.2897 L 397.705,82.3743 L 398.443,81.3583 L 399.048,80.2578
 L 399.511,79.0902 L 399.823,77.8738 L 399.98,76.6279 L 399.98,76 L 400,76 L 400,26
 L 360,26 L 360,10 L 340,10 L 340,26 L 215,26 L 215,10
 L 195,10 L 195,26 L 70,26 L 70,10 L 50,10 L 50,26
 L 10,26 L 10,76 L 10.0788,77.2533 L 10.3142,78.4869 L 10.7022,79.6813 L 11.2369,80.8176
 L 11.9098,81.8779 L 12.7103,82.8455 L 13.6257,83.7051 L 14.6417,84.4433 L 15.7422,85.0483 L 16.9098,85.5106
 L 18.1262,85.8229 L 19.3721,85.9803 L 20,85.9803 L 20,86 L 40,86 z
" stroke="black" fill="lightgray" stroke-width="0.5"/></svg>
