  0
SECTION
  2
HEADER
  9
$ACADVER
  1
AC1024
  9
$ACADMAINTVER
 70
     6
  9
$DWGCODEPAGE
  3
ASCII
  9
$INSBASE
 10
0.0
 20
0.0
 30
0.0
  9
$EXTMIN
 10
1.000000000000000E+20
 20
1.000000000000000E+20
 30
1.000000000000000E+20
  9
$EXTMAX
 10
-1.000000000000000E+20
 20
-1.000000000000000E+20
 30
-1.000000000000000E+20
  9
$LIMMIN
 10
0.0
 20
0.0
  9
$LIMMAX
 10
12.0
 20
9.0
  9
$ORTHOMODE
 70
     0
  9
$REGENMODE
 70
     1
  9
$FILLMODE
 70
     1
  9
$QTEXTMODE
 70
     0
  9
$MIRRTEXT
 70
     1
  9
$LTSCALE
 40
1.0
  9
$ATTMODE
 70
     1
  9
$TEXTSIZE
 40
0.2
  9
$TRACEWID
 40
0.05
  9
$TEXTSTYLE
  7
Standard
  9
$CLAYER
  8
0
  9
$CELTYPE
  6
ByLayer
  9
$CECOLOR
 62
   256
  9
$CELTSCALE
 40
1.0
  9
$DISPSILH
 70
     0
  9
$DIMSCALE
 40
1.0
  9
$DIMASZ
 40
2.5
  9
$DIMEXO
 40
0.625
  9
$DIMDLI
 40
0.38
  9
$DIMRND
 40
0.0
  9
$DIMDLE
 40
0.0
  9
$DIMEXE
 40
1.25
  9
$DIMTP
 40
0.0
  9
$DIMTM
 40
0.0
  9
$DIMTXT
 40
2.5
  9
$DIMCEN
 40
0.09
  9
$DIMTSZ
 40
0.0
  9
$DIMTOL
 70
     0
  9
$DIMLIM
 70
     0
  9
$DIMTIH
 70
     1
  9
$DIMTOH
 70
     1
  9
$DIMSE1
 70
     0
  9
$DIMSE2
 70
     0
  9
$DIMTAD
 70
     0
  9
$DIMZIN
 70
     8
  9
$DIMBLK
  1

  9
$DIMASO
 70
     1
  9
$DIMSHO
 70
     1
  9
$DIMPOST
  1

  9
$DIMAPOST
  1

  9
$DIMALT
 70
     0
  9
$DIMALTD
 70
     2
  9
$DIMALTF
 40
25.4
  9
$DIMLFAC
 40
1.0
  9
$DIMTOFL
 70
     0
  9
$DIMTVP
 40
0.0
  9
$DIMTIX
 70
     0
  9
$DIMSOXD
 70
     0
  9
$DIMSAH
 70
     0
  9
$DIMBLK1
  1

  9
$DIMBLK2
  1

  9
$DIMSTYLE
  2
Standard
  9
$DIMCLRD
 70
     0
  9
$DIMCLRE
 70
     0
  9
$DIMCLRT
 70
     0
  9
$DIMTFAC
 40
1.0
  9
$DIMGAP
 40
0.625
  9
$DIMJUST
 70
     0
  9
$DIMSD1
 70
     0
  9
$DIMSD2
 70
     0
  9
$DIMTOLJ
 70
     1
  9
$DIMTZIN
 70
     0
  9
$DIMALTZ
 70
     0
  9
$DIMALTTZ
 70
     0
  9
$DIMUPT
 70
     0
  9
$DIMDEC
 70
     4
  9
$DIMTDEC
 70
     4
  9
$DIMALTU
 70
     2
  9
$DIMALTTD
 70
     2
  9
$DIMTXSTY
  7
Standard
  9
$DIMAUNIT
 70
     0
  9
$DIMADEC
 70
     0
  9
$DIMALTRND
 40
0.0
  9
$DIMAZIN
 70
     2
  9
$DIMDSEP
 70
    46
  9
$DIMATFIT
 70
     3
  9
$DIMFRAC
 70
     0
  9
$DIMLDRBLK
  1

  9
$DIMLUNIT
 70
     2
  9
$DIMLWD
 70
    -2
  9
$DIMLWE
 70
    -2
  9
$DIMTMOVE
 70
     0
  9
$DIMFXL
 40
1.0
  9
$DIMFXLON
 70
     0
  9
$DIMJOGANG
 40
0.7853981633974483
  9
$DIMTFILL
 70
     0
  9
$DIMTFILLCLR
 70
     0
  9
$DIMARCSYM
 70
     0
  9
$DIMLTYPE
  6

  9
$DIMLTEX1
  6

  9
$DIMLTEX2
  6

  9
$DIMTXTDIRECTION
 70
     0
  9
$LUNITS
 70
     2
  9
$LUPREC
 70
     4
  9
$SKETCHINC
 40
0.1
  9
$FILLETRAD
 40
0.5
  9
$AUNITS
 70
     0
  9
$AUPREC
 70
     0
  9
$MENU
  1
.
  9
$ELEVATION
 40
0.0
  9
$PELEVATION
 40
0.0
  9
$THICKNESS
 40
0.0
  9
$LIMCHECK
 70
     0
  9
$CHAMFERA
 40
0.5
  9
$CHAMFERB
 40
0.5
  9
$CHAMFERC
 40
1.0
  9
$CHAMFERD
 40
0.0
  9
$SKPOLY
 70
     0
  9
$TDCREATE
 40
2457225.478356482
  9
$TDUCREATE
 40
2457225.478356482
  9
$TDUPDATE
 40
2457225.478356482
  9
$TDUUPDATE
 40
2457225.478356482
  9
$TDINDWG
 40
0.0000000116
  9
$TDUSRTIMER
 40
0.0000000116
  9
$USRTIMER
 70
     1
  9
$ANGBASE
 50
0.0
  9
$ANGDIR
 70
     0
  9
$PDMODE
 70
     0
  9
$PDSIZE
 40
0.0
  9
$PLINEWID
 40
0.0
  9
$SPLFRAME
 70
     0
  9
$SPLINETYPE
 70
     6
  9
$SPLINESEGS
 70
     8
  9
$HANDSEED
  5
B1
  9
$SURFTAB1
 70
     6
  9
$SURFTAB2
 70
     6
  9
$SURFTYPE
 70
     6
  9
$SURFU
 70
     6
  9
$SURFV
 70
     6
  9
$UCSBASE
  2

  9
$UCSNAME
  2

  9
$UCSORG
 10
0.0
 20
0.0
 30
0.0
  9
$UCSXDIR
 10
1.0
 20
0.0
 30
0.0
  9
$UCSYDIR
 10
0.0
 20
1.0
 30
0.0
  9
$UCSORTHOREF
  2

  9
$UCSORTHOVIEW
 70
     0
  9
$UCSORGTOP
 10
0.0
 20
0.0
 30
0.0
  9
$UCSORGBOTTOM
 10
0.0
 20
0.0
 30
0.0
  9
$UCSORGLEFT
 10
0.0
 20
0.0
 30
0.0
  9
$UCSORGRIGHT
 10
0.0
 20
0.0
 30
0.0
  9
$UCSORGFRONT
 10
0.0
 20
0.0
 30
0.0
  9
$UCSORGBACK
 10
0.0
 20
0.0
 30
0.0
  9
$PUCSBASE
  2

  9
$PUCSNAME
  2

  9
$PUCSORG
 10
0.0
 20
0.0
 30
0.0
  9
$PUCSXDIR
 10
1.0
 20
0.0
 30
0.0
  9
$PUCSYDIR
 10
0.0
 20
1.0
 30
0.0
  9
$PUCSORTHOREF
  2

  9
$PUCSORTHOVIEW
 70
     0
  9
$PUCSORGTOP
 10
0.0
 20
0.0
 30
0.0
  9
$PUCSORGBOTTOM
 10
0.0
 20
0.0
 30
0.0
  9
$PUCSORGLEFT
 10
0.0
 20
0.0
 30
0.0
  9
$PUCSORGRIGHT
 10
0.0
 20
0.0
 30
0.0
  9
$PUCSORGFRONT
 10
0.0
 20
0.0
 30
0.0
  9
$PUCSORGBACK
 10
0.0
 20
0.0
 30
0.0
  9
$USERI1
 70
     0
  9
$USERI2
 70
     0
  9
$USERI3
 70
     0
  9
$USERI4
 70
     0
  9
$USERI5
 70
     0
  9
$USERR1
 40
0.0
  9
$USERR2
 40
0.0
  9
$USERR3
 40
0.0
  9
$USERR4
 40
0.0
  9
$USERR5
 40
0.0
  9
$WORLDVIEW
 70
     1
  9
$SHADEDGE
 70
     3
  9
$SHADEDIF
 70
    70
  9
$TILEMODE
 70
     1
  9
$MAXACTVP
 70
    64
  9
$PINSBASE
 10
0.0
 20
0.0
 30
0.0
  9
$PLIMCHECK
 70
     0
  9
$PEXTMIN
 10
1.000000000000000E+20
 20
1.000000000000000E+20
 30
1.000000000000000E+20
  9
$PEXTMAX
 10
-1.000000000000000E+20
 20
-1.000000000000000E+20
 30
-1.000000000000000E+20
  9
$PLIMMIN
 10
0.0
 20
0.0
  9
$PLIMMAX
 10
12.0
 20
9.0
  9
$UNITMODE
 70
     0
  9
$VISRETAIN
 70
     1
  9
$PLINEGEN
 70
     0
  9
$PSLTSCALE
 70
     1
  9
$TREEDEPTH
 70
  3020
  9
$CMLSTYLE
  2
Standard
  9
$CMLJUST
 70
     0
  9
$CMLSCALE
 40
1.0
  9
$PROXYGRAPHICS
 70
     1
  9
$MEASUREMENT
 70
     1
  9
$CELWEIGHT
370
    -1
  9
$ENDCAPS
280
     0
  9
$JOINSTYLE
280
     0
  9
$LWDISPLAY
290
     0
  9
$INSUNITS
 70
     4
  9
$HYPERLINKBASE
  1

  9
$STYLESHEET
  1

  9
$XEDIT
290
     1
  9
$CEPSNTYPE
380
     0
  9
$PSTYLEMODE
290
     1
  9
$FINGERPRINTGUID
  2
{71801A8E-162D-EFF1-2F23-8798DE2C7484}
  9
$VERSIONGUID
  2
{FAEB1C32-E019-11D5-929B-00C0DF256EC4}
  9
$EXTNAMES
290
     1
  9
$PSVPSCALE
 40
0.0
  9
$OLESTARTUP
290
     0
  9
$SORTENTS
280
   127
  9
$INDEXCTL
280
     0
  9
$HIDETEXT
280
     1
  9
$XCLIPFRAME
280
     2
  9
$HALOGAP
280
     0
  9
$OBSCOLOR
 70
   257
  9
$OBSLTYPE
280
     0
  9
$INTERSECTIONDISPLAY
280
     0
  9
$INTERSECTIONCOLOR
 70
   257
  9
$DIMASSOC
280
     2
  9
$PROJECTNAME
  1

  9
$CAMERADISPLAY
290
     0
  9
$LENSLENGTH
 40
50.0
  9
$CAMERAHEIGHT
 40
0.0
  9
$STEPSPERSEC
 40
2.0
  9
$STEPSIZE
 40
6.0
  9
$3DDWFPREC
 40
2.0
  9
$PSOLWIDTH
 40
0.25
  9
$PSOLHEIGHT
 40
4.0
  9
$LOFTANG1
 40
1.570796326794897
  9
$LOFTANG2
 40
1.570796326794897
  9
$LOFTMAG1
 40
0.0
  9
$LOFTMAG2
 40
0.0
  9
$LOFTPARAM
 70
     7
  9
$LOFTNORMALS
280
     1
  9
$LATITUDE
 40
37.795
  9
$LONGITUDE
 40
-122.394
  9
$NORTHDIRECTION
 40
0.0
  9
$TIMEZONE
 70
 -8000
  9
$LIGHTGLYPHDISPLAY
280
     1
  9
$TILEMODELIGHTSYNCH
280
     1
  9
$SOLIDHIST
280
     1
  9
$SHOWHIST
280
     1
  9
$DWFFRAME
280
     2
  9
$DGNFRAME
280
     2
  9
$REALWORLDSCALE
290
     1
  9
$INTERFERECOLOR
 62
   256
  9
$CSHADOW
280
     0
  9
$SHADOWPLANELOCATION
 40
0.0
  0
ENDSEC
  0
SECTION
  2
CLASSES
  0
CLASS
  1
ACDBDICTIONARYWDFLT
  2
AcDbDictionaryWithDefault
  3
ObjectDBX Classes
 90
        0
 91
        4
280
     0
281
     0
  0
CLASS
  1
VISUALSTYLE
  2
AcDbVisualStyle
  3
ObjectDBX Classes
 90
     4095
 91
        4
280
     0
281
     0
  0
CLASS
  1
MATERIAL
  2
AcDbMaterial
  3
ObjectDBX Classes
 90
     1153
 91
        4
280
     0
281
     0
  0
ENDSEC
  0
SECTION
  2
TABLES
  0
TABLE
  2
VPORT
  5
49
330
0
100
AcDbSymbolTable
 70
     1
  0
VPORT
  5
69
330
49
100
AcDbSymbolTableRecord
100
AcDbViewportTableRecord
  2
*Active
 70
     0
 10
0.0
 20
0.0
 11
1.0
 21
1.0
 12
10.42990654205607
 22
4.5
 13
0.0
 23
0.0
 14
0.5
 24
0.5
 15
0.5
 25
0.5
 16
0.0
 26
0.0
 36
1.0
 17
0.0
 27
0.0
 37
0.0
 40
9.0
 41
1.972972972850329
 42
50.0
 43
0.0
 44
0.0
 50
0.0
 51
0.0
 71
     0
 72
   100
 73
     1
 74
     3
 75
     0
 76
     0
 77
     0
 78
     0
281
     0
 65
     1
110
0.0
120
0.0
130
0.0
111
1.0
121
0.0
131
0.0
112
0.0
122
1.0
132
0.0
 79
     0
146
0.0
 60
     3
 61
     5
292
     1
282
     1
141
0.0
142
0.0
 63
   250
  0
ENDTAB
  0
TABLE
  2
LTYPE
  5
46
330
0
100
AcDbSymbolTable
 70
    19
  0
LTYPE
  5
54
330
46
100
AcDbSymbolTableRecord
100
AcDbLinetypeTableRecord
  2
ByBlock
 70
     0
  3

 72
    65
 73
     0
 40
0.0
  0
LTYPE
  5
55
330
46
100
AcDbSymbolTableRecord
100
AcDbLinetypeTableRecord
  2
ByLayer
 70
     0
  3

 72
    65
 73
     0
 40
0.0
  0
LTYPE
  5
56
330
46
100
AcDbSymbolTableRecord
100
AcDbLinetypeTableRecord
  2
Continuous
 70
     0
  3
Solid line
 72
    65
 73
     0
 40
0.0
  0
LTYPE
  5
96
330
46
100
AcDbSymbolTableRecord
100
AcDbLinetypeTableRecord
  2
BORDER
 70
     0
  3

 72
    65
 73
     6
 40
42.00000000000001
 49
12.0
 74
     0
 49
-6.0
 74
     0
 49
12.0
 74
     0
 49
-5.95
 74
     0
 49
0.1
 74
     0
 49
-5.95
 74
     0
  0
LTYPE
  5
97
330
46
100
AcDbSymbolTableRecord
100
AcDbLinetypeTableRecord
  2
BORDER2
 70
     0
  3

 72
    65
 73
     6
 40
21.0
 49
6.0
 74
     0
 49
-3.0
 74
     0
 49
6.0
 74
     0
 49
-2.95
 74
     0
 49
0.1
 74
     0
 49
-2.95
 74
     0
  0
LTYPE
  5
98
330
46
100
AcDbSymbolTableRecord
100
AcDbLinetypeTableRecord
  2
BORDERX2
 70
     0
  3

 72
    65
 73
     6
 40
84.0
 49
24.0
 74
     0
 49
-12.0
 74
     0
 49
24.0
 74
     0
 49
-11.95
 74
     0
 49
0.1
 74
     0
 49
-11.95
 74
     0
  0
LTYPE
  5
99
330
46
100
AcDbSymbolTableRecord
100
AcDbLinetypeTableRecord
  2
CENTER
 70
     0
  3

 72
    65
 73
     4
 40
50.0
 49
32.0
 74
     0
 49
-6.0
 74
     0
 49
6.0
 74
     0
 49
-6.0
 74
     0
  0
LTYPE
  5
9A
330
46
100
AcDbSymbolTableRecord
100
AcDbLinetypeTableRecord
  2
CENTER2
 70
     0
  3

 72
    65
 73
     4
 40
25.0
 49
16.0
 74
     0
 49
-3.0
 74
     0
 49
3.0
 74
     0
 49
-3.0
 74
     0
  0
LTYPE
  5
9B
330
46
100
AcDbSymbolTableRecord
100
AcDbLinetypeTableRecord
  2
CENTERX2
 70
     0
  3

 72
    65
 73
     4
 40
100.0
 49
64.0
 74
     0
 49
-12.0
 74
     0
 49
12.0
 74
     0
 49
-12.0
 74
     0
  0
LTYPE
  5
9C
330
46
100
AcDbSymbolTableRecord
100
AcDbLinetypeTableRecord
  2
DASHDOT
 70
     0
  3

 72
    65
 73
     4
 40
24.0
 49
12.0
 74
     0
 49
-5.95
 74
     0
 49
0.1
 74
     0
 49
-5.95
 74
     0
  0
LTYPE
  5
9D
330
46
100
AcDbSymbolTableRecord
100
AcDbLinetypeTableRecord
  2
DASHDOT2
 70
     0
  3

 72
    65
 73
     4
 40
12.0
 49
6.0
 74
     0
 49
-2.95
 74
     0
 49
0.1
 74
     0
 49
-2.95
 74
     0
  0
LTYPE
  5
9E
330
46
100
AcDbSymbolTableRecord
100
AcDbLinetypeTableRecord
  2
DASHDOTX2
 70
     0
  3

 72
    65
 73
     4
 40
48.0
 49
24.0
 74
     0
 49
-11.95
 74
     0
 49
0.1
 74
     0
 49
-11.95
 74
     0
  0
LTYPE
  5
9F
330
46
100
AcDbSymbolTableRecord
100
AcDbLinetypeTableRecord
  2
DASHED
 70
     0
  3

 72
    65
 73
     2
 40
18.0
 49
12.0
 74
     0
 49
-6.0
 74
     0
  0
LTYPE
  5
A0
330
46
100
AcDbSymbolTableRecord
100
AcDbLinetypeTableRecord
  2
DASHED2
 70
     0
  3

 72
    65
 73
     2
 40
9.0
 49
6.0
 74
     0
 49
-3.0
 74
     0
  0
LTYPE
  5
A1
330
46
100
AcDbSymbolTableRecord
100
AcDbLinetypeTableRecord
  2
DASHEDX2
 70
     0
  3

 72
    65
 73
     2
 40
36.0
 49
24.0
 74
     0
 49
-12.0
 74
     0
  0
LTYPE
  5
A2
330
46
100
AcDbSymbolTableRecord
100
AcDbLinetypeTableRecord
  2
DIVIDE
 70
     0
  3

 72
    65
 73
     6
 40
29.99999999999999
 49
12.0
 74
     0
 49
-5.9
 74
     0
 49
0.15
 74
     0
 49
-5.9
 74
     0
 49
0.15
 74
     0
 49
-5.9
 74
     0
  0
LTYPE
  5
A3
330
46
100
AcDbSymbolTableRecord
100
AcDbLinetypeTableRecord
  2
DIVIDE2
 70
     0
  3

 72
    65
 73
     6
 40
15.0
 49
6.0
 74
     0
 49
-2.9
 74
     0
 49
0.15
 74
     0
 49
-2.9
 74
     0
 49
0.15
 74
     0
 49
-2.9
 74
     0
  0
LTYPE
  5
A4
330
46
100
AcDbSymbolTableRecord
100
AcDbLinetypeTableRecord
  2
DIVIDEX2
 70
     0
  3

 72
    65
 73
     6
 40
59.99999999999999
 49
24.0
 74
     0
 49
-11.9
 74
     0
 49
0.15
 74
     0
 49
-11.9
 74
     0
 49
0.15
 74
     0
 49
-11.9
 74
     0
  0
LTYPE
  5
A5
330
46
100
AcDbSymbolTableRecord
100
AcDbLinetypeTableRecord
  2
DOT
 70
     0
  3

 72
    65
 73
     2
 40
6.3
 49
0.1
 74
     0
 49
-6.2
 74
     0
  0
LTYPE
  5
A6
330
46
100
AcDbSymbolTableRecord
100
AcDbLinetypeTableRecord
  2
DOT2
 70
     0
  3

 72
    65
 73
     2
 40
3.2
 49
0.1
 74
     0
 49
-3.1
 74
     0
  0
LTYPE
  5
A7
330
46
100
AcDbSymbolTableRecord
100
AcDbLinetypeTableRecord
  2
DOTX2
 70
     0
  3

 72
    65
 73
     2
 40
12.5
 49
0.1
 74
     0
 49
-12.4
 74
     0
  0
ENDTAB
  0
TABLE
  2
LAYER
  5
43
330
0
100
AcDbSymbolTable
 70
     2
  0
LAYER
  5
51
330
43
100
AcDbSymbolTableRecord
100
AcDbLayerTableRecord
  2
0
 70
     0
 62
     7
420
 16777215
  6
Continuous
370
    25
390
50
347
7E
  0
LAYER
  5
A8
330
43
100
AcDbSymbolTableRecord
100
AcDbLayerTableRecord
  2
Layer 1
 70
     0
 62
     7
420
 16777215
  6
Continuous
370
    -3
390
50
347
7E
  0
ENDTAB
  0
TABLE
  2
STYLE
  5
44
330
0
100
AcDbSymbolTable
 70
     1
  0
STYLE
  5
52
330
44
100
AcDbSymbolTableRecord
100
AcDbTextStyleTableRecord
  2
Standard
 70
     0
 40
0.0
 41
1.0
 50
0.0
 71
     0
 42
0.2
  3
txt
  4

  0
ENDTAB
  0
TABLE
  2
VIEW
  5
47
330
0
100
AcDbSymbolTable
 70
     0
  0
ENDTAB
  0
TABLE
  2
UCS
  5
48
330
0
100
AcDbSymbolTable
 70
     0
  0
ENDTAB
  0
TABLE
  2
APPID
  5
4A
330
0
100
AcDbSymbolTable
 70
     2
  0
APPID
  5
53
330
4A
100
AcDbSymbolTableRecord
100
AcDbRegAppTableRecord
  2
ACAD
 70
     0
  0
APPID
  5
7F
330
4A
100
AcDbSymbolTableRecord
100
AcDbRegAppTableRecord
  2
QCAD
 70
     0
  0
ENDTAB
  0
TABLE
  2
DIMSTYLE
  5
4B
330
0
100
AcDbSymbolTable
 70
     2
100
AcDbDimStyleTable
  0
DIMSTYLE
105
67
330
4B
100
AcDbSymbolTableRecord
100
AcDbDimStyleTableRecord
  2
Standard
 70
     0
178
     0
340
52
  0
DIMSTYLE
105
95
330
4B
100
AcDbSymbolTableRecord
100
AcDbDimStyleTableRecord
  2
QCADDimStyle
 70
     0
 41
2.5
 42
0.625
 44
1.25
 73
     0
 77
     1
140
2.5
147
0.625
178
     0
340
52
  0
ENDTAB
  0
TABLE
  2
BLOCK_RECORD
  5
42
330
0
100
AcDbSymbolTable
 70
     3
  0
BLOCK_RECORD
  5
5F
330
42
100
AcDbSymbolTableRecord
100
AcDbBlockTableRecord
  2
*Model_Space
340
62
 70
     0
280
     1
281
     0
  0
BLOCK_RECORD
  5
5B
330
42
100
AcDbSymbolTableRecord
100
AcDbBlockTableRecord
  2
*Paper_Space
340
5E
 70
     0
280
     1
281
     0
  0
BLOCK_RECORD
  5
63
330
42
100
AcDbSymbolTableRecord
100
AcDbBlockTableRecord
  2
*Paper_Space0
340
66
 70
     0
280
     1
281
     0
  0
BLOCK_RECORD
  5
A9
330
42
100
AcDbSymbolTableRecord
100
AcDbBlockTableRecord
  2
block 42
340
0
102
{BLKREFS
331
1B
102
}
 70
     0
280
     1
281
     0
  0
BLOCK_RECORD
  5
AC
330
42
100
AcDbSymbolTableRecord
100
AcDbBlockTableRecord
  2
block 43
340
0
102
{BLKREFS
331
40
102
}
 70
     0
280
     1
281
     0
  0
ENDTAB
  0
ENDSEC
  0
SECTION
  2
BLOCKS
  0
BLOCK
  5
60
330
5F
100
AcDbEntity
  8
0
100
AcDbBlockBegin
  2
*Model_Space
 70
     0
 10
0.0
 20
0.0
 30
0.0
  3
*Model_Space
  1

  0
ENDBLK
  5
61
330
5F
100
AcDbEntity
  8
0
100
AcDbBlockEnd
  0
BLOCK
  5
5C
330
5B
100
AcDbEntity
 67
     1
  8
0
100
AcDbBlockBegin
  2
*Paper_Space
 70
     0
 10
0.0
 20
0.0
 30
0.0
  3
*Paper_Space
  1

  0
ENDBLK
  5
5D
330
5B
100
AcDbEntity
 67
     1
  8
0
100
AcDbBlockEnd
  0
BLOCK
  5
64
330
63
100
AcDbEntity
  8
0
100
AcDbBlockBegin
  2
*Paper_Space0
 70
     0
 10
0.0
 20
0.0
 30
0.0
  3
*Paper_Space0
  1

  0
ENDBLK
  5
65
330
63
100
AcDbEntity
  8
0
100
AcDbBlockEnd
  0
BLOCK
  5
AA
330
A9
100
AcDbEntity
  8
0
100
AcDbBlockBegin
  2
block 42
 70
     0
 10
0.0
 20
0.0
 30
0.0
  3
block 42
  1

  0
SPLINE
  5
19
330
A9
100
AcDbEntity
  8
Layer 1
 62
   250
420
  3289650
370
     9
100
AcDbSpline
210
0.0
220
0.0
230
1.0
 70
    11
 71
     3
 72
    26
 73
    22
 74
     0
 42
0.000000001
 43
0.001
 12
1.0
 22
0.0
 32
0.0
 13
1.0
 23
0.0
 33
0.0
 40
0.0
 40
0.0
 40
0.0
 40
0.0
 40
1.0
 40
2.0
 40
3.0
 40
4.0
 40
5.0
 40
6.0
 40
7.0
 40
8.0
 40
9.0
 40
10.0
 40
11.0
 40
12.0
 40
13.0
 40
14.0
 40
15.0
 40
16.0
 40
17.0
 40
18.0
 40
19.0
 40
19.0
 40
19.0
 40
19.0
 10
7658.653381667178
 20
5078.407224057552
 30
0.0
 10
7658.653381667178
 20
5078.407224057552
 30
0.0
 10
7945.072216787647
 20
5078.407224057552
 30
0.0
 10
7945.072216787647
 20
5078.407224057552
 30
0.0
 10
7945.072216787647
 20
5078.407224057552
 30
0.0
 10
8114.248177092323
 20
5100.046009677908
 30
0.0
 10
8269.260568627285
 20
5292.434485466245
 30
0.0
 10
8424.272960162261
 20
5484.822961254589
 30
0.0
 10
8602.891299646742
 20
5481.282069062176
 30
0.0
 10
8602.891299646742
 20
5481.282069062176
 30
0.0
 10
8602.891299646742
 20
5481.282069062176
 30
0.0
 10
8602.891299646742
 20
5580.427050450021
 30
0.0
 10
8602.891299646742
 20
5580.427050450021
 30
0.0
 10
8427.02698742305
 20
5549.739318115677
 30
0.0
 10
8337.205159617264
 20
5529.852272299358
 30
0.0
 10
8171.689305096129
 20
5345.941312825028
 30
0.0
 10
8006.173450574983
 20
5162.030353350705
 30
0.0
 10
7947.8262440484
 20
5175.585043116293
 30
0.0
 10
7658.653381667178
 20
5136.635228999625
 30
0.0
 10
7658.653381667178
 20
5136.635228999625
 30
0.0
 10
7658.653381667178
 20
5078.407224057552
 30
0.0
 10
7658.653381667178
 20
5078.407224057552
 30
0.0
  0
SPLINE
  5
1A
330
A9
100
AcDbEntity
  8
Layer 1
 62
    59
420
  5066061
370
     9
100
AcDbSpline
210
0.0
220
0.0
230
1.0
 70
     8
 71
     3
 72
    35
 73
    31
 74
     0
 42
0.000000001
 43
0.001
 12
1.0
 22
0.0
 32
0.0
 13
1.0
 23
0.0
 33
0.0
 40
0.0
 40
0.0
 40
0.0
 40
0.0
 40
1.0
 40
2.0
 40
3.0
 40
4.0
 40
5.0
 40
6.0
 40
7.0
 40
8.0
 40
9.0
 40
10.0
 40
11.0
 40
12.0
 40
13.0
 40
14.0
 40
15.0
 40
16.0
 40
17.0
 40
18.0
 40
19.0
 40
20.0
 40
21.0
 40
22.0
 40
23.0
 40
24.0
 40
25.0
 40
26.0
 40
27.0
 40
28.0
 40
28.0
 40
28.0
 40
28.0
 10
7658.653365783438
 20
5136.294662570617
 30
0.0
 10
7947.826228164679
 20
5175.244476687262
 30
0.0
 10
8006.173434691226
 20
5161.689786921705
 30
0.0
 10
8171.689289212391
 20
5345.600746396012
 30
0.0
 10
8264.666941590762
 20
5448.911751302743
 30
0.0
 10
8333.758806663003
 20
5500.463846229902
 30
0.0
 10
8407.634706523675
 20
5531.246880962612
 30
0.0
 10
8407.634706523675
 20
5531.246880962612
 30
0.0
 10
8407.513885579281
 20
5531.535716613438
 30
0.0
 10
8407.513885579281
 20
5531.535716613438
 30
0.0
 10
8407.513885579281
 20
5531.535716613438
 30
0.0
 10
8443.551150987678
 20
5567.443779077807
 30
0.0
 10
8507.287210451312
 20
5600.492106207071
 30
0.0
 10
8547.417321965426
 20
5619.967013265408
 30
0.0
 10
8602.891299646742
 20
5640.622217721217
 30
0.0
 10
8602.891299646742
 20
5640.622217721217
 30
0.0
 10
8602.891299646742
 20
5640.622217721217
 30
0.0
 10
8602.891299646742
 20
5713.407223898804
 30
0.0
 10
8602.891299646742
 20
5713.407223898804
 30
0.0
 10
8602.891299646742
 20
5713.407223898804
 30
0.0
 10
8448.665773043409
 20
5713.407223898804
 30
0.0
 10
8448.665773043409
 20
5713.407223898804
 30
0.0
 10
8448.665773043409
 20
5713.407223898804
 30
0.0
 10
8301.915463290745
 20
5659.506976080811
 30
0.0
 10
8151.230828879854
 20
5443.512552342989
 30
0.0
 10
8000.546194468956
 20
5227.518128605167
 30
0.0
 10
7843.960073070655
 20
5204.502329354398
 30
0.0
 10
7658.653381667178
 20
5149.618500371847
 30
0.0
 10
7658.653381667178
 20
5149.618500371847
 30
0.0
 10
7658.653381667178
 20
5136.635228999625
 30
0.0
 10
7658.653381667178
 20
5136.635228999625
 30
0.0
  0
ENDBLK
  5
AB
330
A9
100
AcDbEntity
  8
0
100
AcDbBlockEnd
  0
BLOCK
  5
AD
330
AC
100
AcDbEntity
  8
0
100
AcDbBlockBegin
  2
block 43
 70
     0
 10
0.0
 20
0.0
 30
0.0
  3
block 43
  1

  0
SPLINE
  5
1D
330
AC
100
AcDbEntity
  8
Layer 1
 62
     7
420
 16777215
370
     9
100
AcDbSpline
210
0.0
220
0.0
230
1.0
 70
    11
 71
     3
 72
    62
 73
    58
 74
     0
 42
0.000000001
 43
0.001
 12
1.0
 22
0.0
 32
0.0
 13
1.0
 23
0.0
 33
0.0
 40
0.0
 40
0.0
 40
0.0
 40
0.0
 40
1.0
 40
2.0
 40
3.0
 40
4.0
 40
5.0
 40
6.0
 40
7.0
 40
8.0
 40
9.0
 40
10.0
 40
11.0
 40
12.0
 40
13.0
 40
14.0
 40
15.0
 40
16.0
 40
17.0
 40
18.0
 40
19.0
 40
20.0
 40
21.0
 40
22.0
 40
23.0
 40
24.0
 40
25.0
 40
26.0
 40
27.0
 40
28.0
 40
29.0
 40
30.0
 40
31.0
 40
32.0
 40
33.0
 40
34.0
 40
35.0
 40
36.0
 40
37.0
 40
38.0
 40
39.0
 40
40.0
 40
41.0
 40
42.0
 40
43.0
 40
44.0
 40
45.0
 40
46.0
 40
47.0
 40
48.0
 40
49.0
 40
50.0
 40
51.0
 40
52.0
 40
53.0
 40
54.0
 40
55.0
 40
55.0
 40
55.0
 40
55.0
 10
7589.957225313766
 20
5564.03471007651
 30
0.0
 10
7589.957225313766
 20
5564.03471007651
 30
0.0
 10
7589.957225313766
 20
5538.051845645881
 30
0.0
 10
7589.957225313766
 20
5538.051845645881
 30
0.0
 10
7589.957225313766
 20
5538.051845645881
 30
0.0
 10
7602.136896428837
 20
5538.051845645881
 30
0.0
 10
7602.136896428837
 20
5538.051845645881
 30
0.0
 10
7602.136896428837
 20
5538.051845645881
 30
0.0
 10
7602.136896428837
 20
5511.944661289757
 30
0.0
 10
7602.136896428837
 20
5511.944661289757
 30
0.0
 10
7602.136896428837
 20
5511.944661289757
 30
0.0
 10
7589.957225313766
 20
5511.944661289757
 30
0.0
 10
7589.957225313766
 20
5511.944661289757
 30
0.0
 10
7589.957225313766
 20
5511.944661289757
 30
0.0
 10
7589.957225313766
 20
5423.677514180881
 30
0.0
 10
7589.957225313766
 20
5423.677514180881
 30
0.0
 10
7589.957225313766
 20
5412.820240686724
 30
0.0
 10
7590.460055772654
 20
5406.770004312139
 30
0.0
 10
7591.46571669041
 20
5405.526805057086
 30
0.0
 10
7592.471377608167
 20
5404.283605802042
 30
0.0
 10
7596.661631432169
 20
5403.662006174487
 30
0.0
 10
7604.036478162352
 20
5403.662006174487
 30
0.0
 10
7604.036478162352
 20
5403.662006174487
 30
0.0
 10
7604.036478162352
 20
5377.057542116336
 30
0.0
 10
7604.036478162352
 20
5377.057542116336
 30
0.0
 10
7604.036478162352
 20
5377.057542116336
 30
0.0
 10
7585.822841540788
 20
5377.057542116336
 30
0.0
 10
7585.822841540788
 20
5377.057542116336
 30
0.0
 10
7575.542752159301
 20
5377.057542116336
 30
0.0
 10
7568.205152129742
 20
5377.534101830786
 30
0.0
 10
7563.810041452146
 20
5378.487221259652
 30
0.0
 10
7559.414930774549
 20
5379.440340688535
 30
0.0
 10
7555.541273906191
 20
5381.63665937247
 30
0.0
 10
7552.189070846987
 20
5385.076177311434
 30
0.0
 10
7548.836867787785
 20
5388.515695250428
 30
0.0
 10
7546.751052550961
 20
5392.45249289143
 30
0.0
 10
7545.931625136513
 20
5396.886570234451
 30
0.0
 10
7545.112197722047
 20
5401.320647577495
 30
0.0
 10
7544.702484014807
 20
5411.742801332356
 30
0.0
 10
7544.702484014807
 20
5428.153031499077
 30
0.0
 10
7544.702484014807
 20
5428.153031499077
 30
0.0
 10
7544.702484014807
 20
5511.944661289757
 30
0.0
 10
7544.702484014807
 20
5511.944661289757
 30
0.0
 10
7544.702484014807
 20
5511.944661289757
 30
0.0
 10
7534.981095143181
 20
5511.944661289757
 30
0.0
 10
7534.981095143181
 20
5511.944661289757
 30
0.0
 10
7534.981095143181
 20
5511.944661289757
 30
0.0
 10
7534.981095143181
 20
5538.051845645881
 30
0.0
 10
7534.981095143181
 20
5538.051845645881
 30
0.0
 10
7534.981095143181
 20
5538.051845645881
 30
0.0
 10
7544.702484014807
 20
5538.051845645881
 30
0.0
 10
7544.702484014807
 20
5538.051845645881
 30
0.0
 10
7544.702484014807
 20
5538.051845645881
 30
0.0
 10
7544.702484014807
 20
5564.03471007651
 30
0.0
 10
7544.702484014807
 20
5564.03471007651
 30
0.0
 10
7544.702484014807
 20
5564.03471007651
 30
0.0
 10
7589.957225313766
 20
5564.03471007651
 30
0.0
 10
7589.957225313766
 20
5564.03471007651
 30
0.0
  0
SPLINE
  5
1E
330
AC
100
AcDbEntity
  8
Layer 1
 62
     7
420
 16777215
370
     9
100
AcDbSpline
210
0.0
220
0.0
230
1.0
 70
    11
 71
     3
 72
    35
 73
    31
 74
     0
 42
0.000000001
 43
0.001
 12
1.0
 22
0.0
 32
0.0
 13
1.0
 23
0.0
 33
0.0
 40
0.0
 40
0.0
 40
0.0
 40
0.0
 40
1.0
 40
2.0
 40
3.0
 40
4.0
 40
5.0
 40
6.0
 40
7.0
 40
8.0
 40
9.0
 40
10.0
 40
11.0
 40
12.0
 40
13.0
 40
14.0
 40
15.0
 40
16.0
 40
17.0
 40
18.0
 40
19.0
 40
20.0
 40
21.0
 40
22.0
 40
23.0
 40
24.0
 40
25.0
 40
26.0
 40
27.0
 40
28.0
 40
28.0
 40
28.0
 40
28.0
 10
7668.668815478428
 20
5542.030083262057
 30
0.0
 10
7668.668815478428
 20
5542.030083262057
 30
0.0
 10
7666.880973846861
 20
5520.336256261359
 30
0.0
 10
7666.880973846861
 20
5520.336256261359
 30
0.0
 10
7673.436393162596
 20
5535.876246949525
 30
0.0
 10
7682.934301830292
 20
5544.102082020467
 30
0.0
 10
7695.374699849928
 20
5545.01376147418
 30
0.0
 10
7695.374699849928
 20
5545.01376147418
 30
0.0
 10
7695.374699849928
 20
5486.956356263129
 30
0.0
 10
7695.374699849928
 20
5486.956356263129
 30
0.0
 10
7687.105932303906
 20
5486.956356263129
 30
0.0
 10
7681.034720096757
 20
5485.713157008093
 30
0.0
 10
7677.161063228347
 20
5483.226758497981
 30
0.0
 10
7673.287406359976
 20
5480.740359987878
 30
0.0
 10
7670.90361751789
 20
5477.280122061301
 30
0.0
 10
7670.009696702082
 20
5472.846044718264
 30
0.0
 10
7669.115775886324
 20
5468.41196737525
 30
0.0
 10
7668.668815478428
 20
5458.197013496233
 30
0.0
 10
7668.668815478428
 20
5442.201183081189
 30
0.0
 10
7668.668815478428
 20
5442.201183081189
 30
0.0
 10
7668.668815478428
 20
5377.057542116336
 30
0.0
 10
7668.668815478428
 20
5377.057542116336
 30
0.0
 10
7668.668815478428
 20
5377.057542116336
 30
0.0
 10
7623.525814281417
 20
5377.057542116336
 30
0.0
 10
7623.525814281417
 20
5377.057542116336
 30
0.0
 10
7623.525814281417
 20
5377.057542116336
 30
0.0
 10
7623.525814281417
 20
5542.030083262057
 30
0.0
 10
7623.525814281417
 20
5542.030083262057
 30
0.0
 10
7623.525814281417
 20
5542.030083262057
 30
0.0
 10
7668.668815478428
 20
5542.030083262057
 30
0.0
 10
7668.668815478428
 20
5542.030083262057
 30
0.0
  0
LWPOLYLINE
  5
1F
330
AC
100
AcDbEntity
  8
Layer 1
 62
     7
420
 16777215
370
     9
100
AcDbPolyline
 90
        5
 70
     0
 43
0.0
 10
7763.359240225157
 20
5578.33150150964
 10
7763.359240225157
 20
5552.099997227985
 10
7716.875357804493
 20
5552.099997227985
 10
7716.875357804493
 20
5578.33150150964
 10
7763.359240225157
 20
5578.33150150964
  0
LWPOLYLINE
  5
20
330
AC
100
AcDbEntity
  8
Layer 1
 62
     7
420
 16777215
370
     9
100
AcDbPolyline
 90
        5
 70
     0
 43
0.0
 10
7763.359240225157
 20
5542.030083262057
 10
7763.359240225157
 20
5377.057542116336
 10
7716.875357804493
 20
5377.057542116336
 10
7716.875357804493
 20
5542.030083262057
 10
7763.359240225157
 20
5542.030083262057
  0
SPLINE
  5
21
330
AC
100
AcDbEntity
  8
Layer 1
 62
     7
420
 16777215
370
     9
100
AcDbSpline
210
0.0
220
0.0
230
1.0
 70
    11
 71
     3
 72
    80
 73
    76
 74
     0
 42
0.000000001
 43
0.001
 12
1.0
 22
0.0
 32
0.0
 13
1.0
 23
0.0
 33
0.0
 40
0.0
 40
0.0
 40
0.0
 40
0.0
 40
1.0
 40
2.0
 40
3.0
 40
4.0
 40
5.0
 40
6.0
 40
7.0
 40
8.0
 40
9.0
 40
10.0
 40
11.0
 40
12.0
 40
13.0
 40
14.0
 40
15.0
 40
16.0
 40
17.0
 40
18.0
 40
19.0
 40
20.0
 40
21.0
 40
22.0
 40
23.0
 40
24.0
 40
25.0
 40
26.0
 40
27.0
 40
28.0
 40
29.0
 40
30.0
 40
31.0
 40
32.0
 40
33.0
 40
34.0
 40
35.0
 40
36.0
 40
37.0
 40
38.0
 40
39.0
 40
40.0
 40
41.0
 40
42.0
 40
43.0
 40
44.0
 40
45.0
 40
46.0
 40
47.0
 40
48.0
 40
49.0
 40
50.0
 40
51.0
 40
52.0
 40
53.0
 40
54.0
 40
55.0
 40
56.0
 40
57.0
 40
58.0
 40
59.0
 40
60.0
 40
61.0
 40
62.0
 40
63.0
 40
64.0
 40
65.0
 40
66.0
 40
67.0
 40
68.0
 40
69.0
 40
70.0
 40
71.0
 40
72.0
 40
73.0
 40
73.0
 40
73.0
 40
73.0
 10
7893.238485418179
 20
5456.622294439828
 30
0.0
 10
7893.238485418179
 20
5456.622294439828
 30
0.0
 10
7834.798412086427
 20
5456.622294439828
 30
0.0
 10
7834.798412086427
 20
5456.622294439828
 30
0.0
 10
7834.798412086427
 20
5456.622294439828
 30
0.0
 10
7834.798412086427
 20
5420.94247581976
 30
0.0
 10
7834.798412086427
 20
5420.94247581976
 30
0.0
 10
7834.798412086427
 20
5413.48328028942
 30
0.0
 10
7835.282619194976
 20
5408.676243169897
 30
0.0
 10
7836.251033412079
 20
5406.521364461136
 30
0.0
 10
7837.219447629167
 20
5404.366485752375
 30
0.0
 10
7839.081782662043
 20
5403.289046398
 30
0.0
 10
7841.838038510696
 20
5403.289046398
 30
0.0
 10
7845.264734971206
 20
5403.289046398
 30
0.0
 10
7847.555407061644
 20
5404.718725541293
 30
0.0
 10
7848.710054782038
 20
5407.578083827924
 30
0.0
 10
7849.864702502416
 20
5410.437442114526
 30
0.0
 10
7850.442026362615
 20
5415.969678799532
 30
0.0
 10
7850.442026362615
 20
5424.174793882896
 30
0.0
 10
7850.442026362615
 20
5424.174793882896
 30
0.0
 10
7850.442026362615
 20
5445.930780846339
 30
0.0
 10
7850.442026362615
 20
5445.930780846339
 30
0.0
 10
7850.442026362615
 20
5445.930780846339
 30
0.0
 10
7893.238485418179
 20
5445.930780846339
 30
0.0
 10
7893.238485418179
 20
5445.930780846339
 30
0.0
 10
7893.238485418179
 20
5445.930780846339
 30
0.0
 10
7893.238485418179
 20
5433.747428146802
 30
0.0
 10
7893.238485418179
 20
5433.747428146802
 30
0.0
 10
7893.238485418179
 20
5423.553194255389
 30
0.0
 10
7892.661161557983
 20
5415.721038948514
 30
0.0
 10
7891.506513837606
 20
5410.25096222627
 30
0.0
 10
7890.351866117209
 20
5404.780885504047
 30
0.0
 10
7887.651480319547
 20
5398.937849005297
 30
0.0
 10
7883.405356444572
 20
5392.721852730019
 30
0.0
 10
7879.159232569637
 20
5386.505856454765
 30
0.0
 10
7873.777084324577
 20
5381.843859248313
 30
0.0
 10
7867.258911709512
 20
5378.735861110662
 30
0.0
 10
7860.740739094437
 20
5375.627862973028
 30
0.0
 10
7852.565088300094
 20
5374.07386390421
 30
0.0
 10
7842.731959326485
 20
5374.07386390421
 30
0.0
 10
7833.196803958152
 20
5374.07386390421
 30
0.0
 10
7824.779049609541
 20
5375.607142985441
 30
0.0
 10
7817.478696280641
 20
5378.673701147883
 30
0.0
 10
7810.178342951769
 20
5381.740259310382
 30
0.0
 10
7804.498221101491
 20
5385.946416789973
 30
0.0
 10
7800.438330729792
 20
5391.292173586718
 30
0.0
 10
7796.378440358123
 20
5396.637930383438
 30
0.0
 10
7793.56631445848
 20
5402.522406857373
 30
0.0
 10
7792.001953030862
 20
5408.945603008487
 30
0.0
 10
7790.437591603225
 20
5415.368799159607
 30
0.0
 10
7789.655410889433
 20
5424.71351356009
 30
0.0
 10
7789.655410889433
 20
5436.979746209946
 30
0.0
 10
7789.655410889433
 20
5436.979746209946
 30
0.0
 10
7789.655410889433
 20
5485.091557380571
 30
0.0
 10
7789.655410889433
 20
5485.091557380571
 30
0.0
 10
7789.655410889433
 20
5499.512668739202
 30
0.0
 10
7791.406005820346
 20
5510.887941922936
 30
0.0
 10
7794.907195682134
 20
5519.217376931823
 30
0.0
 10
7798.408385543957
 20
5527.546811940661
 30
0.0
 10
7804.14437744524
 20
5533.928568116623
 30
0.0
 10
7812.115171385939
 20
5538.362645459637
 30
0.0
 10
7820.085965326694
 20
5542.796722802676
 30
0.0
 10
7829.248653688452
 20
5545.01376147418
 30
0.0
 10
7839.603236471249
 20
5545.01376147418
 30
0.0
 10
7852.267114694836
 20
5545.01376147418
 30
0.0
 10
7862.714814229296
 20
5542.340883075813
 30
0.0
 10
7870.946335074614
 20
5536.995126279093
 30
0.0
 10
7879.177855919946
 20
5531.649369482347
 30
0.0
 10
7884.951094521839
 20
5524.563133728528
 30
0.0
 10
7888.2660508804
 20
5515.736419017654
 30
0.0
 10
7891.581007238897
 20
5506.90970430677
 30
0.0
 10
7893.238485418179
 20
5494.498431743817
 30
0.0
 10
7893.238485418179
 20
5478.502601328765
 30
0.0
 10
7893.238485418179
 20
5478.502601328765
 30
0.0
 10
7893.238485418179
 20
5456.622294439828
 30
0.0
 10
7893.238485418179
 20
5456.622294439828
 30
0.0
  0
SPLINE
  5
22
330
AC
100
AcDbEntity
  8
Layer 1
 62
     7
420
 16777215
370
     9
100
AcDbSpline
210
0.0
220
0.0
230
1.0
 70
    11
 71
     3
 72
    26
 73
    22
 74
     0
 42
0.000000001
 43
0.001
 12
1.0
 22
0.0
 32
0.0
 13
1.0
 23
0.0
 33
0.0
 40
0.0
 40
0.0
 40
0.0
 40
0.0
 40
1.0
 40
2.0
 40
3.0
 40
4.0
 40
5.0
 40
6.0
 40
7.0
 40
8.0
 40
9.0
 40
10.0
 40
11.0
 40
12.0
 40
13.0
 40
14.0
 40
15.0
 40
16.0
 40
17.0
 40
18.0
 40
19.0
 40
19.0
 40
19.0
 40
19.0
 10
7847.983744119219
 20
5483.475398349006
 30
0.0
 10
7847.983744119219
 20
5483.475398349006
 30
0.0
 10
7847.983744119219
 20
5495.534431123011
 30
0.0
 10
7847.983744119219
 20
5495.534431123011
 30
0.0
 10
7847.983744119219
 20
5504.071066007733
 30
0.0
 10
7847.574030411963
 20
5509.582582705138
 30
0.0
 10
7846.754602997515
 20
5512.068981215267
 30
0.0
 10
7845.935175583049
 20
5514.555379725371
 30
0.0
 10
7844.259074053452
 20
5515.798578980401
 30
0.0
 10
7841.726298408747
 20
5515.798578980401
 30
0.0
 10
7838.597575553476
 20
5515.798578980401
 30
0.0
 10
7836.660747119327
 20
5514.741859613619
 30
0.0
 10
7835.915813106167
 20
5512.628420880018
 30
0.0
 10
7835.170879093012
 20
5510.514982146449
 30
0.0
 10
7834.798412086427
 20
5504.816985560756
 30
0.0
 10
7834.798412086427
 20
5495.534431123011
 30
0.0
 10
7834.798412086427
 20
5495.534431123011
 30
0.0
 10
7834.798412086427
 20
5483.475398349006
 30
0.0
 10
7834.798412086427
 20
5483.475398349006
 30
0.0
 10
7834.798412086427
 20
5483.475398349006
 30
0.0
 10
7847.983744119219
 20
5483.475398349006
 30
0.0
 10
7847.983744119219
 20
5483.475398349006
 30
0.0
  0
SPLINE
  5
23
330
AC
100
AcDbEntity
  8
Layer 1
 62
     7
420
 16777215
370
     9
100
AcDbSpline
210
0.0
220
0.0
230
1.0
 70
    11
 71
     3
 72
   113
 73
   109
 74
     0
 42
0.000000001
 43
0.001
 12
1.0
 22
0.0
 32
0.0
 13
1.0
 23
0.0
 33
0.0
 40
0.0
 40
0.0
 40
0.0
 40
0.0
 40
1.0
 40
2.0
 40
3.0
 40
4.0
 40
5.0
 40
6.0
 40
7.0
 40
8.0
 40
9.0
 40
10.0
 40
11.0
 40
12.0
 40
13.0
 40
14.0
 40
15.0
 40
16.0
 40
17.0
 40
18.0
 40
19.0
 40
20.0
 40
21.0
 40
22.0
 40
23.0
 40
24.0
 40
25.0
 40
26.0
 40
27.0
 40
28.0
 40
29.0
 40
30.0
 40
31.0
 40
32.0
 40
33.0
 40
34.0
 40
35.0
 40
36.0
 40
37.0
 40
38.0
 40
39.0
 40
40.0
 40
41.0
 40
42.0
 40
43.0
 40
44.0
 40
45.0
 40
46.0
 40
47.0
 40
48.0
 40
49.0
 40
50.0
 40
51.0
 40
52.0
 40
53.0
 40
54.0
 40
55.0
 40
56.0
 40
57.0
 40
58.0
 40
59.0
 40
60.0
 40
61.0
 40
62.0
 40
63.0
 40
64.0
 40
65.0
 40
66.0
 40
67.0
 40
68.0
 40
69.0
 40
70.0
 40
71.0
 40
72.0
 40
73.0
 40
74.0
 40
75.0
 40
76.0
 40
77.0
 40
78.0
 40
79.0
 40
80.0
 40
81.0
 40
82.0
 40
83.0
 40
84.0
 40
85.0
 40
86.0
 40
87.0
 40
88.0
 40
89.0
 40
90.0
 40
91.0
 40
92.0
 40
93.0
 40
94.0
 40
95.0
 40
96.0
 40
97.0
 40
98.0
 40
99.0
 40
100.0
 40
101.0
 40
102.0
 40
103.0
 40
104.0
 40
105.0
 40
106.0
 40
106.0
 40
106.0
 40
106.0
 10
8011.61781178316
 20
5489.318434847749
 30
0.0
 10
8011.61781178316
 20
5489.318434847749
 30
0.0
 10
7971.614855276896
 20
5489.318434847749
 30
0.0
 10
7971.614855276896
 20
5489.318434847749
 30
0.0
 10
7971.614855276896
 20
5489.318434847749
 30
0.0
 10
7971.614855276896
 20
5498.269469484143
 30
0.0
 10
7971.614855276896
 20
5498.269469484143
 30
0.0
 10
7971.614855276896
 20
5505.894424915141
 30
0.0
 10
7971.223764920006
 20
5510.722182022269
 30
0.0
 10
7970.441584206196
 20
5512.752740805503
 30
0.0
 10
7969.659403492372
 20
5514.78329958877
 30
0.0
 10
7967.703951707881
 20
5515.798578980401
 30
0.0
 10
7964.575228852611
 20
5515.798578980401
 30
0.0
 10
7962.042453207924
 20
5515.798578980401
 30
0.0
 10
7960.14287147436
 20
5514.866179539122
 30
0.0
 10
7958.876483652014
 20
5513.001380656523
 30
0.0
 10
7957.610095829636
 20
5511.136581773963
 30
0.0
 10
7956.976901918483
 20
5508.339383450078
 30
0.0
 10
7956.976901918483
 20
5504.609785684913
 30
0.0
 10
7956.976901918483
 20
5499.554108714361
 30
0.0
 10
7957.293498874043
 20
5495.845230936785
 30
0.0
 10
7957.926692785255
 20
5493.483152352181
 30
0.0
 10
7958.559886696418
 20
5491.121073767576
 30
0.0
 10
7960.459468429952
 20
5488.53107531955
 30
0.0
 10
7963.625437985828
 20
5485.713157008093
 30
0.0
 10
7966.791407541736
 20
5482.895238696628
 30
0.0
 10
7973.290956806479
 20
5478.792681154952
 30
0.0
 10
7983.124085780103
 20
5473.405484383048
 30
0.0
 10
7996.234924411569
 20
5466.277808654077
 30
0.0
 10
8004.838912263473
 20
5459.564532676795
 30
0.0
 10
8008.936049335813
 20
5453.265656451184
 30
0.0
 10
8013.033186408134
 20
5446.966780225571
 30
0.0
 10
8015.081754944305
 20
5437.808545713337
 30
0.0
 10
8015.081754944305
 20
5425.790952914475
 30
0.0
 10
8015.081754944305
 20
5412.364400959886
 30
0.0
 10
8013.517393516686
 20
5402.232327031186
 30
0.0
 10
8010.388670661465
 20
5395.394731128387
 30
0.0
 10
8007.25994780621
 20
5388.557135225596
 30
0.0
 10
8002.026786363829
 20
5383.294258379193
 30
0.0
 10
7994.689186334271
 20
5379.606100589211
 30
0.0
 10
7987.351586304727
 20
5375.917942799197
 30
0.0
 10
7978.505494898556
 20
5374.07386390421
 30
0.0
 10
7968.150912115759
 20
5374.07386390421
 30
0.0
 10
7956.678928313208
 20
5374.07386390421
 30
0.0
 10
7946.864422689935
 20
5376.062982712301
 30
0.0
 10
7938.707395245928
 20
5380.041220328462
 30
0.0
 10
7930.550367801929
 20
5384.019457944645
 30
0.0
 10
7924.944739352938
 20
5389.406654716549
 30
0.0
 10
7921.890509899027
 20
5396.202810644198
 30
0.0
 10
7918.8362804451
 20
5402.998966571813
 30
0.0
 10
7917.309165718152
 20
5413.276080413602
 30
0.0
 10
7917.309165718152
 20
5427.034152169519
 30
0.0
 10
7917.309165718152
 20
5427.034152169519
 30
0.0
 10
7917.309165718152
 20
5434.990627401879
 30
0.0
 10
7917.309165718152
 20
5434.990627401879
 30
0.0
 10
7917.309165718152
 20
5434.990627401879
 30
0.0
 10
7957.312122224395
 20
5434.990627401879
 30
0.0
 10
7957.312122224395
 20
5434.990627401879
 30
0.0
 10
7957.312122224395
 20
5434.990627401879
 30
0.0
 10
7957.312122224395
 20
5424.547753659431
 30
0.0
 10
7957.312122224395
 20
5424.547753659431
 30
0.0
 10
7957.312122224395
 20
5415.679598973363
 30
0.0
 10
7957.814952683268
 20
5409.919442424931
 30
0.0
 10
7958.820613601032
 20
5407.267284014159
 30
0.0
 10
7959.826274518779
 20
5404.615125603377
 30
0.0
 10
7961.818973003958
 20
5403.289046398
 30
0.0
 10
7964.798709056559
 20
5403.289046398
 30
0.0
 10
7968.001925313124
 20
5403.289046398
 30
0.0
 10
7970.236727352568
 20
5404.180005864105
 30
0.0
 10
7971.503115174913
 20
5405.96192479636
 30
0.0
 10
7972.769502997288
 20
5407.743843728594
 30
0.0
 10
7973.402696908463
 20
5411.494161481347
 30
0.0
 10
7973.402696908463
 20
5417.212878054586
 30
0.0
 10
7973.402696908463
 20
5425.086473336621
 30
0.0
 10
7972.583269494011
 20
5430.017830381669
 30
0.0
 10
7970.944414665068
 20
5432.006949189745
 30
0.0
 10
7969.231066434796
 20
5433.996067997819
 30
0.0
 10
7960.478091780303
 20
5439.880544471754
 30
0.0
 10
7944.685490701479
 20
5449.660378611521
 30
0.0
 10
7931.425665267378
 20
5457.9483736452
 30
0.0
 10
7923.34313122468
 20
5465.469729138283
 30
0.0
 10
7920.437888573407
 20
5472.224445090749
 30
0.0
 10
7917.532645922101
 20
5478.979161043216
 30
0.0
 10
7916.080024596431
 20
5486.997796238314
 30
0.0
 10
7916.080024596431
 20
5496.280350676067
 30
0.0
 10
7916.080024596431
 20
5509.458262779637
 30
0.0
 10
7917.644386024066
 20
5519.175936956649
 30
0.0
 10
7920.773108879287
 20
5525.433373207093
 30
0.0
 10
7923.901831734542
 20
5531.690809457514
 30
0.0
 10
7929.209486578233
 20
5536.51856656465
 30
0.0
 10
7936.696073410429
 20
5539.91664452848
 30
0.0
 10
7944.182660242593
 20
5543.314722492283
 30
0.0
 10
7952.87976484614
 20
5545.01376147418
 30
0.0
 10
7962.78738722106
 20
5545.01376147418
 30
0.0
 10
7972.620516194669
 20
5545.01376147418
 30
0.0
 10
7980.982400492286
 20
5543.625522306034
 30
0.0
 10
7987.873040113933
 20
5540.849043969766
 30
0.0
 10
7994.763679735581
 20
5538.072565633468
 30
0.0
 10
8000.052711228985
 20
5534.405127831058
 30
0.0
 10
8003.740134594068
 20
5529.846730562526
 30
0.0
 10
8007.42755795915
 20
5525.288333293998
 30
0.0
 10
8009.662359998631
 20
5521.061455826803
 30
0.0
 10
8010.444540712437
 20
5517.166098160951
 30
0.0
 10
8011.226721426257
 20
5513.270740495137
 30
0.0
 10
8011.61781178316
 20
5507.179064145352
 30
0.0
 10
8011.61781178316
 20
5498.89106911168
 30
0.0
 10
8011.61781178316
 20
5498.89106911168
 30
0.0
 10
8011.61781178316
 20
5489.318434847749
 30
0.0
 10
8011.61781178316
 20
5489.318434847749
 30
0.0
  0
SPLINE
  5
24
330
AC
100
AcDbEntity
  8
Layer 1
 62
     7
420
 16777215
370
     9
100
AcDbSpline
210
0.0
220
0.0
230
1.0
 70
    11
 71
     3
 72
   110
 73
   106
 74
     0
 42
0.000000001
 43
0.001
 12
1.0
 22
0.0
 32
0.0
 13
1.0
 23
0.0
 33
0.0
 40
0.0
 40
0.0
 40
0.0
 40
0.0
 40
1.0
 40
2.0
 40
3.0
 40
4.0
 40
5.0
 40
6.0
 40
7.0
 40
8.0
 40
9.0
 40
10.0
 40
11.0
 40
12.0
 40
13.0
 40
14.0
 40
15.0
 40
16.0
 40
17.0
 40
18.0
 40
19.0
 40
20.0
 40
21.0
 40
22.0
 40
23.0
 40
24.0
 40
25.0
 40
26.0
 40
27.0
 40
28.0
 40
29.0
 40
30.0
 40
31.0
 40
32.0
 40
33.0
 40
34.0
 40
35.0
 40
36.0
 40
37.0
 40
38.0
 40
39.0
 40
40.0
 40
41.0
 40
42.0
 40
43.0
 40
44.0
 40
45.0
 40
46.0
 40
47.0
 40
48.0
 40
49.0
 40
50.0
 40
51.0
 40
52.0
 40
53.0
 40
54.0
 40
55.0
 40
56.0
 40
57.0
 40
58.0
 40
59.0
 40
60.0
 40
61.0
 40
62.0
 40
63.0
 40
64.0
 40
65.0
 40
66.0
 40
67.0
 40
68.0
 40
69.0
 40
70.0
 40
71.0
 40
72.0
 40
73.0
 40
74.0
 40
75.0
 40
76.0
 40
77.0
 40
78.0
 40
79.0
 40
80.0
 40
81.0
 40
82.0
 40
83.0
 40
84.0
 40
85.0
 40
86.0
 40
87.0
 40
88.0
 40
89.0
 40
90.0
 40
91.0
 40
92.0
 40
93.0
 40
94.0
 40
95.0
 40
96.0
 40
97.0
 40
98.0
 40
99.0
 40
100.0
 40
101.0
 40
102.0
 40
103.0
 40
103.0
 40
103.0
 40
103.0
 10
6691.455639424988
 20
5800.824622694724
 30
0.0
 10
6691.455639424988
 20
5800.824622694724
 30
0.0
 10
6647.228180124225
 20
5800.824622694724
 30
0.0
 10
6647.228180124225
 20
5800.824622694724
 30
0.0
 10
6647.228180124225
 20
5800.824622694724
 30
0.0
 10
6647.228180124225
 20
5819.431319125842
 30
0.0
 10
6647.228180124225
 20
5819.431319125842
 30
0.0
 10
6647.228180124225
 20
5828.114444127012
 30
0.0
 10
6646.662611591004
 20
5833.644767788473
 30
0.0
 10
6645.531474524464
 20
5836.022290110234
 30
0.0
 10
6644.400337457957
 20
5838.399812431984
 30
0.0
 10
6642.515109013776
 20
5839.58857359287
 30
0.0
 10
6639.875789191893
 20
5839.58857359287
 30
0.0
 10
6637.010241956735
 20
5839.58857359287
 30
0.0
 10
6634.842229245911
 20
5837.986330289052
 30
0.0
 10
6633.371751059441
 20
5834.781843681474
 30
0.0
 10
6631.901272872971
 20
5831.564435756934
 30
0.0
 10
6631.166033779744
 20
5826.706020577707
 30
0.0
 10
6631.166033779744
 20
5820.193676826835
 30
0.0
 10
6631.166033779744
 20
5811.820663432855
 30
0.0
 10
6631.995534295163
 20
5805.502139436423
 30
0.0
 10
6633.645109183828
 20
5801.263947471554
 30
0.0
 10
6635.219274934746
 20
5797.025755506715
 30
0.0
 10
6639.70611863192
 20
5791.908913988131
 30
0.0
 10
6647.105640275365
 20
5785.913422915911
 30
0.0
 10
6668.30503413031
 20
5768.663464766241
 30
0.0
 10
6681.65245151519
 20
5754.514622688423
 30
0.0
 10
6687.1573185722
 20
5743.453975365476
 30
0.0
 10
6692.662185629274
 20
5732.393328042545
 30
0.0
 10
6695.414619157781
 20
5714.561910629401
 30
0.0
 10
6695.414619157781
 20
5689.959723126049
 30
0.0
 10
6695.414619157781
 20
5672.076620445038
 30
0.0
 10
6693.887584117992
 20
5658.896877139688
 30
0.0
 10
6690.833514038397
 20
5650.420493209927
 30
0.0
 10
6687.779443958823
 20
5641.944109280222
 30
0.0
 10
6681.878678928497
 20
5634.837384948873
 30
0.0
 10
6673.131218947443
 20
5629.100320215969
 30
0.0
 10
6664.383758966373
 20
5623.36325548305
 30
0.0
 10
6654.203525367747
 20
5620.494723116585
 30
0.0
 10
6642.590518151524
 20
5620.494723116585
 30
0.0
 10
6629.846373868787
 20
5620.494723116585
 30
0.0
 10
6618.968605745815
 20
5623.802580259888
 30
0.0
 10
6609.957213782579
 20
5630.418294546507
 30
0.0
 10
6600.945821819341
 20
5637.034008833112
 30
0.0
 10
6595.045056789018
 20
5645.458707494973
 30
0.0
 10
6592.254918691606
 20
5655.692390532087
 30
0.0
 10
6589.464780594194
 20
5665.926073569195
 30
0.0
 10
6588.069711545521
 20
5680.449633839049
 30
0.0
 10
6588.069711545521
 20
5699.263071341603
 30
0.0
 10
6588.069711545521
 20
5699.263071341603
 30
0.0
 10
6588.069711545521
 20
5715.69898652241
 30
0.0
 10
6588.069711545521
 20
5715.69898652241
 30
0.0
 10
6588.069711545521
 20
5715.69898652241
 30
0.0
 10
6632.297170846217
 20
5715.69898652241
 30
0.0
 10
6632.297170846217
 20
5715.69898652241
 30
0.0
 10
6632.297170846217
 20
5715.69898652241
 30
0.0
 10
6632.297170846217
 20
5685.152993214671
 30
0.0
 10
6632.297170846217
 20
5685.152993214671
 30
0.0
 10
6632.297170846217
 20
5675.746274463381
 30
0.0
 10
6632.919296232842
 20
5669.699098123296
 30
0.0
 10
6634.163547005985
 20
5667.011464194342
 30
0.0
 10
6635.407797779166
 20
5664.323830265409
 30
0.0
 10
6637.613515058875
 20
5662.980013300933
 30
0.0
 10
6640.780698845132
 20
5662.980013300933
 30
0.0
 10
6643.947882631357
 20
5662.980013300933
 30
0.0
 10
6646.304418186579
 20
5664.685627140458
 30
0.0
 10
6647.850305510813
 20
5668.096854819511
 30
0.0
 10
6649.396192835047
 20
5671.508082498513
 30
0.0
 10
6650.169136497181
 20
5676.573238749223
 30
0.0
 10
6650.169136497181
 20
5683.29232357156
 30
0.0
 10
6650.169136497181
 20
5698.074310180726
 30
0.0
 10
6648.698658310711
 20
5707.739455271349
 30
0.0
 10
6645.757701937771
 20
5712.28775884336
 30
0.0
 10
6642.741336427068
 20
5716.836062415411
 30
0.0
 10
6635.313536356939
 20
5724.433796791449
 30
0.0
 10
6623.474301727431
 20
5735.080961971463
 30
0.0
 10
6611.635067097912
 20
5745.831497687227
 30
0.0
 10
6603.792516770091
 20
5753.635973134732
 30
0.0
 10
6599.946650743918
 20
5758.494388313949
 30
0.0
 10
6596.100784717778
 20
5763.352803493171
 30
0.0
 10
6592.914748647085
 20
5770.07188831554
 30
0.0
 10
6590.388542531839
 20
5778.651642780986
 30
0.0
 10
6587.862336416644
 20
5787.231397246441
 30
0.0
 10
6586.599233359035
 20
5798.188674033639
 30
0.0
 10
6586.599233359035
 20
5811.523473142604
 30
0.0
 10
6586.599233359035
 20
5830.750392788081
 30
0.0
 10
6588.390200381024
 20
5844.808785647154
 30
0.0
 10
6591.972134424994
 20
5853.698651719785
 30
0.0
 10
6595.554068468938
 20
5862.588517792422
 30
0.0
 10
6601.341719792625
 20
5869.540186320147
 30
0.0
 10
6609.335088395989
 20
5874.553657302984
 30
0.0
 10
6617.328456999357
 20
5879.567128285818
 30
0.0
 10
6626.980826633627
 20
5882.073863777217
 30
0.0
 10
6638.292197298784
 20
5882.073863777217
 30
0.0
 10
6650.659295892654
 20
5882.073863777217
 30
0.0
 10
6661.197722895694
 20
5879.334544580398
 30
0.0
 10
6669.907478307859
 20
5873.855906186813
 30
0.0
 10
6678.617233720031
 20
5868.377267793217
 30
0.0
 10
6684.386032759266
 20
5861.477284533351
 30
0.0
 10
6687.213875425569
 20
5853.155956407207
 30
0.0
 10
6690.041718091819
 20
5844.834628281084
 30
0.0
 10
6691.455639424988
 20
5830.698707520221
 30
0.0
 10
6691.455639424988
 20
5810.748194124653
 30
0.0
 10
6691.455639424988
 20
5810.748194124653
 30
0.0
 10
6691.455639424988
 20
5800.824622694724
 30
0.0
 10
6691.455639424988
 20
5800.824622694724
 30
0.0
  0
SPLINE
  5
25
330
AC
100
AcDbEntity
  8
Layer 1
 62
     7
420
 16777215
370
     9
100
AcDbSpline
210
0.0
220
0.0
230
1.0
 70
    11
 71
     3
 72
    80
 73
    76
 74
     0
 42
0.000000001
 43
0.001
 12
1.0
 22
0.0
 32
0.0
 13
1.0
 23
0.0
 33
0.0
 40
0.0
 40
0.0
 40
0.0
 40
0.0
 40
1.0
 40
2.0
 40
3.0
 40
4.0
 40
5.0
 40
6.0
 40
7.0
 40
8.0
 40
9.0
 40
10.0
 40
11.0
 40
12.0
 40
13.0
 40
14.0
 40
15.0
 40
16.0
 40
17.0
 40
18.0
 40
19.0
 40
20.0
 40
21.0
 40
22.0
 40
23.0
 40
24.0
 40
25.0
 40
26.0
 40
27.0
 40
28.0
 40
29.0
 40
30.0
 40
31.0
 40
32.0
 40
33.0
 40
34.0
 40
35.0
 40
36.0
 40
37.0
 40
38.0
 40
39.0
 40
40.0
 40
41.0
 40
42.0
 40
43.0
 40
44.0
 40
45.0
 40
46.0
 40
47.0
 40
48.0
 40
49.0
 40
50.0
 40
51.0
 40
52.0
 40
53.0
 40
54.0
 40
55.0
 40
56.0
 40
57.0
 40
58.0
 40
59.0
 40
60.0
 40
61.0
 40
62.0
 40
63.0
 40
64.0
 40
65.0
 40
66.0
 40
67.0
 40
68.0
 40
69.0
 40
70.0
 40
71.0
 40
72.0
 40
73.0
 40
73.0
 40
73.0
 40
73.0
 10
6824.072034331637
 20
5725.002334737967
 30
0.0
 10
6824.072034331637
 20
5725.002334737967
 30
0.0
 10
6764.9135657529
 20
5725.002334737967
 30
0.0
 10
6764.9135657529
 20
5725.002334737967
 30
0.0
 10
6764.9135657529
 20
5725.002334737967
 30
0.0
 10
6764.9135657529
 20
5680.501319106926
 30
0.0
 10
6764.9135657529
 20
5680.501319106926
 30
0.0
 10
6764.9135657529
 20
5671.197970891337
 30
0.0
 10
6765.403725148391
 20
5665.202479819092
 30
0.0
 10
6766.384043939354
 20
5662.514845890165
 30
0.0
 10
6767.364362730352
 20
5659.82721196124
 30
0.0
 10
6769.249591174548
 20
5658.483394996755
 30
0.0
 10
6772.039729271944
 20
5658.483394996755
 30
0.0
 10
6775.50854960926
 20
5658.483394996755
 30
0.0
 10
6777.827380595612
 20
5660.266536738085
 30
0.0
 10
6778.99622223101
 20
5663.832820220703
 30
0.0
 10
6780.16506386641
 20
5667.399103703331
 30
0.0
 10
6780.749484684124
 20
5674.299086963182
 30
0.0
 10
6780.749484684124
 20
5684.532770000312
 30
0.0
 10
6780.749484684124
 20
5684.532770000312
 30
0.0
 10
6780.749484684124
 20
5711.667535629026
 30
0.0
 10
6780.749484684124
 20
5711.667535629026
 30
0.0
 10
6780.749484684124
 20
5711.667535629026
 30
0.0
 10
6824.072034331637
 20
5711.667535629026
 30
0.0
 10
6824.072034331637
 20
5711.667535629026
 30
0.0
 10
6824.072034331637
 20
5711.667535629026
 30
0.0
 10
6824.072034331637
 20
5696.472066876933
 30
0.0
 10
6824.072034331637
 20
5696.472066876933
 30
0.0
 10
6824.072034331637
 20
5683.757490982343
 30
0.0
 10
6823.487613513938
 20
5673.988975356031
 30
0.0
 10
6822.318771878539
 20
5667.166519997952
 30
0.0
 10
6821.149930243141
 20
5660.344064639864
 30
0.0
 10
6818.416348999069
 20
5653.056441871026
 30
0.0
 10
6814.11802814631
 20
5645.303651691408
 30
0.0
 10
6809.819707293557
 20
5637.55086151177
 30
0.0
 10
6804.371397089833
 20
5631.736268877021
 30
0.0
 10
6797.773097535162
 20
5627.859873787228
 30
0.0
 10
6791.174797980493
 20
5623.98347869741
 30
0.0
 10
6782.898645110485
 20
5622.045281152512
 30
0.0
 10
6772.944638925156
 20
5622.045281152512
 30
0.0
 10
6763.292269290904
 20
5622.045281152512
 30
0.0
 10
6754.771036723142
 20
5623.957636063479
 30
0.0
 10
6747.380941221917
 20
5627.782345885438
 30
0.0
 10
6739.990845720688
 20
5631.607055707383
 30
0.0
 10
6734.2408989659
 20
5636.853110395583
 30
0.0
 10
6730.13110095758
 20
5643.520509950076
 30
0.0
 10
6726.021302949225
 20
5650.187909504547
 30
0.0
 10
6723.174607998496
 20
5657.52721754126
 30
0.0
 10
6721.591016105379
 20
5665.538434060223
 30
0.0
 10
6720.007424212246
 20
5673.549650579153
 30
0.0
 10
6719.21562826571
 20
5685.204678482545
 30
0.0
 10
6719.21562826571
 20
5700.503517770352
 30
0.0
 10
6719.21562826571
 20
5700.503517770352
 30
0.0
 10
6719.21562826571
 20
5760.510113760653
 30
0.0
 10
6719.21562826571
 20
5760.510113760653
 30
0.0
 10
6719.21562826571
 20
5778.496586977402
 30
0.0
 10
6720.987743003243
 20
5792.684193006124
 30
0.0
 10
6724.531972478311
 20
5803.072931846804
 30
0.0
 10
6728.076201953409
 20
5813.461670687501
 30
0.0
 10
6733.882705561508
 20
5821.421201938605
 30
0.0
 10
6741.951483302656
 20
5826.951525600075
 30
0.0
 10
6750.0202610438
 20
5832.481849261536
 30
0.0
 10
6759.295584989204
 20
5835.247011092266
 30
0.0
 10
6769.777455138912
 20
5835.247011092266
 30
0.0
 10
6782.597008559429
 20
5835.247011092266
 30
0.0
 10
6793.173140131345
 20
5831.91331131502
 30
0.0
 10
6801.505849854672
 20
5825.245911760539
 30
0.0
 10
6809.838559578001
 20
5818.578512206079
 30
0.0
 10
6815.682767754988
 20
5809.740331401307
 30
0.0
 10
6819.038474385655
 20
5798.731369346217
 30
0.0
 10
6822.394181016321
 20
5787.722407291153
 30
0.0
 10
6824.072034331637
 20
5772.242669565823
 30
0.0
 10
6824.072034331637
 20
5752.292156170255
 30
0.0
 10
6824.072034331637
 20
5752.292156170255
 30
0.0
 10
6824.072034331637
 20
5725.002334737967
 30
0.0
 10
6824.072034331637
 20
5725.002334737967
 30
0.0
  0
SPLINE
  5
26
330
AC
100
AcDbEntity
  8
Layer 1
 62
     7
420
 16777215
370
     9
100
AcDbSpline
210
0.0
220
0.0
230
1.0
 70
    11
 71
     3
 72
    26
 73
    22
 74
     0
 42
0.000000001
 43
0.001
 12
1.0
 22
0.0
 32
0.0
 13
1.0
 23
0.0
 33
0.0
 40
0.0
 40
0.0
 40
0.0
 40
0.0
 40
1.0
 40
2.0
 40
3.0
 40
4.0
 40
5.0
 40
6.0
 40
7.0
 40
8.0
 40
9.0
 40
10.0
 40
11.0
 40
12.0
 40
13.0
 40
14.0
 40
15.0
 40
16.0
 40
17.0
 40
18.0
 40
19.0
 40
19.0
 40
19.0
 40
19.0
 10
6778.260983137783
 20
5758.494388313949
 30
0.0
 10
6778.260983137783
 20
5758.494388313949
 30
0.0
 10
6778.260983137783
 20
5773.534801262434
 30
0.0
 10
6778.260983137783
 20
5773.534801262434
 30
0.0
 10
6778.260983137783
 20
5784.181966442455
 30
0.0
 10
6777.846232880074
 20
5791.056107068418
 30
0.0
 10
6777.016732364606
 20
5794.157223140253
 30
0.0
 10
6776.187231849152
 20
5797.258339212095
 30
0.0
 10
6774.490526249393
 20
5798.80889724803
 30
0.0
 10
6771.926615565289
 20
5798.80889724803
 30
0.0
 10
6768.759431779057
 20
5798.80889724803
 30
0.0
 10
6766.798794197097
 20
5797.490922917498
 30
0.0
 10
6766.044702819409
 20
5794.854974256406
 30
0.0
 10
6765.290611441754
 20
5792.219025595348
 30
0.0
 10
6764.9135657529
 20
5785.112301263999
 30
0.0
 10
6764.9135657529
 20
5773.534801262434
 30
0.0
 10
6764.9135657529
 20
5773.534801262434
 30
0.0
 10
6764.9135657529
 20
5758.494388313949
 30
0.0
 10
6764.9135657529
 20
5758.494388313949
 30
0.0
 10
6764.9135657529
 20
5758.494388313949
 30
0.0
 10
6778.260983137783
 20
5758.494388313949
 30
0.0
 10
6778.260983137783
 20
5758.494388313949
 30
0.0
  0
SPLINE
  5
27
330
AC
100
AcDbEntity
  8
Layer 1
 62
     7
420
 16777215
370
     9
100
AcDbSpline
210
0.0
220
0.0
230
1.0
 70
    11
 71
     3
 72
    89
 73
    85
 74
     0
 42
0.000000001
 43
0.001
 12
1.0
 22
0.0
 32
0.0
 13
1.0
 23
0.0
 33
0.0
 40
0.0
 40
0.0
 40
0.0
 40
0.0
 40
1.0
 40
2.0
 40
3.0
 40
4.0
 40
5.0
 40
6.0
 40
7.0
 40
8.0
 40
9.0
 40
10.0
 40
11.0
 40
12.0
 40
13.0
 40
14.0
 40
15.0
 40
16.0
 40
17.0
 40
18.0
 40
19.0
 40
20.0
 40
21.0
 40
22.0
 40
23.0
 40
24.0
 40
25.0
 40
26.0
 40
27.0
 40
28.0
 40
29.0
 40
30.0
 40
31.0
 40
32.0
 40
33.0
 40
34.0
 40
35.0
 40
36.0
 40
37.0
 40
38.0
 40
39.0
 40
40.0
 40
41.0
 40
42.0
 40
43.0
 40
44.0
 40
45.0
 40
46.0
 40
47.0
 40
48.0
 40
49.0
 40
50.0
 40
51.0
 40
52.0
 40
53.0
 40
54.0
 40
55.0
 40
56.0
 40
57.0
 40
58.0
 40
59.0
 40
60.0
 40
61.0
 40
62.0
 40
63.0
 40
64.0
 40
65.0
 40
66.0
 40
67.0
 40
68.0
 40
69.0
 40
70.0
 40
71.0
 40
72.0
 40
73.0
 40
74.0
 40
75.0
 40
76.0
 40
77.0
 40
78.0
 40
79.0
 40
80.0
 40
81.0
 40
82.0
 40
82.0
 40
82.0
 40
82.0
 10
6895.720141353136
 20
5831.525671806031
 30
0.0
 10
6895.720141353136
 20
5831.525671806031
 30
0.0
 10
6894.928345406575
 20
5811.949876602484
 30
0.0
 10
6894.928345406575
 20
5811.949876602484
 30
0.0
 10
6898.472574881673
 20
5819.715588099088
 30
0.0
 10
6902.695486596648
 20
5825.543102050793
 30
0.0
 10
6907.597080551548
 20
5829.419497140585
 30
0.0
 10
6912.498674506449
 20
5833.308813547363
 30
0.0
 10
6918.078950701271
 20
5835.247011092266
 30
0.0
 10
6924.337909135987
 20
5835.247011092266
 30
0.0
 10
6936.554189454327
 20
5835.247011092266
 30
0.0
 10
6946.168854519708
 20
5827.481299595681
 30
0.0
 10
6953.181904332095
 20
5811.949876602484
 30
0.0
 10
6957.027770358248
 20
5819.715588099088
 30
0.0
 10
6961.363795779905
 20
5825.543102050793
 30
0.0
 10
6966.189980597014
 20
5829.419497140585
 30
0.0
 10
6971.016165414166
 20
5833.308813547363
 30
0.0
 10
6976.370214195634
 20
5835.247011092266
 30
0.0
 10
6982.252126941543
 20
5835.247011092266
 30
0.0
 10
6990.0192681316
 20
5835.247011092266
 30
0.0
 10
6996.447897126305
 20
5832.662747699065
 30
0.0
 10
7001.538013925623
 20
5827.494220912648
 30
0.0
 10
7006.628130724925
 20
5822.325694126219
 30
0.0
 10
7009.889575933364
 20
5815.994248812861
 30
0.0
 10
7011.322349550958
 20
5808.499884972555
 30
0.0
 10
7012.755123168558
 20
5801.005521132246
 30
0.0
 10
7013.471509977353
 20
5788.833640550249
 30
0.0
 10
7013.471509977353
 20
5771.9842432265
 30
0.0
 10
7013.471509977353
 20
5771.9842432265
 30
0.0
 10
7013.471509977353
 20
5625.766620438739
 30
0.0
 10
7013.471509977353
 20
5625.766620438739
 30
0.0
 10
7013.471509977353
 20
5625.766620438739
 30
0.0
 10
6969.13093696997
 20
5625.766620438739
 30
0.0
 10
6969.13093696997
 20
5625.766620438739
 30
0.0
 10
6969.13093696997
 20
5625.766620438739
 30
0.0
 10
6969.13093696997
 20
5759.8898905463
 30
0.0
 10
6969.13093696997
 20
5759.8898905463
 30
0.0
 10
6969.13093696997
 20
5777.462881620118
 30
0.0
 10
6968.697334427799
 20
5788.342630505512
 30
0.0
 10
6967.830129343473
 20
5792.529137202515
 30
0.0
 10
6966.962924259145
 20
5796.715643899533
 30
0.0
 10
6964.945729823853
 20
5798.80889724803
 30
0.0
 10
6961.778546037621
 20
5798.80889724803
 30
0.0
 10
6958.53595311361
 20
5798.80889724803
 30
0.0
 10
6956.443349540567
 20
5796.741486533454
 30
0.0
 10
6955.500735318445
 20
5792.606665104319
 30
0.0
 10
6954.55812109637
 20
5788.471843675175
 30
0.0
 10
6954.086813985309
 20
5777.566252155835
 30
0.0
 10
6954.086813985309
 20
5759.8898905463
 30
0.0
 10
6954.086813985309
 20
5759.8898905463
 30
0.0
 10
6954.086813985309
 20
5625.766620438739
 30
0.0
 10
6954.086813985309
 20
5625.766620438739
 30
0.0
 10
6954.086813985309
 20
5625.766620438739
 30
0.0
 10
6909.746240977925
 20
5625.766620438739
 30
0.0
 10
6909.746240977925
 20
5625.766620438739
 30
0.0
 10
6909.746240977925
 20
5625.766620438739
 30
0.0
 10
6909.746240977925
 20
5756.478662867257
 30
0.0
 10
6909.746240977925
 20
5756.478662867257
 30
0.0
 10
6909.746240977925
 20
5776.635917334276
 30
0.0
 10
6909.388047573537
 20
5788.730270014508
 30
0.0
 10
6908.67166076476
 20
5792.761720907911
 30
0.0
 10
6907.955273955937
 20
5796.793171801312
 30
0.0
 10
6905.975784089566
 20
5798.80889724803
 30
0.0
 10
6902.733191165538
 20
5798.80889724803
 30
0.0
 10
6900.697144445814
 20
5798.80889724803
 30
0.0
 10
6898.962734277165
 20
5797.749349256802
 30
0.0
 10
6897.529960659552
 20
5795.630253274376
 30
0.0
 10
6896.097187041988
 20
5793.51115729194
 30
0.0
 10
6895.305391095393
 20
5790.926893898738
 30
0.0
 10
6895.154572819882
 20
5787.877463094746
 30
0.0
 10
6895.003754544336
 20
5784.828032290768
 30
0.0
 10
6894.928345406575
 20
5778.341531173794
 30
0.0
 10
6894.928345406575
 20
5768.417959743872
 30
0.0
 10
6894.928345406575
 20
5768.417959743872
 30
0.0
 10
6894.928345406575
 20
5625.766620438739
 30
0.0
 10
6894.928345406575
 20
5625.766620438739
 30
0.0
 10
6894.928345406575
 20
5625.766620438739
 30
0.0
 10
6850.587772399206
 20
5625.766620438739
 30
0.0
 10
6850.587772399206
 20
5625.766620438739
 30
0.0
 10
6850.587772399206
 20
5625.766620438739
 30
0.0
 10
6850.587772399206
 20
5831.525671806031
 30
0.0
 10
6850.587772399206
 20
5831.525671806031
 30
0.0
 10
6850.587772399206
 20
5831.525671806031
 30
0.0
 10
6895.720141353136
 20
5831.525671806031
 30
0.0
 10
6895.720141353136
 20
5831.525671806031
 30
0.0
  0
LWPOLYLINE
  5
28
330
AC
100
AcDbEntity
  8
Layer 1
 62
     7
420
 16777215
370
     9
100
AcDbPolyline
 90
        5
 70
     0
 43
0.0
 10
7087.824919816279
 20
5876.801966455089
 10
7087.824919816279
 20
5844.08519189707
 10
7040.769617849246
 20
5844.08519189707
 10
7040.769617849246
 20
5876.801966455089
 10
7087.824919816279
 20
5876.801966455089
  0
LWPOLYLINE
  5
29
330
AC
100
AcDbEntity
  8
Layer 1
 62
     7
420
 16777215
370
     9
100
AcDbPolyline
 90
        5
 70
     0
 43
0.0
 10
7087.824919816279
 20
5831.525671806031
 10
7087.824919816279
 20
5625.766620438739
 10
7040.769617849246
 20
5625.766620438739
 10
7040.769617849246
 20
5831.525671806031
 10
7087.824919816279
 20
5831.525671806031
  0
LWPOLYLINE
  5
2A
330
AC
100
AcDbEntity
  8
Layer 1
 62
     7
420
 16777215
370
     9
100
AcDbPolyline
 90
        5
 70
     0
 43
0.0
 10
7171.802420862812
 20
5750.276430723537
 10
7171.802420862812
 20
5707.015861521225
 10
7111.739042630837
 20
5707.015861521225
 10
7111.739042630837
 20
5750.276430723537
 10
7171.802420862812
 20
5750.276430723537
  0
SPLINE
  5
2B
330
AC
100
AcDbEntity
  8
Layer 1
 62
     7
420
 16777215
370
     9
100
AcDbSpline
210
0.0
220
0.0
230
1.0
 70
    11
 71
     3
 72
    59
 73
    55
 74
     0
 42
0.000000001
 43
0.001
 12
1.0
 22
0.0
 32
0.0
 13
1.0
 23
0.0
 33
0.0
 40
0.0
 40
0.0
 40
0.0
 40
0.0
 40
1.0
 40
2.0
 40
3.0
 40
4.0
 40
5.0
 40
6.0
 40
7.0
 40
8.0
 40
9.0
 40
10.0
 40
11.0
 40
12.0
 40
13.0
 40
14.0
 40
15.0
 40
16.0
 40
17.0
 40
18.0
 40
19.0
 40
20.0
 40
21.0
 40
22.0
 40
23.0
 40
24.0
 40
25.0
 40
26.0
 40
27.0
 40
28.0
 40
29.0
 40
30.0
 40
31.0
 40
32.0
 40
33.0
 40
34.0
 40
35.0
 40
36.0
 40
37.0
 40
38.0
 40
39.0
 40
40.0
 40
41.0
 40
42.0
 40
43.0
 40
44.0
 40
45.0
 40
46.0
 40
47.0
 40
48.0
 40
49.0
 40
50.0
 40
51.0
 40
52.0
 40
52.0
 40
52.0
 40
52.0
 10
7305.210611716014
 20
5876.801966455089
 30
0.0
 10
7305.210611716014
 20
5876.801966455089
 30
0.0
 10
7305.210611716014
 20
5709.031586967932
 30
0.0
 10
7305.210611716014
 20
5709.031586967932
 30
0.0
 10
7305.210611716014
 20
5690.011408393922
 30
0.0
 10
7304.758156889399
 20
5676.650766651021
 30
0.0
 10
7303.853247236199
 20
5668.94966173925
 30
0.0
 10
7302.948337582968
 20
5661.248556827495
 30
0.0
 10
7300.271313192226
 20
5653.340710844273
 30
0.0
 10
7295.822174063911
 20
5645.226123789586
 30
0.0
 10
7291.373034935627
 20
5637.111536734939
 30
0.0
 10
7285.509974474211
 20
5630.96098985907
 30
0.0
 10
7278.232992679608
 20
5626.774483162085
 30
0.0
 10
7270.956010885041
 20
5622.58797646509
 30
0.0
 10
7262.378221463973
 20
5620.494723116585
 30
0.0
 10
7252.499624416422
 20
5620.494723116585
 30
0.0
 10
7241.565299440107
 20
5620.494723116585
 30
0.0
 10
7231.912929805836
 20
5622.975615974053
 30
0.0
 10
7223.5425155136
 20
5627.937401689014
 30
0.0
 10
7215.172101221423
 20
5632.899187403983
 30
0.0
 10
7208.9131427867
 20
5639.359845887011
 30
0.0
 10
7204.765640209456
 20
5647.319377138084
 30
0.0
 10
7200.618137632263
 20
5655.27890838917
 30
0.0
 10
7198.167340654795
 20
5663.677764417104
 30
0.0
 10
7197.413249277157
 20
5672.515945221876
 30
0.0
 10
7196.659157899454
 20
5681.354126026666
 30
0.0
 10
7196.28211221061
 20
5699.934979823819
 30
0.0
 10
7196.28211221061
 20
5728.258506613408
 30
0.0
 10
7196.28211221061
 20
5728.258506613408
 30
0.0
 10
7196.28211221061
 20
5876.801966455089
 30
0.0
 10
7196.28211221061
 20
5876.801966455089
 30
0.0
 10
7196.28211221061
 20
5876.801966455089
 30
0.0
 10
7243.902982710903
 20
5876.801966455089
 30
0.0
 10
7243.902982710903
 20
5876.801966455089
 30
0.0
 10
7243.902982710903
 20
5876.801966455089
 30
0.0
 10
7243.902982710903
 20
5688.564220893695
 30
0.0
 10
7243.902982710903
 20
5688.564220893695
 30
0.0
 10
7243.902982710903
 20
5677.606944106507
 30
0.0
 10
7244.336585253073
 20
5670.603590310909
 30
0.0
 10
7245.203790337382
 20
5667.554159506941
 30
0.0
 10
7246.070995421699
 20
5664.504728702928
 30
0.0
 10
7247.824257874789
 20
5662.980013300933
 30
0.0
 10
7250.463577696672
 20
5662.980013300933
 30
0.0
 10
7253.479943207391
 20
5662.980013300933
 30
0.0
 10
7255.421728504908
 20
5664.65978450653
 30
0.0
 10
7256.288933589249
 20
5668.019326917706
 30
0.0
 10
7257.156138673558
 20
5671.37886932889
 30
0.0
 10
7257.589741215731
 20
5679.312557946017
 30
0.0
 10
7257.589741215731
 20
5691.820392769165
 30
0.0
 10
7257.589741215731
 20
5691.820392769165
 30
0.0
 10
7257.589741215731
 20
5876.801966455089
 30
0.0
 10
7257.589741215731
 20
5876.801966455089
 30
0.0
 10
7257.589741215731
 20
5876.801966455089
 30
0.0
 10
7305.210611716014
 20
5876.801966455089
 30
0.0
 10
7305.210611716014
 20
5876.801966455089
 30
0.0
  0
SPLINE
  5
2C
330
AC
100
AcDbEntity
  8
Layer 1
 62
     7
420
 16777215
370
     9
100
AcDbSpline
210
0.0
220
0.0
230
1.0
 70
    11
 71
     3
 72
    62
 73
    58
 74
     0
 42
0.000000001
 43
0.001
 12
1.0
 22
0.0
 32
0.0
 13
1.0
 23
0.0
 33
0.0
 40
0.0
 40
0.0
 40
0.0
 40
0.0
 40
1.0
 40
2.0
 40
3.0
 40
4.0
 40
5.0
 40
6.0
 40
7.0
 40
8.0
 40
9.0
 40
10.0
 40
11.0
 40
12.0
 40
13.0
 40
14.0
 40
15.0
 40
16.0
 40
17.0
 40
18.0
 40
19.0
 40
20.0
 40
21.0
 40
22.0
 40
23.0
 40
24.0
 40
25.0
 40
26.0
 40
27.0
 40
28.0
 40
29.0
 40
30.0
 40
31.0
 40
32.0
 40
33.0
 40
34.0
 40
35.0
 40
36.0
 40
37.0
 40
38.0
 40
39.0
 40
40.0
 40
41.0
 40
42.0
 40
43.0
 40
44.0
 40
45.0
 40
46.0
 40
47.0
 40
48.0
 40
49.0
 40
50.0
 40
51.0
 40
52.0
 40
53.0
 40
54.0
 40
55.0
 40
55.0
 40
55.0
 40
55.0
 10
7382.061949243476
 20
5858.970549041923
 30
0.0
 10
7382.061949243476
 20
5858.970549041923
 30
0.0
 10
7382.061949243476
 20
5826.563886091078
 30
0.0
 10
7382.061949243476
 20
5826.563886091078
 30
0.0
 10
7382.061949243476
 20
5826.563886091078
 30
0.0
 10
7394.391343268498
 20
5826.563886091078
 30
0.0
 10
7394.391343268498
 20
5826.563886091078
 30
0.0
 10
7394.391343268498
 20
5826.563886091078
 30
0.0
 10
7394.391343268498
 20
5794.002167336662
 30
0.0
 10
7394.391343268498
 20
5794.002167336662
 30
0.0
 10
7394.391343268498
 20
5794.002167336662
 30
0.0
 10
7382.061949243476
 20
5794.002167336662
 30
0.0
 10
7382.061949243476
 20
5794.002167336662
 30
0.0
 10
7382.061949243476
 20
5794.002167336662
 30
0.0
 10
7382.061949243476
 20
5683.912546785911
 30
0.0
 10
7382.061949243476
 20
5683.912546785911
 30
0.0
 10
7382.061949243476
 20
5670.371006605511
 30
0.0
 10
7382.570960923389
 20
5662.824957497357
 30
0.0
 10
7383.588984283275
 20
5661.274399461441
 30
0.0
 10
7384.607007643143
 20
5659.72384142549
 30
0.0
 10
7388.848771642562
 20
5658.948562407531
 30
0.0
 10
7396.314276281564
 20
5658.948562407531
 30
0.0
 10
7396.314276281564
 20
5658.948562407531
 30
0.0
 10
7396.314276281564
 20
5625.766620438739
 30
0.0
 10
7396.314276281564
 20
5625.766620438739
 30
0.0
 10
7396.314276281564
 20
5625.766620438739
 30
0.0
 10
7377.876742097367
 20
5625.766620438739
 30
0.0
 10
7377.876742097367
 20
5625.766620438739
 30
0.0
 10
7367.470281085408
 20
5625.766620438739
 30
0.0
 10
7360.042481015314
 20
5626.361001019175
 30
0.0
 10
7355.593341887027
 20
5627.54976218006
 30
0.0
 10
7351.144202758748
 20
5628.738523340929
 30
0.0
 10
7347.222927594811
 20
5631.477842537744
 30
0.0
 10
7343.829516395269
 20
5635.767719770448
 30
0.0
 10
7340.436105195715
 20
5640.057597003168
 30
0.0
 10
7338.324649338244
 20
5644.96769745027
 30
0.0
 10
7337.495148822775
 20
5650.498021111739
 30
0.0
 10
7336.665648307339
 20
5656.028344773185
 30
0.0
 10
7336.250898049597
 20
5669.027189641044
 30
0.0
 10
7336.250898049597
 20
5689.494555715265
 30
0.0
 10
7336.250898049597
 20
5689.494555715265
 30
0.0
 10
7336.250898049597
 20
5794.002167336662
 30
0.0
 10
7336.250898049597
 20
5794.002167336662
 30
0.0
 10
7336.250898049597
 20
5794.002167336662
 30
0.0
 10
7326.410005570927
 20
5794.002167336662
 30
0.0
 10
7326.410005570927
 20
5794.002167336662
 30
0.0
 10
7326.410005570927
 20
5794.002167336662
 30
0.0
 10
7326.410005570927
 20
5826.563886091078
 30
0.0
 10
7326.410005570927
 20
5826.563886091078
 30
0.0
 10
7326.410005570927
 20
5826.563886091078
 30
0.0
 10
7336.250898049597
 20
5826.563886091078
 30
0.0
 10
7336.250898049597
 20
5826.563886091078
 30
0.0
 10
7336.250898049597
 20
5826.563886091078
 30
0.0
 10
7336.250898049597
 20
5858.970549041923
 30
0.0
 10
7336.250898049597
 20
5858.970549041923
 30
0.0
 10
7336.250898049597
 20
5858.970549041923
 30
0.0
 10
7382.061949243476
 20
5858.970549041923
 30
0.0
 10
7382.061949243476
 20
5858.970549041923
 30
0.0
  0
LWPOLYLINE
  5
2D
330
AC
100
AcDbEntity
  8
Layer 1
 62
     7
420
 16777215
370
     9
100
AcDbPolyline
 90
        5
 70
     0
 43
0.0
 10
7463.09849391708
 20
5876.801966455089
 10
7463.09849391708
 20
5844.08519189707
 10
7416.043191950024
 20
5844.08519189707
 10
7416.043191950024
 20
5876.801966455089
 10
7463.09849391708
 20
5876.801966455089
  0
LWPOLYLINE
  5
2E
330
AC
100
AcDbEntity
  8
Layer 1
 62
     7
420
 16777215
370
     9
100
AcDbPolyline
 90
        5
 70
     0
 43
0.0
 10
7463.09849391708
 20
5831.525671806031
 10
7463.09849391708
 20
5625.766620438739
 10
7416.043191950024
 20
5625.766620438739
 10
7416.043191950024
 20
5831.525671806031
 10
7463.09849391708
 20
5831.525671806031
  0
LWPOLYLINE
  5
2F
330
AC
100
AcDbEntity
  8
Layer 1
 62
     7
420
 16777215
370
     9
100
AcDbPolyline
 90
        5
 70
     0
 43
0.0
 10
7538.13058599587
 20
5876.801966455089
 10
7538.13058599587
 20
5625.766620438739
 10
7491.07528402887
 20
5625.766620438739
 10
7491.07528402887
 20
5876.801966455089
 10
7538.13058599587
 20
5876.801966455089
  0
LWPOLYLINE
  5
30
330
AC
100
AcDbEntity
  8
Layer 1
 62
     7
420
 16777215
370
     9
100
AcDbPolyline
 90
        5
 70
     0
 43
0.0
 10
7613.172104216941
 20
5876.801966455089
 10
7613.172104216941
 20
5844.08519189707
 10
7566.116802249911
 20
5844.08519189707
 10
7566.116802249911
 20
5876.801966455089
 10
7613.172104216941
 20
5876.801966455089
  0
LWPOLYLINE
  5
31
330
AC
100
AcDbEntity
  8
Layer 1
 62
     7
420
 16777215
370
     9
100
AcDbPolyline
 90
        5
 70
     0
 43
0.0
 10
7613.172104216941
 20
5831.525671806031
 10
7613.172104216941
 20
5625.766620438739
 10
7566.116802249911
 20
5625.766620438739
 10
7566.116802249911
 20
5831.525671806031
 10
7613.172104216941
 20
5831.525671806031
  0
SPLINE
  5
32
330
AC
100
AcDbEntity
  8
Layer 1
 62
     7
420
 16777215
370
     9
100
AcDbSpline
210
0.0
220
0.0
230
1.0
 70
    11
 71
     3
 72
    62
 73
    58
 74
     0
 42
0.000000001
 43
0.001
 12
1.0
 22
0.0
 32
0.0
 13
1.0
 23
0.0
 33
0.0
 40
0.0
 40
0.0
 40
0.0
 40
0.0
 40
1.0
 40
2.0
 40
3.0
 40
4.0
 40
5.0
 40
6.0
 40
7.0
 40
8.0
 40
9.0
 40
10.0
 40
11.0
 40
12.0
 40
13.0
 40
14.0
 40
15.0
 40
16.0
 40
17.0
 40
18.0
 40
19.0
 40
20.0
 40
21.0
 40
22.0
 40
23.0
 40
24.0
 40
25.0
 40
26.0
 40
27.0
 40
28.0
 40
29.0
 40
30.0
 40
31.0
 40
32.0
 40
33.0
 40
34.0
 40
35.0
 40
36.0
 40
37.0
 40
38.0
 40
39.0
 40
40.0
 40
41.0
 40
42.0
 40
43.0
 40
44.0
 40
45.0
 40
46.0
 40
47.0
 40
48.0
 40
49.0
 40
50.0
 40
51.0
 40
52.0
 40
53.0
 40
54.0
 40
55.0
 40
55.0
 40
55.0
 40
55.0
 10
7689.344759504485
 20
5858.970549041923
 30
0.0
 10
7689.344759504485
 20
5858.970549041923
 30
0.0
 10
7689.344759504485
 20
5826.563886091078
 30
0.0
 10
7689.344759504485
 20
5826.563886091078
 30
0.0
 10
7689.344759504485
 20
5826.563886091078
 30
0.0
 10
7701.67415352953
 20
5826.563886091078
 30
0.0
 10
7701.67415352953
 20
5826.563886091078
 30
0.0
 10
7701.67415352953
 20
5826.563886091078
 30
0.0
 10
7701.67415352953
 20
5794.002167336662
 30
0.0
 10
7701.67415352953
 20
5794.002167336662
 30
0.0
 10
7701.67415352953
 20
5794.002167336662
 30
0.0
 10
7689.344759504485
 20
5794.002167336662
 30
0.0
 10
7689.344759504485
 20
5794.002167336662
 30
0.0
 10
7689.344759504485
 20
5794.002167336662
 30
0.0
 10
7689.344759504485
 20
5683.912546785911
 30
0.0
 10
7689.344759504485
 20
5683.912546785911
 30
0.0
 10
7689.344759504485
 20
5670.371006605511
 30
0.0
 10
7689.85377118442
 20
5662.824957497357
 30
0.0
 10
7690.87179454429
 20
5661.274399461441
 30
0.0
 10
7691.88981790416
 20
5659.72384142549
 30
0.0
 10
7696.131581903564
 20
5658.948562407531
 30
0.0
 10
7703.597086542583
 20
5658.948562407531
 30
0.0
 10
7703.597086542583
 20
5658.948562407531
 30
0.0
 10
7703.597086542583
 20
5625.766620438739
 30
0.0
 10
7703.597086542583
 20
5625.766620438739
 30
0.0
 10
7703.597086542583
 20
5625.766620438739
 30
0.0
 10
7685.159552358369
 20
5625.766620438739
 30
0.0
 10
7685.159552358369
 20
5625.766620438739
 30
0.0
 10
7674.753091346458
 20
5625.766620438739
 30
0.0
 10
7667.32529127633
 20
5626.361001019175
 30
0.0
 10
7662.876152148029
 20
5627.54976218006
 30
0.0
 10
7658.427013019747
 20
5628.738523340929
 30
0.0
 10
7654.505737855843
 20
5631.477842537744
 30
0.0
 10
7651.112326656288
 20
5635.767719770448
 30
0.0
 10
7647.71891545675
 20
5640.057597003168
 30
0.0
 10
7645.60745959926
 20
5644.96769745027
 30
0.0
 10
7644.777959083809
 20
5650.498021111739
 30
0.0
 10
7643.948458568359
 20
5656.028344773185
 30
0.0
 10
7643.533708310631
 20
5669.027189641044
 30
0.0
 10
7643.533708310631
 20
5689.494555715265
 30
0.0
 10
7643.533708310631
 20
5689.494555715265
 30
0.0
 10
7643.533708310631
 20
5794.002167336662
 30
0.0
 10
7643.533708310631
 20
5794.002167336662
 30
0.0
 10
7643.533708310631
 20
5794.002167336662
 30
0.0
 10
7633.692815831943
 20
5794.002167336662
 30
0.0
 10
7633.692815831943
 20
5794.002167336662
 30
0.0
 10
7633.692815831943
 20
5794.002167336662
 30
0.0
 10
7633.692815831943
 20
5826.563886091078
 30
0.0
 10
7633.692815831943
 20
5826.563886091078
 30
0.0
 10
7633.692815831943
 20
5826.563886091078
 30
0.0
 10
7643.533708310631
 20
5826.563886091078
 30
0.0
 10
7643.533708310631
 20
5826.563886091078
 30
0.0
 10
7643.533708310631
 20
5826.563886091078
 30
0.0
 10
7643.533708310631
 20
5858.970549041923
 30
0.0
 10
7643.533708310631
 20
5858.970549041923
 30
0.0
 10
7643.533708310631
 20
5858.970549041923
 30
0.0
 10
7689.344759504485
 20
5858.970549041923
 30
0.0
 10
7689.344759504485
 20
5858.970549041923
 30
0.0
  0
SPLINE
  5
33
330
AC
100
AcDbEntity
  8
Layer 1
 62
     7
420
 16777215
370
     9
100
AcDbSpline
210
0.0
220
0.0
230
1.0
 70
    11
 71
     3
 72
    35
 73
    31
 74
     0
 42
0.000000001
 43
0.001
 12
1.0
 22
0.0
 32
0.0
 13
1.0
 23
0.0
 33
0.0
 40
0.0
 40
0.0
 40
0.0
 40
0.0
 40
1.0
 40
2.0
 40
3.0
 40
4.0
 40
5.0
 40
6.0
 40
7.0
 40
8.0
 40
9.0
 40
10.0
 40
11.0
 40
12.0
 40
13.0
 40
14.0
 40
15.0
 40
16.0
 40
17.0
 40
18.0
 40
19.0
 40
20.0
 40
21.0
 40
22.0
 40
23.0
 40
24.0
 40
25.0
 40
26.0
 40
27.0
 40
28.0
 40
28.0
 40
28.0
 40
28.0
 10
7769.023939698258
 20
5831.525671806031
 30
0.0
 10
7769.023939698258
 20
5831.525671806031
 30
0.0
 10
7767.214120391825
 20
5804.468434079139
 30
0.0
 10
7767.214120391825
 20
5804.468434079139
 30
0.0
 10
7773.850124515377
 20
5823.850409528221
 30
0.0
 10
7783.464789580757
 20
5834.109935199267
 30
0.0
 10
7796.058115587965
 20
5835.247011092266
 30
0.0
 10
7796.058115587965
 20
5835.247011092266
 30
0.0
 10
7796.058115587965
 20
5762.835950814561
 30
0.0
 10
7796.058115587965
 20
5762.835950814561
 30
0.0
 10
7787.687701295732
 20
5762.835950814561
 30
0.0
 10
7781.541856567703
 20
5761.28539277861
 30
0.0
 10
7777.620581403766
 20
5758.184276706768
 30
0.0
 10
7773.699306239851
 20
5755.083160634907
 30
0.0
 10
7771.286213831287
 20
5750.767440768244
 30
0.0
 10
7770.381304178072
 20
5745.23711710679
 30
0.0
 10
7769.476394524858
 20
5739.706793445321
 30
0.0
 10
7769.023939698258
 20
5726.966374916816
 30
0.0
 10
7769.023939698258
 20
5707.015861521225
 30
0.0
 10
7769.023939698258
 20
5707.015861521225
 30
0.0
 10
7769.023939698258
 20
5625.766620438739
 30
0.0
 10
7769.023939698258
 20
5625.766620438739
 30
0.0
 10
7769.023939698258
 20
5625.766620438739
 30
0.0
 10
7723.326002211042
 20
5625.766620438739
 30
0.0
 10
7723.326002211042
 20
5625.766620438739
 30
0.0
 10
7723.326002211042
 20
5625.766620438739
 30
0.0
 10
7723.326002211042
 20
5831.525671806031
 30
0.0
 10
7723.326002211042
 20
5831.525671806031
 30
0.0
 10
7723.326002211042
 20
5831.525671806031
 30
0.0
 10
7769.023939698258
 20
5831.525671806031
 30
0.0
 10
7769.023939698258
 20
5831.525671806031
 30
0.0
  0
SPLINE
  5
34
330
AC
100
AcDbEntity
  8
Layer 1
 62
     7
420
 16777215
370
     9
100
AcDbSpline
210
0.0
220
0.0
230
1.0
 70
    11
 71
     3
 72
    56
 73
    52
 74
     0
 42
0.000000001
 43
0.001
 12
1.0
 22
0.0
 32
0.0
 13
1.0
 23
0.0
 33
0.0
 40
0.0
 40
0.0
 40
0.0
 40
0.0
 40
1.0
 40
2.0
 40
3.0
 40
4.0
 40
5.0
 40
6.0
 40
7.0
 40
8.0
 40
9.0
 40
10.0
 40
11.0
 40
12.0
 40
13.0
 40
14.0
 40
15.0
 40
16.0
 40
17.0
 40
18.0
 40
19.0
 40
20.0
 40
21.0
 40
22.0
 40
23.0
 40
24.0
 40
25.0
 40
26.0
 40
27.0
 40
28.0
 40
29.0
 40
30.0
 40
31.0
 40
32.0
 40
33.0
 40
34.0
 40
35.0
 40
36.0
 40
37.0
 40
38.0
 40
39.0
 40
40.0
 40
41.0
 40
42.0
 40
43.0
 40
44.0
 40
45.0
 40
46.0
 40
47.0
 40
48.0
 40
49.0
 40
49.0
 40
49.0
 40
49.0
 10
7921.209005855629
 20
5759.269667331941
 30
0.0
 10
7921.209005855629
 20
5759.269667331941
 30
0.0
 10
7921.209005855629
 20
5708.876531164333
 30
0.0
 10
7921.209005855629
 20
5708.876531164333
 30
0.0
 10
7921.209005855629
 20
5690.373205268948
 30
0.0
 10
7920.530323615689
 20
5676.805822454604
 30
0.0
 10
7919.172959135907
 20
5668.174382721289
 30
0.0
 10
7917.815594656097
 20
5659.542942987986
 30
0.0
 10
7914.912342852026
 20
5651.480041201165
 30
0.0
 10
7910.463203723733
 20
5643.985677360852
 30
0.0
 10
7906.014064595443
 20
5636.491313520539
 30
0.0
 10
7900.301822409537
 20
5630.96098985907
 30
0.0
 10
7893.326477166008
 20
5627.394706376444
 30
0.0
 10
7886.351131922527
 20
5623.828422893834
 30
0.0
 10
7878.338911034697
 20
5622.045281152512
 30
0.0
 10
7869.289814502588
 20
5622.045281152512
 30
0.0
 10
7859.184990041716
 20
5622.045281152512
 30
0.0
 10
7850.6260529051
 20
5623.569996554525
 30
0.0
 10
7843.613003092711
 20
5626.619427358502
 30
0.0
 10
7836.599953280326
 20
5629.668858162478
 30
0.0
 10
7831.151643076585
 20
5634.268847002372
 30
0.0
 10
7827.268072481555
 20
5640.419393878226
 30
0.0
 10
7823.384501886525
 20
5646.569940754085
 30
0.0
 10
7820.613216073557
 20
5654.012619326524
 30
0.0
 10
7818.954215042671
 20
5662.747429595545
 30
0.0
 10
7817.295214011781
 20
5671.482239864591
 30
0.0
 10
7816.465713496331
 20
5684.584455268178
 30
0.0
 10
7816.465713496331
 20
5702.054075806271
 30
0.0
 10
7816.465713496331
 20
5702.054075806271
 30
0.0
 10
7816.465713496331
 20
5754.773049027748
 30
0.0
 10
7816.465713496331
 20
5754.773049027748
 30
0.0
 10
7816.465713496331
 20
5773.896598137493
 30
0.0
 10
7817.973896251682
 20
5788.833640550249
 30
0.0
 10
7820.990261762397
 20
5799.58417626599
 30
0.0
 10
7824.006627273099
 20
5810.334711981728
 30
0.0
 10
7829.436085192394
 20
5818.966151715066
 30
0.0
 10
7837.278635520216
 20
5825.478495465937
 30
0.0
 10
7845.121185848056
 20
5831.990839216847
 30
0.0
 10
7855.150601171146
 20
5835.247011092266
 30
0.0
 10
7867.366881489509
 20
5835.247011092266
 30
0.0
 10
7877.622524225925
 20
5835.247011092266
 30
0.0
 10
7886.426541060292
 20
5833.153757743784
 30
0.0
 10
7893.778931992655
 20
5828.967251046777
 30
0.0
 10
7901.131322924988
 20
5824.780744349766
 30
0.0
 10
7906.805860542005
 20
5819.327948590091
 30
0.0
 10
7910.802544843688
 20
5812.608863767772
 30
0.0
 10
7914.79922914537
 20
5805.889778945443
 30
0.0
 10
7917.532810389447
 20
5798.963953051606
 30
0.0
 10
7919.003288575916
 20
5791.831386086369
 30
0.0
 10
7920.473766762386
 20
5784.698819121108
 30
0.0
 10
7921.209005855629
 20
5773.844912869616
 30
0.0
 10
7921.209005855629
 20
5759.269667331941
 30
0.0
  0
SPLINE
  5
35
330
AC
100
AcDbEntity
  8
Layer 1
 62
     7
420
 16777215
370
     9
100
AcDbSpline
210
0.0
220
0.0
230
1.0
 70
    11
 71
     3
 72
    35
 73
    31
 74
     0
 42
0.000000001
 43
0.001
 12
1.0
 22
0.0
 32
0.0
 13
1.0
 23
0.0
 33
0.0
 40
0.0
 40
0.0
 40
0.0
 40
0.0
 40
1.0
 40
2.0
 40
3.0
 40
4.0
 40
5.0
 40
6.0
 40
7.0
 40
8.0
 40
9.0
 40
10.0
 40
11.0
 40
12.0
 40
13.0
 40
14.0
 40
15.0
 40
16.0
 40
17.0
 40
18.0
 40
19.0
 40
20.0
 40
21.0
 40
22.0
 40
23.0
 40
24.0
 40
25.0
 40
26.0
 40
27.0
 40
28.0
 40
28.0
 40
28.0
 40
28.0
 10
7875.511068368412
 20
5774.775247691186
 30
0.0
 10
7875.511068368412
 20
5785.319042335474
 30
0.0
 10
7875.096318110704
 20
5791.96059925603
 30
0.0
 10
7874.266817595251
 20
5794.699918452809
 30
0.0
 10
7873.437317079815
 20
5797.439237649617
 30
0.0
 10
7871.665202342274
 20
5798.80889724803
 30
0.0
 10
7868.950473382626
 20
5798.80889724803
 30
0.0
 10
7866.235744422995
 20
5798.80889724803
 30
0.0
 10
7864.42592511658
 20
5797.439237649617
 30
0.0
 10
7863.521015463364
 20
5794.699918452809
 30
0.0
 10
7862.616105810172
 20
5791.96059925603
 30
0.0
 10
7862.163650983548
 20
5785.319042335474
 30
0.0
 10
7862.163650983548
 20
5774.775247691186
 30
0.0
 10
7862.163650983548
 20
5774.775247691186
 30
0.0
 10
7862.163650983548
 20
5681.896821339225
 30
0.0
 10
7862.163650983548
 20
5681.896821339225
 30
0.0
 10
7862.163650983548
 20
5672.179990980763
 30
0.0
 10
7862.616105810172
 20
5665.848545667405
 30
0.0
 10
7863.521015463364
 20
5662.902485399136
 30
0.0
 10
7864.42592511658
 20
5659.956425130878
 30
0.0
 10
7866.198039854114
 20
5658.483394996755
 30
0.0
 10
7868.83735967599
 20
5658.483394996755
 30
0.0
 10
7871.552088635621
 20
5658.483394996755
 30
0.0
 10
7873.343055657607
 20
5659.82721196124
 30
0.0
 10
7874.210260741918
 20
5662.514845890165
 30
0.0
 10
7875.077465826261
 20
5665.202479819092
 30
0.0
 10
7875.511068368412
 20
5670.991229819903
 30
0.0
 10
7875.511068368412
 20
5679.881095892551
 30
0.0
 10
7875.511068368412
 20
5679.881095892551
 30
0.0
 10
7875.511068368412
 20
5774.775247691186
 30
0.0
 10
7875.511068368412
 20
5774.775247691186
 30
0.0
  0
SPLINE
  5
36
330
AC
100
AcDbEntity
  8
Layer 1
 62
     7
420
 16777215
370
     9
100
AcDbSpline
210
0.0
220
0.0
230
1.0
 70
    11
 71
     3
 72
    56
 73
    52
 74
     0
 42
0.000000001
 43
0.001
 12
1.0
 22
0.0
 32
0.0
 13
1.0
 23
0.0
 33
0.0
 40
0.0
 40
0.0
 40
0.0
 40
0.0
 40
1.0
 40
2.0
 40
3.0
 40
4.0
 40
5.0
 40
6.0
 40
7.0
 40
8.0
 40
9.0
 40
10.0
 40
11.0
 40
12.0
 40
13.0
 40
14.0
 40
15.0
 40
16.0
 40
17.0
 40
18.0
 40
19.0
 40
20.0
 40
21.0
 40
22.0
 40
23.0
 40
24.0
 40
25.0
 40
26.0
 40
27.0
 40
28.0
 40
29.0
 40
30.0
 40
31.0
 40
32.0
 40
33.0
 40
34.0
 40
35.0
 40
36.0
 40
37.0
 40
38.0
 40
39.0
 40
40.0
 40
41.0
 40
42.0
 40
43.0
 40
44.0
 40
45.0
 40
46.0
 40
47.0
 40
48.0
 40
49.0
 40
49.0
 40
49.0
 40
49.0
 10
7994.318164921375
 20
5831.525671806031
 30
0.0
 10
7994.318164921375
 20
5831.525671806031
 30
0.0
 10
7993.526368974815
 20
5812.57009981687
 30
0.0
 10
7993.526368974815
 20
5812.57009981687
 30
0.0
 10
7996.844371036621
 20
5820.129070241987
 30
0.0
 10
8000.897612191589
 20
5825.801528390094
 30
0.0
 10
8005.686092439851
 20
5829.574552944177
 30
0.0
 10
8010.474572688098
 20
5833.360498815236
 30
0.0
 10
8015.998292029587
 20
5835.247011092266
 30
0.0
 10
8022.257250464301
 20
5835.247011092266
 30
0.0
 10
8030.099800792123
 20
5835.247011092266
 30
0.0
 10
8036.509577502382
 20
5832.714432966932
 30
0.0
 10
8041.486580595046
 20
5827.649276716238
 30
0.0
 10
8046.463583687725
 20
5822.58412046555
 30
0.0
 10
8049.668472042829
 20
5816.200989884318
 30
0.0
 10
8051.101245660424
 20
5808.499884972555
 30
0.0
 10
8052.534019278007
 20
5800.798780060785
 30
0.0
 10
8053.25040608682
 20
5787.954990996548
 30
0.0
 10
8053.25040608682
 20
5769.968517779816
 30
0.0
 10
8053.25040608682
 20
5769.968517779816
 30
0.0
 10
8053.25040608682
 20
5625.766620438739
 30
0.0
 10
8053.25040608682
 20
5625.766620438739
 30
0.0
 10
8053.25040608682
 20
5625.766620438739
 30
0.0
 10
8007.552468599588
 20
5625.766620438739
 30
0.0
 10
8007.552468599588
 20
5625.766620438739
 30
0.0
 10
8007.552468599588
 20
5625.766620438739
 30
0.0
 10
8007.552468599588
 20
5768.262903940288
 30
0.0
 10
8007.552468599588
 20
5768.262903940288
 30
0.0
 10
8007.552468599588
 20
5782.424667335096
 30
0.0
 10
8007.21312747964
 20
5791.056107068418
 30
0.0
 10
8006.534445239733
 20
5794.157223140253
 30
0.0
 10
8005.855762999834
 20
5797.258339212095
 30
0.0
 10
8003.970534555629
 20
5798.80889724803
 30
0.0
 10
8000.878759907179
 20
5798.80889724803
 30
0.0
 10
7997.63616698315
 20
5798.80889724803
 30
0.0
 10
7995.600120263418
 20
5797.025755506715
 30
0.0
 10
7994.770619747989
 20
5793.459472024082
 30
0.0
 10
7993.941119232539
 20
5789.893188541464
 30
0.0
 10
7993.526368974815
 20
5780.357256620521
 30
0.0
 10
7993.526368974815
 20
5764.851676261245
 30
0.0
 10
7993.526368974815
 20
5764.851676261245
 30
0.0
 10
7993.526368974815
 20
5625.766620438739
 30
0.0
 10
7993.526368974815
 20
5625.766620438739
 30
0.0
 10
7993.526368974815
 20
5625.766620438739
 30
0.0
 10
7947.828431487614
 20
5625.766620438739
 30
0.0
 10
7947.828431487614
 20
5625.766620438739
 30
0.0
 10
7947.828431487614
 20
5625.766620438739
 30
0.0
 10
7947.828431487614
 20
5831.525671806031
 30
0.0
 10
7947.828431487614
 20
5831.525671806031
 30
0.0
 10
7947.828431487614
 20
5831.525671806031
 30
0.0
 10
7994.318164921375
 20
5831.525671806031
 30
0.0
 10
7994.318164921375
 20
5831.525671806031
 30
0.0
  0
LWPOLYLINE
  5
37
330
AC
100
AcDbEntity
  8
Layer 1
 62
     7
420
 16777215
370
     9
100
AcDbPolyline
 90
        5
 70
     0
 43
0.0
 10
8127.61324206795
 20
5876.801966455089
 10
8127.61324206795
 20
5844.08519189707
 10
8080.557940100919
 20
5844.08519189707
 10
8080.557940100919
 20
5876.801966455089
 10
8127.61324206795
 20
5876.801966455089
  0
LWPOLYLINE
  5
38
330
AC
100
AcDbEntity
  8
Layer 1
 62
     7
420
 16777215
370
     9
100
AcDbPolyline
 90
        5
 70
     0
 43
0.0
 10
8127.61324206795
 20
5831.525671806031
 10
8127.61324206795
 20
5625.766620438739
 10
8080.557940100919
 20
5625.766620438739
 10
8080.557940100919
 20
5831.525671806031
 10
8127.61324206795
 20
5831.525671806031
  0
SPLINE
  5
39
330
AC
100
AcDbEntity
  8
Layer 1
 62
     7
420
 16777215
370
     9
100
AcDbSpline
210
0.0
220
0.0
230
1.0
 70
    11
 71
     3
 72
    86
 73
    82
 74
     0
 42
0.000000001
 43
0.001
 12
1.0
 22
0.0
 32
0.0
 13
1.0
 23
0.0
 33
0.0
 40
0.0
 40
0.0
 40
0.0
 40
0.0
 40
1.0
 40
2.0
 40
3.0
 40
4.0
 40
5.0
 40
6.0
 40
7.0
 40
8.0
 40
9.0
 40
10.0
 40
11.0
 40
12.0
 40
13.0
 40
14.0
 40
15.0
 40
16.0
 40
17.0
 40
18.0
 40
19.0
 40
20.0
 40
21.0
 40
22.0
 40
23.0
 40
24.0
 40
25.0
 40
26.0
 40
27.0
 40
28.0
 40
29.0
 40
30.0
 40
31.0
 40
32.0
 40
33.0
 40
34.0
 40
35.0
 40
36.0
 40
37.0
 40
38.0
 40
39.0
 40
40.0
 40
41.0
 40
42.0
 40
43.0
 40
44.0
 40
45.0
 40
46.0
 40
47.0
 40
48.0
 40
49.0
 40
50.0
 40
51.0
 40
52.0
 40
53.0
 40
54.0
 40
55.0
 40
56.0
 40
57.0
 40
58.0
 40
59.0
 40
60.0
 40
61.0
 40
62.0
 40
63.0
 40
64.0
 40
65.0
 40
66.0
 40
67.0
 40
68.0
 40
69.0
 40
70.0
 40
71.0
 40
72.0
 40
73.0
 40
74.0
 40
75.0
 40
76.0
 40
77.0
 40
78.0
 40
79.0
 40
79.0
 40
79.0
 40
79.0
 10
8256.60999836177
 20
5753.842714206174
 30
0.0
 10
8256.60999836177
 20
5753.842714206174
 30
0.0
 10
8213.513676127544
 20
5753.842714206174
 30
0.0
 10
8213.513676127544
 20
5753.842714206174
 30
0.0
 10
8213.513676127544
 20
5753.842714206174
 30
0.0
 10
8213.513676127544
 20
5777.566252155835
 30
0.0
 10
8213.513676127544
 20
5777.566252155835
 30
0.0
 10
8213.513676127544
 20
5785.835895014116
 30
0.0
 10
8213.023516732039
 20
5791.443746577373
 30
0.0
 10
8212.04319794106
 20
5794.389806845648
 30
0.0
 10
8211.062879150095
 20
5797.335867113908
 30
0.0
 10
8209.253059843679
 20
5798.80889724803
 30
0.0
 10
8206.613740021796
 20
5798.80889724803
 30
0.0
 10
8203.974420199946
 20
5798.80889724803
 30
0.0
 10
8202.202305462386
 20
5797.516765551421
 30
0.0
 10
8201.297395809186
 20
5794.932502158211
 30
0.0
 10
8200.392486155955
 20
5792.348238764993
 30
0.0
 10
8199.940031329357
 20
5786.559488764231
 30
0.0
 10
8199.940031329357
 20
5777.566252155835
 30
0.0
 10
8199.940031329357
 20
5777.566252155835
 30
0.0
 10
8199.940031329357
 20
5680.501319106926
 30
0.0
 10
8199.940031329357
 20
5680.501319106926
 30
0.0
 10
8199.940031329357
 20
5673.162011070181
 30
0.0
 10
8200.618713569262
 20
5667.657530042665
 30
0.0
 10
8201.976078049094
 20
5663.987876024297
 30
0.0
 10
8203.333442528903
 20
5660.318222005921
 30
0.0
 10
8205.331784679745
 20
5658.483394996755
 30
0.0
 10
8207.971104501614
 20
5658.483394996755
 30
0.0
 10
8211.062879150095
 20
5658.483394996755
 30
0.0
 10
8213.155482723121
 20
5660.395749907732
 30
0.0
 10
8214.248915220773
 20
5664.220459729667
 30
0.0
 10
8215.342347718388
 20
5668.045169551637
 30
0.0
 10
8215.889063967214
 20
5675.281107052623
 30
0.0
 10
8215.889063967214
 20
5685.928272232655
 30
0.0
 10
8215.889063967214
 20
5685.928272232655
 30
0.0
 10
8215.889063967214
 20
5710.427089200251
 30
0.0
 10
8215.889063967214
 20
5710.427089200251
 30
0.0
 10
8215.889063967214
 20
5710.427089200251
 30
0.0
 10
8256.60999836177
 20
5710.427089200251
 30
0.0
 10
8256.60999836177
 20
5710.427089200251
 30
0.0
 10
8256.534589223987
 20
5693.991174019465
 30
0.0
 10
8256.100986681817
 20
5681.664237633848
 30
0.0
 10
8255.309190735257
 20
5673.44628004345
 30
0.0
 10
8254.51739478869
 20
5665.228322453071
 30
0.0
 10
8251.99118867348
 20
5656.803623791177
 30
0.0
 10
8247.730572389615
 20
5648.172184057855
 30
0.0
 10
8243.469956105717
 20
5639.540744324549
 30
0.0
 10
8237.908532195372
 20
5633.028400573646
 30
0.0
 10
8231.046300658529
 20
5628.635152805178
 30
0.0
 10
8224.184069121651
 20
5624.241905036733
 30
0.0
 10
8215.70054112278
 20
5622.045281152512
 30
0.0
 10
8205.595716661945
 20
5622.045281152512
 30
0.0
 10
8192.70075410366
 20
5622.045281152512
 30
0.0
 10
8182.482815936136
 20
5625.068869322557
 30
0.0
 10
8174.941902159385
 20
5631.116045662686
 30
0.0
 10
8167.40098838262
 20
5637.163222002798
 30
0.0
 10
8162.065791885574
 20
5645.639605932502
 30
0.0
 10
8158.936312668175
 20
5656.545197451843
 30
0.0
 10
8155.80683345085
 20
5667.450788971175
 30
0.0
 10
8154.242093842138
 20
5682.930526696508
 30
0.0
 10
8154.242093842138
 20
5702.98441062782
 30
0.0
 10
8154.242093842138
 20
5702.98441062782
 30
0.0
 10
8154.242093842138
 20
5761.440448582226
 30
0.0
 10
8154.242093842138
 20
5761.440448582226
 30
0.0
 10
8154.242093842138
 20
5778.910069120312
 30
0.0
 10
8155.524049184207
 20
5792.089812425677
 30
0.0
 10
8158.08795986831
 20
5800.979678498323
 30
0.0
 10
8160.651870552414
 20
5809.869544570978
 30
0.0
 10
8166.119033040552
 20
5817.80323318811
 30
0.0
 10
8174.489447332787
 20
5824.780744349766
 30
0.0
 10
8182.859861624972
 20
5831.758255511451
 30
0.0
 10
8193.040095223605
 20
5835.247011092266
 30
0.0
 10
8205.03014812868
 20
5835.247011092266
 30
0.0
 10
8216.944791895958
 20
5835.247011092266
 30
0.0
 10
8227.125025494594
 20
5831.784098145365
 30
0.0
 10
8235.570848924574
 20
5824.85827225157
 30
0.0
 10
8244.016672354559
 20
5817.932446357774
 30
0.0
 10
8249.63465311824
 20
5809.197636088719
 30
0.0
 10
8252.424791215668
 20
5798.653841444439
 30
0.0
 10
8255.214929313062
 20
5788.110046800134
 30
0.0
 10
8256.60999836177
 20
5773.17300438739
 30
0.0
 10
8256.60999836177
 20
5753.842714206174
 30
0.0
  0
LWPOLYLINE
  5
3A
330
AC
100
AcDbEntity
  8
Layer 1
 62
     7
420
 16777215
370
     9
100
AcDbPolyline
 90
        5
 70
     0
 43
0.0
 10
7001.757328529159
 20
5578.33150150964
 10
7001.757328529159
 20
5377.057542116336
 10
6954.714745598633
 20
5377.057542116336
 10
6954.714745598633
 20
5578.33150150964
 10
7001.757328529159
 20
5578.33150150964
  0
SPLINE
  5
3B
330
AC
100
AcDbEntity
  8
Layer 1
 62
     7
420
 16777215
370
     9
100
AcDbSpline
210
0.0
220
0.0
230
1.0
 70
    11
 71
     3
 72
    56
 73
    52
 74
     0
 42
0.000000001
 43
0.001
 12
1.0
 22
0.0
 32
0.0
 13
1.0
 23
0.0
 33
0.0
 40
0.0
 40
0.0
 40
0.0
 40
0.0
 40
1.0
 40
2.0
 40
3.0
 40
4.0
 40
5.0
 40
6.0
 40
7.0
 40
8.0
 40
9.0
 40
10.0
 40
11.0
 40
12.0
 40
13.0
 40
14.0
 40
15.0
 40
16.0
 40
17.0
 40
18.0
 40
19.0
 40
20.0
 40
21.0
 40
22.0
 40
23.0
 40
24.0
 40
25.0
 40
26.0
 40
27.0
 40
28.0
 40
29.0
 40
30.0
 40
31.0
 40
32.0
 40
33.0
 40
34.0
 40
35.0
 40
36.0
 40
37.0
 40
38.0
 40
39.0
 40
40.0
 40
41.0
 40
42.0
 40
43.0
 40
44.0
 40
45.0
 40
46.0
 40
47.0
 40
48.0
 40
49.0
 40
49.0
 40
49.0
 40
49.0
 10
7076.669755226739
 20
5542.030083262057
 30
0.0
 10
7076.669755226739
 20
5542.030083262057
 30
0.0
 10
7075.88757451293
 20
5526.83197236902
 30
0.0
 10
7075.88757451293
 20
5526.83197236902
 30
0.0
 10
7079.165284170789
 20
5532.892568737399
 30
0.0
 10
7083.169304491498
 20
5537.440606012119
 30
0.0
 10
7087.899635475016
 20
5540.465724199453
 30
0.0
 10
7092.62996645852
 20
5543.501202380539
 30
0.0
 10
7098.086608104865
 20
5545.01376147418
 30
0.0
 10
7104.269560414014
 20
5545.01376147418
 30
0.0
 10
7112.016874150799
 20
5545.01376147418
 30
0.0
 10
7118.348813262582
 20
5542.983202690933
 30
0.0
 10
7123.26537774937
 20
5538.92208512442
 30
0.0
 10
7128.18194223619
 20
5534.860967557912
 30
0.0
 10
7131.347911792067
 20
5529.743130624589
 30
0.0
 10
7132.763286417073
 20
5523.568574324504
 30
0.0
 10
7134.178661042045
 20
5517.394018024408
 30
0.0
 10
7134.886348354544
 20
5507.096184195019
 30
0.0
 10
7134.886348354544
 20
5492.675072836395
 30
0.0
 10
7134.886348354544
 20
5492.675072836395
 30
0.0
 10
7134.886348354544
 20
5377.057542116336
 30
0.0
 10
7134.886348354544
 20
5377.057542116336
 30
0.0
 10
7134.886348354544
 20
5377.057542116336
 30
0.0
 10
7089.743347157535
 20
5377.057542116336
 30
0.0
 10
7089.743347157535
 20
5377.057542116336
 30
0.0
 10
7089.743347157535
 20
5377.057542116336
 30
0.0
 10
7089.743347157535
 20
5491.307553655817
 30
0.0
 10
7089.743347157535
 20
5491.307553655817
 30
0.0
 10
7089.743347157535
 20
5502.662106851997
 30
0.0
 10
7089.408126851621
 20
5509.582582705138
 30
0.0
 10
7088.737686239793
 20
5512.068981215267
 30
0.0
 10
7088.067245627982
 20
5514.555379725371
 30
0.0
 10
7086.204910595072
 20
5515.798578980401
 30
0.0
 10
7083.150681141178
 20
5515.798578980401
 30
0.0
 10
7079.947464884599
 20
5515.798578980401
 30
0.0
 10
7077.9361430491
 20
5514.368899837099
 30
0.0
 10
7077.116715634635
 20
5511.509541550467
 30
0.0
 10
7076.297288220154
 20
5508.65018326386
 30
0.0
 10
7075.88757451293
 20
5501.004507845256
 30
0.0
 10
7075.88757451293
 20
5488.572515294727
 30
0.0
 10
7075.88757451293
 20
5488.572515294727
 30
0.0
 10
7075.88757451293
 20
5377.057542116336
 30
0.0
 10
7075.88757451293
 20
5377.057542116336
 30
0.0
 10
7075.88757451293
 20
5377.057542116336
 30
0.0
 10
7030.744573315936
 20
5377.057542116336
 30
0.0
 10
7030.744573315936
 20
5377.057542116336
 30
0.0
 10
7030.744573315936
 20
5377.057542116336
 30
0.0
 10
7030.744573315936
 20
5542.030083262057
 30
0.0
 10
7030.744573315936
 20
5542.030083262057
 30
0.0
 10
7030.744573315936
 20
5542.030083262057
 30
0.0
 10
7076.669755226739
 20
5542.030083262057
 30
0.0
 10
7076.669755226739
 20
5542.030083262057
 30
0.0
  0
SPLINE
  5
3C
330
AC
100
AcDbEntity
  8
Layer 1
 62
     7
420
 16777215
370
     9
100
AcDbSpline
210
0.0
220
0.0
230
1.0
 70
    11
 71
     3
 72
    53
 73
    49
 74
     0
 42
0.000000001
 43
0.001
 12
1.0
 22
0.0
 32
0.0
 13
1.0
 23
0.0
 33
0.0
 40
0.0
 40
0.0
 40
0.0
 40
0.0
 40
1.0
 40
2.0
 40
3.0
 40
4.0
 40
5.0
 40
6.0
 40
7.0
 40
8.0
 40
9.0
 40
10.0
 40
11.0
 40
12.0
 40
13.0
 40
14.0
 40
15.0
 40
16.0
 40
17.0
 40
18.0
 40
19.0
 40
20.0
 40
21.0
 40
22.0
 40
23.0
 40
24.0
 40
25.0
 40
26.0
 40
27.0
 40
28.0
 40
29.0
 40
30.0
 40
31.0
 40
32.0
 40
33.0
 40
34.0
 40
35.0
 40
36.0
 40
37.0
 40
38.0
 40
39.0
 40
40.0
 40
41.0
 40
42.0
 40
43.0
 40
44.0
 40
45.0
 40
46.0
 40
46.0
 40
46.0
 40
46.0
 10
7264.551425018762
 20
5578.33150150964
 30
0.0
 10
7264.551425018762
 20
5578.33150150964
 30
0.0
 10
7264.551425018762
 20
5377.057542116336
 30
0.0
 10
7264.551425018762
 20
5377.057542116336
 30
0.0
 10
7264.551425018762
 20
5377.057542116336
 30
0.0
 10
7219.408423821767
 20
5377.057542116336
 30
0.0
 10
7219.408423821767
 20
5377.057542116336
 30
0.0
 10
7219.408423821767
 20
5377.057542116336
 30
0.0
 10
7219.408423821767
 20
5389.023334946234
 30
0.0
 10
7219.408423821767
 20
5389.023334946234
 30
0.0
 10
7215.087806545513
 20
5384.040177932226
 30
0.0
 10
7210.543709065279
 20
5380.300220173281
 30
0.0
 10
7205.776131381078
 20
5377.813821663161
 30
0.0
 10
7201.008553696927
 20
5375.317063159261
 30
0.0
 10
7196.017495808816
 20
5374.07386390421
 30
0.0
 10
7190.802957716753
 20
5374.07386390421
 30
0.0
 10
7183.800577993109
 20
5374.07386390421
 30
0.0
 10
7177.729365785941
 20
5376.12514267504
 30
0.0
 10
7172.589321095171
 20
5380.227700216733
 30
0.0
 10
7167.449276404438
 20
5384.330257758402
 30
0.0
 10
7164.152943396225
 20
5389.075134915197
 30
0.0
 10
7162.700322070607
 20
5394.462331687091
 30
0.0
 10
7161.247700744937
 20
5399.849528459021
 30
0.0
 10
7160.521390082118
 20
5408.63480319472
 30
0.0
 10
7160.521390082118
 20
5420.818155894242
 30
0.0
 10
7160.521390082118
 20
5420.818155894242
 30
0.0
 10
7160.521390082118
 20
5498.02082963313
 30
0.0
 10
7160.521390082118
 20
5498.02082963313
 30
0.0
 10
7160.521390082118
 20
5510.701462034683
 30
0.0
 10
7161.247700744937
 20
5519.693936646247
 30
0.0
 10
7162.700322070607
 20
5524.998253467827
 30
0.0
 10
7164.152943396225
 20
5530.302570289372
 30
0.0
 10
7167.486523105093
 20
5534.964567495827
 30
0.0
 10
7172.701061197172
 20
5538.984245087167
 30
0.0
 10
7177.915599289218
 20
5543.003922678534
 30
0.0
 10
7184.135798299051
 20
5545.01376147418
 30
0.0
 10
7191.361658226614
 20
5545.01376147418
 30
0.0
 10
7196.948663325246
 20
5545.01376147418
 30
0.0
 10
7202.070084665677
 20
5543.894882144623
 30
0.0
 10
7206.72592224786
 20
5541.646763491725
 30
0.0
 10
7211.381759830062
 20
5539.409004832657
 30
0.0
 10
7215.609260354686
 20
5536.042006850217
 30
0.0
 10
7219.408423821767
 20
5531.55612953822
 30
0.0
 10
7219.408423821767
 20
5531.55612953822
 30
0.0
 10
7219.408423821767
 20
5578.33150150964
 30
0.0
 10
7219.408423821767
 20
5578.33150150964
 30
0.0
 10
7219.408423821767
 20
5578.33150150964
 30
0.0
 10
7264.551425018762
 20
5578.33150150964
 30
0.0
 10
7264.551425018762
 20
5578.33150150964
 30
0.0
  0
SPLINE
  5
3D
330
AC
100
AcDbEntity
  8
Layer 1
 62
     7
420
 16777215
370
     9
100
AcDbSpline
210
0.0
220
0.0
230
1.0
 70
    11
 71
     3
 72
    35
 73
    31
 74
     0
 42
0.000000001
 43
0.001
 12
1.0
 22
0.0
 32
0.0
 13
1.0
 23
0.0
 33
0.0
 40
0.0
 40
0.0
 40
0.0
 40
0.0
 40
1.0
 40
2.0
 40
3.0
 40
4.0
 40
5.0
 40
6.0
 40
7.0
 40
8.0
 40
9.0
 40
10.0
 40
11.0
 40
12.0
 40
13.0
 40
14.0
 40
15.0
 40
16.0
 40
17.0
 40
18.0
 40
19.0
 40
20.0
 40
21.0
 40
22.0
 40
23.0
 40
24.0
 40
25.0
 40
26.0
 40
27.0
 40
28.0
 40
28.0
 40
28.0
 40
28.0
 10
7219.408423821767
 20
5500.507228143244
 30
0.0
 10
7219.408423821767
 20
5506.557464517829
 30
0.0
 10
7218.942840063553
 20
5510.618582084338
 30
0.0
 10
7218.011672547107
 20
5512.690580842774
 30
0.0
 10
7217.080505030674
 20
5514.762579601191
 30
0.0
 10
7215.236793348133
 20
5515.798578980401
 30
0.0
 10
7212.480537499464
 20
5515.798578980401
 30
0.0
 10
7209.798775052109
 20
5515.798578980401
 30
0.0
 10
7207.992310070223
 20
5514.866179539122
 30
0.0
 10
7207.061142553776
 20
5513.001380656523
 30
0.0
 10
7206.129975037344
 20
5511.136581773963
 30
0.0
 10
7205.66439127913
 20
5506.971864269532
 30
0.0
 10
7205.66439127913
 20
5500.507228143244
 30
0.0
 10
7205.66439127913
 20
5500.507228143244
 30
0.0
 10
7205.66439127913
 20
5419.69927656469
 30
0.0
 10
7205.66439127913
 20
5419.69927656469
 30
0.0
 10
7205.66439127913
 20
5412.986000587416
 30
0.0
 10
7206.111351687035
 20
5408.572643231966
 30
0.0
 10
7207.005272502808
 20
5406.459204498372
 30
0.0
 10
7207.899193318593
 20
5404.345765764788
 30
0.0
 10
7209.612541548816
 20
5403.289046398
 30
0.0
 10
7212.145317193569
 20
5403.289046398
 30
0.0
 10
7215.050559844851
 20
5403.289046398
 30
0.0
 10
7216.98738827903
 20
5404.470085690288
 30
0.0
 10
7217.955802496132
 20
5406.832164274877
 30
0.0
 10
7218.924216713249
 20
5409.194242859497
 30
0.0
 10
7219.408423821767
 20
5414.975119395493
 30
0.0
 10
7219.408423821767
 20
5424.174793882896
 30
0.0
 10
7219.408423821767
 20
5424.174793882896
 30
0.0
 10
7219.408423821767
 20
5500.507228143244
 30
0.0
 10
7219.408423821767
 20
5500.507228143244
 30
0.0
  0
SPLINE
  5
3E
330
AC
100
AcDbEntity
  8
Layer 1
 62
     7
420
 16777215
370
     9
100
AcDbSpline
210
0.0
220
0.0
230
1.0
 70
    11
 71
     3
 72
    59
 73
    55
 74
     0
 42
0.000000001
 43
0.001
 12
1.0
 22
0.0
 32
0.0
 13
1.0
 23
0.0
 33
0.0
 40
0.0
 40
0.0
 40
0.0
 40
0.0
 40
1.0
 40
2.0
 40
3.0
 40
4.0
 40
5.0
 40
6.0
 40
7.0
 40
8.0
 40
9.0
 40
10.0
 40
11.0
 40
12.0
 40
13.0
 40
14.0
 40
15.0
 40
16.0
 40
17.0
 40
18.0
 40
19.0
 40
20.0
 40
21.0
 40
22.0
 40
23.0
 40
24.0
 40
25.0
 40
26.0
 40
27.0
 40
28.0
 40
29.0
 40
30.0
 40
31.0
 40
32.0
 40
33.0
 40
34.0
 40
35.0
 40
36.0
 40
37.0
 40
38.0
 40
39.0
 40
40.0
 40
41.0
 40
42.0
 40
43.0
 40
44.0
 40
45.0
 40
46.0
 40
47.0
 40
48.0
 40
49.0
 40
50.0
 40
51.0
 40
52.0
 40
52.0
 40
52.0
 40
52.0
 10
7395.548071231498
 20
5542.030083262057
 30
0.0
 10
7395.548071231498
 20
5542.030083262057
 30
0.0
 10
7395.548071231498
 20
5377.057542116336
 30
0.0
 10
7395.548071231498
 20
5377.057542116336
 30
0.0
 10
7395.548071231498
 20
5377.057542116336
 30
0.0
 10
7349.622889320687
 20
5377.057542116336
 30
0.0
 10
7349.622889320687
 20
5377.057542116336
 30
0.0
 10
7349.622889320687
 20
5377.057542116336
 30
0.0
 10
7350.405070034531
 20
5390.763813903326
 30
0.0
 10
7350.405070034531
 20
5390.763813903326
 30
0.0
 10
7347.27634717926
 20
5385.200497236951
 30
0.0
 10
7343.421313661236
 20
5381.025419738733
 30
0.0
 10
7338.839969480329
 20
5378.248941402435
 30
0.0
 10
7334.25862529944
 20
5375.462103072359
 30
0.0
 10
7328.988217156411
 20
5374.07386390421
 30
0.0
 10
7323.028745051171
 20
5374.07386390421
 30
0.0
 10
7316.249845531505
 20
5374.07386390421
 30
0.0
 10
7310.6255937322
 20
5375.399943109605
 30
0.0
 10
7306.155989653294
 20
5378.052101520378
 30
0.0
 10
7301.686385574388
 20
5380.704259931158
 30
0.0
 10
7298.390052566186
 20
5384.226657820488
 30
0.0
 10
7296.26699062871
 20
5388.619295188351
 30
0.0
 10
7294.143928691215
 20
5393.011932556221
 30
0.0
 10
7292.82167081788
 20
5397.591049812314
 30
0.0
 10
7292.300217008659
 20
5402.356646956679
 30
0.0
 10
7291.778763199468
 20
5407.122244101061
 30
0.0
 10
7291.518036294865
 20
5416.591278427072
 30
0.0
 10
7291.518036294865
 20
5430.763749934693
 30
0.0
 10
7291.518036294865
 20
5430.763749934693
 30
0.0
 10
7291.518036294865
 20
5542.030083262057
 30
0.0
 10
7291.518036294865
 20
5542.030083262057
 30
0.0
 10
7291.518036294865
 20
5542.030083262057
 30
0.0
 10
7336.661037491875
 20
5542.030083262057
 30
0.0
 10
7336.661037491875
 20
5542.030083262057
 30
0.0
 10
7336.661037491875
 20
5542.030083262057
 30
0.0
 10
7336.661037491875
 20
5429.769190530634
 30
0.0
 10
7336.661037491875
 20
5429.769190530634
 30
0.0
 10
7336.661037491875
 20
5416.922798228407
 30
0.0
 10
7337.014881148109
 20
5409.297842797427
 30
0.0
 10
7337.722568460615
 20
5406.894324237648
 30
0.0
 10
7338.430255773105
 20
5404.49080567787
 30
0.0
 10
7340.348460856957
 20
5403.289046398
 30
0.0
 10
7343.477183712194
 20
5403.289046398
 30
0.0
 10
7346.829386771364
 20
5403.289046398
 30
0.0
 10
7348.822085256566
 20
5404.532245653037
 30
0.0
 10
7349.455279167747
 20
5407.018644163166
 30
0.0
 10
7350.088473078937
 20
5409.50504267327
 30
0.0
 10
7350.405070034531
 20
5417.50295788077
 30
0.0
 10
7350.405070034531
 20
5431.012389785696
 30
0.0
 10
7350.405070034531
 20
5431.012389785696
 30
0.0
 10
7350.405070034531
 20
5542.030083262057
 30
0.0
 10
7350.405070034531
 20
5542.030083262057
 30
0.0
 10
7350.405070034531
 20
5542.030083262057
 30
0.0
 10
7395.548071231498
 20
5542.030083262057
 30
0.0
 10
7395.548071231498
 20
5542.030083262057
 30
0.0
  0
SPLINE
  5
3F
330
AC
100
AcDbEntity
  8
Layer 1
 62
     7
420
 16777215
370
     9
100
AcDbSpline
210
0.0
220
0.0
230
1.0
 70
    11
 71
     3
 72
   113
 73
   109
 74
     0
 42
0.000000001
 43
0.001
 12
1.0
 22
0.0
 32
0.0
 13
1.0
 23
0.0
 33
0.0
 40
0.0
 40
0.0
 40
0.0
 40
0.0
 40
1.0
 40
2.0
 40
3.0
 40
4.0
 40
5.0
 40
6.0
 40
7.0
 40
8.0
 40
9.0
 40
10.0
 40
11.0
 40
12.0
 40
13.0
 40
14.0
 40
15.0
 40
16.0
 40
17.0
 40
18.0
 40
19.0
 40
20.0
 40
21.0
 40
22.0
 40
23.0
 40
24.0
 40
25.0
 40
26.0
 40
27.0
 40
28.0
 40
29.0
 40
30.0
 40
31.0
 40
32.0
 40
33.0
 40
34.0
 40
35.0
 40
36.0
 40
37.0
 40
38.0
 40
39.0
 40
40.0
 40
41.0
 40
42.0
 40
43.0
 40
44.0
 40
45.0
 40
46.0
 40
47.0
 40
48.0
 40
49.0
 40
50.0
 40
51.0
 40
52.0
 40
53.0
 40
54.0
 40
55.0
 40
56.0
 40
57.0
 40
58.0
 40
59.0
 40
60.0
 40
61.0
 40
62.0
 40
63.0
 40
64.0
 40
65.0
 40
66.0
 40
67.0
 40
68.0
 40
69.0
 40
70.0
 40
71.0
 40
72.0
 40
73.0
 40
74.0
 40
75.0
 40
76.0
 40
77.0
 40
78.0
 40
79.0
 40
80.0
 40
81.0
 40
82.0
 40
83.0
 40
84.0
 40
85.0
 40
86.0
 40
87.0
 40
88.0
 40
89.0
 40
90.0
 40
91.0
 40
92.0
 40
93.0
 40
94.0
 40
95.0
 40
96.0
 40
97.0
 40
98.0
 40
99.0
 40
100.0
 40
101.0
 40
102.0
 40
103.0
 40
104.0
 40
105.0
 40
106.0
 40
106.0
 40
106.0
 40
106.0
 10
7515.380018922118
 20
5489.318434847749
 30
0.0
 10
7515.380018922118
 20
5489.318434847749
 30
0.0
 10
7475.377062415891
 20
5489.318434847749
 30
0.0
 10
7475.377062415891
 20
5489.318434847749
 30
0.0
 10
7475.377062415891
 20
5489.318434847749
 30
0.0
 10
7475.377062415891
 20
5498.269469484143
 30
0.0
 10
7475.377062415891
 20
5498.269469484143
 30
0.0
 10
7475.377062415891
 20
5505.894424915141
 30
0.0
 10
7474.985972058954
 20
5510.722182022269
 30
0.0
 10
7474.203791345177
 20
5512.752740805503
 30
0.0
 10
7473.421610631352
 20
5514.78329958877
 30
0.0
 10
7471.466158846828
 20
5515.798578980401
 30
0.0
 10
7468.337435991607
 20
5515.798578980401
 30
0.0
 10
7465.804660346886
 20
5515.798578980401
 30
0.0
 10
7463.905078613338
 20
5514.866179539122
 30
0.0
 10
7462.638690790969
 20
5513.001380656523
 30
0.0
 10
7461.372302968635
 20
5511.136581773963
 30
0.0
 10
7460.739109057445
 20
5508.339383450078
 30
0.0
 10
7460.739109057445
 20
5504.609785684913
 30
0.0
 10
7460.739109057445
 20
5499.554108714361
 30
0.0
 10
7461.055706013031
 20
5495.845230936785
 30
0.0
 10
7461.688899924227
 20
5493.483152352181
 30
0.0
 10
7462.322093835398
 20
5491.121073767576
 30
0.0
 10
7464.221675568918
 20
5488.53107531955
 30
0.0
 10
7467.387645124824
 20
5485.713157008093
 30
0.0
 10
7470.553614680701
 20
5482.895238696628
 30
0.0
 10
7477.053163945459
 20
5478.792681154952
 30
0.0
 10
7486.886292919069
 20
5473.405484383048
 30
0.0
 10
7499.997131550535
 20
5466.277808654077
 30
0.0
 10
7508.601119402436
 20
5459.564532676795
 30
0.0
 10
7512.698256474774
 20
5453.265656451184
 30
0.0
 10
7516.795393547115
 20
5446.966780225571
 30
0.0
 10
7518.843962083292
 20
5437.808545713337
 30
0.0
 10
7518.843962083292
 20
5425.790952914475
 30
0.0
 10
7518.843962083292
 20
5412.364400959886
 30
0.0
 10
7517.279600655683
 20
5402.232327031186
 30
0.0
 10
7514.150877800421
 20
5395.394731128387
 30
0.0
 10
7511.022154945176
 20
5388.557135225596
 30
0.0
 10
7505.788993502795
 20
5383.294258379193
 30
0.0
 10
7498.451393473267
 20
5379.606100589211
 30
0.0
 10
7491.113793443707
 20
5375.917942799197
 30
0.0
 10
7482.267702037522
 20
5374.07386390421
 30
0.0
 10
7471.913119254707
 20
5374.07386390421
 30
0.0
 10
7460.441135452187
 20
5374.07386390421
 30
0.0
 10
7450.626629828917
 20
5376.062982712301
 30
0.0
 10
7442.469602384908
 20
5380.041220328462
 30
0.0
 10
7434.312574940867
 20
5384.019457944645
 30
0.0
 10
7428.706946491933
 20
5389.406654716549
 30
0.0
 10
7425.65271703799
 20
5396.202810644198
 30
0.0
 10
7422.59848758408
 20
5402.998966571813
 30
0.0
 10
7421.071372857099
 20
5413.276080413602
 30
0.0
 10
7421.071372857099
 20
5427.034152169519
 30
0.0
 10
7421.071372857099
 20
5427.034152169519
 30
0.0
 10
7421.071372857099
 20
5434.990627401879
 30
0.0
 10
7421.071372857099
 20
5434.990627401879
 30
0.0
 10
7421.071372857099
 20
5434.990627401879
 30
0.0
 10
7461.074329363373
 20
5434.990627401879
 30
0.0
 10
7461.074329363373
 20
5434.990627401879
 30
0.0
 10
7461.074329363373
 20
5434.990627401879
 30
0.0
 10
7461.074329363373
 20
5424.547753659431
 30
0.0
 10
7461.074329363373
 20
5424.547753659431
 30
0.0
 10
7461.074329363373
 20
5415.679598973363
 30
0.0
 10
7461.577159822247
 20
5409.919442424931
 30
0.0
 10
7462.582820739986
 20
5407.267284014159
 30
0.0
 10
7463.58848165776
 20
5404.615125603377
 30
0.0
 10
7465.581180142938
 20
5403.289046398
 30
0.0
 10
7468.56091619554
 20
5403.289046398
 30
0.0
 10
7471.764132452078
 20
5403.289046398
 30
0.0
 10
7473.998934491567
 20
5404.180005864105
 30
0.0
 10
7475.26532231391
 20
5405.96192479636
 30
0.0
 10
7476.531710136254
 20
5407.743843728594
 30
0.0
 10
7477.164904047443
 20
5411.494161481347
 30
0.0
 10
7477.164904047443
 20
5417.212878054586
 30
0.0
 10
7477.164904047443
 20
5425.086473336621
 30
0.0
 10
7476.345476632961
 20
5430.017830381669
 30
0.0
 10
7474.706621804031
 20
5432.006949189745
 30
0.0
 10
7472.993273573792
 20
5433.996067997819
 30
0.0
 10
7464.240298919269
 20
5439.880544471754
 30
0.0
 10
7448.447697840425
 20
5449.660378611521
 30
0.0
 10
7435.18787240634
 20
5457.9483736452
 30
0.0
 10
7427.105338363635
 20
5465.469729138283
 30
0.0
 10
7424.200095712339
 20
5472.224445090749
 30
0.0
 10
7421.294853061066
 20
5478.979161043216
 30
0.0
 10
7419.842231735427
 20
5486.997796238314
 30
0.0
 10
7419.842231735427
 20
5496.280350676067
 30
0.0
 10
7419.842231735427
 20
5509.458262779637
 30
0.0
 10
7421.40659316303
 20
5519.175936956649
 30
0.0
 10
7424.535316018268
 20
5525.433373207093
 30
0.0
 10
7427.66403887349
 20
5531.690809457514
 30
0.0
 10
7432.971693717213
 20
5536.51856656465
 30
0.0
 10
7440.458280549376
 20
5539.91664452848
 30
0.0
 10
7447.944867381559
 20
5543.314722492283
 30
0.0
 10
7456.641971985089
 20
5545.01376147418
 30
0.0
 10
7466.549594360024
 20
5545.01376147418
 30
0.0
 10
7476.382723333631
 20
5545.01376147418
 30
0.0
 10
7484.744607631252
 20
5543.625522306034
 30
0.0
 10
7491.635247252913
 20
5540.849043969766
 30
0.0
 10
7498.525886874547
 20
5538.072565633468
 30
0.0
 10
7503.814918367932
 20
5534.405127831058
 30
0.0
 10
7507.502341733033
 20
5529.846730562526
 30
0.0
 10
7511.189765098149
 20
5525.288333293998
 30
0.0
 10
7513.424567137593
 20
5521.061455826803
 30
0.0
 10
7514.206747851403
 20
5517.166098160951
 30
0.0
 10
7514.988928565229
 20
5513.270740495137
 30
0.0
 10
7515.380018922118
 20
5507.179064145352
 30
0.0
 10
7515.380018922118
 20
5498.89106911168
 30
0.0
 10
7515.380018922118
 20
5498.89106911168
 30
0.0
 10
7515.380018922118
 20
5489.318434847749
 30
0.0
 10
7515.380018922118
 20
5489.318434847749
 30
0.0
  0
ENDBLK
  5
AE
330
AC
100
AcDbEntity
  8
0
100
AcDbBlockEnd
  0
ENDSEC
  0
SECTION
  2
ENTITIES
  0
INSERT
  5
1B
330
5F
100
AcDbEntity
  8
Layer 1
100
AcDbBlockReference
  2
block 42
 10
-7594.745273903612
 20
-5480.240512701384
 30
0.0
  0
INSERT
  5
40
330
5F
100
AcDbEntity
  8
Layer 1
100
AcDbBlockReference
  2
block 43
 10
-7594.745273903612
 20
-5480.240512701384
 30
0.0
  0
ENDSEC
  0
SECTION
  2
OBJECTS
  0
DICTIONARY
  5
4D
330
0
100
AcDbDictionary
281
     1
  3
ACAD_GROUP
350
4E
  3
ACAD_LAYOUT
350
5A
  3
ACAD_MATERIAL
350
7B
  3
ACAD_MLEADERSTYLE
350
B0
  3
ACAD_MLINESTYLE
350
57
  3
ACAD_PLOTSETTINGS
350
59
  3
ACAD_PLOTSTYLENAME
350
4F
  3
ACAD_TABLESTYLE
350
AF
  3
ACAD_VISUALSTYLE
350
6A
  3
QCAD_OBJECTS
350
80
  0
DICTIONARY
  5
4E
102
{ACAD_REACTORS
330
4D
102
}
330
4D
100
AcDbDictionary
281
     1
  0
DICTIONARY
  5
5A
102
{ACAD_REACTORS
330
4D
102
}
330
4D
100
AcDbDictionary
281
     1
  3
Layout1
350
5E
  3
Layout2
350
66
  3
Model
350
62
  0
DICTIONARY
  5
7B
102
{ACAD_REACTORS
330
4D
102
}
330
4D
100
AcDbDictionary
281
     1
  3
ByBlock
350
7D
  3
ByLayer
350
7C
  3
Global
350
7E
  0
DICTIONARY
  5
B0
102
{ACAD_REACTORS
330
4D
102
}
330
4D
100
AcDbDictionary
281
     1
  0
DICTIONARY
  5
57
102
{ACAD_REACTORS
330
4D
102
}
330
4D
100
AcDbDictionary
281
     1
  3
Standard
350
58
  0
DICTIONARY
  5
59
102
{ACAD_REACTORS
330
4D
102
}
330
4D
100
AcDbDictionary
281
     1
  0
ACDBDICTIONARYWDFLT
  5
4F
102
{ACAD_REACTORS
330
4D
102
}
330
4D
100
AcDbDictionary
281
     1
  3
Normal
350
50
100
AcDbDictionaryWithDefault
340
50
  0
DICTIONARY
  5
AF
102
{ACAD_REACTORS
330
4D
102
}
330
4D
100
AcDbDictionary
281
     1
  0
DICTIONARY
  5
6A
102
{ACAD_REACTORS
330
4D
102
}
330
4D
100
AcDbDictionary
281
     1
  3
2dWireframe
350
6F
  3
3D Hidden
350
71
  3
3dWireframe
350
70
  3
Basic
350
72
  3
Brighten
350
76
  3
ColorChange
350
7A
  3
Conceptual
350
74
  3
Dim
350
75
  3
Facepattern
350
79
  3
Flat
350
6B
  3
FlatWithEdges
350
6C
  3
Gouraud
350
6D
  3
GouraudWithEdges
350
6E
  3
Linepattern
350
78
  3
Realistic
350
73
  3
Thicken
350
77
  0
DICTIONARY
  5
80
102
{ACAD_REACTORS
330
4D
102
}
330
4D
100
AcDbDictionary
281
     1
  3
Grid/DisplayGrid
350
90
  3
Grid/GridSpacingX
350
89
  3
Grid/GridSpacingY
350
8A
  3
Grid/MetaGridSpacingX
350
84
  3
Grid/MetaGridSpacingY
350
87
  3
MultiPageSettings/Columns
350
88
  3
MultiPageSettings/GlueMarginsBottom
350
8D
  3
MultiPageSettings/GlueMarginsLeft
350
8B
  3
MultiPageSettings/GlueMarginsRight
350
81
  3
MultiPageSettings/GlueMarginsTop
350
94
  3
MultiPageSettings/PrintCropMarks
350
83
  3
MultiPageSettings/Rows
350
8C
  3
PageSettings/OffsetX
350
92
  3
PageSettings/OffsetY
350
93
  3
PageSettings/PageOrientation
350
82
  3
PageSettings/PaperHeight
350
85
  3
PageSettings/PaperWidth
350
8E
  3
PageSettings/Scale
350
86
  3
PageSettings/ShowPaperBorders
350
91
  3
UnitSettings/PaperUnit
350
8F
  0
LAYOUT
  5
5E
102
{ACAD_REACTORS
330
5A
102
}
330
5A
100
AcDbPlotSettings
  1

  2
none_device
  4

  6

 40
0.0
 41
0.0
 42
0.0
 43
0.0
 44
0.0
 45
0.0
 46
0.0
 47
0.0
 48
0.0
 49
0.0
140
0.0
141
0.0
142
1.0
143
1.0
 70
   688
 72
     0
 73
     0
 74
     5
  7

 75
    16
 76
     0
 77
     2
 78
   300
147
1.0
148
0.0
149
0.0
100
AcDbLayout
  1
Layout1
 70
     1
 71
     1
 10
0.0
 20
0.0
 11
12.0
 21
9.0
 12
0.0
 22
0.0
 32
0.0
 14
1.000000000000000E+20
 24
1.000000000000000E+20
 34
1.000000000000000E+20
 15
-1.000000000000000E+20
 25
-1.000000000000000E+20
 35
-1.000000000000000E+20
146
0.0
 13
0.0
 23
0.0
 33
0.0
 16
1.0
 26
0.0
 36
0.0
 17
0.0
 27
1.0
 37
0.0
 76
     0
330
5B
  0
LAYOUT
  5
66
102
{ACAD_REACTORS
330
5A
102
}
330
5A
100
AcDbPlotSettings
  1

  2
none_device
  4

  6

 40
0.0
 41
0.0
 42
0.0
 43
0.0
 44
0.0
 45
0.0
 46
0.0
 47
0.0
 48
0.0
 49
0.0
140
0.0
141
0.0
142
1.0
143
1.0
 70
   688
 72
     0
 73
     0
 74
     5
  7

 75
    16
 76
     0
 77
     2
 78
   300
147
1.0
148
0.0
149
0.0
100
AcDbLayout
  1
Layout2
 70
     1
 71
     2
 10
0.0
 20
0.0
 11
0.0
 21
0.0
 12
0.0
 22
0.0
 32
0.0
 14
0.0
 24
0.0
 34
0.0
 15
0.0
 25
0.0
 35
0.0
146
0.0
 13
0.0
 23
0.0
 33
0.0
 16
1.0
 26
0.0
 36
0.0
 17
0.0
 27
1.0
 37
0.0
 76
     0
330
63
  0
LAYOUT
  5
62
102
{ACAD_REACTORS
330
5A
102
}
330
5A
100
AcDbPlotSettings
  1

  2
none_device
  4

  6

 40
0.0
 41
0.0
 42
0.0
 43
0.0
 44
0.0
 45
0.0
 46
0.0
 47
0.0
 48
0.0
 49
0.0
140
0.0
141
0.0
142
1.0
143
1.0
 70
  1712
 72
     0
 73
     0
 74
     0
  7

 75
     0
 76
     0
 77
     2
 78
   300
147
1.0
148
0.0
149
0.0
100
AcDbLayout
  1
Model
 70
     1
 71
     0
 10
0.0
 20
0.0
 11
12.0
 21
9.0
 12
0.0
 22
0.0
 32
0.0
 14
1.000000000000000E+20
 24
1.000000000000000E+20
 34
1.000000000000000E+20
 15
-1.000000000000000E+20
 25
-1.000000000000000E+20
 35
-1.000000000000000E+20
146
0.0
 13
0.0
 23
0.0
 33
0.0
 16
1.0
 26
0.0
 36
0.0
 17
0.0
 27
1.0
 37
0.0
 76
     0
330
5F
331
69
  0
MATERIAL
  5
7D
102
{ACAD_REACTORS
330
7B
102
}
330
7B
100
AcDbMaterial
  1
ByBlock
 72
     1
 94
      127
  0
MATERIAL
  5
7C
102
{ACAD_REACTORS
330
7B
102
}
330
7B
100
AcDbMaterial
  1
ByLayer
 72
     1
 94
      127
  0
MATERIAL
  5
7E
102
{ACAD_REACTORS
330
7B
102
}
330
7B
100
AcDbMaterial
  1
Global
 72
     1
 94
      127
  0
MLINESTYLE
  5
58
102
{ACAD_REACTORS
330
57
102
}
330
57
100
AcDbMlineStyle
  2
Standard
 70
     0
  3

 62
   256
 51
90.0
 52
90.0
 71
     2
 49
0.5
 62
   256
  6
BYLAYER
 49
-0.5
 62
   256
  6
BYLAYER
  0
ACDBPLACEHOLDER
  5
50
102
{ACAD_REACTORS
330
4F
102
}
330
4F
  0
VISUALSTYLE
  5
6F
102
{ACAD_REACTORS
330
6A
102
}
330
6A
100
AcDbVisualStyle
  2
2dWireframe
 70
     4
177
     2
291
     0
 71
     0
176
     1
 72
     2
176
     1
 73
     0
176
     1
 90
        0
176
     1
 40
-0.6
176
     1
 41
-30.0
176
     1
 62
     5
 63
     7
421
 16777215
176
     1
 74
     1
176
     1
 91
        4
176
     1
 64
     7
176
     1
 65
   257
176
     1
 75
     1
176
     1
175
     1
176
     1
 42
1.0
176
     1
 92
        0
176
     1
 66
   257
176
     1
 43
1.0
176
     1
 76
     1
176
     1
 77
     6
176
     1
 78
     2
176
     1
 67
     7
176
     1
 79
     5
176
     1
170
     0
176
     1
171
     0
176
     1
290
     0
176
     1
 93
        1
176
     1
 44
0.0
176
     1
173
     0
176
     1
  0
VISUALSTYLE
  5
71
102
{ACAD_REACTORS
330
6A
102
}
330
6A
100
AcDbVisualStyle
  2
3D Hidden
 70
     6
177
     2
291
     0
 71
     1
176
     1
 72
     2
176
     1
 73
     2
176
     1
 90
        0
176
     1
 40
-0.6
176
     1
 41
-30.0
176
     1
 62
     5
 63
     7
421
 16777215
176
     1
 74
     2
176
     1
 91
        2
176
     1
 64
     7
176
     1
 65
   257
176
     1
 75
     2
176
     1
175
     1
176
     1
 42
40.0
176
     1
 92
        0
176
     1
 66
   257
176
     1
 43
1.0
176
     1
 76
     1
176
     1
 77
     6
176
     1
 78
     2
176
     1
 67
     7
176
     1
 79
     3
176
     1
170
     0
176
     1
171
     0
176
     1
290
     0
176
     1
 93
        1
176
     1
 44
0.0
176
     1
173
     0
176
     1
  0
VISUALSTYLE
  5
70
102
{ACAD_REACTORS
330
6A
102
}
330
6A
100
AcDbVisualStyle
  2
3dWireframe
 70
     5
177
     2
291
     0
 71
     0
176
     1
 72
     2
176
     1
 73
     0
176
     1
 90
        0
176
     1
 40
-0.6
176
     1
 41
-30.0
176
     1
 62
     5
 63
     7
421
 16777215
176
     1
 74
     1
176
     1
 91
        4
176
     1
 64
     7
176
     1
 65
   257
176
     1
 75
     1
176
     1
175
     1
176
     1
 42
1.0
176
     1
 92
        0
176
     1
 66
   257
176
     1
 43
1.0
176
     1
 76
     1
176
     1
 77
     6
176
     1
 78
     2
176
     1
 67
     7
176
     1
 79
     5
176
     1
170
     0
176
     1
171
     0
176
     1
290
     0
176
     1
 93
        1
176
     1
 44
0.0
176
     1
173
     0
176
     1
  0
VISUALSTYLE
  5
72
102
{ACAD_REACTORS
330
6A
102
}
330
6A
100
AcDbVisualStyle
  2
Basic
 70
     7
177
     2
291
     1
 71
     1
176
     1
 72
     0
176
     1
 73
     1
176
     1
 90
        0
176
     1
 40
-0.6
176
     1
 41
-30.0
176
     1
 62
     5
 63
     7
421
 16777215
176
     1
 74
     0
176
     1
 91
        4
176
     1
 64
     7
176
     1
 65
   257
176
     1
 75
     1
176
     1
175
     1
176
     1
 42
1.0
176
     1
 92
        8
176
     1
 66
     7
176
     1
 43
1.0
176
     1
 76
     1
176
     1
 77
     6
176
     1
 78
     2
176
     1
 67
     7
176
     1
 79
     5
176
     1
170
     0
176
     1
171
     0
176
     1
290
     0
176
     1
 93
        1
176
     1
 44
0.0
176
     1
173
     0
176
     1
  0
VISUALSTYLE
  5
76
102
{ACAD_REACTORS
330
6A
102
}
330
6A
100
AcDbVisualStyle
  2
Brighten
 70
    12
177
     2
291
     1
 71
     2
176
     1
 72
     2
176
     1
 73
     0
176
     1
 90
        0
176
     1
 40
-0.6
176
     1
 41
-30.0
176
     1
 62
     5
 63
     7
421
 16777215
176
     1
 74
     1
176
     1
 91
        4
176
     1
 64
     7
176
     1
 65
   257
176
     1
 75
     1
176
     1
175
     1
176
     1
 42
1.0
176
     1
 92
        8
176
     1
 66
     7
176
     1
 43
1.0
176
     1
 76
     1
176
     1
 77
     6
176
     1
 78
     2
176
     1
 67
     7
176
     1
 79
     5
176
     1
170
     0
176
     1
171
     0
176
     1
290
     0
176
     1
 93
        1
176
     1
 44
50.0
176
     1
173
     0
176
     1
  0
VISUALSTYLE
  5
7A
102
{ACAD_REACTORS
330
6A
102
}
330
6A
100
AcDbVisualStyle
  2
ColorChange
 70
    16
177
     2
291
     1
 71
     2
176
     1
 72
     2
176
     1
 73
     3
176
     1
 90
        0
176
     1
 40
-0.6
176
     1
 41
-30.0
176
     1
 62
     5
 63
     8
421
  8421504
176
     1
 74
     1
176
     1
 91
        4
176
     1
 64
     7
176
     1
 65
   257
176
     1
 75
     1
176
     1
175
     1
176
     1
 42
1.0
176
     1
 92
        8
176
     1
 66
     8
424
  8421504
176
     1
 43
1.0
176
     1
 76
     1
176
     1
 77
     6
176
     1
 78
     2
176
     1
 67
     7
176
     1
 79
     5
176
     1
170
     0
176
     1
171
     0
176
     1
290
     0
176
     1
 93
        1
176
     1
 44
0.0
176
     1
173
     0
176
     1
  0
VISUALSTYLE
  5
74
102
{ACAD_REACTORS
330
6A
102
}
330
6A
100
AcDbVisualStyle
  2
Conceptual
 70
     9
177
     2
291
     0
 71
     3
176
     1
 72
     2
176
     1
 73
     0
176
     1
 90
        0
176
     1
 40
-0.6
176
     1
 41
-30.0
176
     1
 62
     5
 63
     7
421
 16777215
176
     1
 74
     2
176
     1
 91
        2
176
     1
 64
     7
176
     1
 65
   257
176
     1
 75
     1
176
     1
175
     1
176
     1
 42
40.0
176
     1
 92
        8
176
     1
 66
     7
176
     1
 43
1.0
176
     1
 76
     1
176
     1
 77
     6
176
     1
 78
     2
176
     1
 67
     7
176
     1
 79
     3
176
     1
170
     0
176
     1
171
     0
176
     1
290
     0
176
     1
 93
        1
176
     1
 44
0.0
176
     1
173
     0
176
     1
  0
VISUALSTYLE
  5
75
102
{ACAD_REACTORS
330
6A
102
}
330
6A
100
AcDbVisualStyle
  2
Dim
 70
    11
177
     2
291
     1
 71
     2
176
     1
 72
     2
176
     1
 73
     0
176
     1
 90
        0
176
     1
 40
-0.6
176
     1
 41
-30.0
176
     1
 62
     5
 63
     7
421
 16777215
176
     1
 74
     1
176
     1
 91
        4
176
     1
 64
     7
176
     1
 65
   257
176
     1
 75
     1
176
     1
175
     1
176
     1
 42
1.0
176
     1
 92
        8
176
     1
 66
     7
176
     1
 43
1.0
176
     1
 76
     1
176
     1
 77
     6
176
     1
 78
     2
176
     1
 67
     7
176
     1
 79
     5
176
     1
170
     0
176
     1
171
     0
176
     1
290
     0
176
     1
 93
        1
176
     1
 44
-50.0
176
     1
173
     0
176
     1
  0
VISUALSTYLE
  5
79
102
{ACAD_REACTORS
330
6A
102
}
330
6A
100
AcDbVisualStyle
  2
Facepattern
 70
    15
177
     2
291
     1
 71
     2
176
     1
 72
     2
176
     1
 73
     0
176
     1
 90
        0
176
     1
 40
-0.6
176
     1
 41
-30.0
176
     1
 62
     5
 63
     7
421
 16777215
176
     1
 74
     1
176
     1
 91
        4
176
     1
 64
     7
176
     1
 65
   257
176
     1
 75
     1
176
     1
175
     1
176
     1
 42
1.0
176
     1
 92
        8
176
     1
 66
     7
176
     1
 43
1.0
176
     1
 76
     1
176
     1
 77
     6
176
     1
 78
     2
176
     1
 67
     7
176
     1
 79
     5
176
     1
170
     0
176
     1
171
     0
176
     1
290
     0
176
     1
 93
        1
176
     1
 44
0.0
176
     1
173
     0
176
     1
  0
VISUALSTYLE
  5
6B
102
{ACAD_REACTORS
330
6A
102
}
330
6A
100
AcDbVisualStyle
  2
Flat
 70
     0
177
     2
291
     1
 71
     2
176
     1
 72
     1
176
     1
 73
     1
176
     1
 90
        2
176
     1
 40
-0.6
176
     1
 41
30.0
176
     1
 62
     5
 63
     7
421
 16777215
176
     1
 74
     0
176
     1
 91
        4
176
     1
 64
     7
176
     1
 65
   257
176
     1
 75
     1
176
     1
175
     1
176
     1
 42
1.0
176
     1
 92
        8
176
     1
 66
     7
176
     1
 43
1.0
176
     1
 76
     1
176
     1
 77
     6
176
     1
 78
     2
176
     1
 67
     7
176
     1
 79
     5
176
     1
170
     0
176
     1
171
     0
176
     1
290
     0
176
     1
 93
       13
176
     1
 44
0.0
176
     1
173
     0
176
     1
  0
VISUALSTYLE
  5
6C
102
{ACAD_REACTORS
330
6A
102
}
330
6A
100
AcDbVisualStyle
  2
FlatWithEdges
 70
     1
177
     2
291
     1
 71
     2
176
     1
 72
     1
176
     1
 73
     1
176
     1
 90
        2
176
     1
 40
-0.6
176
     1
 41
30.0
176
     1
 62
     5
 63
     7
421
 16777215
176
     1
 74
     1
176
     1
 91
        4
176
     1
 64
     7
176
     1
 65
   257
176
     1
 75
     1
176
     1
175
     1
176
     1
 42
1.0
176
     1
 92
        0
176
     1
 66
   257
176
     1
 43
1.0
176
     1
 76
     1
176
     1
 77
     6
176
     1
 78
     2
176
     1
 67
     7
176
     1
 79
     5
176
     1
170
     0
176
     1
171
     0
176
     1
290
     0
176
     1
 93
       13
176
     1
 44
0.0
176
     1
173
     0
176
     1
  0
VISUALSTYLE
  5
6D
102
{ACAD_REACTORS
330
6A
102
}
330
6A
100
AcDbVisualStyle
  2
Gouraud
 70
     2
177
     2
291
     1
 71
     2
176
     1
 72
     2
176
     1
 73
     1
176
     1
 90
        2
176
     1
 40
-0.6
176
     1
 41
30.0
176
     1
 62
     5
 63
     7
421
 16777215
176
     1
 74
     0
176
     1
 91
        4
176
     1
 64
     7
176
     1
 65
   257
176
     1
 75
     1
176
     1
175
     1
176
     1
 42
1.0
176
     1
 92
        0
176
     1
 66
     7
176
     1
 43
1.0
176
     1
 76
     1
176
     1
 77
     6
176
     1
 78
     2
176
     1
 67
     7
176
     1
 79
     5
176
     1
170
     0
176
     1
171
     0
176
     1
290
     0
176
     1
 93
       13
176
     1
 44
0.0
176
     1
173
     0
176
     1
  0
VISUALSTYLE
  5
6E
102
{ACAD_REACTORS
330
6A
102
}
330
6A
100
AcDbVisualStyle
  2
GouraudWithEdges
 70
     3
177
     2
291
     1
 71
     2
176
     1
 72
     2
176
     1
 73
     1
176
     1
 90
        2
176
     1
 40
-0.6
176
     1
 41
30.0
176
     1
 62
     5
 63
     7
421
 16777215
176
     1
 74
     1
176
     1
 91
        4
176
     1
 64
     7
176
     1
 65
   257
176
     1
 75
     1
176
     1
175
     1
176
     1
 42
1.0
176
     1
 92
        0
176
     1
 66
   257
176
     1
 43
1.0
176
     1
 76
     1
176
     1
 77
     6
176
     1
 78
     2
176
     1
 67
     7
176
     1
 79
     5
176
     1
170
     0
176
     1
171
     0
176
     1
290
     0
176
     1
 93
       13
176
     1
 44
0.0
176
     1
173
     0
176
     1
  0
VISUALSTYLE
  5
78
102
{ACAD_REACTORS
330
6A
102
}
330
6A
100
AcDbVisualStyle
  2
Linepattern
 70
    14
177
     2
291
     1
 71
     2
176
     1
 72
     2
176
     1
 73
     0
176
     1
 90
        0
176
     1
 40
-0.6
176
     1
 41
-30.0
176
     1
 62
     5
 63
     7
421
 16777215
176
     1
 74
     1
176
     1
 91
        4
176
     1
 64
     7
176
     1
 65
   257
176
     1
 75
     7
176
     1
175
     7
176
     1
 42
1.0
176
     1
 92
        8
176
     1
 66
     7
176
     1
 43
1.0
176
     1
 76
     1
176
     1
 77
     6
176
     1
 78
     2
176
     1
 67
     7
176
     1
 79
     5
176
     1
170
     0
176
     1
171
     0
176
     1
290
     0
176
     1
 93
        1
176
     1
 44
0.0
176
     1
173
     0
176
     1
  0
VISUALSTYLE
  5
73
102
{ACAD_REACTORS
330
6A
102
}
330
6A
100
AcDbVisualStyle
  2
Realistic
 70
     8
177
     2
291
     0
 71
     2
176
     1
 72
     2
176
     1
 73
     0
176
     1
 90
        0
176
     1
 40
-0.6
176
     1
 41
-30.0
176
     1
 62
     5
 63
     7
421
 16777215
176
     1
 74
     1
176
     1
 91
        0
176
     1
 64
     7
176
     1
 65
   257
176
     1
 75
     1
176
     1
175
     1
176
     1
 42
1.0
176
     1
 92
        8
176
     1
 66
     8
424
  7895160
176
     1
 43
1.0
176
     1
 76
     1
176
     1
 77
     6
176
     1
 78
     2
176
     1
 67
     7
176
     1
 79
     5
176
     1
170
     0
176
     1
171
     0
176
     1
290
     0
176
     1
 93
       13
176
     1
 44
0.0
176
     1
173
     0
176
     1
  0
VISUALSTYLE
  5
77
102
{ACAD_REACTORS
330
6A
102
}
330
6A
100
AcDbVisualStyle
  2
Thicken
 70
    13
177
     2
291
     1
 71
     2
176
     1
 72
     2
176
     1
 73
     0
176
     1
 90
        0
176
     1
 40
-0.6
176
     1
 41
-30.0
176
     1
 62
     5
 63
     7
421
 16777215
176
     1
 74
     1
176
     1
 91
        4
176
     1
 64
     7
176
     1
 65
   257
176
     1
 75
     1
176
     1
175
     1
176
     1
 42
1.0
176
     1
 92
       12
176
     1
 66
     7
176
     1
 43
1.0
176
     1
 76
     1
176
     1
 77
     6
176
     1
 78
     2
176
     1
 67
     7
176
     1
 79
     5
176
     1
170
     0
176
     1
171
     0
176
     1
290
     0
176
     1
 93
        1
176
     1
 44
0.0
176
     1
173
     0
176
     1
  0
XRECORD
  5
90
102
{ACAD_REACTORS
330
80
102
}
330
80
100
AcDbXrecord
280
     1
290
     1
  0
XRECORD
  5
89
102
{ACAD_REACTORS
330
80
102
}
330
80
100
AcDbXrecord
280
     1
1000
auto
  0
XRECORD
  5
8A
102
{ACAD_REACTORS
330
80
102
}
330
80
100
AcDbXrecord
280
     1
1000
auto
  0
XRECORD
  5
84
102
{ACAD_REACTORS
330
80
102
}
330
80
100
AcDbXrecord
280
     1
1000
auto
  0
XRECORD
  5
87
102
{ACAD_REACTORS
330
80
102
}
330
80
100
AcDbXrecord
280
     1
1000
auto
  0
XRECORD
  5
88
102
{ACAD_REACTORS
330
80
102
}
330
80
100
AcDbXrecord
280
     1
 90
        1
  0
XRECORD
  5
8D
102
{ACAD_REACTORS
330
80
102
}
330
80
100
AcDbXrecord
280
     1
 40
10.0
  0
XRECORD
  5
8B
102
{ACAD_REACTORS
330
80
102
}
330
80
100
AcDbXrecord
280
     1
 40
10.0
  0
XRECORD
  5
81
102
{ACAD_REACTORS
330
80
102
}
330
80
100
AcDbXrecord
280
     1
 40
10.0
  0
XRECORD
  5
94
102
{ACAD_REACTORS
330
80
102
}
330
80
100
AcDbXrecord
280
     1
 40
10.0
  0
XRECORD
  5
83
102
{ACAD_REACTORS
330
80
102
}
330
80
100
AcDbXrecord
280
     1
290
     0
  0
XRECORD
  5
8C
102
{ACAD_REACTORS
330
80
102
}
330
80
100
AcDbXrecord
280
     1
 90
        1
  0
XRECORD
  5
92
102
{ACAD_REACTORS
330
80
102
}
330
80
100
AcDbXrecord
280
     1
 40
0.0
  0
XRECORD
  5
93
102
{ACAD_REACTORS
330
80
102
}
330
80
100
AcDbXrecord
280
     1
 40
0.0
  0
XRECORD
  5
82
102
{ACAD_REACTORS
330
80
102
}
330
80
100
AcDbXrecord
280
     1
1000
Portrait
  0
XRECORD
  5
85
102
{ACAD_REACTORS
330
80
102
}
330
80
100
AcDbXrecord
280
     1
 40
297.0
  0
XRECORD
  5
8E
102
{ACAD_REACTORS
330
80
102
}
330
80
100
AcDbXrecord
280
     1
 40
210.0
  0
XRECORD
  5
86
102
{ACAD_REACTORS
330
80
102
}
330
80
100
AcDbXrecord
280
     1
1000
1:1
  0
XRECORD
  5
91
102
{ACAD_REACTORS
330
80
102
}
330
80
100
AcDbXrecord
280
     1
290
     1
  0
XRECORD
  5
8F
102
{ACAD_REACTORS
330
80
102
}
330
80
100
AcDbXrecord
280
     1
 90
        4
  0
ENDSEC
  0
EOF
