  0
SECTION
  2
BLOCKS
  0
ENDSEC
  0
SECTION
  2
ENTITIES
  0
LINE
  8
0
 10
49.5388
 20
-145.065
 11
69.1352
 21
-142.556
  0
LINE
  8
0
 10
69.1352
 20
-142.556
 11
86.4538
 21
-140.407
  0
LINE
  8
0
 10
86.4538
 20
-140.407
 11
101.667
 21
-138.569
  0
LINE
  8
0
 10
101.667
 20
-138.569
 11
126.464
 21
-135.622
  0
LINE
  8
0
 10
126.464
 20
-135.622
 11
136.392
 21
-134.413
  0
LINE
  8
0
 10
136.392
 20
-134.413
 11
144.903
 21
-133.313
  0
LINE
  8
0
 10
144.903
 20
-133.313
 11
152.168
 21
-132.272
  0
LINE
  8
0
 10
152.168
 20
-132.272
 11
155.388
 21
-131.758
  0
LINE
  8
0
 10
155.388
 20
-131.758
 11
158.36
 21
-131.24
  0
LINE
  8
0
 10
158.36
 20
-131.24
 11
161.108
 21
-130.711
  0
LINE
  8
0
 10
161.108
 20
-130.711
 11
163.651
 21
-130.166
  0
LINE
  8
0
 10
163.651
 20
-130.166
 11
166.012
 21
-129.598
  0
LINE
  8
0
 10
166.012
 20
-129.598
 11
168.213
 21
-129
  0
LINE
  8
0
 10
168.213
 20
-129
 11
170.274
 21
-128.367
  0
LINE
  8
0
 10
170.274
 20
-128.367
 11
172.217
 21
-127.692
  0
LINE
  8
0
 10
172.217
 20
-127.692
 11
174.064
 21
-126.969
  0
LINE
  8
0
 10
174.064
 20
-126.969
 11
175.837
 21
-126.192
  0
LINE
  8
0
 10
175.837
 20
-126.192
 11
177.556
 21
-125.354
  0
LINE
  8
0
 10
177.556
 20
-125.354
 11
179.243
 21
-124.449
  0
LINE
  8
0
 10
179.243
 20
-124.449
 11
180.92
 21
-123.47
  0
LINE
  8
0
 10
180.92
 20
-123.47
 11
182.608
 21
-122.412
  0
LINE
  8
0
 10
182.608
 20
-122.412
 11
184.325
 21
-121.27
  0
LINE
  8
0
 10
184.325
 20
-121.27
 11
186.073
 21
-120.046
  0
LINE
  8
0
 10
186.073
 20
-120.046
 11
187.85
 21
-118.744
  0
LINE
  8
0
 10
187.85
 20
-118.744
 11
189.654
 21
-117.367
  0
LINE
  8
0
 10
189.654
 20
-117.367
 11
193.334
 21
-114.404
  0
LINE
  8
0
 10
193.334
 20
-114.404
 11
197.097
 21
-111.188
  0
LINE
  8
0
 10
197.097
 20
-111.188
 11
200.928
 21
-107.748
  0
LINE
  8
0
 10
200.928
 20
-107.748
 11
204.812
 21
-104.114
  0
LINE
  8
0
 10
204.812
 20
-104.114
 11
208.731
 21
-100.317
  0
LINE
  8
0
 10
208.731
 20
-100.317
 11
212.671
 21
-96.3858
  0
LINE
  8
0
 10
212.671
 20
-96.3858
 11
216.616
 21
-92.3508
  0
LINE
  8
0
 10
216.616
 20
-92.3508
 11
220.549
 21
-88.2417
  0
LINE
  8
0
 10
220.549
 20
-88.2417
 11
224.455
 21
-84.0886
  0
LINE
  8
0
 10
224.455
 20
-84.0886
 11
228.319
 21
-79.9214
  0
LINE
  8
0
 10
228.319
 20
-79.9214
 11
235.854
 21
-71.6642
  0
LINE
  8
0
 10
235.854
 20
-71.6642
 11
256.009
 21
-49.3134
  0
LINE
  8
0
 10
256.009
 20
-49.3134
 11
261.871
 21
-42.8676
  0
LINE
  8
0
 10
261.871
 20
-42.8676
 11
267.367
 21
-36.8909
  0
LINE
  8
0
 10
267.367
 20
-36.8909
 11
272.54
 21
-31.3592
  0
LINE
  8
0
 10
272.54
 20
-31.3592
 11
277.429
 21
-26.2481
  0
LINE
  8
0
 10
277.429
 20
-26.2481
 11
282.076
 21
-21.5335
  0
LINE
  8
0
 10
282.076
 20
-21.5335
 11
286.521
 21
-17.191
  0
LINE
  8
0
 10
286.521
 20
-17.191
 11
290.803
 21
-13.1962
  0
LINE
  8
0
 10
290.803
 20
-13.1962
 11
294.948
 21
-9.52335
  0
LINE
  8
0
 10
294.948
 20
-9.52335
 11
298.981
 21
-6.14636
  0
LINE
  8
0
 10
298.981
 20
-6.14636
 11
302.926
 21
-3.03922
  0
LINE
  8
0
 10
302.926
 20
-3.03922
 11
306.807
 21
-0.175858
  0
LINE
  8
0
 10
306.807
 20
-0.175858
 11
310.647
 21
2.46973
  0
LINE
  8
0
 10
310.647
 20
2.46973
 11
314.472
 21
4.92361
  0
LINE
  8
0
 10
314.472
 20
4.92361
 11
318.304
 21
7.21184
  0
LINE
  8
0
 10
318.304
 20
7.21184
 11
322.154
 21
9.35469
  0
LINE
  8
0
 10
322.154
 20
9.35469
 11
325.969
 21
11.3495
  0
LINE
  8
0
 10
325.969
 20
11.3495
 11
329.685
 21
13.1879
  0
LINE
  8
0
 10
329.685
 20
13.1879
 11
333.235
 21
14.8614
  0
LINE
  8
0
 10
333.235
 20
14.8614
 11
336.552
 21
16.3616
  0
LINE
  8
0
 10
336.552
 20
16.3616
 11
339.571
 21
17.6801
  0
LINE
  8
0
 10
339.571
 20
17.6801
 11
344.449
 21
19.7383
  0
LINE
  8
0
 10
344.449
 20
19.7383
 11
349.738
 21
21.9666
  0
LINE
  8
0
 10
349.738
 20
21.9666
 11
349.703
 21
22.0494
  0
LINE
  8
0
 10
349.703
 20
22.0494
 11
352.287
 21
24.6244
  0
LINE
  8
0
 10
352.287
 20
24.6244
 11
354.701
 21
26.995
  0
LINE
  8
0
 10
354.701
 20
26.995
 11
356.253
 21
28.4609
  0
LINE
  8
0
 10
356.253
 20
28.4609
 11
358.027
 21
30.0705
  0
LINE
  8
0
 10
358.027
 20
30.0705
 11
360.015
 21
31.7912
  0
LINE
  8
0
 10
360.015
 20
31.7912
 11
362.211
 21
33.5904
  0
LINE
  8
0
 10
362.211
 20
33.5904
 11
364.606
 21
35.4356
  0
LINE
  8
0
 10
364.606
 20
35.4356
 11
367.195
 21
37.294
  0
LINE
  8
0
 10
367.195
 20
37.294
 11
369.964
 21
39.1372
  0
LINE
  8
0
 10
369.964
 20
39.1372
 11
372.876
 21
40.9522
  0
LINE
  8
0
 10
372.876
 20
40.9522
 11
375.888
 21
42.7299
  0
LINE
  8
0
 10
375.888
 20
42.7299
 11
378.957
 21
44.4614
  0
LINE
  8
0
 10
378.957
 20
44.4614
 11
382.039
 21
46.1377
  0
LINE
  8
0
 10
382.039
 20
46.1377
 11
385.093
 21
47.7497
  0
LINE
  8
0
 10
385.093
 20
47.7497
 11
390.939
 21
50.745
  0
LINE
  8
0
 10
390.939
 20
50.745
 11
396.251
 21
53.4038
  0
LINE
  8
0
 10
396.251
 20
53.4038
 11
401.191
 21
55.7969
  0
LINE
  8
0
 10
401.191
 20
55.7969
 11
406.019
 21
58.0233
  0
LINE
  8
0
 10
406.019
 20
58.0233
 11
410.998
 21
60.1822
  0
LINE
  8
0
 10
410.998
 20
60.1822
 11
416.267
 21
62.3319
  0
LINE
  8
0
 10
416.267
 20
62.3319
 11
421.472
 21
64.3666
  0
LINE
  8
0
 10
421.472
 20
64.3666
 11
429.788
 21
67.5035
  0
LINE
  8
0
 10
429.788
 20
67.5035
 11
433.766
 21
68.9845
  0
LINE
  8
0
 10
433.766
 20
68.9845
 11
433.766
 21
100.301
  0
LINE
  8
0
 10
433.766
 20
100.301
 11
367.409
 21
100.301
  0
LINE
  8
0
 10
367.409
 20
100.301
 11
356.886
 21
96.4356
  0
LINE
  8
0
 10
356.886
 20
96.4356
 11
352.466
 21
94.7899
  0
LINE
  8
0
 10
352.466
 20
94.7899
 11
349.924
 21
93.8027
  0
LINE
  8
0
 10
349.924
 20
93.8027
 11
347.18
 21
92.6908
  0
LINE
  8
0
 10
347.18
 20
92.6908
 11
344.25
 21
91.4429
  0
LINE
  8
0
 10
344.25
 20
91.4429
 11
341.147
 21
90.0476
  0
LINE
  8
0
 10
341.147
 20
90.0476
 11
337.889
 21
88.4935
  0
LINE
  8
0
 10
337.889
 20
88.4935
 11
334.488
 21
86.7692
  0
LINE
  8
0
 10
334.488
 20
86.7692
 11
330.961
 21
84.8635
  0
LINE
  8
0
 10
330.961
 20
84.8635
 11
327.323
 21
82.7649
  0
LINE
  8
0
 10
327.323
 20
82.7649
 11
323.587
 21
80.462
  0
LINE
  8
0
 10
323.587
 20
80.462
 11
319.77
 21
77.9435
  0
LINE
  8
0
 10
319.77
 20
77.9435
 11
315.887
 21
75.198
  0
LINE
  8
0
 10
315.887
 20
75.198
 11
313.925
 21
73.7366
  0
LINE
  8
0
 10
313.925
 20
73.7366
 11
311.952
 21
72.2143
  0
LINE
  8
0
 10
311.952
 20
72.2143
 11
309.97
 21
70.6294
  0
LINE
  8
0
 10
309.97
 20
70.6294
 11
307.98
 21
68.9808
  0
LINE
  8
0
 10
307.98
 20
68.9808
 11
305.985
 21
67.2668
  0
LINE
  8
0
 10
305.985
 20
67.2668
 11
303.987
 21
65.4862
  0
LINE
  8
0
 10
303.987
 20
65.4862
 11
301.986
 21
63.6381
  0
LINE
  8
0
 10
301.986
 20
63.6381
 11
299.984
 21
61.724
  0
LINE
  8
0
 10
299.984
 20
61.724
 11
297.981
 21
59.746
  0
LINE
  8
0
 10
297.981
 20
59.746
 11
295.976
 21
57.7063
  0
LINE
  8
0
 10
295.976
 20
57.7063
 11
291.961
 21
53.4503
  0
LINE
  8
0
 10
291.961
 20
53.4503
 11
287.942
 21
48.9729
  0
LINE
  8
0
 10
287.942
 20
48.9729
 11
283.917
 21
44.2912
  0
LINE
  8
0
 10
283.917
 20
44.2912
 11
279.888
 21
39.4222
  0
LINE
  8
0
 10
279.888
 20
39.4222
 11
275.854
 21
34.3829
  0
LINE
  8
0
 10
275.854
 20
34.3829
 11
271.817
 21
29.1904
  0
LINE
  8
0
 10
271.817
 20
29.1904
 11
267.777
 21
23.8617
  0
LINE
  8
0
 10
267.777
 20
23.8617
 11
263.733
 21
18.4138
  0
LINE
  8
0
 10
263.733
 20
18.4138
 11
259.688
 21
12.8637
  0
LINE
  8
0
 10
259.688
 20
12.8637
 11
255.64
 21
7.22849
  0
LINE
  8
0
 10
255.64
 20
7.22849
 11
247.539
 21
-4.2292
  0
LINE
  8
0
 10
247.539
 20
-4.2292
 11
239.436
 21
-15.8232
  0
LINE
  8
0
 10
239.436
 20
-15.8232
 11
231.331
 21
-27.4127
  0
LINE
  8
0
 10
231.331
 20
-27.4127
 11
223.221
 21
-38.8401
  0
LINE
  8
0
 10
223.221
 20
-38.8401
 11
219.163
 21
-44.4424
  0
LINE
  8
0
 10
219.163
 20
-44.4424
 11
215.101
 21
-49.9432
  0
LINE
  8
0
 10
215.101
 20
-49.9432
 11
211.036
 21
-55.3225
  0
LINE
  8
0
 10
211.036
 20
-55.3225
 11
206.966
 21
-60.5598
  0
LINE
  8
0
 10
206.966
 20
-60.5598
 11
202.892
 21
-65.635
  0
LINE
  8
0
 10
202.892
 20
-65.635
 11
198.812
 21
-70.5277
  0
LINE
  8
0
 10
198.812
 20
-70.5277
 11
194.726
 21
-75.2177
  0
LINE
  8
0
 10
194.726
 20
-75.2177
 11
190.632
 21
-79.6848
  0
LINE
  8
0
 10
190.632
 20
-79.6848
 11
188.583
 21
-81.8284
  0
LINE
  8
0
 10
188.583
 20
-81.8284
 11
186.532
 21
-83.9086
  0
LINE
  8
0
 10
186.532
 20
-83.9086
 11
184.479
 21
-85.9229
  0
LINE
  8
0
 10
184.479
 20
-85.9229
 11
182.423
 21
-87.8688
  0
LINE
  8
0
 10
182.423
 20
-87.8688
 11
180.366
 21
-89.7438
  0
LINE
  8
0
 10
180.366
 20
-89.7438
 11
178.306
 21
-91.5453
  0
LINE
  8
0
 10
178.306
 20
-91.5453
 11
176.244
 21
-93.2708
  0
LINE
  8
0
 10
176.244
 20
-93.2708
 11
174.18
 21
-94.9177
  0
LINE
  8
0
 10
174.18
 20
-94.9177
 11
172.113
 21
-96.4844
  0
LINE
  8
0
 10
172.113
 20
-96.4844
 11
170.043
 21
-97.9731
  0
LINE
  8
0
 10
170.043
 20
-97.9731
 11
167.97
 21
-99.3865
  0
LINE
  8
0
 10
167.97
 20
-99.3865
 11
165.894
 21
-100.728
  0
LINE
  8
0
 10
165.894
 20
-100.728
 11
163.814
 21
-102
  0
LINE
  8
0
 10
163.814
 20
-102
 11
161.73
 21
-103.205
  0
LINE
  8
0
 10
161.73
 20
-103.205
 11
159.642
 21
-104.348
  0
LINE
  8
0
 10
159.642
 20
-104.348
 11
157.549
 21
-105.429
  0
LINE
  8
0
 10
157.549
 20
-105.429
 11
155.451
 21
-106.454
  0
LINE
  8
0
 10
155.451
 20
-106.454
 11
153.349
 21
-107.424
  0
LINE
  8
0
 10
153.349
 20
-107.424
 11
151.24
 21
-108.342
  0
LINE
  8
0
 10
151.24
 20
-108.342
 11
149.126
 21
-109.212
  0
LINE
  8
0
 10
149.126
 20
-109.212
 11
147.006
 21
-110.036
  0
LINE
  8
0
 10
147.006
 20
-110.036
 11
144.88
 21
-110.817
  0
LINE
  8
0
 10
144.88
 20
-110.817
 11
140.606
 21
-112.263
  0
LINE
  8
0
 10
140.606
 20
-112.263
 11
136.304
 21
-113.574
  0
LINE
  8
0
 10
136.304
 20
-113.574
 11
131.97
 21
-114.773
  0
LINE
  8
0
 10
131.97
 20
-114.773
 11
127.602
 21
-115.884
  0
LINE
  8
0
 10
127.602
 20
-115.884
 11
123.198
 21
-116.931
  0
LINE
  8
0
 10
123.198
 20
-116.931
 11
114.272
 21
-118.925
  0
LINE
  8
0
 10
114.272
 20
-118.925
 11
105.171
 21
-120.944
  0
LINE
  8
0
 10
105.171
 20
-120.944
 11
95.9106
 21
-123.134
  0
LINE
  8
0
 10
95.9106
 20
-123.134
 11
86.6369
 21
-125.465
  0
LINE
  8
0
 10
86.6369
 20
-125.465
 11
77.53
 21
-127.865
  0
LINE
  8
0
 10
77.53
 20
-127.865
 11
68.7694
 21
-130.26
  0
LINE
  8
0
 10
68.7694
 20
-130.26
 11
60.5353
 21
-132.577
  0
LINE
  8
0
 10
60.5353
 20
-132.577
 11
53.0073
 21
-134.745
  0
LINE
  8
0
 10
53.0073
 20
-134.745
 11
40.7894
 21
-138.337
  0
LINE
  8
0
 10
40.7894
 20
-138.337
 11
33.1071
 21
-140.634
  0
LINE
  8
0
 10
33.1071
 20
-140.634
 11
30.7454
 21
-141.386
  0
LINE
  8
0
 10
30.7454
 20
-141.386
 11
29.1622
 21
-141.955
  0
LINE
  8
0
 10
29.1622
 20
-141.955
 11
28.2019
 21
-142.406
  0
LINE
  8
0
 10
28.2019
 20
-142.406
 11
27.9067
 21
-142.607
  0
LINE
  8
0
 10
27.9067
 20
-142.607
 11
27.7088
 21
-142.801
  0
LINE
  8
0
 10
27.7088
 20
-142.801
 11
27.5888
 21
-142.996
  0
LINE
  8
0
 10
27.5888
 20
-142.996
 11
27.5271
 21
-143.201
  0
LINE
  8
0
 10
27.5271
 20
-143.201
 11
27.5012
 21
-143.669
  0
LINE
  8
0
 10
27.5012
 20
-143.669
 11
27.5012
 21
-147.859
  0
LINE
  8
0
 10
27.5012
 20
-147.859
 11
27.4926
 21
-147.985
  0
LINE
  8
0
 10
27.4926
 20
-147.985
 11
49.5388
 21
-145.065
  0
ENDSEC
  0
SECTION
  2
OBJECTS
  0
DICTIONARY
  0
ENDSEC
  0
EOF
