  0
SECTION
  2
BLOCKS
  0
ENDSEC
  0
SECTION
  2
ENTITIES
  0
LINE
  8
0
 10
-407.2
 20
60.371
 11
-405.972
 21
60.4321
  0
LINE
  8
0
 10
-405.972
 20
60.4321
 11
-404.781
 21
60.551
  0
LINE
  8
0
 10
-404.781
 20
60.551
 11
-403.629
 21
60.7439
  0
LINE
  8
0
 10
-403.629
 20
60.7439
 11
-402.514
 21
61.0138
  0
LINE
  8
0
 10
-402.514
 20
61.0138
 11
-401.438
 21
61.3609
  0
LINE
  8
0
 10
-401.438
 20
61.3609
 11
-400.401
 21
61.7852
  0
LINE
  8
0
 10
-400.401
 20
61.7852
 11
-399.401
 21
62.2834
  0
LINE
  8
0
 10
-399.401
 20
62.2834
 11
-398.429
 21
62.8394
  0
LINE
  8
0
 10
-398.429
 20
62.8394
 11
-396.535
 21
64.0479
  0
LINE
  8
0
 10
-396.535
 20
64.0479
 11
-394.678
 21
65.2944
  0
LINE
  8
0
 10
-394.678
 20
65.2944
 11
-393.798
 21
65.9406
  0
LINE
  8
0
 10
-393.798
 20
65.9406
 11
-392.975
 21
66.6145
  0
LINE
  8
0
 10
-392.975
 20
66.6145
 11
-392.226
 21
67.3237
  0
LINE
  8
0
 10
-392.226
 20
67.3237
 11
-391.553
 21
68.0697
  0
LINE
  8
0
 10
-391.553
 20
68.0697
 11
-390.956
 21
68.8526
  0
LINE
  8
0
 10
-390.956
 20
68.8526
 11
-390.436
 21
69.6722
  0
LINE
  8
0
 10
-390.436
 20
69.6722
 11
-389.99
 21
70.5272
  0
LINE
  8
0
 10
-389.99
 20
70.5272
 11
-389.601
 21
71.4098
  0
LINE
  8
0
 10
-389.601
 20
71.4098
 11
-388.918
 21
73.2211
  0
LINE
  8
0
 10
-388.918
 20
73.2211
 11
-388.275
 21
75.0867
  0
LINE
  8
0
 10
-388.275
 20
75.0867
 11
-387.979
 21
76.0986
  0
LINE
  8
0
 10
-387.979
 20
76.0986
 11
-387.714
 21
77.2053
  0
LINE
  8
0
 10
-387.714
 20
77.2053
 11
-387.488
 21
78.4333
  0
LINE
  8
0
 10
-387.488
 20
78.4333
 11
-387.303
 21
79.7877
  0
LINE
  8
0
 10
-387.303
 20
79.7877
 11
-387.159
 21
81.2686
  0
LINE
  8
0
 10
-387.159
 20
81.2686
 11
-387.057
 21
82.876
  0
LINE
  8
0
 10
-387.057
 20
82.876
 11
-386.961
 21
86.4883
  0
LINE
  8
0
 10
-386.961
 20
86.4883
 11
-386.947
 21
90.7148
  0
LINE
  8
0
 10
-386.947
 20
90.7148
 11
-386.972
 21
95.5252
  0
LINE
  8
0
 10
-386.972
 20
95.5252
 11
-387.03
 21
97.9747
  0
LINE
  8
0
 10
-387.03
 20
97.9747
 11
-387.145
 21
100.333
  0
LINE
  8
0
 10
-387.145
 20
100.333
 11
-387.33
 21
102.524
  0
LINE
  8
0
 10
-387.33
 20
102.524
 11
-387.589
 21
104.533
  0
LINE
  8
0
 10
-387.589
 20
104.533
 11
-387.922
 21
106.36
  0
LINE
  8
0
 10
-387.922
 20
106.36
 11
-388.329
 21
108.005
  0
LINE
  8
0
 10
-388.329
 20
108.005
 11
-388.807
 21
109.475
  0
LINE
  8
0
 10
-388.807
 20
109.475
 11
-389.34
 21
110.809
  0
LINE
  8
0
 10
-389.34
 20
110.809
 11
-389.911
 21
112.052
  0
LINE
  8
0
 10
-389.911
 20
112.052
 11
-390.5
 21
113.249
  0
LINE
  8
0
 10
-390.5
 20
113.249
 11
-391.101
 21
114.442
  0
LINE
  8
0
 10
-391.101
 20
114.442
 11
-391.755
 21
115.656
  0
LINE
  8
0
 10
-391.755
 20
115.656
 11
-392.514
 21
116.912
  0
LINE
  8
0
 10
-392.514
 20
116.912
 11
-393.431
 21
118.23
  0
LINE
  8
0
 10
-393.431
 20
118.23
 11
-394.55
 21
119.627
  0
LINE
  8
0
 10
-394.55
 20
119.627
 11
-395.881
 21
121.107
  0
LINE
  8
0
 10
-395.881
 20
121.107
 11
-397.422
 21
122.671
  0
LINE
  8
0
 10
-397.422
 20
122.671
 11
-399.174
 21
124.318
  0
LINE
  8
0
 10
-399.174
 20
124.318
 11
-401.114
 21
126.033
  0
LINE
  8
0
 10
-401.114
 20
126.033
 11
-403.119
 21
127.734
  0
LINE
  8
0
 10
-403.119
 20
127.734
 11
-406.743
 21
130.711
  0
LINE
  8
0
 10
-406.743
 20
130.711
 11
-409.175
 21
132.699
  0
LINE
  8
0
 10
-409.175
 20
132.699
 11
-410.707
 21
134.034
  0
LINE
  8
0
 10
-410.707
 20
134.034
 11
-411.829
 21
135.182
  0
LINE
  8
0
 10
-411.829
 20
135.182
 11
-412.273
 21
135.721
  0
LINE
  8
0
 10
-412.273
 20
135.721
 11
-412.638
 21
136.236
  0
LINE
  8
0
 10
-412.638
 20
136.236
 11
-412.928
 21
136.728
  0
LINE
  8
0
 10
-412.928
 20
136.728
 11
-413.16
 21
137.203
  0
LINE
  8
0
 10
-413.16
 20
137.203
 11
-413.529
 21
138.122
  0
LINE
  8
0
 10
-413.529
 20
138.122
 11
-413.872
 21
139.053
  0
LINE
  8
0
 10
-413.872
 20
139.053
 11
-414.175
 21
140.095
  0
LINE
  8
0
 10
-414.175
 20
140.095
 11
-414.397
 21
141.342
  0
LINE
  8
0
 10
-414.397
 20
141.342
 11
-414.531
 21
142.812
  0
LINE
  8
0
 10
-414.531
 20
142.812
 11
-414.583
 21
144.468
  0
LINE
  8
0
 10
-414.583
 20
144.468
 11
-414.591
 21
146.134
  0
LINE
  8
0
 10
-414.591
 20
146.134
 11
-414.584
 21
147.637
  0
LINE
  8
0
 10
-414.584
 20
147.637
 11
-414.538
 21
148.95
  0
LINE
  8
0
 10
-414.538
 20
148.95
 11
-414.419
 21
150.085
  0
LINE
  8
0
 10
-414.419
 20
150.085
 11
-414.222
 21
151.042
  0
LINE
  8
0
 10
-414.222
 20
151.042
 11
-413.951
 21
151.837
  0
LINE
  8
0
 10
-413.951
 20
151.837
 11
-413.642
 21
152.543
  0
LINE
  8
0
 10
-413.642
 20
152.543
 11
-413.319
 21
153.219
  0
LINE
  8
0
 10
-413.319
 20
153.219
 11
-412.959
 21
153.808
  0
LINE
  8
0
 10
-412.959
 20
153.808
 11
-412.754
 21
154.045
  0
LINE
  8
0
 10
-412.754
 20
154.045
 11
-412.53
 21
154.238
  0
LINE
  8
0
 10
-412.53
 20
154.238
 11
-412.287
 21
154.389
  0
LINE
  8
0
 10
-412.287
 20
154.389
 11
-412.026
 21
154.497
  0
LINE
  8
0
 10
-412.026
 20
154.497
 11
-411.455
 21
154.597
  0
LINE
  8
0
 10
-411.455
 20
154.597
 11
-410.859
 21
154.612
  0
LINE
  8
0
 10
-410.859
 20
154.612
 11
-410.284
 21
154.601
  0
LINE
  8
0
 10
-410.284
 20
154.601
 11
-409.762
 21
154.527
  0
LINE
  8
0
 10
-409.762
 20
154.527
 11
-409.316
 21
154.335
  0
LINE
  8
0
 10
-409.316
 20
154.335
 11
-408.951
 21
154.015
  0
LINE
  8
0
 10
-408.951
 20
154.015
 11
-408.66
 21
153.578
  0
LINE
  8
0
 10
-408.66
 20
153.578
 11
-408.41
 21
153.077
  0
LINE
  8
0
 10
-408.41
 20
153.077
 11
-408.171
 21
152.538
  0
LINE
  8
0
 10
-408.171
 20
152.538
 11
-407.964
 21
151.828
  0
LINE
  8
0
 10
-407.964
 20
151.828
 11
-407.812
 21
150.808
  0
LINE
  8
0
 10
-407.812
 20
150.808
 11
-407.72
 21
149.449
  0
LINE
  8
0
 10
-407.72
 20
149.449
 11
-407.68
 21
146.562
  0
LINE
  8
0
 10
-407.68
 20
146.562
 11
-407.68
 21
137.933
  0
LINE
  8
0
 10
-407.68
 20
137.933
 11
-388.651
 21
137.933
  0
LINE
  8
0
 10
-388.651
 20
137.933
 11
-388.651
 21
143.634
  0
LINE
  8
0
 10
-388.651
 20
143.634
 11
-388.663
 21
146.622
  0
LINE
  8
0
 10
-388.663
 20
146.622
 11
-388.752
 21
150.37
  0
LINE
  8
0
 10
-388.752
 20
150.37
 11
-388.847
 21
152.125
  0
LINE
  8
0
 10
-388.847
 20
152.125
 11
-388.98
 21
153.724
  0
LINE
  8
0
 10
-388.98
 20
153.724
 11
-389.151
 21
155.166
  0
LINE
  8
0
 10
-389.151
 20
155.166
 11
-389.36
 21
156.452
  0
LINE
  8
0
 10
-389.36
 20
156.452
 11
-389.606
 21
157.588
  0
LINE
  8
0
 10
-389.606
 20
157.588
 11
-389.88
 21
158.607
  0
LINE
  8
0
 10
-389.88
 20
158.607
 11
-390.476
 21
160.449
  0
LINE
  8
0
 10
-390.476
 20
160.449
 11
-391.11
 21
162.227
  0
LINE
  8
0
 10
-391.11
 20
162.227
 11
-391.477
 21
163.091
  0
LINE
  8
0
 10
-391.477
 20
163.091
 11
-391.903
 21
163.928
  0
LINE
  8
0
 10
-391.903
 20
163.928
 11
-392.405
 21
164.727
  0
LINE
  8
0
 10
-392.405
 20
164.727
 11
-392.986
 21
165.488
  0
LINE
  8
0
 10
-392.986
 20
165.488
 11
-393.646
 21
166.212
  0
LINE
  8
0
 10
-393.646
 20
166.212
 11
-394.385
 21
166.896
  0
LINE
  8
0
 10
-394.385
 20
166.896
 11
-395.2
 21
167.545
  0
LINE
  8
0
 10
-395.2
 20
167.545
 11
-396.074
 21
168.164
  0
LINE
  8
0
 10
-396.074
 20
168.164
 11
-397.922
 21
169.356
  0
LINE
  8
0
 10
-397.922
 20
169.356
 11
-399.812
 21
170.51
  0
LINE
  8
0
 10
-399.812
 20
170.51
 11
-400.788
 21
171.041
  0
LINE
  8
0
 10
-400.788
 20
171.041
 11
-401.8
 21
171.516
  0
LINE
  8
0
 10
-401.8
 20
171.516
 11
-402.86
 21
171.921
  0
LINE
  8
0
 10
-402.86
 20
171.921
 11
-403.969
 21
172.253
  0
LINE
  8
0
 10
-403.969
 20
172.253
 11
-405.127
 21
172.511
  0
LINE
  8
0
 10
-405.127
 20
172.511
 11
-406.335
 21
172.695
  0
LINE
  8
0
 10
-406.335
 20
172.695
 11
-407.588
 21
172.809
  0
LINE
  8
0
 10
-407.588
 20
172.809
 11
-408.871
 21
172.867
  0
LINE
  8
0
 10
-408.871
 20
172.867
 11
-411.449
 21
172.891
  0
LINE
  8
0
 10
-411.449
 20
172.891
 11
-413.934
 21
172.869
  0
LINE
  8
0
 10
-413.934
 20
172.869
 11
-415.123
 21
172.816
  0
LINE
  8
0
 10
-415.123
 20
172.816
 11
-416.272
 21
172.712
  0
LINE
  8
0
 10
-416.272
 20
172.712
 11
-417.377
 21
172.543
  0
LINE
  8
0
 10
-417.377
 20
172.543
 11
-418.438
 21
172.307
  0
LINE
  8
0
 10
-418.438
 20
172.307
 11
-419.454
 21
172.004
  0
LINE
  8
0
 10
-419.454
 20
172.004
 11
-420.425
 21
171.633
  0
LINE
  8
0
 10
-420.425
 20
171.633
 11
-421.354
 21
171.198
  0
LINE
  8
0
 10
-421.354
 20
171.198
 11
-422.249
 21
170.712
  0
LINE
  8
0
 10
-422.249
 20
170.712
 11
-423.983
 21
169.656
  0
LINE
  8
0
 10
-423.983
 20
169.656
 11
-425.683
 21
168.56
  0
LINE
  8
0
 10
-425.683
 20
168.56
 11
-426.496
 21
167.979
  0
LINE
  8
0
 10
-426.496
 20
167.979
 11
-427.265
 21
167.36
  0
LINE
  8
0
 10
-427.265
 20
167.36
 11
-427.976
 21
166.69
  0
LINE
  8
0
 10
-427.976
 20
166.69
 11
-428.628
 21
165.968
  0
LINE
  8
0
 10
-428.628
 20
165.968
 11
-429.221
 21
165.195
  0
LINE
  8
0
 10
-429.221
 20
165.195
 11
-429.755
 21
164.369
  0
LINE
  8
0
 10
-429.755
 20
164.369
 11
-430.231
 21
163.493
  0
LINE
  8
0
 10
-430.231
 20
163.493
 11
-430.664
 21
162.578
  0
LINE
  8
0
 10
-430.664
 20
162.578
 11
-431.454
 21
160.683
  0
LINE
  8
0
 10
-431.454
 20
160.683
 11
-432.209
 21
158.724
  0
LINE
  8
0
 10
-432.209
 20
158.724
 11
-432.556
 21
157.658
  0
LINE
  8
0
 10
-432.556
 20
157.658
 11
-432.867
 21
156.487
  0
LINE
  8
0
 10
-432.867
 20
156.487
 11
-433.132
 21
155.184
  0
LINE
  8
0
 10
-433.132
 20
155.184
 11
-433.348
 21
153.741
  0
LINE
  8
0
 10
-433.348
 20
153.741
 11
-433.517
 21
152.159
  0
LINE
  8
0
 10
-433.517
 20
152.159
 11
-433.637
 21
150.439
  0
LINE
  8
0
 10
-433.637
 20
150.439
 11
-433.712
 21
148.591
  0
LINE
  8
0
 10
-433.712
 20
148.591
 11
-433.75
 21
146.679
  0
LINE
  8
0
 10
-433.75
 20
146.679
 11
-433.766
 21
142.959
  0
LINE
  8
0
 10
-433.766
 20
142.959
 11
-433.754
 21
139.742
  0
LINE
  8
0
 10
-433.754
 20
139.742
 11
-433.675
 21
136.97
  0
LINE
  8
0
 10
-433.675
 20
136.97
 11
-433.471
 21
134.485
  0
LINE
  8
0
 10
-433.471
 20
134.485
 11
-433.319
 21
133.338
  0
LINE
  8
0
 10
-433.319
 20
133.338
 11
-433.132
 21
132.255
  0
LINE
  8
0
 10
-433.132
 20
132.255
 11
-432.668
 21
130.26
  0
LINE
  8
0
 10
-432.668
 20
130.26
 11
-432.135
 21
128.393
  0
LINE
  8
0
 10
-432.135
 20
128.393
 11
-431.586
 21
126.564
  0
LINE
  8
0
 10
-431.586
 20
126.564
 11
-431.001
 21
124.835
  0
LINE
  8
0
 10
-431.001
 20
124.835
 11
-430.351
 21
123.29
  0
LINE
  8
0
 10
-430.351
 20
123.29
 11
-429.63
 21
121.944
  0
LINE
  8
0
 10
-429.63
 20
121.944
 11
-428.844
 21
120.782
  0
LINE
  8
0
 10
-428.844
 20
120.782
 11
-428.023
 21
119.721
  0
LINE
  8
0
 10
-428.023
 20
119.721
 11
-427.16
 21
118.649
  0
LINE
  8
0
 10
-427.16
 20
118.649
 11
-426.082
 21
117.419
  0
LINE
  8
0
 10
-426.082
 20
117.419
 11
-424.609
 21
115.898
  0
LINE
  8
0
 10
-424.609
 20
115.898
 11
-422.707
 21
114.061
  0
LINE
  8
0
 10
-422.707
 20
114.061
 11
-417.9
 21
109.654
  0
LINE
  8
0
 10
-417.9
 20
109.654
 11
-415.393
 21
107.384
  0
LINE
  8
0
 10
-415.393
 20
107.384
 11
-413.122
 21
105.284
  0
LINE
  8
0
 10
-413.122
 20
105.284
 11
-411.287
 21
103.486
  0
LINE
  8
0
 10
-411.287
 20
103.486
 11
-409.927
 21
102.015
  0
LINE
  8
0
 10
-409.927
 20
102.015
 11
-409.002
 21
100.846
  0
LINE
  8
0
 10
-409.002
 20
100.846
 11
-408.318
 21
99.8398
  0
LINE
  8
0
 10
-408.318
 20
99.8398
 11
-407.694
 21
98.8154
  0
LINE
  8
0
 10
-407.694
 20
98.8154
 11
-407.408
 21
98.2173
  0
LINE
  8
0
 10
-407.408
 20
98.2173
 11
-407.152
 21
97.516
  0
LINE
  8
0
 10
-407.152
 20
97.516
 11
-406.935
 21
96.6827
  0
LINE
  8
0
 10
-406.935
 20
96.6827
 11
-406.757
 21
95.7119
  0
LINE
  8
0
 10
-406.757
 20
95.7119
 11
-406.619
 21
94.6035
  0
LINE
  8
0
 10
-406.619
 20
94.6035
 11
-406.52
 21
93.3575
  0
LINE
  8
0
 10
-406.52
 20
93.3575
 11
-406.428
 21
90.5708
  0
LINE
  8
0
 10
-406.428
 20
90.5708
 11
-406.414
 21
87.9425
  0
LINE
  8
0
 10
-406.414
 20
87.9425
 11
-406.421
 21
86.006
  0
LINE
  8
0
 10
-406.421
 20
86.006
 11
-406.47
 21
84.592
  0
LINE
  8
0
 10
-406.47
 20
84.592
 11
-406.594
 21
83.4134
  0
LINE
  8
0
 10
-406.594
 20
83.4134
 11
-406.802
 21
82.4127
  0
LINE
  8
0
 10
-406.802
 20
82.4127
 11
-407.086
 21
81.5751
  0
LINE
  8
0
 10
-407.086
 20
81.5751
 11
-407.412
 21
80.8264
  0
LINE
  8
0
 10
-407.412
 20
80.8264
 11
-407.752
 21
80.1079
  0
LINE
  8
0
 10
-407.752
 20
80.1079
 11
-408.135
 21
79.481
  0
LINE
  8
0
 10
-408.135
 20
79.481
 11
-408.356
 21
79.2288
  0
LINE
  8
0
 10
-408.356
 20
79.2288
 11
-408.599
 21
79.0224
  0
LINE
  8
0
 10
-408.599
 20
79.0224
 11
-408.863
 21
78.8618
  0
LINE
  8
0
 10
-408.863
 20
78.8618
 11
-409.149
 21
78.7471
  0
LINE
  8
0
 10
-409.149
 20
78.7471
 11
-409.78
 21
78.6401
  0
LINE
  8
0
 10
-409.78
 20
78.6401
 11
-410.454
 21
78.6248
  0
LINE
  8
0
 10
-410.454
 20
78.6248
 11
-411.127
 21
78.6369
  0
LINE
  8
0
 10
-411.127
 20
78.6369
 11
-411.748
 21
78.7213
  0
LINE
  8
0
 10
-411.748
 20
78.7213
 11
-412.024
 21
78.8115
  0
LINE
  8
0
 10
-412.024
 20
78.8115
 11
-412.274
 21
78.938
  0
LINE
  8
0
 10
-412.274
 20
78.938
 11
-412.498
 21
79.1006
  0
LINE
  8
0
 10
-412.498
 20
79.1006
 11
-412.697
 21
79.2994
  0
LINE
  8
0
 10
-412.697
 20
79.2994
 11
-413.025
 21
79.7932
  0
LINE
  8
0
 10
-413.025
 20
79.7932
 11
-413.301
 21
80.3594
  0
LINE
  8
0
 10
-413.301
 20
80.3594
 11
-413.563
 21
80.9677
  0
LINE
  8
0
 10
-413.563
 20
80.9677
 11
-413.792
 21
81.7567
  0
LINE
  8
0
 10
-413.792
 20
81.7567
 11
-413.959
 21
82.8769
  0
LINE
  8
0
 10
-413.959
 20
82.8769
 11
-414.059
 21
84.3585
  0
LINE
  8
0
 10
-414.059
 20
84.3585
 11
-414.098
 21
86.087
  0
LINE
  8
0
 10
-414.098
 20
86.087
 11
-414.104
 21
87.4904
  0
LINE
  8
0
 10
-414.104
 20
87.4904
 11
-414.104
 21
101.308
  0
LINE
  8
0
 10
-414.104
 20
101.308
 11
-433.133
 21
101.308
  0
LINE
  8
0
 10
-433.133
 20
101.308
 11
-433.133
 21
92.8868
  0
LINE
  8
0
 10
-433.133
 20
92.8868
 11
-433.121
 21
90.0584
  0
LINE
  8
0
 10
-433.121
 20
90.0584
 11
-433.033
 21
86.4489
  0
LINE
  8
0
 10
-433.033
 20
86.4489
 11
-432.939
 21
84.7136
  0
LINE
  8
0
 10
-432.939
 20
84.7136
 11
-432.808
 21
83.0937
  0
LINE
  8
0
 10
-432.808
 20
83.0937
 11
-432.639
 21
81.5892
  0
LINE
  8
0
 10
-432.639
 20
81.5892
 11
-432.433
 21
80.2
  0
LINE
  8
0
 10
-432.433
 20
80.2
 11
-432.19
 21
78.9214
  0
LINE
  8
0
 10
-432.19
 20
78.9214
 11
-431.92
 21
77.7293
  0
LINE
  8
0
 10
-431.92
 20
77.7293
 11
-431.332
 21
75.4893
  0
LINE
  8
0
 10
-431.332
 20
75.4893
 11
-430.704
 21
73.304
  0
LINE
  8
0
 10
-430.704
 20
73.304
 11
-430.338
 21
72.2417
  0
LINE
  8
0
 10
-430.338
 20
72.2417
 11
-429.909
 21
71.2159
  0
LINE
  8
0
 10
-429.909
 20
71.2159
 11
-429.4
 21
70.2367
  0
LINE
  8
0
 10
-429.4
 20
70.2367
 11
-428.807
 21
69.3062
  0
LINE
  8
0
 10
-428.807
 20
69.3062
 11
-428.13
 21
68.4244
  0
LINE
  8
0
 10
-428.13
 20
68.4244
 11
-427.37
 21
67.5912
  0
LINE
  8
0
 10
-427.37
 20
67.5912
 11
-426.53
 21
66.8046
  0
LINE
  8
0
 10
-426.53
 20
66.8046
 11
-425.627
 21
66.0544
  0
LINE
  8
0
 10
-425.627
 20
66.0544
 11
-423.716
 21
64.615
  0
LINE
  8
0
 10
-423.716
 20
64.615
 11
-421.76
 21
63.2214
  0
LINE
  8
0
 10
-421.76
 20
63.2214
 11
-420.751
 21
62.5802
  0
LINE
  8
0
 10
-420.751
 20
62.5802
 11
-419.705
 21
62.0057
  0
LINE
  8
0
 10
-419.705
 20
62.0057
 11
-418.61
 21
61.5164
  0
LINE
  8
0
 10
-418.61
 20
61.5164
 11
-417.465
 21
61.1161
  0
LINE
  8
0
 10
-417.465
 20
61.1161
 11
-416.27
 21
60.8048
  0
LINE
  8
0
 10
-416.27
 20
60.8048
 11
-415.025
 21
60.5825
  0
LINE
  8
0
 10
-415.025
 20
60.5825
 11
-413.732
 21
60.4454
  0
LINE
  8
0
 10
-413.732
 20
60.4454
 11
-412.41
 21
60.375
  0
LINE
  8
0
 10
-412.41
 20
60.375
 11
-409.756
 21
60.3453
  0
LINE
  8
0
 10
-409.756
 20
60.3453
 11
-407.2
 21
60.371
  0
LINE
  8
0
 10
-56.6462
 20
170.623
 11
-76.8921
 21
170.623
  0
LINE
  8
0
 10
-76.8921
 20
170.623
 11
-76.8921
 21
156.546
  0
LINE
  8
0
 10
-76.8921
 20
156.546
 11
-56.6462
 21
156.546
  0
LINE
  8
0
 10
-56.6462
 20
156.546
 11
-56.6462
 21
170.623
  0
LINE
  8
0
 10
-218.11
 20
170.623
 11
-238.356
 21
170.623
  0
LINE
  8
0
 10
-238.356
 20
170.623
 11
-238.356
 21
156.546
  0
LINE
  8
0
 10
-238.356
 20
156.546
 11
-218.11
 21
156.546
  0
LINE
  8
0
 10
-218.11
 20
156.546
 11
-218.11
 21
170.623
  0
LINE
  8
0
 10
7.92395
 20
170.623
 11
-12.322
 21
170.623
  0
LINE
  8
0
 10
-12.322
 20
170.623
 11
-12.322
 21
156.546
  0
LINE
  8
0
 10
-12.322
 20
156.546
 11
7.92395
 21
156.546
  0
LINE
  8
0
 10
7.92395
 20
156.546
 11
7.92395
 21
170.623
  0
LINE
  8
0
 10
-145.154
 20
60.3641
 11
-144.111
 21
60.4086
  0
LINE
  8
0
 10
-144.111
 20
60.4086
 11
-143.101
 21
60.4954
  0
LINE
  8
0
 10
-143.101
 20
60.4954
 11
-142.126
 21
60.6361
  0
LINE
  8
0
 10
-142.126
 20
60.6361
 11
-141.185
 21
60.8331
  0
LINE
  8
0
 10
-141.185
 20
60.8331
 11
-140.28
 21
61.0864
  0
LINE
  8
0
 10
-140.28
 20
61.0864
 11
-139.41
 21
61.396
  0
LINE
  8
0
 10
-139.41
 20
61.396
 11
-138.573
 21
61.7595
  0
LINE
  8
0
 10
-138.573
 20
61.7595
 11
-137.763
 21
62.1653
  0
LINE
  8
0
 10
-137.763
 20
62.1653
 11
-136.186
 21
63.0472
  0
LINE
  8
0
 10
-136.186
 20
63.0472
 11
-134.633
 21
63.9654
  0
LINE
  8
0
 10
-134.633
 20
63.9654
 11
-133.88
 21
64.4576
  0
LINE
  8
0
 10
-133.88
 20
64.4576
 11
-133.156
 21
64.9893
  0
LINE
  8
0
 10
-133.156
 20
64.9893
 11
-132.469
 21
65.5717
  0
LINE
  8
0
 10
-132.469
 20
65.5717
 11
-131.819
 21
66.2068
  0
LINE
  8
0
 10
-131.819
 20
66.2068
 11
-131.207
 21
66.8948
  0
LINE
  8
0
 10
-131.207
 20
66.8948
 11
-130.634
 21
67.6356
  0
LINE
  8
0
 10
-130.634
 20
67.6356
 11
-130.096
 21
68.427
  0
LINE
  8
0
 10
-130.096
 20
68.427
 11
-129.588
 21
69.258
  0
LINE
  8
0
 10
-129.588
 20
69.258
 11
-128.618
 21
70.9862
  0
LINE
  8
0
 10
-128.618
 20
70.9862
 11
-127.677
 21
72.73
  0
LINE
  8
0
 10
-127.677
 20
72.73
 11
-126.831
 21
74.4626
  0
LINE
  8
0
 10
-126.831
 20
74.4626
 11
-126.16
 21
76.175
  0
LINE
  8
0
 10
-126.16
 20
76.175
 11
-125.895
 21
77.0228
  0
LINE
  8
0
 10
-125.895
 20
77.0228
 11
-125.679
 21
77.8651
  0
LINE
  8
0
 10
-125.679
 20
77.8651
 11
-125.373
 21
79.5348
  0
LINE
  8
0
 10
-125.373
 20
79.5348
 11
-125.163
 21
81.1933
  0
LINE
  8
0
 10
-125.163
 20
81.1933
 11
-124.972
 21
82.9008
  0
LINE
  8
0
 10
-124.972
 20
82.9008
 11
-124.806
 21
84.9126
  0
LINE
  8
0
 10
-124.806
 20
84.9126
 11
-124.684
 21
87.4825
  0
LINE
  8
0
 10
-124.684
 20
87.4825
 11
-124.611
 21
90.6611
  0
LINE
  8
0
 10
-124.611
 20
90.6611
 11
-124.578
 21
97.0748
  0
LINE
  8
0
 10
-124.578
 20
97.0748
 11
-124.578
 21
170.623
  0
LINE
  8
0
 10
-124.578
 20
170.623
 11
-145.068
 21
170.623
  0
LINE
  8
0
 10
-145.068
 20
170.623
 11
-145.068
 21
90.1367
  0
LINE
  8
0
 10
-145.068
 20
90.1367
 11
-145.099
 21
85.98
  0
LINE
  8
0
 10
-145.099
 20
85.98
 11
-145.169
 21
84.0273
  0
LINE
  8
0
 10
-145.169
 20
84.0273
 11
-145.285
 21
82.5665
  0
LINE
  8
0
 10
-145.285
 20
82.5665
 11
-145.445
 21
81.5568
  0
LINE
  8
0
 10
-145.445
 20
81.5568
 11
-145.627
 21
80.793
  0
LINE
  8
0
 10
-145.627
 20
80.793
 11
-145.824
 21
80.0854
  0
LINE
  8
0
 10
-145.824
 20
80.0854
 11
-146.078
 21
79.468
  0
LINE
  8
0
 10
-146.078
 20
79.468
 11
-146.243
 21
79.2196
  0
LINE
  8
0
 10
-146.243
 20
79.2196
 11
-146.438
 21
79.0163
  0
LINE
  8
0
 10
-146.438
 20
79.0163
 11
-146.661
 21
78.8582
  0
LINE
  8
0
 10
-146.661
 20
78.8582
 11
-146.913
 21
78.7453
  0
LINE
  8
0
 10
-146.913
 20
78.7453
 11
-147.491
 21
78.6399
  0
LINE
  8
0
 10
-147.491
 20
78.6399
 11
-148.107
 21
78.6248
  0
LINE
  8
0
 10
-148.107
 20
78.6248
 11
-148.69
 21
78.6385
  0
LINE
  8
0
 10
-148.69
 20
78.6385
 11
-149.206
 21
78.7341
  0
LINE
  8
0
 10
-149.206
 20
78.7341
 11
-149.43
 21
78.8367
  0
LINE
  8
0
 10
-149.43
 20
78.8367
 11
-149.631
 21
78.9802
  0
LINE
  8
0
 10
-149.631
 20
78.9802
 11
-149.807
 21
79.1647
  0
LINE
  8
0
 10
-149.807
 20
79.1647
 11
-149.96
 21
79.3902
  0
LINE
  8
0
 10
-149.96
 20
79.3902
 11
-150.202
 21
79.9505
  0
LINE
  8
0
 10
-150.202
 20
79.9505
 11
-150.397
 21
80.5929
  0
LINE
  8
0
 10
-150.397
 20
80.5929
 11
-150.58
 21
81.2843
  0
LINE
  8
0
 10
-150.58
 20
81.2843
 11
-150.739
 21
82.1885
  0
LINE
  8
0
 10
-150.739
 20
82.1885
 11
-150.855
 21
83.4824
  0
LINE
  8
0
 10
-150.855
 20
83.4824
 11
-150.925
 21
85.2017
  0
LINE
  8
0
 10
-150.925
 20
85.2017
 11
-150.956
 21
88.8469
  0
LINE
  8
0
 10
-150.956
 20
88.8469
 11
-150.956
 21
170.623
  0
LINE
  8
0
 10
-150.956
 20
170.623
 11
-171.446
 21
170.623
  0
LINE
  8
0
 10
-171.446
 20
170.623
 11
-171.446
 21
104.68
  0
LINE
  8
0
 10
-171.446
 20
104.68
 11
-171.419
 21
95.2235
  0
LINE
  8
0
 10
-171.419
 20
95.2235
 11
-171.358
 21
90.7023
  0
LINE
  8
0
 10
-171.358
 20
90.7023
 11
-171.256
 21
87.2291
  0
LINE
  8
0
 10
-171.256
 20
87.2291
 11
-171.118
 21
84.7164
  0
LINE
  8
0
 10
-171.118
 20
84.7164
 11
-170.959
 21
82.7278
  0
LINE
  8
0
 10
-170.959
 20
82.7278
 11
-170.782
 21
80.8303
  0
LINE
  8
0
 10
-170.782
 20
80.8303
 11
-170.513
 21
78.9566
  0
LINE
  8
0
 10
-170.513
 20
78.9566
 11
-170.318
 21
78.0354
  0
LINE
  8
0
 10
-170.318
 20
78.0354
 11
-170.077
 21
77.1261
  0
LINE
  8
0
 10
-170.077
 20
77.1261
 11
-169.79
 21
76.2286
  0
LINE
  8
0
 10
-169.79
 20
76.2286
 11
-169.458
 21
75.3429
  0
LINE
  8
0
 10
-169.458
 20
75.3429
 11
-168.673
 21
73.603
  0
LINE
  8
0
 10
-168.673
 20
73.603
 11
-167.796
 21
71.8868
  0
LINE
  8
0
 10
-167.796
 20
71.8868
 11
-166.884
 21
70.1879
  0
LINE
  8
0
 10
-166.884
 20
70.1879
 11
-166.393
 21
69.3637
  0
LINE
  8
0
 10
-166.393
 20
69.3637
 11
-165.86
 21
68.5696
  0
LINE
  8
0
 10
-165.86
 20
68.5696
 11
-165.272
 21
67.8142
  0
LINE
  8
0
 10
-165.272
 20
67.8142
 11
-164.627
 21
67.0991
  0
LINE
  8
0
 10
-164.627
 20
67.0991
 11
-163.925
 21
66.4243
  0
LINE
  8
0
 10
-163.925
 20
66.4243
 11
-163.167
 21
65.7899
  0
LINE
  8
0
 10
-163.167
 20
65.7899
 11
-162.354
 21
65.194
  0
LINE
  8
0
 10
-162.354
 20
65.194
 11
-161.499
 21
64.6284
  0
LINE
  8
0
 10
-161.499
 20
64.6284
 11
-159.717
 21
63.5475
  0
LINE
  8
0
 10
-159.717
 20
63.5475
 11
-157.905
 21
62.5023
  0
LINE
  8
0
 10
-157.905
 20
62.5023
 11
-156.977
 21
62.0215
  0
LINE
  8
0
 10
-156.977
 20
62.0215
 11
-156.023
 21
61.5906
  0
LINE
  8
0
 10
-156.023
 20
61.5906
 11
-155.037
 21
61.2236
  0
LINE
  8
0
 10
-155.037
 20
61.2236
 11
-154.016
 21
60.9235
  0
LINE
  8
0
 10
-154.016
 20
60.9235
 11
-152.96
 21
60.69
  0
LINE
  8
0
 10
-152.96
 20
60.69
 11
-151.87
 21
60.5232
  0
LINE
  8
0
 10
-151.87
 20
60.5232
 11
-150.749
 21
60.4204
  0
LINE
  8
0
 10
-150.749
 20
60.4204
 11
-149.608
 21
60.3676
  0
LINE
  8
0
 10
-149.608
 20
60.3676
 11
-147.333
 21
60.3453
  0
LINE
  8
0
 10
-147.333
 20
60.3453
 11
-145.154
 21
60.3641
  0
LINE
  8
0
 10
229.266
 20
170.623
 11
209.02
 21
170.623
  0
LINE
  8
0
 10
209.02
 20
170.623
 11
209.02
 21
156.546
  0
LINE
  8
0
 10
209.02
 20
156.546
 11
229.266
 21
156.546
  0
LINE
  8
0
 10
229.266
 20
156.546
 11
229.266
 21
170.623
  0
LINE
  8
0
 10
-24.3631
 20
170.623
 11
-44.609
 21
170.623
  0
LINE
  8
0
 10
-44.609
 20
170.623
 11
-44.609
 21
62.6136
  0
LINE
  8
0
 10
-44.609
 20
62.6136
 11
-24.3631
 21
62.6136
  0
LINE
  8
0
 10
-24.3631
 20
62.6136
 11
-24.3631
 21
170.623
  0
LINE
  8
0
 10
-85.3805
 20
74.5108
 11
-85.3889
 21
75.8864
  0
LINE
  8
0
 10
-85.3889
 20
75.8864
 11
-85.4475
 21
76.5928
  0
LINE
  8
0
 10
-85.4475
 20
76.5928
 11
-85.5112
 21
76.7648
  0
LINE
  8
0
 10
-85.5112
 20
76.7648
 11
-85.6064
 21
76.8531
  0
LINE
  8
0
 10
-85.6064
 20
76.8531
 11
-85.9159
 21
76.8902
  0
LINE
  8
0
 10
-85.9159
 20
76.8902
 11
-87.0246
 21
76.8972
  0
LINE
  8
0
 10
-87.0246
 20
76.8972
 11
-88.3615
 21
76.9458
  0
LINE
  8
0
 10
-88.3615
 20
76.9458
 11
-89.4474
 21
77.071
  0
LINE
  8
0
 10
-89.4474
 20
77.071
 11
-89.8603
 21
77.1648
  0
LINE
  8
0
 10
-89.8603
 20
77.1648
 11
-90.1865
 21
77.2794
  0
LINE
  8
0
 10
-90.1865
 20
77.2794
 11
-90.4297
 21
77.4141
  0
LINE
  8
0
 10
-90.4297
 20
77.4141
 11
-90.6078
 21
77.5644
  0
LINE
  8
0
 10
-90.6078
 20
77.5644
 11
-90.8557
 21
77.8909
  0
LINE
  8
0
 10
-90.8557
 20
77.8909
 11
-91.0702
 21
78.2783
  0
LINE
  8
0
 10
-91.0702
 20
78.2783
 11
-91.1688
 21
78.5727
  0
LINE
  8
0
 10
-91.1688
 20
78.5727
 11
-91.2572
 21
78.988
  0
LINE
  8
0
 10
-91.2572
 20
78.988
 11
-91.3941
 21
80.289
  0
LINE
  8
0
 10
-91.3941
 20
80.289
 11
-91.4762
 21
82.2348
  0
LINE
  8
0
 10
-91.4762
 20
82.2348
 11
-91.5128
 21
86.6601
  0
LINE
  8
0
 10
-91.5128
 20
86.6601
 11
-91.5128
 21
134.998
  0
LINE
  8
0
 10
-91.5128
 20
134.998
 11
-86.2079
 21
134.998
  0
LINE
  8
0
 10
-86.2079
 20
134.998
 11
-86.2079
 21
149.008
  0
LINE
  8
0
 10
-86.2079
 20
149.008
 11
-91.5128
 21
149.008
  0
LINE
  8
0
 10
-91.5128
 20
149.008
 11
-91.5128
 21
162.951
  0
LINE
  8
0
 10
-91.5128
 20
162.951
 11
-111.223
 21
162.951
  0
LINE
  8
0
 10
-111.223
 20
162.951
 11
-111.223
 21
149.008
  0
LINE
  8
0
 10
-111.223
 20
149.008
 11
-115.457
 21
149.008
  0
LINE
  8
0
 10
-115.457
 20
149.008
 11
-115.457
 21
134.998
  0
LINE
  8
0
 10
-115.457
 20
134.998
 11
-111.223
 21
134.998
  0
LINE
  8
0
 10
-111.223
 20
134.998
 11
-111.223
 21
88.5652
  0
LINE
  8
0
 10
-111.223
 20
88.5652
 11
-111.193
 21
81.7623
  0
LINE
  8
0
 10
-111.193
 20
81.7623
 11
-111.127
 21
78.5641
  0
LINE
  8
0
 10
-111.127
 20
78.5641
 11
-111.015
 21
76.1694
  0
LINE
  8
0
 10
-111.015
 20
76.1694
 11
-110.863
 21
74.511
  0
LINE
  8
0
 10
-110.863
 20
74.511
 11
-110.688
 21
73.2543
  0
LINE
  8
0
 10
-110.688
 20
73.2543
 11
-110.498
 21
72.0702
  0
LINE
  8
0
 10
-110.498
 20
72.0702
 11
-110.239
 21
70.9194
  0
LINE
  8
0
 10
-110.239
 20
70.9194
 11
-109.854
 21
69.8297
  0
LINE
  8
0
 10
-109.854
 20
69.8297
 11
-109.331
 21
68.8068
  0
LINE
  8
0
 10
-109.331
 20
68.8068
 11
-108.681
 21
67.845
  0
LINE
  8
0
 10
-108.681
 20
67.845
 11
-107.962
 21
66.9165
  0
LINE
  8
0
 10
-107.962
 20
66.9165
 11
-107.228
 21
66.0076
  0
LINE
  8
0
 10
-107.228
 20
66.0076
 11
-106.465
 21
65.182
  0
LINE
  8
0
 10
-106.465
 20
65.182
 11
-105.649
 21
64.5093
  0
LINE
  8
0
 10
-105.649
 20
64.5093
 11
-105.221
 21
64.2355
  0
LINE
  8
0
 10
-105.221
 20
64.2355
 11
-104.777
 21
64.0034
  0
LINE
  8
0
 10
-104.777
 20
64.0034
 11
-103.853
 21
63.6504
  0
LINE
  8
0
 10
-103.853
 20
63.6504
 11
-102.901
 21
63.3808
  0
LINE
  8
0
 10
-102.901
 20
63.3808
 11
-101.917
 21
63.1304
  0
LINE
  8
0
 10
-101.917
 20
63.1304
 11
-100.773
 21
62.9119
  0
LINE
  8
0
 10
-100.773
 20
62.9119
 11
-99.3354
 21
62.7521
  0
LINE
  8
0
 10
-99.3354
 20
62.7521
 11
-97.5773
 21
62.6562
  0
LINE
  8
0
 10
-97.5773
 20
62.6562
 11
-94.0597
 21
62.6136
  0
LINE
  8
0
 10
-94.0597
 20
62.6136
 11
-85.3805
 21
62.6136
  0
LINE
  8
0
 10
-85.3805
 20
62.6136
 11
-85.3805
 21
74.5108
  0
LINE
  8
0
 10
46.8298
 20
74.5108
 11
46.8215
 21
75.8864
  0
LINE
  8
0
 10
46.8215
 20
75.8864
 11
46.7629
 21
76.5928
  0
LINE
  8
0
 10
46.7629
 20
76.5928
 11
46.6991
 21
76.7648
  0
LINE
  8
0
 10
46.6991
 20
76.7648
 11
46.604
 21
76.8531
  0
LINE
  8
0
 10
46.604
 20
76.8531
 11
46.2945
 21
76.8902
  0
LINE
  8
0
 10
46.2945
 20
76.8902
 11
45.1858
 21
76.8972
  0
LINE
  8
0
 10
45.1858
 20
76.8972
 11
43.8489
 21
76.9458
  0
LINE
  8
0
 10
43.8489
 20
76.9458
 11
42.7631
 21
77.071
  0
LINE
  8
0
 10
42.7631
 20
77.071
 11
42.3501
 21
77.1648
  0
LINE
  8
0
 10
42.3501
 20
77.1648
 11
42.0238
 21
77.2794
  0
LINE
  8
0
 10
42.0238
 20
77.2794
 11
41.7807
 21
77.4141
  0
LINE
  8
0
 10
41.7807
 20
77.4141
 11
41.6026
 21
77.5644
  0
LINE
  8
0
 10
41.6026
 20
77.5644
 11
41.3548
 21
77.8909
  0
LINE
  8
0
 10
41.3548
 20
77.8909
 11
41.1403
 21
78.2783
  0
LINE
  8
0
 10
41.1403
 20
78.2783
 11
41.0416
 21
78.5727
  0
LINE
  8
0
 10
41.0416
 20
78.5727
 11
40.9532
 21
78.988
  0
LINE
  8
0
 10
40.9532
 20
78.988
 11
40.8163
 21
80.289
  0
LINE
  8
0
 10
40.8163
 20
80.289
 11
40.7341
 21
82.2348
  0
LINE
  8
0
 10
40.7341
 20
82.2348
 11
40.6977
 21
86.6601
  0
LINE
  8
0
 10
40.6977
 20
86.6601
 11
40.6977
 21
134.998
  0
LINE
  8
0
 10
40.6977
 20
134.998
 11
46.0025
 21
134.998
  0
LINE
  8
0
 10
46.0025
 20
134.998
 11
46.0025
 21
149.008
  0
LINE
  8
0
 10
46.0025
 20
149.008
 11
40.6977
 21
149.008
  0
LINE
  8
0
 10
40.6977
 20
149.008
 11
40.6977
 21
162.951
  0
LINE
  8
0
 10
40.6977
 20
162.951
 11
20.9872
 21
162.951
  0
LINE
  8
0
 10
20.9872
 20
162.951
 11
20.9872
 21
149.008
  0
LINE
  8
0
 10
20.9872
 20
149.008
 11
16.7531
 21
149.008
  0
LINE
  8
0
 10
16.7531
 20
149.008
 11
16.7531
 21
134.998
  0
LINE
  8
0
 10
16.7531
 20
134.998
 11
20.9872
 21
134.998
  0
LINE
  8
0
 10
20.9872
 20
134.998
 11
20.9872
 21
88.5652
  0
LINE
  8
0
 10
20.9872
 20
88.5652
 11
21.0169
 21
81.7623
  0
LINE
  8
0
 10
21.0169
 20
81.7623
 11
21.0839
 21
78.5641
  0
LINE
  8
0
 10
21.0839
 20
78.5641
 11
21.1954
 21
76.1694
  0
LINE
  8
0
 10
21.1954
 20
76.1694
 11
21.3478
 21
74.511
  0
LINE
  8
0
 10
21.3478
 20
74.511
 11
21.5226
 21
73.2543
  0
LINE
  8
0
 10
21.5226
 20
73.2543
 11
21.7125
 21
72.0702
  0
LINE
  8
0
 10
21.7125
 20
72.0702
 11
21.9713
 21
70.9194
  0
LINE
  8
0
 10
21.9713
 20
70.9194
 11
22.3567
 21
69.8297
  0
LINE
  8
0
 10
22.3567
 20
69.8297
 11
22.8799
 21
68.8068
  0
LINE
  8
0
 10
22.8799
 20
68.8068
 11
23.5295
 21
67.845
  0
LINE
  8
0
 10
23.5295
 20
67.845
 11
24.248
 21
66.9165
  0
LINE
  8
0
 10
24.248
 20
66.9165
 11
24.9827
 21
66.0076
  0
LINE
  8
0
 10
24.9827
 20
66.0076
 11
25.7458
 21
65.182
  0
LINE
  8
0
 10
25.7458
 20
65.182
 11
26.561
 21
64.5093
  0
LINE
  8
0
 10
26.561
 20
64.5093
 11
26.9899
 21
64.2355
  0
LINE
  8
0
 10
26.9899
 20
64.2355
 11
27.4329
 21
64.0034
  0
LINE
  8
0
 10
27.4329
 20
64.0034
 11
28.357
 21
63.6504
  0
LINE
  8
0
 10
28.357
 20
63.6504
 11
29.3094
 21
63.3808
  0
LINE
  8
0
 10
29.3094
 20
63.3808
 11
30.2932
 21
63.1304
  0
LINE
  8
0
 10
30.2932
 20
63.1304
 11
31.4373
 21
62.9119
  0
LINE
  8
0
 10
31.4373
 20
62.9119
 11
32.875
 21
62.7521
  0
LINE
  8
0
 10
32.875
 20
62.7521
 11
34.6331
 21
62.6562
  0
LINE
  8
0
 10
34.6331
 20
62.6562
 11
38.1508
 21
62.6136
  0
LINE
  8
0
 10
38.1508
 20
62.6136
 11
46.8298
 21
62.6136
  0
LINE
  8
0
 10
46.8298
 20
62.6136
 11
46.8298
 21
74.5108
  0
LINE
  8
0
 10
-351.462
 20
61.0298
 11
-350.429
 21
61.071
  0
LINE
  8
0
 10
-350.429
 20
61.071
 11
-349.428
 21
61.1513
  0
LINE
  8
0
 10
-349.428
 20
61.1513
 11
-348.47
 21
61.2817
  0
LINE
  8
0
 10
-348.47
 20
61.2817
 11
-347.557
 21
61.4641
  0
LINE
  8
0
 10
-347.557
 20
61.4641
 11
-346.69
 21
61.6986
  0
LINE
  8
0
 10
-346.69
 20
61.6986
 11
-345.867
 21
61.9853
  0
LINE
  8
0
 10
-345.867
 20
61.9853
 11
-345.088
 21
62.3219
  0
LINE
  8
0
 10
-345.088
 20
62.3219
 11
-344.342
 21
62.6976
  0
LINE
  8
0
 10
-344.342
 20
62.6976
 11
-342.908
 21
63.5142
  0
LINE
  8
0
 10
-342.908
 20
63.5142
 11
-341.499
 21
64.3654
  0
LINE
  8
0
 10
-341.499
 20
64.3654
 11
-340.814
 21
64.8236
  0
LINE
  8
0
 10
-340.814
 20
64.8236
 11
-340.151
 21
65.3209
  0
LINE
  8
0
 10
-340.151
 20
65.3209
 11
-339.519
 21
65.8682
  0
LINE
  8
0
 10
-339.519
 20
65.8682
 11
-338.918
 21
66.4676
  0
LINE
  8
0
 10
-338.918
 20
66.4676
 11
-338.347
 21
67.1191
  0
LINE
  8
0
 10
-338.347
 20
67.1191
 11
-337.807
 21
67.8227
  0
LINE
  8
0
 10
-337.807
 20
67.8227
 11
-337.297
 21
68.5763
  0
LINE
  8
0
 10
-337.297
 20
68.5763
 11
-336.81
 21
69.369
  0
LINE
  8
0
 10
-336.81
 20
69.369
 11
-335.876
 21
71.0194
  0
LINE
  8
0
 10
-335.876
 20
71.0194
 11
-334.965
 21
72.6831
  0
LINE
  8
0
 10
-334.965
 20
72.6831
 11
-334.138
 21
74.3218
  0
LINE
  8
0
 10
-334.138
 20
74.3218
 11
-333.466
 21
75.9146
  0
LINE
  8
0
 10
-333.466
 20
75.9146
 11
-332.962
 21
77.4573
  0
LINE
  8
0
 10
-332.962
 20
77.4573
 11
-332.613
 21
78.9542
  0
LINE
  8
0
 10
-332.613
 20
78.9542
 11
-332.347
 21
80.4261
  0
LINE
  8
0
 10
-332.347
 20
80.4261
 11
-332.101
 21
81.9202
  0
LINE
  8
0
 10
-332.101
 20
81.9202
 11
-331.886
 21
83.5728
  0
LINE
  8
0
 10
-331.886
 20
83.5728
 11
-331.729
 21
85.5158
  0
LINE
  8
0
 10
-331.729
 20
85.5158
 11
-331.635
 21
87.7758
  0
LINE
  8
0
 10
-331.635
 20
87.7758
 11
-331.592
 21
92.1233
  0
LINE
  8
0
 10
-331.592
 20
92.1233
 11
-331.592
 21
99.573
  0
LINE
  8
0
 10
-331.592
 20
99.573
 11
-350.232
 21
99.573
  0
LINE
  8
0
 10
-350.232
 20
99.573
 11
-350.232
 21
87.1642
  0
LINE
  8
0
 10
-350.232
 20
87.1642
 11
-350.274
 21
83.734
  0
LINE
  8
0
 10
-350.274
 20
83.734
 11
-350.369
 21
82.0703
  0
LINE
  8
0
 10
-350.369
 20
82.0703
 11
-350.526
 21
80.7652
  0
LINE
  8
0
 10
-350.526
 20
80.7652
 11
-350.741
 21
79.7888
  0
LINE
  8
0
 10
-350.741
 20
79.7888
 11
-350.987
 21
78.9918
  0
LINE
  8
0
 10
-350.987
 20
78.9918
 11
-351.249
 21
78.2405
  0
LINE
  8
0
 10
-351.249
 20
78.2405
 11
-351.572
 21
77.5852
  0
LINE
  8
0
 10
-351.572
 20
77.5852
 11
-351.775
 21
77.3214
  0
LINE
  8
0
 10
-351.775
 20
77.3214
 11
-352.009
 21
77.1057
  0
LINE
  8
0
 10
-352.009
 20
77.1057
 11
-352.274
 21
76.9379
  0
LINE
  8
0
 10
-352.274
 20
76.9379
 11
-352.57
 21
76.818
  0
LINE
  8
0
 10
-352.57
 20
76.818
 11
-352.895
 21
76.7441
  0
LINE
  8
0
 10
-352.895
 20
76.7441
 11
-353.238
 21
76.7061
  0
LINE
  8
0
 10
-353.238
 20
76.7061
 11
-353.931
 21
76.6901
  0
LINE
  8
0
 10
-353.931
 20
76.6901
 11
-354.566
 21
76.7022
  0
LINE
  8
0
 10
-354.566
 20
76.7022
 11
-355.115
 21
76.7865
  0
LINE
  8
0
 10
-355.115
 20
76.7865
 11
-355.355
 21
76.8768
  0
LINE
  8
0
 10
-355.355
 20
76.8768
 11
-355.57
 21
77.0033
  0
LINE
  8
0
 10
-355.57
 20
77.0033
 11
-355.76
 21
77.1659
  0
LINE
  8
0
 10
-355.76
 20
77.1659
 11
-355.927
 21
77.3647
  0
LINE
  8
0
 10
-355.927
 20
77.3647
 11
-356.194
 21
77.8585
  0
LINE
  8
0
 10
-356.194
 20
77.8585
 11
-356.413
 21
78.4247
  0
LINE
  8
0
 10
-356.413
 20
78.4247
 11
-356.62
 21
79.0325
  0
LINE
  8
0
 10
-356.62
 20
79.0325
 11
-356.8
 21
79.8182
  0
LINE
  8
0
 10
-356.8
 20
79.8182
 11
-356.932
 21
80.9301
  0
LINE
  8
0
 10
-356.932
 20
80.9301
 11
-357.011
 21
82.3978
  0
LINE
  8
0
 10
-357.011
 20
82.3978
 11
-357.046
 21
85.4963
  0
LINE
  8
0
 10
-357.046
 20
85.4963
 11
-357.046
 21
105.31
  0
LINE
  8
0
 10
-357.046
 20
105.31
 11
-331.592
 21
105.31
  0
LINE
  8
0
 10
-331.592
 20
105.31
 11
-331.592
 21
118.483
  0
LINE
  8
0
 10
-331.592
 20
118.483
 11
-331.608
 21
121.483
  0
LINE
  8
0
 10
-331.608
 20
121.483
 11
-331.713
 21
125.315
  0
LINE
  8
0
 10
-331.713
 20
125.315
 11
-331.826
 21
127.161
  0
LINE
  8
0
 10
-331.826
 20
127.161
 11
-331.984
 21
128.886
  0
LINE
  8
0
 10
-331.984
 20
128.886
 11
-332.187
 21
130.491
  0
LINE
  8
0
 10
-332.187
 20
130.491
 11
-332.435
 21
131.975
  0
LINE
  8
0
 10
-332.435
 20
131.975
 11
-332.726
 21
133.345
  0
LINE
  8
0
 10
-332.726
 20
133.345
 11
-333.052
 21
134.624
  0
LINE
  8
0
 10
-333.052
 20
134.624
 11
-333.758
 21
137.033
  0
LINE
  8
0
 10
-333.758
 20
137.033
 11
-334.503
 21
139.382
  0
LINE
  8
0
 10
-334.503
 20
139.382
 11
-334.917
 21
140.52
  0
LINE
  8
0
 10
-334.917
 20
140.52
 11
-335.381
 21
141.614
  0
LINE
  8
0
 10
-335.381
 20
141.614
 11
-335.909
 21
142.652
  0
LINE
  8
0
 10
-335.909
 20
142.652
 11
-336.504
 21
143.632
  0
LINE
  8
0
 10
-336.504
 20
143.632
 11
-337.166
 21
144.553
  0
LINE
  8
0
 10
-337.166
 20
144.553
 11
-337.895
 21
145.416
  0
LINE
  8
0
 10
-337.895
 20
145.416
 11
-338.688
 21
146.224
  0
LINE
  8
0
 10
-338.688
 20
146.224
 11
-339.532
 21
146.987
  0
LINE
  8
0
 10
-339.532
 20
146.987
 11
-341.302
 21
148.441
  0
LINE
  8
0
 10
-341.302
 20
148.441
 11
-343.115
 21
149.845
  0
LINE
  8
0
 10
-343.115
 20
149.845
 11
-344.059
 21
150.491
  0
LINE
  8
0
 10
-344.059
 20
150.491
 11
-345.048
 21
151.07
  0
LINE
  8
0
 10
-345.048
 20
151.07
 11
-346.095
 21
151.563
  0
LINE
  8
0
 10
-346.095
 20
151.563
 11
-347.203
 21
151.967
  0
LINE
  8
0
 10
-347.203
 20
151.967
 11
-348.37
 21
152.281
  0
LINE
  8
0
 10
-348.37
 20
152.281
 11
-349.599
 21
152.505
  0
LINE
  8
0
 10
-349.599
 20
152.505
 11
-350.882
 21
152.643
  0
LINE
  8
0
 10
-350.882
 20
152.643
 11
-352.195
 21
152.714
  0
LINE
  8
0
 10
-352.195
 20
152.714
 11
-354.786
 21
152.744
  0
LINE
  8
0
 10
-354.786
 20
152.744
 11
-357.176
 21
152.719
  0
LINE
  8
0
 10
-357.176
 20
152.719
 11
-358.297
 21
152.66
  0
LINE
  8
0
 10
-358.297
 20
152.66
 11
-359.377
 21
152.546
  0
LINE
  8
0
 10
-359.377
 20
152.546
 11
-360.423
 21
152.36
  0
LINE
  8
0
 10
-360.423
 20
152.36
 11
-361.437
 21
152.099
  0
LINE
  8
0
 10
-361.437
 20
152.099
 11
-362.418
 21
151.765
  0
LINE
  8
0
 10
-362.418
 20
151.765
 11
-363.367
 21
151.356
  0
LINE
  8
0
 10
-363.367
 20
151.356
 11
-364.285
 21
150.876
  0
LINE
  8
0
 10
-364.285
 20
150.876
 11
-365.179
 21
150.34
  0
LINE
  8
0
 10
-365.179
 20
150.34
 11
-366.926
 21
149.175
  0
LINE
  8
0
 10
-366.926
 20
149.175
 11
-368.641
 21
147.963
  0
LINE
  8
0
 10
-368.641
 20
147.963
 11
-369.461
 21
147.317
  0
LINE
  8
0
 10
-369.461
 20
147.317
 11
-370.235
 21
146.621
  0
LINE
  8
0
 10
-370.235
 20
146.621
 11
-370.951
 21
145.863
  0
LINE
  8
0
 10
-370.951
 20
145.863
 11
-371.606
 21
145.039
  0
LINE
  8
0
 10
-371.606
 20
145.039
 11
-372.2
 21
144.151
  0
LINE
  8
0
 10
-372.2
 20
144.151
 11
-372.733
 21
143.196
  0
LINE
  8
0
 10
-372.733
 20
143.196
 11
-373.208
 21
142.18
  0
LINE
  8
0
 10
-373.208
 20
142.18
 11
-373.638
 21
141.114
  0
LINE
  8
0
 10
-373.638
 20
141.114
 11
-374.42
 21
138.901
  0
LINE
  8
0
 10
-374.42
 20
138.901
 11
-375.167
 21
136.632
  0
LINE
  8
0
 10
-375.167
 20
136.632
 11
-375.51
 21
135.433
  0
LINE
  8
0
 10
-375.51
 20
135.433
 11
-375.818
 21
134.158
  0
LINE
  8
0
 10
-375.818
 20
134.158
 11
-376.08
 21
132.786
  0
LINE
  8
0
 10
-376.08
 20
132.786
 11
-376.295
 21
131.311
  0
LINE
  8
0
 10
-376.295
 20
131.311
 11
-376.462
 21
129.733
  0
LINE
  8
0
 10
-376.462
 20
129.733
 11
-376.581
 21
128.054
  0
LINE
  8
0
 10
-376.581
 20
128.054
 11
-376.692
 21
124.584
  0
LINE
  8
0
 10
-376.692
 20
124.584
 11
-376.708
 21
121.878
  0
LINE
  8
0
 10
-376.708
 20
121.878
 11
-376.708
 21
93.6725
  0
LINE
  8
0
 10
-376.708
 20
93.6725
 11
-376.701
 21
91.3739
  0
LINE
  8
0
 10
-376.701
 20
91.3739
 11
-376.651
 21
88.4485
  0
LINE
  8
0
 10
-376.651
 20
88.4485
 11
-376.523
 21
85.7451
  0
LINE
  8
0
 10
-376.523
 20
85.7451
 11
-376.31
 21
83.4337
  0
LINE
  8
0
 10
-376.31
 20
83.4337
 11
-376.019
 21
81.4817
  0
LINE
  8
0
 10
-376.019
 20
81.4817
 11
-375.686
 21
79.7256
  0
LINE
  8
0
 10
-375.686
 20
79.7256
 11
-375.334
 21
78.0082
  0
LINE
  8
0
 10
-375.334
 20
78.0082
 11
-374.914
 21
76.3269
  0
LINE
  8
0
 10
-374.914
 20
76.3269
 11
-374.369
 21
74.7119
  0
LINE
  8
0
 10
-374.369
 20
74.7119
 11
-373.689
 21
73.1691
  0
LINE
  8
0
 10
-373.689
 20
73.1691
 11
-372.884
 21
71.6926
  0
LINE
  8
0
 10
-372.884
 20
71.6926
 11
-372.011
 21
70.2522
  0
LINE
  8
0
 10
-372.011
 20
70.2522
 11
-371.113
 21
68.8306
  0
LINE
  8
0
 10
-371.113
 20
68.8306
 11
-370.636
 21
68.1437
  0
LINE
  8
0
 10
-370.636
 20
68.1437
 11
-370.125
 21
67.4855
  0
LINE
  8
0
 10
-370.125
 20
67.4855
 11
-369.573
 21
66.8639
  0
LINE
  8
0
 10
-369.573
 20
66.8639
 11
-368.977
 21
66.2805
  0
LINE
  8
0
 10
-368.977
 20
66.2805
 11
-368.336
 21
65.7353
  0
LINE
  8
0
 10
-368.336
 20
65.7353
 11
-367.651
 21
65.2283
  0
LINE
  8
0
 10
-367.651
 20
65.2283
 11
-366.925
 21
64.758
  0
LINE
  8
0
 10
-366.925
 20
64.758
 11
-366.165
 21
64.3164
  0
LINE
  8
0
 10
-366.165
 20
64.3164
 11
-364.589
 21
63.4808
  0
LINE
  8
0
 10
-364.589
 20
63.4808
 11
-362.989
 21
62.6751
  0
LINE
  8
0
 10
-362.989
 20
62.6751
 11
-362.171
 21
62.3044
  0
LINE
  8
0
 10
-362.171
 20
62.3044
 11
-361.329
 21
61.9723
  0
LINE
  8
0
 10
-361.329
 20
61.9723
 11
-360.458
 21
61.6895
  0
LINE
  8
0
 10
-360.458
 20
61.6895
 11
-359.556
 21
61.4581
  0
LINE
  8
0
 10
-359.556
 20
61.4581
 11
-358.625
 21
61.2781
  0
LINE
  8
0
 10
-358.625
 20
61.2781
 11
-357.663
 21
61.1495
  0
LINE
  8
0
 10
-357.663
 20
61.1495
 11
-356.671
 21
61.0703
  0
LINE
  8
0
 10
-356.671
 20
61.0703
 11
-355.654
 21
61.0296
  0
LINE
  8
0
 10
-355.654
 20
61.0296
 11
-353.569
 21
61.0124
  0
LINE
  8
0
 10
-353.569
 20
61.0124
 11
-351.462
 21
61.0298
  0
LINE
  8
0
 10
-357.046
 20
119.721
 11
-357.046
 21
127.022
  0
LINE
  8
0
 10
-357.046
 20
127.022
 11
-357.018
 21
130.852
  0
LINE
  8
0
 10
-357.018
 20
130.852
 11
-356.957
 21
132.622
  0
LINE
  8
0
 10
-356.957
 20
132.622
 11
-356.856
 21
133.91
  0
LINE
  8
0
 10
-356.856
 20
133.91
 11
-356.717
 21
134.758
  0
LINE
  8
0
 10
-356.717
 20
134.758
 11
-356.558
 21
135.365
  0
LINE
  8
0
 10
-356.558
 20
135.365
 11
-356.385
 21
135.92
  0
LINE
  8
0
 10
-356.385
 20
135.92
 11
-356.147
 21
136.405
  0
LINE
  8
0
 10
-356.147
 20
136.405
 11
-355.985
 21
136.599
  0
LINE
  8
0
 10
-355.985
 20
136.599
 11
-355.79
 21
136.759
  0
LINE
  8
0
 10
-355.79
 20
136.759
 11
-355.563
 21
136.883
  0
LINE
  8
0
 10
-355.563
 20
136.883
 11
-355.304
 21
136.972
  0
LINE
  8
0
 10
-355.304
 20
136.972
 11
-354.703
 21
137.054
  0
LINE
  8
0
 10
-354.703
 20
137.054
 11
-354.071
 21
137.066
  0
LINE
  8
0
 10
-354.071
 20
137.066
 11
-353.489
 21
137.052
  0
LINE
  8
0
 10
-353.489
 20
137.052
 11
-352.986
 21
136.955
  0
LINE
  8
0
 10
-352.986
 20
136.955
 11
-352.769
 21
136.851
  0
LINE
  8
0
 10
-352.769
 20
136.851
 11
-352.575
 21
136.705
  0
LINE
  8
0
 10
-352.575
 20
136.705
 11
-352.404
 21
136.517
  0
LINE
  8
0
 10
-352.404
 20
136.517
 11
-352.257
 21
136.288
  0
LINE
  8
0
 10
-352.257
 20
136.288
 11
-352.024
 21
135.718
  0
LINE
  8
0
 10
-352.024
 20
135.718
 11
-351.837
 21
135.065
  0
LINE
  8
0
 10
-351.837
 20
135.065
 11
-351.663
 21
134.364
  0
LINE
  8
0
 10
-351.663
 20
134.364
 11
-351.51
 21
133.46
  0
LINE
  8
0
 10
-351.51
 20
133.46
 11
-351.399
 21
132.184
  0
LINE
  8
0
 10
-351.399
 20
132.184
 11
-351.332
 21
130.502
  0
LINE
  8
0
 10
-351.332
 20
130.502
 11
-351.302
 21
126.955
  0
LINE
  8
0
 10
-351.302
 20
126.955
 11
-351.302
 21
119.721
  0
LINE
  8
0
 10
-351.302
 20
119.721
 11
-357.046
 21
119.721
  0
LINE
  8
0
 10
264.952
 20
61.0321
 11
266.027
 21
61.0789
  0
LINE
  8
0
 10
266.027
 20
61.0789
 11
267.049
 21
61.1699
  0
LINE
  8
0
 10
267.049
 20
61.1699
 11
268.027
 21
61.3176
  0
LINE
  8
0
 10
268.027
 20
61.3176
 11
268.962
 21
61.5244
  0
LINE
  8
0
 10
268.962
 20
61.5244
 11
269.852
 21
61.7902
  0
LINE
  8
0
 10
269.852
 20
61.7902
 11
270.7
 21
62.115
  0
LINE
  8
0
 10
270.7
 20
62.115
 11
271.505
 21
62.4965
  0
LINE
  8
0
 10
271.505
 20
62.4965
 11
272.278
 21
62.9223
  0
LINE
  8
0
 10
272.278
 20
62.9223
 11
273.768
 21
63.8478
  0
LINE
  8
0
 10
273.768
 20
63.8478
 11
275.233
 21
64.8118
  0
LINE
  8
0
 10
275.233
 20
64.8118
 11
275.943
 21
65.3295
  0
LINE
  8
0
 10
275.943
 20
65.3295
 11
276.628
 21
65.89
  0
LINE
  8
0
 10
276.628
 20
65.89
 11
277.278
 21
66.505
  0
LINE
  8
0
 10
277.278
 20
66.505
 11
277.894
 21
67.177
  0
LINE
  8
0
 10
277.894
 20
67.177
 11
278.475
 21
67.9059
  0
LINE
  8
0
 10
278.475
 20
67.9059
 11
279.02
 21
68.6919
  0
LINE
  8
0
 10
279.02
 20
68.6919
 11
279.533
 21
69.5325
  0
LINE
  8
0
 10
279.533
 20
69.5325
 11
280.019
 21
70.4158
  0
LINE
  8
0
 10
280.019
 20
70.4158
 11
280.947
 21
72.2536
  0
LINE
  8
0
 10
280.947
 20
72.2536
 11
281.848
 21
74.1087
  0
LINE
  8
0
 10
281.848
 20
74.1087
 11
282.656
 21
75.9526
  0
LINE
  8
0
 10
282.656
 20
75.9526
 11
283.292
 21
77.7761
  0
LINE
  8
0
 10
283.292
 20
77.7761
 11
283.541
 21
78.6795
  0
LINE
  8
0
 10
283.541
 20
78.6795
 11
283.743
 21
79.5773
  0
LINE
  8
0
 10
283.743
 20
79.5773
 11
284.022
 21
81.3582
  0
LINE
  8
0
 10
284.022
 20
81.3582
 11
284.208
 21
83.128
  0
LINE
  8
0
 10
284.208
 20
83.128
 11
284.375
 21
84.9328
  0
LINE
  8
0
 10
284.375
 20
84.9328
 11
284.523
 21
86.9586
  0
LINE
  8
0
 10
284.523
 20
86.9586
 11
284.635
 21
89.3894
  0
LINE
  8
0
 10
284.635
 20
89.3894
 11
284.709
 21
92.2623
  0
LINE
  8
0
 10
284.709
 20
92.2623
 11
284.762
 21
97.8606
  0
LINE
  8
0
 10
284.762
 20
97.8606
 11
284.758
 21
98.2497
  0
LINE
  8
0
 10
284.758
 20
98.2497
 11
284.719
 21
98.542
  0
LINE
  8
0
 10
284.719
 20
98.542
 11
284.612
 21
98.7515
  0
LINE
  8
0
 10
284.612
 20
98.7515
 11
284.402
 21
98.892
  0
LINE
  8
0
 10
284.402
 20
98.892
 11
284.054
 21
98.9771
  0
LINE
  8
0
 10
284.054
 20
98.9771
 11
283.535
 21
99.0209
  0
LINE
  8
0
 10
283.535
 20
99.0209
 11
281.847
 21
99.0393
  0
LINE
  8
0
 10
281.847
 20
99.0393
 11
267.247
 21
99.0393
  0
LINE
  8
0
 10
267.247
 20
99.0393
 11
267.247
 21
87.735
  0
LINE
  8
0
 10
267.247
 20
87.735
 11
267.208
 21
84.1621
  0
LINE
  8
0
 10
267.208
 20
84.1621
 11
267.119
 21
82.422
  0
LINE
  8
0
 10
267.119
 20
82.422
 11
266.972
 21
81.0488
  0
LINE
  8
0
 10
266.972
 20
81.0488
 11
266.771
 21
80.0119
  0
LINE
  8
0
 10
266.771
 20
80.0119
 11
266.541
 21
79.1585
  0
LINE
  8
0
 10
266.541
 20
79.1585
 11
266.297
 21
78.3529
  0
LINE
  8
0
 10
266.297
 20
78.3529
 11
265.999
 21
77.6501
  0
LINE
  8
0
 10
265.999
 20
77.6501
 11
265.814
 21
77.3672
  0
LINE
  8
0
 10
265.814
 20
77.3672
 11
265.603
 21
77.1358
  0
LINE
  8
0
 10
265.603
 20
77.1358
 11
265.364
 21
76.9558
  0
LINE
  8
0
 10
265.364
 20
76.9558
 11
265.099
 21
76.8272
  0
LINE
  8
0
 10
265.099
 20
76.8272
 11
264.808
 21
76.748
  0
LINE
  8
0
 10
264.808
 20
76.748
 11
264.5
 21
76.7073
  0
LINE
  8
0
 10
264.5
 20
76.7073
 11
263.872
 21
76.6901
  0
LINE
  8
0
 10
263.872
 20
76.6901
 11
263.282
 21
76.7066
  0
LINE
  8
0
 10
263.282
 20
76.7066
 11
263.008
 21
76.7457
  0
LINE
  8
0
 10
263.008
 20
76.7457
 11
262.75
 21
76.8217
  0
LINE
  8
0
 10
262.75
 20
76.8217
 11
262.51
 21
76.9451
  0
LINE
  8
0
 10
262.51
 20
76.9451
 11
262.286
 21
77.1177
  0
LINE
  8
0
 10
262.286
 20
77.1177
 11
262.08
 21
77.3398
  0
LINE
  8
0
 10
262.08
 20
77.3398
 11
261.891
 21
77.6111
  0
LINE
  8
0
 10
261.891
 20
77.6111
 11
261.558
 21
78.2855
  0
LINE
  8
0
 10
261.558
 20
78.2855
 11
261.261
 21
79.0585
  0
LINE
  8
0
 10
261.261
 20
79.0585
 11
260.975
 21
79.8643
  0
LINE
  8
0
 10
260.975
 20
79.8643
 11
260.725
 21
80.7689
  0
LINE
  8
0
 10
260.725
 20
80.7689
 11
260.543
 21
81.8544
  0
LINE
  8
0
 10
260.543
 20
81.8544
 11
260.433
 21
83.1373
  0
LINE
  8
0
 10
260.433
 20
83.1373
 11
260.391
 21
84.5352
  0
LINE
  8
0
 10
260.391
 20
84.5352
 11
260.385
 21
85.6372
  0
LINE
  8
0
 10
260.385
 20
85.6372
 11
260.385
 21
128.571
  0
LINE
  8
0
 10
260.385
 20
128.571
 11
260.417
 21
131.566
  0
LINE
  8
0
 10
260.417
 20
131.566
 11
260.49
 21
132.984
  0
LINE
  8
0
 10
260.49
 20
132.984
 11
260.612
 21
134.057
  0
LINE
  8
0
 10
260.612
 20
134.057
 11
260.778
 21
134.814
  0
LINE
  8
0
 10
260.778
 20
134.814
 11
260.969
 21
135.398
  0
LINE
  8
0
 10
260.969
 20
135.398
 11
261.171
 21
135.943
  0
LINE
  8
0
 10
261.171
 20
135.943
 11
261.42
 21
136.417
  0
LINE
  8
0
 10
261.42
 20
136.417
 11
261.755
 21
136.765
  0
LINE
  8
0
 10
261.755
 20
136.765
 11
262.183
 21
136.973
  0
LINE
  8
0
 10
262.183
 20
136.973
 11
262.696
 21
137.054
  0
LINE
  8
0
 10
262.696
 20
137.054
 11
263.256
 21
137.066
  0
LINE
  8
0
 10
263.256
 20
137.066
 11
263.816
 21
137.053
  0
LINE
  8
0
 10
263.816
 20
137.053
 11
264.332
 21
136.961
  0
LINE
  8
0
 10
264.332
 20
136.961
 11
264.56
 21
136.861
  0
LINE
  8
0
 10
264.56
 20
136.861
 11
264.766
 21
136.723
  0
LINE
  8
0
 10
264.766
 20
136.723
 11
264.95
 21
136.545
  0
LINE
  8
0
 10
264.95
 20
136.545
 11
265.111
 21
136.327
  0
LINE
  8
0
 10
265.111
 20
136.327
 11
265.374
 21
135.785
  0
LINE
  8
0
 10
265.374
 20
135.785
 11
265.592
 21
135.165
  0
LINE
  8
0
 10
265.592
 20
135.165
 11
265.799
 21
134.507
  0
LINE
  8
0
 10
265.799
 20
134.507
 11
265.979
 21
133.706
  0
LINE
  8
0
 10
265.979
 20
133.706
 11
266.111
 21
132.643
  0
LINE
  8
0
 10
266.111
 20
132.643
 11
266.19
 21
131.293
  0
LINE
  8
0
 10
266.19
 20
131.293
 11
266.225
 21
128.519
  0
LINE
  8
0
 10
266.225
 20
128.519
 11
266.225
 21
117.719
  0
LINE
  8
0
 10
266.225
 20
117.719
 11
284.767
 21
117.719
  0
LINE
  8
0
 10
284.767
 20
117.719
 11
284.715
 21
123.066
  0
LINE
  8
0
 10
284.715
 20
123.066
 11
284.573
 21
126.899
  0
LINE
  8
0
 10
284.573
 20
126.899
 11
284.366
 21
129.614
  0
LINE
  8
0
 10
284.366
 20
129.614
 11
284.117
 21
131.612
  0
LINE
  8
0
 10
284.117
 20
131.612
 11
283.846
 21
133.238
  0
LINE
  8
0
 10
283.846
 20
133.238
 11
283.561
 21
134.625
  0
LINE
  8
0
 10
283.561
 20
134.625
 11
282.967
 21
136.999
  0
LINE
  8
0
 10
282.967
 20
136.999
 11
282.341
 21
139.251
  0
LINE
  8
0
 10
282.341
 20
139.251
 11
281.981
 21
140.347
  0
LINE
  8
0
 10
281.981
 20
140.347
 11
281.563
 21
141.406
  0
LINE
  8
0
 10
281.563
 20
141.406
 11
281.073
 21
142.419
  0
LINE
  8
0
 10
281.073
 20
142.419
 11
280.507
 21
143.383
  0
LINE
  8
0
 10
280.507
 20
143.383
 11
279.865
 21
144.298
  0
LINE
  8
0
 10
279.865
 20
144.298
 11
279.146
 21
145.164
  0
LINE
  8
0
 10
279.146
 20
145.164
 11
278.355
 21
145.984
  0
LINE
  8
0
 10
278.355
 20
145.984
 11
277.507
 21
146.768
  0
LINE
  8
0
 10
277.507
 20
146.768
 11
275.715
 21
148.274
  0
LINE
  8
0
 10
275.715
 20
148.274
 11
273.883
 21
149.733
  0
LINE
  8
0
 10
273.883
 20
149.733
 11
272.937
 21
150.404
  0
LINE
  8
0
 10
272.937
 20
150.404
 11
271.957
 21
151.006
  0
LINE
  8
0
 10
271.957
 20
151.006
 11
270.932
 21
151.518
  0
LINE
  8
0
 10
270.932
 20
151.518
 11
269.86
 21
151.937
  0
LINE
  8
0
 10
269.86
 20
151.937
 11
268.742
 21
152.263
  0
LINE
  8
0
 10
268.742
 20
152.263
 11
267.577
 21
152.496
  0
LINE
  8
0
 10
267.577
 20
152.496
 11
266.367
 21
152.639
  0
LINE
  8
0
 10
266.367
 20
152.639
 11
265.122
 21
152.713
  0
LINE
  8
0
 10
265.122
 20
152.713
 11
262.569
 21
152.744
  0
LINE
  8
0
 10
262.569
 20
152.744
 11
260.011
 21
152.713
  0
LINE
  8
0
 10
260.011
 20
152.713
 11
258.76
 21
152.638
  0
LINE
  8
0
 10
258.76
 20
152.638
 11
257.546
 21
152.494
  0
LINE
  8
0
 10
257.546
 20
152.494
 11
256.378
 21
152.259
  0
LINE
  8
0
 10
256.378
 20
152.259
 11
255.258
 21
151.931
  0
LINE
  8
0
 10
255.258
 20
151.931
 11
254.188
 21
151.509
  0
LINE
  8
0
 10
254.188
 20
151.509
 11
253.166
 21
150.993
  0
LINE
  8
0
 10
253.166
 20
150.993
 11
252.19
 21
150.387
  0
LINE
  8
0
 10
252.19
 20
150.387
 11
251.251
 21
149.71
  0
LINE
  8
0
 10
251.251
 20
149.71
 11
249.434
 21
148.241
  0
LINE
  8
0
 10
249.434
 20
148.241
 11
247.66
 21
146.731
  0
LINE
  8
0
 10
247.66
 20
146.731
 11
246.821
 21
145.96
  0
LINE
  8
0
 10
246.821
 20
145.96
 11
246.041
 21
145.17
  0
LINE
  8
0
 10
246.041
 20
145.17
 11
245.336
 21
144.355
  0
LINE
  8
0
 10
245.336
 20
144.355
 11
244.709
 21
143.515
  0
LINE
  8
0
 10
244.709
 20
143.515
 11
244.16
 21
142.648
  0
LINE
  8
0
 10
244.16
 20
142.648
 11
243.689
 21
141.756
  0
LINE
  8
0
 10
243.689
 20
141.756
 11
243.293
 21
140.84
  0
LINE
  8
0
 10
243.293
 20
140.84
 11
242.955
 21
139.904
  0
LINE
  8
0
 10
242.955
 20
139.904
 11
242.378
 21
138
  0
LINE
  8
0
 10
242.378
 20
138
 11
241.837
 21
136.049
  0
LINE
  8
0
 10
241.837
 20
136.049
 11
241.589
 21
135.002
  0
LINE
  8
0
 10
241.589
 20
135.002
 11
241.366
 21
133.868
  0
LINE
  8
0
 10
241.366
 20
133.868
 11
241.177
 21
132.623
  0
LINE
  8
0
 10
241.177
 20
132.623
 11
241.022
 21
131.263
  0
LINE
  8
0
 10
241.022
 20
131.263
 11
240.815
 21
128.197
  0
LINE
  8
0
 10
240.815
 20
128.197
 11
240.734
 21
124.864
  0
LINE
  8
0
 10
240.734
 20
124.864
 11
240.723
 21
122.241
  0
LINE
  8
0
 10
240.723
 20
122.241
 11
240.723
 21
94.3989
  0
LINE
  8
0
 10
240.723
 20
94.3989
 11
240.737
 21
91.384
  0
LINE
  8
0
 10
240.737
 20
91.384
 11
240.835
 21
87.5367
  0
LINE
  8
0
 10
240.835
 20
87.5367
 11
240.94
 21
85.6871
  0
LINE
  8
0
 10
240.94
 20
85.6871
 11
241.087
 21
83.9605
  0
LINE
  8
0
 10
241.087
 20
83.9605
 11
241.277
 21
82.357
  0
LINE
  8
0
 10
241.277
 20
82.357
 11
241.508
 21
80.8765
  0
LINE
  8
0
 10
241.508
 20
80.8765
 11
241.78
 21
79.5138
  0
LINE
  8
0
 10
241.78
 20
79.5138
 11
242.083
 21
78.2433
  0
LINE
  8
0
 10
242.083
 20
78.2433
 11
242.743
 21
75.8562
  0
LINE
  8
0
 10
242.743
 20
75.8562
 11
243.436
 21
73.5319
  0
LINE
  8
0
 10
243.436
 20
73.5319
 11
243.819
 21
72.4105
  0
LINE
  8
0
 10
243.819
 20
72.4105
 11
244.247
 21
71.3382
  0
LINE
  8
0
 10
244.247
 20
71.3382
 11
244.732
 21
70.3285
  0
LINE
  8
0
 10
244.732
 20
70.3285
 11
245.276
 21
69.3841
  0
LINE
  8
0
 10
245.276
 20
69.3841
 11
245.88
 21
68.505
  0
LINE
  8
0
 10
245.88
 20
68.505
 11
246.543
 21
67.6912
  0
LINE
  8
0
 10
246.543
 20
67.6912
 11
247.262
 21
66.94
  0
LINE
  8
0
 10
247.262
 20
66.94
 11
248.027
 21
66.2379
  0
LINE
  8
0
 10
248.027
 20
66.2379
 11
249.629
 21
64.9151
  0
LINE
  8
0
 10
249.629
 20
64.9151
 11
251.275
 21
63.6414
  0
LINE
  8
0
 10
251.275
 20
63.6414
 11
252.143
 21
63.0553
  0
LINE
  8
0
 10
252.143
 20
63.0553
 11
253.066
 21
62.5302
  0
LINE
  8
0
 10
253.066
 20
62.5302
 11
254.057
 21
62.083
  0
LINE
  8
0
 10
254.057
 20
62.083
 11
255.12
 21
61.7171
  0
LINE
  8
0
 10
255.12
 20
61.7171
 11
256.255
 21
61.4325
  0
LINE
  8
0
 10
256.255
 20
61.4325
 11
257.462
 21
61.2292
  0
LINE
  8
0
 10
257.462
 20
61.2292
 11
258.735
 21
61.1039
  0
LINE
  8
0
 10
258.735
 20
61.1039
 11
260.043
 21
61.0395
  0
LINE
  8
0
 10
260.043
 20
61.0395
 11
262.618
 21
61.0124
  0
LINE
  8
0
 10
262.618
 20
61.0124
 11
264.952
 21
61.0321
  0
LINE
  8
0
 10
120.048
 20
61.0284
 11
121.939
 21
61.1403
  0
LINE
  8
0
 10
121.939
 20
61.1403
 11
122.843
 21
61.2602
  0
LINE
  8
0
 10
122.843
 20
61.2602
 11
123.719
 21
61.428
  0
LINE
  8
0
 10
123.719
 20
61.428
 11
124.567
 21
61.6438
  0
LINE
  8
0
 10
124.567
 20
61.6438
 11
125.387
 21
61.9075
  0
LINE
  8
0
 10
125.387
 20
61.9075
 11
126.18
 21
62.2171
  0
LINE
  8
0
 10
126.18
 20
62.2171
 11
126.952
 21
62.5628
  0
LINE
  8
0
 10
126.952
 20
62.5628
 11
128.462
 21
63.314
  0
LINE
  8
0
 10
128.462
 20
63.314
 11
129.952
 21
64.0988
  0
LINE
  8
0
 10
129.952
 20
64.0988
 11
130.675
 21
64.5243
  0
LINE
  8
0
 10
130.675
 20
64.5243
 11
131.373
 21
64.9893
  0
LINE
  8
0
 10
131.373
 20
64.9893
 11
132.038
 21
65.505
  0
LINE
  8
0
 10
132.038
 20
65.505
 11
132.67
 21
66.0734
  0
LINE
  8
0
 10
132.67
 20
66.0734
 11
133.267
 21
66.6947
  0
LINE
  8
0
 10
133.267
 20
66.6947
 11
133.831
 21
67.3687
  0
LINE
  8
0
 10
133.831
 20
67.3687
 11
134.361
 21
68.0934
  0
LINE
  8
0
 10
134.361
 20
68.0934
 11
134.867
 21
68.8578
  0
LINE
  8
0
 10
134.867
 20
68.8578
 11
135.835
 21
70.4524
  0
LINE
  8
0
 10
135.835
 20
70.4524
 11
136.779
 21
72.0697
  0
LINE
  8
0
 10
136.779
 20
72.0697
 11
137.639
 21
73.7177
  0
LINE
  8
0
 10
137.639
 20
73.7177
 11
138.013
 21
74.562
  0
LINE
  8
0
 10
138.013
 20
74.562
 11
138.347
 21
75.4216
  0
LINE
  8
0
 10
138.347
 20
75.4216
 11
138.638
 21
76.2965
  0
LINE
  8
0
 10
138.638
 20
76.2965
 11
138.888
 21
77.1868
  0
LINE
  8
0
 10
138.888
 20
77.1868
 11
139.277
 21
79.008
  0
LINE
  8
0
 10
139.277
 20
79.008
 11
139.583
 21
80.8597
  0
LINE
  8
0
 10
139.583
 20
80.8597
 11
139.869
 21
82.7608
  0
LINE
  8
0
 10
139.869
 20
82.7608
 11
140.118
 21
84.9274
  0
LINE
  8
0
 10
140.118
 20
84.9274
 11
140.301
 21
87.5807
  0
LINE
  8
0
 10
140.301
 20
87.5807
 11
140.41
 21
90.7648
  0
LINE
  8
0
 10
140.41
 20
90.7648
 11
140.453
 21
94.2699
  0
LINE
  8
0
 10
140.453
 20
94.2699
 11
140.459
 21
97.0452
  0
LINE
  8
0
 10
140.459
 20
97.0452
 11
140.459
 21
120.054
  0
LINE
  8
0
 10
140.459
 20
120.054
 11
140.431
 21
124.071
  0
LINE
  8
0
 10
140.431
 20
124.071
 11
140.357
 21
126.919
  0
LINE
  8
0
 10
140.357
 20
126.919
 11
140.248
 21
128.906
  0
LINE
  8
0
 10
140.248
 20
128.906
 11
140.116
 21
130.339
  0
LINE
  8
0
 10
140.116
 20
130.339
 11
139.823
 21
132.448
  0
LINE
  8
0
 10
139.823
 20
132.448
 11
139.51
 21
134.064
  0
LINE
  8
0
 10
139.51
 20
134.064
 11
139.182
 21
135.597
  0
LINE
  8
0
 10
139.182
 20
135.597
 11
138.786
 21
137.118
  0
LINE
  8
0
 10
138.786
 20
137.118
 11
138.266
 21
138.619
  0
LINE
  8
0
 10
138.266
 20
138.619
 11
137.61
 21
140.098
  0
LINE
  8
0
 10
137.61
 20
140.098
 11
136.83
 21
141.556
  0
LINE
  8
0
 10
136.83
 20
141.556
 11
135.981
 21
143.004
  0
LINE
  8
0
 10
135.981
 20
143.004
 11
135.107
 21
144.438
  0
LINE
  8
0
 10
135.107
 20
144.438
 11
134.641
 21
145.134
  0
LINE
  8
0
 10
134.641
 20
145.134
 11
134.141
 21
145.804
  0
LINE
  8
0
 10
134.141
 20
145.804
 11
133.599
 21
146.441
  0
LINE
  8
0
 10
133.599
 20
146.441
 11
133.011
 21
147.045
  0
LINE
  8
0
 10
133.011
 20
147.045
 11
132.378
 21
147.614
  0
LINE
  8
0
 10
132.378
 20
147.614
 11
131.7
 21
148.15
  0
LINE
  8
0
 10
131.7
 20
148.15
 11
130.979
 21
148.653
  0
LINE
  8
0
 10
130.979
 20
148.653
 11
130.224
 21
149.13
  0
LINE
  8
0
 10
130.224
 20
149.13
 11
128.657
 21
150.042
  0
LINE
  8
0
 10
128.657
 20
150.042
 11
127.062
 21
150.924
  0
LINE
  8
0
 10
127.062
 20
150.924
 11
126.24
 21
151.33
  0
LINE
  8
0
 10
126.24
 20
151.33
 11
125.389
 21
151.693
  0
LINE
  8
0
 10
125.389
 20
151.693
 11
124.501
 21
152.003
  0
LINE
  8
0
 10
124.501
 20
152.003
 11
123.573
 21
152.256
  0
LINE
  8
0
 10
123.573
 20
152.256
 11
122.607
 21
152.453
  0
LINE
  8
0
 10
122.607
 20
152.453
 11
121.601
 21
152.594
  0
LINE
  8
0
 10
121.601
 20
152.594
 11
120.556
 21
152.681
  0
LINE
  8
0
 10
120.556
 20
152.681
 11
119.469
 21
152.725
  0
LINE
  8
0
 10
119.469
 20
152.725
 11
117.152
 21
152.744
  0
LINE
  8
0
 10
117.152
 20
152.744
 11
114.667
 21
152.715
  0
LINE
  8
0
 10
114.667
 20
152.715
 11
113.415
 21
152.645
  0
LINE
  8
0
 10
113.415
 20
152.645
 11
112.193
 21
152.51
  0
LINE
  8
0
 10
112.193
 20
152.51
 11
111.026
 21
152.291
  0
LINE
  8
0
 10
111.026
 20
152.291
 11
109.918
 21
151.985
  0
LINE
  8
0
 10
109.918
 20
151.985
 11
108.869
 21
151.591
  0
LINE
  8
0
 10
108.869
 20
151.591
 11
107.878
 21
151.109
  0
LINE
  8
0
 10
107.878
 20
151.109
 11
106.944
 21
150.544
  0
LINE
  8
0
 10
106.944
 20
150.544
 11
106.054
 21
149.913
  0
LINE
  8
0
 10
106.054
 20
149.913
 11
104.347
 21
148.541
  0
LINE
  8
0
 10
104.347
 20
148.541
 11
102.682
 21
147.121
  0
LINE
  8
0
 10
102.682
 20
147.121
 11
101.889
 21
146.375
  0
LINE
  8
0
 10
101.889
 20
146.375
 11
101.146
 21
145.587
  0
LINE
  8
0
 10
101.146
 20
145.587
 11
100.465
 21
144.744
  0
LINE
  8
0
 10
100.465
 20
144.744
 11
99.8481
 21
143.844
  0
LINE
  8
0
 10
99.8481
 20
143.844
 11
99.2966
 21
142.887
  0
LINE
  8
0
 10
99.2966
 20
142.887
 11
98.8099
 21
141.873
  0
LINE
  8
0
 10
98.8099
 20
141.873
 11
98.3854
 21
140.805
  0
LINE
  8
0
 10
98.3854
 20
140.805
 11
98.0096
 21
139.693
  0
LINE
  8
0
 10
98.0096
 20
139.693
 11
97.339
 21
137.4
  0
LINE
  8
0
 10
97.339
 20
137.4
 11
96.7038
 21
135.049
  0
LINE
  8
0
 10
96.7038
 20
135.049
 11
96.4114
 21
133.804
  0
LINE
  8
0
 10
96.4114
 20
133.804
 11
96.1494
 21
132.474
  0
LINE
  8
0
 10
96.1494
 20
132.474
 11
95.9263
 21
131.036
  0
LINE
  8
0
 10
95.9263
 20
131.036
 11
95.7438
 21
129.486
  0
LINE
  8
0
 10
95.7438
 20
129.486
 11
95.6019
 21
127.823
  0
LINE
  8
0
 10
95.6019
 20
127.823
 11
95.5006
 21
126.047
  0
LINE
  8
0
 10
95.5006
 20
126.047
 11
95.4057
 21
122.367
  0
LINE
  8
0
 10
95.4057
 20
122.367
 11
95.3922
 21
119.491
  0
LINE
  8
0
 10
95.3922
 20
119.491
 11
95.3922
 21
94.184
  0
LINE
  8
0
 10
95.3922
 20
94.184
 11
95.3996
 21
91.5611
  0
LINE
  8
0
 10
95.3996
 20
91.5611
 11
95.4518
 21
88.2334
  0
LINE
  8
0
 10
95.4518
 20
88.2334
 11
95.5857
 21
85.1799
  0
LINE
  8
0
 10
95.5857
 20
85.1799
 11
95.8088
 21
82.5961
  0
LINE
  8
0
 10
95.8088
 20
82.5961
 11
96.1135
 21
80.443
  0
LINE
  8
0
 10
96.1135
 20
80.443
 11
96.463
 21
78.5248
  0
LINE
  8
0
 10
96.463
 20
78.5248
 11
96.8298
 21
76.6572
  0
LINE
  8
0
 10
96.8298
 20
76.6572
 11
97.2566
 21
74.8592
  0
LINE
  8
0
 10
97.2566
 20
74.8592
 11
97.793
 21
73.1886
  0
LINE
  8
0
 10
97.793
 20
73.1886
 11
98.4489
 21
71.6569
  0
LINE
  8
0
 10
98.4489
 20
71.6569
 11
99.2147
 21
70.2527
  0
LINE
  8
0
 10
99.2147
 20
70.2527
 11
100.04
 21
68.918
  0
LINE
  8
0
 10
100.04
 20
68.918
 11
100.89
 21
67.6087
  0
LINE
  8
0
 10
100.89
 20
67.6087
 11
101.341
 21
66.9801
  0
LINE
  8
0
 10
101.341
 20
66.9801
 11
101.823
 21
66.3828
  0
LINE
  8
0
 10
101.823
 20
66.3828
 11
102.346
 21
65.8255
  0
LINE
  8
0
 10
102.346
 20
65.8255
 11
102.911
 21
65.3098
  0
LINE
  8
0
 10
102.911
 20
65.3098
 11
103.518
 21
64.8359
  0
LINE
  8
0
 10
103.518
 20
64.8359
 11
104.167
 21
64.4037
  0
LINE
  8
0
 10
104.167
 20
64.4037
 11
104.857
 21
64.0114
  0
LINE
  8
0
 10
104.857
 20
64.0114
 11
105.578
 21
63.6504
  0
LINE
  8
0
 10
105.578
 20
63.6504
 11
107.073
 21
62.9804
  0
LINE
  8
0
 10
107.073
 20
62.9804
 11
108.595
 21
62.3381
  0
LINE
  8
0
 10
108.595
 20
62.3381
 11
109.382
 21
62.0426
  0
LINE
  8
0
 10
109.382
 20
62.0426
 11
110.201
 21
61.7778
  0
LINE
  8
0
 10
110.201
 20
61.7778
 11
111.059
 21
61.5522
  0
LINE
  8
0
 10
111.059
 20
61.5522
 11
111.959
 21
61.3678
  0
LINE
  8
0
 10
111.959
 20
61.3678
 11
112.9
 21
61.2243
  0
LINE
  8
0
 10
112.9
 20
61.2243
 11
113.883
 21
61.1217
  0
LINE
  8
0
 10
113.883
 20
61.1217
 11
115.951
 21
61.0261
  0
LINE
  8
0
 10
115.951
 20
61.0261
 11
118.044
 21
61.0124
  0
LINE
  8
0
 10
118.044
 20
61.0124
 11
120.048
 21
61.0284
  0
LINE
  8
0
 10
117.366
 20
76.7033
 11
116.852
 21
76.7958
  0
LINE
  8
0
 10
116.852
 20
76.7958
 11
116.627
 21
76.8948
  0
LINE
  8
0
 10
116.627
 20
76.8948
 11
116.424
 21
77.0334
  0
LINE
  8
0
 10
116.424
 20
77.0334
 11
116.245
 21
77.2117
  0
LINE
  8
0
 10
116.245
 20
77.2117
 11
116.09
 21
77.4295
  0
LINE
  8
0
 10
116.09
 20
77.4295
 11
115.841
 21
77.9709
  0
LINE
  8
0
 10
115.841
 20
77.9709
 11
115.638
 21
78.5914
  0
LINE
  8
0
 10
115.638
 20
78.5914
 11
115.448
 21
79.2556
  0
LINE
  8
0
 10
115.448
 20
79.2556
 11
115.281
 21
80.1018
  0
LINE
  8
0
 10
115.281
 20
80.1018
 11
115.16
 21
81.2818
  0
LINE
  8
0
 10
115.16
 20
81.2818
 11
115.087
 21
82.826
  0
LINE
  8
0
 10
115.087
 20
82.826
 11
115.054
 21
86.0672
  0
LINE
  8
0
 10
115.054
 20
86.0672
 11
115.054
 21
127.482
  0
LINE
  8
0
 10
115.054
 20
127.482
 11
115.087
 21
130.982
  0
LINE
  8
0
 10
115.087
 20
130.982
 11
115.16
 21
132.621
  0
LINE
  8
0
 10
115.16
 20
132.621
 11
115.281
 21
133.84
  0
LINE
  8
0
 10
115.281
 20
133.84
 11
115.448
 21
134.674
  0
LINE
  8
0
 10
115.448
 20
134.674
 11
115.638
 21
135.298
  0
LINE
  8
0
 10
115.638
 20
135.298
 11
115.841
 21
135.875
  0
LINE
  8
0
 10
115.841
 20
135.875
 11
116.092
 21
136.379
  0
LINE
  8
0
 10
116.092
 20
136.379
 11
116.251
 21
136.581
  0
LINE
  8
0
 10
116.251
 20
136.581
 11
116.433
 21
136.747
  0
LINE
  8
0
 10
116.433
 20
136.747
 11
116.64
 21
136.876
  0
LINE
  8
0
 10
116.64
 20
136.876
 11
116.871
 21
136.968
  0
LINE
  8
0
 10
116.871
 20
136.968
 11
117.398
 21
137.054
  0
LINE
  8
0
 10
117.398
 20
137.054
 11
117.974
 21
137.066
  0
LINE
  8
0
 10
117.974
 20
137.066
 11
118.55
 21
137.054
  0
LINE
  8
0
 10
118.55
 20
137.054
 11
119.075
 21
136.968
  0
LINE
  8
0
 10
119.075
 20
136.968
 11
119.303
 21
136.876
  0
LINE
  8
0
 10
119.303
 20
136.876
 11
119.507
 21
136.747
  0
LINE
  8
0
 10
119.507
 20
136.747
 11
119.685
 21
136.581
  0
LINE
  8
0
 10
119.685
 20
136.581
 11
119.837
 21
136.379
  0
LINE
  8
0
 10
119.837
 20
136.379
 11
120.075
 21
135.875
  0
LINE
  8
0
 10
120.075
 20
135.875
 11
120.262
 21
135.298
  0
LINE
  8
0
 10
120.262
 20
135.298
 11
120.438
 21
134.644
  0
LINE
  8
0
 10
120.438
 20
134.644
 11
120.604
 21
133.602
  0
LINE
  8
0
 10
120.604
 20
133.602
 11
120.678
 21
132.781
  0
LINE
  8
0
 10
120.678
 20
132.781
 11
120.739
 21
131.523
  0
LINE
  8
0
 10
120.739
 20
131.523
 11
120.797
 21
126.725
  0
LINE
  8
0
 10
120.797
 20
126.725
 11
120.797
 21
85.2592
  0
LINE
  8
0
 10
120.797
 20
85.2592
 11
120.766
 21
82.2941
  0
LINE
  8
0
 10
120.766
 20
82.2941
 11
120.696
 21
80.882
  0
LINE
  8
0
 10
120.696
 20
80.882
 11
120.579
 21
79.8034
  0
LINE
  8
0
 10
120.579
 20
79.8034
 11
120.42
 21
79.0307
  0
LINE
  8
0
 10
120.42
 20
79.0307
 11
120.237
 21
78.4247
  0
LINE
  8
0
 10
120.237
 20
78.4247
 11
120.043
 21
77.8585
  0
LINE
  8
0
 10
120.043
 20
77.8585
 11
119.798
 21
77.3647
  0
LINE
  8
0
 10
119.798
 20
77.3647
 11
119.643
 21
77.1659
  0
LINE
  8
0
 10
119.643
 20
77.1659
 11
119.462
 21
77.0033
  0
LINE
  8
0
 10
119.462
 20
77.0033
 11
119.257
 21
76.8768
  0
LINE
  8
0
 10
119.257
 20
76.8768
 11
119.027
 21
76.7865
  0
LINE
  8
0
 10
119.027
 20
76.7865
 11
118.502
 21
76.7022
  0
LINE
  8
0
 10
118.502
 20
76.7022
 11
117.931
 21
76.6901
  0
LINE
  8
0
 10
117.931
 20
76.6901
 11
117.366
 21
76.7033
  0
LINE
  8
0
 10
171.574
 20
123.568
 11
171.604
 21
128.699
  0
LINE
  8
0
 10
171.604
 20
128.699
 11
171.67
 21
131.072
  0
LINE
  8
0
 10
171.67
 20
131.072
 11
171.782
 21
132.802
  0
LINE
  8
0
 10
171.782
 20
132.802
 11
171.934
 21
133.944
  0
LINE
  8
0
 10
171.934
 20
133.944
 11
172.109
 21
134.764
  0
LINE
  8
0
 10
172.109
 20
134.764
 11
172.298
 21
135.516
  0
LINE
  8
0
 10
172.298
 20
135.516
 11
172.553
 21
136.171
  0
LINE
  8
0
 10
172.553
 20
136.171
 11
172.723
 21
136.435
  0
LINE
  8
0
 10
172.723
 20
136.435
 11
172.926
 21
136.65
  0
LINE
  8
0
 10
172.926
 20
136.65
 11
173.161
 21
136.818
  0
LINE
  8
0
 10
173.161
 20
136.818
 11
173.429
 21
136.938
  0
LINE
  8
0
 10
173.429
 20
136.938
 11
173.727
 21
137.012
  0
LINE
  8
0
 10
173.727
 20
137.012
 11
174.049
 21
137.05
  0
LINE
  8
0
 10
174.049
 20
137.05
 11
174.726
 21
137.066
  0
LINE
  8
0
 10
174.726
 20
137.066
 11
175.39
 21
137.052
  0
LINE
  8
0
 10
175.39
 20
137.052
 11
175.981
 21
136.955
  0
LINE
  8
0
 10
175.981
 20
136.955
 11
176.232
 21
136.851
  0
LINE
  8
0
 10
176.232
 20
136.851
 11
176.451
 21
136.705
  0
LINE
  8
0
 10
176.451
 20
136.705
 11
176.638
 21
136.517
  0
LINE
  8
0
 10
176.638
 20
136.517
 11
176.792
 21
136.288
  0
LINE
  8
0
 10
176.792
 20
136.288
 11
177.014
 21
135.718
  0
LINE
  8
0
 10
177.014
 20
135.718
 11
177.171
 21
135.065
  0
LINE
  8
0
 10
177.171
 20
135.065
 11
177.314
 21
134.348
  0
LINE
  8
0
 10
177.314
 20
134.348
 11
177.438
 21
133.334
  0
LINE
  8
0
 10
177.438
 20
133.334
 11
177.53
 21
131.774
  0
LINE
  8
0
 10
177.53
 20
131.774
 11
177.584
 21
129.62
  0
LINE
  8
0
 10
177.584
 20
129.62
 11
177.609
 21
124.939
  0
LINE
  8
0
 10
177.609
 20
124.939
 11
177.609
 21
62.6136
  0
LINE
  8
0
 10
177.609
 20
62.6136
 11
197.27
 21
62.6136
  0
LINE
  8
0
 10
197.27
 20
62.6136
 11
197.27
 21
125.947
  0
LINE
  8
0
 10
197.27
 20
125.947
 11
197.264
 21
128.642
  0
LINE
  8
0
 10
197.264
 20
128.642
 11
197.219
 21
132.027
  0
LINE
  8
0
 10
197.219
 20
132.027
 11
197.104
 21
135.067
  0
LINE
  8
0
 10
197.104
 20
135.067
 11
196.911
 21
137.553
  0
LINE
  8
0
 10
196.911
 20
137.553
 11
196.648
 21
139.533
  0
LINE
  8
0
 10
196.648
 20
139.533
 11
196.346
 21
141.236
  0
LINE
  8
0
 10
196.346
 20
141.236
 11
196.022
 21
142.881
  0
LINE
  8
0
 10
196.022
 20
142.881
 11
195.83
 21
143.681
  0
LINE
  8
0
 10
195.83
 20
143.681
 11
195.602
 21
144.455
  0
LINE
  8
0
 10
195.602
 20
144.455
 11
195.329
 21
145.194
  0
LINE
  8
0
 10
195.329
 20
145.194
 11
195.008
 21
145.899
  0
LINE
  8
0
 10
195.008
 20
145.899
 11
194.64
 21
146.568
  0
LINE
  8
0
 10
194.64
 20
146.568
 11
194.223
 21
147.201
  0
LINE
  8
0
 10
194.223
 20
147.201
 11
193.761
 21
147.801
  0
LINE
  8
0
 10
193.761
 20
147.801
 11
193.264
 21
148.373
  0
LINE
  8
0
 10
193.264
 20
148.373
 11
192.209
 21
149.475
  0
LINE
  8
0
 10
192.209
 20
149.475
 11
191.125
 21
150.542
  0
LINE
  8
0
 10
191.125
 20
150.542
 11
190.56
 21
151.033
  0
LINE
  8
0
 10
190.56
 20
151.033
 11
189.965
 21
151.473
  0
LINE
  8
0
 10
189.965
 20
151.473
 11
189.333
 21
151.847
  0
LINE
  8
0
 10
189.333
 20
151.847
 11
188.663
 21
152.154
  0
LINE
  8
0
 10
188.663
 20
152.154
 11
187.954
 21
152.392
  0
LINE
  8
0
 10
187.954
 20
152.392
 11
187.207
 21
152.562
  0
LINE
  8
0
 10
187.207
 20
152.562
 11
186.425
 21
152.667
  0
LINE
  8
0
 10
186.425
 20
152.667
 11
185.624
 21
152.721
  0
LINE
  8
0
 10
185.624
 20
152.721
 11
184.049
 21
152.744
  0
LINE
  8
0
 10
184.049
 20
152.744
 11
182.61
 21
152.727
  0
LINE
  8
0
 10
182.61
 20
152.727
 11
181.94
 21
152.687
  0
LINE
  8
0
 10
181.94
 20
152.687
 11
181.295
 21
152.609
  0
LINE
  8
0
 10
181.295
 20
152.609
 11
180.671
 21
152.482
  0
LINE
  8
0
 10
180.671
 20
152.482
 11
180.067
 21
152.304
  0
LINE
  8
0
 10
180.067
 20
152.304
 11
179.483
 21
152.076
  0
LINE
  8
0
 10
179.483
 20
152.076
 11
178.919
 21
151.796
  0
LINE
  8
0
 10
178.919
 20
151.796
 11
178.373
 21
151.467
  0
LINE
  8
0
 10
178.373
 20
151.467
 11
177.842
 21
151.101
  0
LINE
  8
0
 10
177.842
 20
151.101
 11
176.806
 21
150.304
  0
LINE
  8
0
 10
176.806
 20
150.304
 11
175.782
 21
149.475
  0
LINE
  8
0
 10
175.782
 20
149.475
 11
174.798
 21
148.544
  0
LINE
  8
0
 10
174.798
 20
148.544
 11
174.332
 21
148.01
  0
LINE
  8
0
 10
174.332
 20
148.01
 11
173.887
 21
147.426
  0
LINE
  8
0
 10
173.887
 20
147.426
 11
173.461
 21
146.79
  0
LINE
  8
0
 10
173.461
 20
146.79
 11
173.054
 21
146.104
  0
LINE
  8
0
 10
173.054
 20
146.104
 11
172.324
 21
144.664
  0
LINE
  8
0
 10
172.324
 20
144.664
 11
171.812
 21
143.529
  0
LINE
  8
0
 10
171.812
 20
143.529
 11
171.676
 21
143.248
  0
LINE
  8
0
 10
171.676
 20
143.248
 11
171.636
 21
143.227
  0
LINE
  8
0
 10
171.636
 20
143.227
 11
171.614
 21
143.31
  0
LINE
  8
0
 10
171.614
 20
143.31
 11
171.659
 21
145.026
  0
LINE
  8
0
 10
171.659
 20
145.026
 11
171.914
 21
151.143
  0
LINE
  8
0
 10
171.914
 20
151.143
 11
151.912
 21
151.143
  0
LINE
  8
0
 10
151.912
 20
151.143
 11
151.912
 21
62.6136
  0
LINE
  8
0
 10
151.912
 20
62.6136
 11
171.574
 21
62.6136
  0
LINE
  8
0
 10
171.574
 20
62.6136
 11
171.574
 21
123.568
  0
LINE
  8
0
 10
-301.105
 20
124.702
 11
-301.1
 21
128.013
  0
LINE
  8
0
 10
-301.1
 20
128.013
 11
-301.067
 21
130.804
  0
LINE
  8
0
 10
-301.067
 20
130.804
 11
-301.008
 21
132.363
  0
LINE
  8
0
 10
-301.008
 20
132.363
 11
-300.97
 21
133.015
  0
LINE
  8
0
 10
-300.97
 20
133.015
 11
-300.897
 21
133.641
  0
LINE
  8
0
 10
-300.897
 20
133.641
 11
-300.761
 21
134.222
  0
LINE
  8
0
 10
-300.761
 20
134.222
 11
-300.556
 21
134.753
  0
LINE
  8
0
 10
-300.556
 20
134.753
 11
-300.288
 21
135.238
  0
LINE
  8
0
 10
-300.288
 20
135.238
 11
-299.986
 21
135.699
  0
LINE
  8
0
 10
-299.986
 20
135.699
 11
-299.675
 21
136.145
  0
LINE
  8
0
 10
-299.675
 20
136.145
 11
-299.348
 21
136.534
  0
LINE
  8
0
 10
-299.348
 20
136.534
 11
-298.991
 21
136.819
  0
LINE
  8
0
 10
-298.991
 20
136.819
 11
-298.601
 21
136.99
  0
LINE
  8
0
 10
-298.601
 20
136.99
 11
-298.172
 21
137.057
  0
LINE
  8
0
 10
-298.172
 20
137.057
 11
-297.661
 21
137.066
  0
LINE
  8
0
 10
-297.661
 20
137.066
 11
-297.05
 21
137.048
  0
LINE
  8
0
 10
-297.05
 20
137.048
 11
-296.738
 21
137.005
  0
LINE
  8
0
 10
-296.738
 20
137.005
 11
-296.442
 21
136.922
  0
LINE
  8
0
 10
-296.442
 20
136.922
 11
-296.179
 21
136.786
  0
LINE
  8
0
 10
-296.179
 20
136.786
 11
-295.949
 21
136.596
  0
LINE
  8
0
 10
-295.949
 20
136.596
 11
-295.753
 21
136.352
  0
LINE
  8
0
 10
-295.753
 20
136.352
 11
-295.591
 21
136.054
  0
LINE
  8
0
 10
-295.591
 20
136.054
 11
-295.357
 21
135.313
  0
LINE
  8
0
 10
-295.357
 20
135.313
 11
-295.192
 21
134.464
  0
LINE
  8
0
 10
-295.192
 20
134.464
 11
-295.041
 21
133.525
  0
LINE
  8
0
 10
-295.041
 20
133.525
 11
-294.909
 21
132.151
  0
LINE
  8
0
 10
-294.909
 20
132.151
 11
-294.813
 21
129.983
  0
LINE
  8
0
 10
-294.813
 20
129.983
 11
-294.755
 21
126.948
  0
LINE
  8
0
 10
-294.755
 20
126.948
 11
-294.73
 21
120.299
  0
LINE
  8
0
 10
-294.73
 20
120.299
 11
-294.73
 21
62.6136
  0
LINE
  8
0
 10
-294.73
 20
62.6136
 11
-275.652
 21
62.6136
  0
LINE
  8
0
 10
-275.652
 20
62.6136
 11
-275.652
 21
121.588
  0
LINE
  8
0
 10
-275.652
 20
121.588
 11
-275.618
 21
127.441
  0
LINE
  8
0
 10
-275.618
 20
127.441
 11
-275.542
 21
130.151
  0
LINE
  8
0
 10
-275.542
 20
130.151
 11
-275.415
 21
132.133
  0
LINE
  8
0
 10
-275.415
 20
132.133
 11
-275.242
 21
133.447
  0
LINE
  8
0
 10
-275.242
 20
133.447
 11
-275.043
 21
134.398
  0
LINE
  8
0
 10
-275.043
 20
134.398
 11
-274.83
 21
135.269
  0
LINE
  8
0
 10
-274.83
 20
135.269
 11
-274.555
 21
136.028
  0
LINE
  8
0
 10
-274.555
 20
136.028
 11
-274.377
 21
136.334
  0
LINE
  8
0
 10
-274.377
 20
136.334
 11
-274.167
 21
136.584
  0
LINE
  8
0
 10
-274.167
 20
136.584
 11
-273.927
 21
136.779
  0
LINE
  8
0
 10
-273.927
 20
136.779
 11
-273.655
 21
136.918
  0
LINE
  8
0
 10
-273.655
 20
136.918
 11
-273.354
 21
137.004
  0
LINE
  8
0
 10
-273.354
 20
137.004
 11
-273.03
 21
137.048
  0
LINE
  8
0
 10
-273.03
 20
137.048
 11
-272.348
 21
137.066
  0
LINE
  8
0
 10
-272.348
 20
137.066
 11
-271.672
 21
137.047
  0
LINE
  8
0
 10
-271.672
 20
137.047
 11
-271.355
 21
137.003
  0
LINE
  8
0
 10
-271.355
 20
137.003
 11
-271.062
 21
136.916
  0
LINE
  8
0
 10
-271.062
 20
136.916
 11
-270.799
 21
136.775
  0
LINE
  8
0
 10
-270.799
 20
136.775
 11
-270.566
 21
136.578
  0
LINE
  8
0
 10
-270.566
 20
136.578
 11
-270.365
 21
136.325
  0
LINE
  8
0
 10
-270.365
 20
136.325
 11
-270.194
 21
136.015
  0
LINE
  8
0
 10
-270.194
 20
136.015
 11
-269.936
 21
135.246
  0
LINE
  8
0
 10
-269.936
 20
135.246
 11
-269.739
 21
134.364
  0
LINE
  8
0
 10
-269.739
 20
134.364
 11
-269.556
 21
133.404
  0
LINE
  8
0
 10
-269.556
 20
133.404
 11
-269.397
 21
132.083
  0
LINE
  8
0
 10
-269.397
 20
132.083
 11
-269.28
 21
130.102
  0
LINE
  8
0
 10
-269.28
 20
130.102
 11
-269.21
 21
127.402
  0
LINE
  8
0
 10
-269.21
 20
127.402
 11
-269.179
 21
121.581
  0
LINE
  8
0
 10
-269.179
 20
121.581
 11
-269.179
 21
62.6136
  0
LINE
  8
0
 10
-269.179
 20
62.6136
 11
-250.101
 21
62.6136
  0
LINE
  8
0
 10
-250.101
 20
62.6136
 11
-250.101
 21
126.733
  0
LINE
  8
0
 10
-250.101
 20
126.733
 11
-250.108
 21
129.258
  0
LINE
  8
0
 10
-250.108
 20
129.258
 11
-250.153
 21
132.439
  0
LINE
  8
0
 10
-250.153
 20
132.439
 11
-250.268
 21
135.309
  0
LINE
  8
0
 10
-250.268
 20
135.309
 11
-250.461
 21
137.676
  0
LINE
  8
0
 10
-250.461
 20
137.676
 11
-250.724
 21
139.582
  0
LINE
  8
0
 10
-250.724
 20
139.582
 11
-251.026
 21
141.236
  0
LINE
  8
0
 10
-251.026
 20
141.236
 11
-251.35
 21
142.838
  0
LINE
  8
0
 10
-251.35
 20
142.838
 11
-251.544
 21
143.619
  0
LINE
  8
0
 10
-251.544
 20
143.619
 11
-251.774
 21
144.377
  0
LINE
  8
0
 10
-251.774
 20
144.377
 11
-252.051
 21
145.105
  0
LINE
  8
0
 10
-252.051
 20
145.105
 11
-252.377
 21
145.801
  0
LINE
  8
0
 10
-252.377
 20
145.801
 11
-252.752
 21
146.467
  0
LINE
  8
0
 10
-252.752
 20
146.467
 11
-253.177
 21
147.101
  0
LINE
  8
0
 10
-253.177
 20
147.101
 11
-253.648
 21
147.705
  0
LINE
  8
0
 10
-253.648
 20
147.705
 11
-254.157
 21
148.286
  0
LINE
  8
0
 10
-254.157
 20
148.286
 11
-255.236
 21
149.408
  0
LINE
  8
0
 10
-255.236
 20
149.408
 11
-256.343
 21
150.497
  0
LINE
  8
0
 10
-256.343
 20
150.497
 11
-256.919
 21
150.998
  0
LINE
  8
0
 10
-256.919
 20
150.998
 11
-257.522
 21
151.447
  0
LINE
  8
0
 10
-257.522
 20
151.447
 11
-258.159
 21
151.829
  0
LINE
  8
0
 10
-258.159
 20
151.829
 11
-258.833
 21
152.142
  0
LINE
  8
0
 10
-258.833
 20
152.142
 11
-259.542
 21
152.385
  0
LINE
  8
0
 10
-259.542
 20
152.385
 11
-260.288
 21
152.559
  0
LINE
  8
0
 10
-260.288
 20
152.559
 11
-261.066
 21
152.666
  0
LINE
  8
0
 10
-261.066
 20
152.666
 11
-261.858
 21
152.721
  0
LINE
  8
0
 10
-261.858
 20
152.721
 11
-263.398
 21
152.744
  0
LINE
  8
0
 10
-263.398
 20
152.744
 11
-264.777
 21
152.726
  0
LINE
  8
0
 10
-264.777
 20
152.726
 11
-265.413
 21
152.685
  0
LINE
  8
0
 10
-265.413
 20
152.685
 11
-266.026
 21
152.605
  0
LINE
  8
0
 10
-266.026
 20
152.605
 11
-266.624
 21
152.475
  0
LINE
  8
0
 10
-266.624
 20
152.475
 11
-267.207
 21
152.292
  0
LINE
  8
0
 10
-267.207
 20
152.292
 11
-267.775
 21
152.057
  0
LINE
  8
0
 10
-267.775
 20
152.057
 11
-268.33
 21
151.77
  0
LINE
  8
0
 10
-268.33
 20
151.77
 11
-268.871
 21
151.433
  0
LINE
  8
0
 10
-268.871
 20
151.433
 11
-269.401
 21
151.056
  0
LINE
  8
0
 10
-269.401
 20
151.056
 11
-270.444
 21
150.237
  0
LINE
  8
0
 10
-270.444
 20
150.237
 11
-271.478
 21
149.385
  0
LINE
  8
0
 10
-271.478
 20
149.385
 11
-272.486
 21
148.429
  0
LINE
  8
0
 10
-272.486
 20
148.429
 11
-272.972
 21
147.881
  0
LINE
  8
0
 10
-272.972
 20
147.881
 11
-273.445
 21
147.28
  0
LINE
  8
0
 10
-273.445
 20
147.28
 11
-274.351
 21
145.922
  0
LINE
  8
0
 10
-274.351
 20
145.922
 11
-274.789
 21
145.193
  0
LINE
  8
0
 10
-274.789
 20
145.193
 11
-275.238
 21
144.582
  0
LINE
  8
0
 10
-275.238
 20
144.582
 11
-275.474
 21
144.374
  0
LINE
  8
0
 10
-275.474
 20
144.374
 11
-275.723
 21
144.258
  0
LINE
  8
0
 10
-275.723
 20
144.258
 11
-275.986
 21
144.257
  0
LINE
  8
0
 10
-275.986
 20
144.257
 11
-276.268
 21
144.391
  0
LINE
  8
0
 10
-276.268
 20
144.391
 11
-276.571
 21
144.673
  0
LINE
  8
0
 10
-276.571
 20
144.673
 11
-276.894
 21
145.087
  0
LINE
  8
0
 10
-276.894
 20
145.087
 11
-277.602
 21
146.201
  0
LINE
  8
0
 10
-277.602
 20
146.201
 11
-278.386
 21
147.523
  0
LINE
  8
0
 10
-278.386
 20
147.523
 11
-279.245
 21
148.846
  0
LINE
  8
0
 10
-279.245
 20
148.846
 11
-279.701
 21
149.446
  0
LINE
  8
0
 10
-279.701
 20
149.446
 11
-280.174
 21
149.994
  0
LINE
  8
0
 10
-280.174
 20
149.994
 11
-280.665
 21
150.49
  0
LINE
  8
0
 10
-280.665
 20
150.49
 11
-281.174
 21
150.934
  0
LINE
  8
0
 10
-281.174
 20
150.934
 11
-281.699
 21
151.326
  0
LINE
  8
0
 10
-281.699
 20
151.326
 11
-282.243
 21
151.665
  0
LINE
  8
0
 10
-282.243
 20
151.665
 11
-282.804
 21
151.952
  0
LINE
  8
0
 10
-282.804
 20
151.952
 11
-283.382
 21
152.187
  0
LINE
  8
0
 10
-283.382
 20
152.187
 11
-283.977
 21
152.371
  0
LINE
  8
0
 10
-283.977
 20
152.371
 11
-284.581
 21
152.509
  0
LINE
  8
0
 10
-284.581
 20
152.509
 11
-285.793
 21
152.674
  0
LINE
  8
0
 10
-285.793
 20
152.674
 11
-286.96
 21
152.735
  0
LINE
  8
0
 10
-286.96
 20
152.735
 11
-288.024
 21
152.744
  0
LINE
  8
0
 10
-288.024
 20
152.744
 11
-289.738
 21
152.726
  0
LINE
  8
0
 10
-289.738
 20
152.726
 11
-290.444
 21
152.685
  0
LINE
  8
0
 10
-290.444
 20
152.685
 11
-291.096
 21
152.605
  0
LINE
  8
0
 10
-291.096
 20
152.605
 11
-291.723
 21
152.475
  0
LINE
  8
0
 10
-291.723
 20
152.475
 11
-292.333
 21
152.292
  0
LINE
  8
0
 10
-292.333
 20
152.292
 11
-292.924
 21
152.057
  0
LINE
  8
0
 10
-292.924
 20
152.057
 11
-293.497
 21
151.77
  0
LINE
  8
0
 10
-293.497
 20
151.77
 11
-294.052
 21
151.433
  0
LINE
  8
0
 10
-294.052
 20
151.433
 11
-294.594
 21
151.056
  0
LINE
  8
0
 10
-294.594
 20
151.056
 11
-295.654
 21
150.237
  0
LINE
  8
0
 10
-295.654
 20
150.237
 11
-296.703
 21
149.385
  0
LINE
  8
0
 10
-296.703
 20
149.385
 11
-297.715
 21
148.429
  0
LINE
  8
0
 10
-297.715
 20
148.429
 11
-298.196
 21
147.881
  0
LINE
  8
0
 10
-298.196
 20
147.881
 11
-298.66
 21
147.28
  0
LINE
  8
0
 10
-298.66
 20
147.28
 11
-299.105
 21
146.627
  0
LINE
  8
0
 10
-299.105
 20
146.627
 11
-299.531
 21
145.922
  0
LINE
  8
0
 10
-299.531
 20
145.922
 11
-300.305
 21
144.443
  0
LINE
  8
0
 10
-300.305
 20
144.443
 11
-300.851
 21
143.277
  0
LINE
  8
0
 10
-300.851
 20
143.277
 11
-300.997
 21
142.988
  0
LINE
  8
0
 10
-300.997
 20
142.988
 11
-301.039
 21
142.967
  0
LINE
  8
0
 10
-301.039
 20
142.967
 11
-301.063
 21
143.053
  0
LINE
  8
0
 10
-301.063
 20
143.053
 11
-301.02
 21
144.826
  0
LINE
  8
0
 10
-301.02
 20
144.826
 11
-300.764
 21
151.143
  0
LINE
  8
0
 10
-300.764
 20
151.143
 11
-320.182
 21
151.143
  0
LINE
  8
0
 10
-320.182
 20
151.143
 11
-320.182
 21
62.6136
  0
LINE
  8
0
 10
-320.182
 20
62.6136
 11
-301.105
 21
62.6136
  0
LINE
  8
0
 10
-301.105
 20
62.6136
 11
-301.105
 21
124.702
  0
LINE
  8
0
 10
74.9802
 20
99.0022
 11
75.0127
 21
105.638
  0
LINE
  8
0
 10
75.0127
 20
105.638
 11
75.0856
 21
108.767
  0
LINE
  8
0
 10
75.0856
 20
108.767
 11
75.2073
 21
111.12
  0
LINE
  8
0
 10
75.2073
 20
111.12
 11
75.3736
 21
112.762
  0
LINE
  8
0
 10
75.3736
 20
112.762
 11
75.5642
 21
114.016
  0
LINE
  8
0
 10
75.5642
 20
114.016
 11
75.7724
 21
115.195
  0
LINE
  8
0
 10
75.7724
 20
115.195
 11
76.0617
 21
116.309
  0
LINE
  8
0
 10
76.0617
 20
116.309
 11
76.2604
 21
116.822
  0
LINE
  8
0
 10
76.2604
 20
116.822
 11
76.4997
 21
117.303
  0
LINE
  8
0
 10
76.4997
 20
117.303
 11
76.7795
 21
117.75
  0
LINE
  8
0
 10
76.7795
 20
117.75
 11
77.0999
 21
118.166
  0
LINE
  8
0
 10
77.0999
 20
118.166
 11
77.4592
 21
118.55
  0
LINE
  8
0
 10
77.4592
 20
118.55
 11
77.8489
 21
118.909
  0
LINE
  8
0
 10
77.8489
 20
118.909
 11
78.6789
 21
119.587
  0
LINE
  8
0
 10
78.6789
 20
119.587
 11
79.5425
 21
120.24
  0
LINE
  8
0
 10
79.5425
 20
120.24
 11
80.0116
 21
120.541
  0
LINE
  8
0
 10
80.0116
 20
120.541
 11
80.5256
 21
120.81
  0
LINE
  8
0
 10
80.5256
 20
120.81
 11
81.0969
 21
121.04
  0
LINE
  8
0
 10
81.0969
 20
121.04
 11
81.7281
 21
121.227
  0
LINE
  8
0
 10
81.7281
 20
121.227
 11
82.4191
 21
121.373
  0
LINE
  8
0
 10
82.4191
 20
121.373
 11
83.1699
 21
121.477
  0
LINE
  8
0
 10
83.1699
 20
121.477
 11
84.756
 21
121.575
  0
LINE
  8
0
 10
84.756
 20
121.575
 11
86.0116
 21
121.588
  0
LINE
  8
0
 10
86.0116
 20
121.588
 11
86.2097
 21
121.599
  0
LINE
  8
0
 10
86.2097
 20
121.599
 11
86.3586
 21
121.67
  0
LINE
  8
0
 10
86.3586
 20
121.67
 11
86.4653
 21
121.862
  0
LINE
  8
0
 10
86.4653
 20
121.862
 11
86.5368
 21
122.238
  0
LINE
  8
0
 10
86.5368
 20
122.238
 11
86.6024
 21
123.779
  0
LINE
  8
0
 10
86.6024
 20
123.779
 11
86.6118
 21
126.781
  0
LINE
  8
0
 10
86.6118
 20
126.781
 11
86.6118
 21
147.551
  0
LINE
  8
0
 10
86.6118
 20
147.551
 11
86.5977
 21
150.552
  0
LINE
  8
0
 10
86.5977
 20
150.552
 11
86.5642
 21
151.472
  0
LINE
  8
0
 10
86.5642
 20
151.472
 11
86.4989
 21
152.085
  0
LINE
  8
0
 10
86.4989
 20
152.085
 11
86.3913
 21
152.45
  0
LINE
  8
0
 10
86.3913
 20
152.45
 11
86.2308
 21
152.628
  0
LINE
  8
0
 10
86.2308
 20
152.628
 11
86.0068
 21
152.679
  0
LINE
  8
0
 10
86.0068
 20
152.679
 11
85.7088
 21
152.662
  0
LINE
  8
0
 10
85.7088
 20
152.662
 11
84.8796
 21
152.577
  0
LINE
  8
0
 10
84.8796
 20
152.577
 11
83.8165
 21
152.407
  0
LINE
  8
0
 10
83.8165
 20
152.407
 11
82.6241
 21
152.1
  0
LINE
  8
0
 10
82.6241
 20
152.1
 11
82.0121
 21
151.877
  0
LINE
  8
0
 10
82.0121
 20
151.877
 11
81.4071
 21
151.6
  0
LINE
  8
0
 10
81.4071
 20
151.6
 11
80.8199
 21
151.263
  0
LINE
  8
0
 10
80.8199
 20
151.263
 11
80.2527
 21
150.865
  0
LINE
  8
0
 10
80.2527
 20
150.865
 11
79.7056
 21
150.405
  0
LINE
  8
0
 10
79.7056
 20
150.405
 11
79.1785
 21
149.884
  0
LINE
  8
0
 10
79.1785
 20
149.884
 11
78.6714
 21
149.302
  0
LINE
  8
0
 10
78.6714
 20
149.302
 11
78.1843
 21
148.658
  0
LINE
  8
0
 10
78.1843
 20
148.658
 11
77.7173
 21
147.953
  0
LINE
  8
0
 10
77.7173
 20
147.953
 11
77.2702
 21
147.186
  0
LINE
  8
0
 10
77.2702
 20
147.186
 11
76.4404
 21
145.501
  0
LINE
  8
0
 10
76.4404
 20
145.501
 11
75.7153
 21
143.763
  0
LINE
  8
0
 10
75.7153
 20
143.763
 11
75.1194
 21
142.162
  0
LINE
  8
0
 10
75.1194
 20
142.162
 11
74.6774
 21
140.891
  0
LINE
  8
0
 10
74.6774
 20
140.891
 11
74.4053
 21
140.133
  0
LINE
  8
0
 10
74.4053
 20
140.133
 11
74.328
 21
139.994
  0
LINE
  8
0
 10
74.328
 20
139.994
 11
74.2853
 21
140.039
  0
LINE
  8
0
 10
74.2853
 20
140.039
 11
74.2911
 21
140.751
  0
LINE
  8
0
 10
74.2911
 20
140.751
 11
74.3962
 21
142.412
  0
LINE
  8
0
 10
74.3962
 20
142.412
 11
74.9802
 21
151.143
  0
LINE
  8
0
 10
74.9802
 20
151.143
 11
55.3184
 21
151.143
  0
LINE
  8
0
 10
55.3184
 20
151.143
 11
55.3184
 21
62.6136
  0
LINE
  8
0
 10
55.3184
 20
62.6136
 11
74.9802
 21
62.6136
  0
LINE
  8
0
 10
74.9802
 20
62.6136
 11
74.9802
 21
99.0022
  0
LINE
  8
0
 10
7.92395
 20
151.143
 11
-12.322
 21
151.143
  0
LINE
  8
0
 10
-12.322
 20
151.143
 11
-12.322
 21
62.6136
  0
LINE
  8
0
 10
-12.322
 20
62.6136
 11
7.92395
 21
62.6136
  0
LINE
  8
0
 10
7.92395
 20
62.6136
 11
7.92395
 21
151.143
  0
LINE
  8
0
 10
229.266
 20
151.143
 11
209.02
 21
151.143
  0
LINE
  8
0
 10
209.02
 20
151.143
 11
209.02
 21
62.6136
  0
LINE
  8
0
 10
209.02
 20
62.6136
 11
229.266
 21
62.6136
  0
LINE
  8
0
 10
229.266
 20
62.6136
 11
229.266
 21
151.143
  0
LINE
  8
0
 10
-218.11
 20
151.143
 11
-238.356
 21
151.143
  0
LINE
  8
0
 10
-238.356
 20
151.143
 11
-238.356
 21
62.6136
  0
LINE
  8
0
 10
-238.356
 20
62.6136
 11
-218.11
 21
62.6136
  0
LINE
  8
0
 10
-218.11
 20
62.6136
 11
-218.11
 21
151.143
  0
LINE
  8
0
 10
-56.6462
 20
151.143
 11
-76.8921
 21
151.143
  0
LINE
  8
0
 10
-76.8921
 20
151.143
 11
-76.8921
 21
62.6136
  0
LINE
  8
0
 10
-76.8921
 20
62.6136
 11
-56.6462
 21
62.6136
  0
LINE
  8
0
 10
-56.6462
 20
62.6136
 11
-56.6462
 21
151.143
  0
LINE
  8
0
 10
-181.978
 20
116.185
 11
-207.821
 21
116.185
  0
LINE
  8
0
 10
-207.821
 20
116.185
 11
-207.821
 21
97.5716
  0
LINE
  8
0
 10
-207.821
 20
97.5716
 11
-181.978
 21
97.5716
  0
LINE
  8
0
 10
-181.978
 20
97.5716
 11
-181.978
 21
116.185
  0
LINE
  8
0
 10
72.5429
 20
42.2042
 11
52.5429
 21
42.2042
  0
LINE
  8
0
 10
52.5429
 20
42.2042
 11
52.5429
 21
30.918
  0
LINE
  8
0
 10
52.5429
 20
30.918
 11
72.5429
 21
30.918
  0
LINE
  8
0
 10
72.5429
 20
30.918
 11
72.5429
 21
42.2042
  0
LINE
  8
0
 10
-255.141
 20
42.2042
 11
-275.382
 21
42.2042
  0
LINE
  8
0
 10
-275.382
 20
42.2042
 11
-275.382
 21
-44.3951
  0
LINE
  8
0
 10
-275.382
 20
-44.3951
 11
-255.141
 21
-44.3951
  0
LINE
  8
0
 10
-255.141
 20
-44.3951
 11
-255.141
 21
42.2042
  0
LINE
  8
0
 10
-172.699
 20
-45.6677
 11
-171.576
 21
-45.5897
  0
LINE
  8
0
 10
-171.576
 20
-45.5897
 11
-170.49
 21
-45.3891
  0
LINE
  8
0
 10
-170.49
 20
-45.3891
 11
-169.428
 21
-45.0541
  0
LINE
  8
0
 10
-169.428
 20
-45.0541
 11
-168.388
 21
-44.5957
  0
LINE
  8
0
 10
-168.388
 20
-44.5957
 11
-167.361
 21
-44.0704
  0
LINE
  8
0
 10
-167.361
 20
-44.0704
 11
-166.337
 21
-43.5237
  0
LINE
  8
0
 10
-166.337
 20
-43.5237
 11
-165.326
 21
-42.9101
  0
LINE
  8
0
 10
-165.326
 20
-42.9101
 11
-164.336
 21
-42.173
  0
LINE
  8
0
 10
-164.336
 20
-42.173
 11
-163.371
 21
-41.3017
  0
LINE
  8
0
 10
-163.371
 20
-41.3017
 11
-162.466
 21
-40.3523
  0
LINE
  8
0
 10
-162.466
 20
-40.3523
 11
-161.805
 21
-39.6041
  0
LINE
  8
0
 10
-161.805
 20
-39.6041
 11
-161.626
 21
-39.411
  0
LINE
  8
0
 10
-161.626
 20
-39.411
 11
-161.571
 21
-39.3793
  0
LINE
  8
0
 10
-161.571
 20
-39.3793
 11
-161.534
 21
-39.3988
  0
LINE
  8
0
 10
-161.534
 20
-39.3988
 11
-161.5
 21
-39.6144
  0
LINE
  8
0
 10
-161.5
 20
-39.6144
 11
-161.495
 21
-40.1048
  0
LINE
  8
0
 10
-161.495
 20
-40.1048
 11
-161.495
 21
-44.3952
  0
LINE
  8
0
 10
-161.495
 20
-44.3952
 11
-142.072
 21
-44.3952
  0
LINE
  8
0
 10
-142.072
 20
-44.3952
 11
-142.072
 21
42.2042
  0
LINE
  8
0
 10
-142.072
 20
42.2042
 11
-161.495
 21
42.2042
  0
LINE
  8
0
 10
-161.495
 20
42.2042
 11
-161.495
 21
25.4331
  0
LINE
  8
0
 10
-161.495
 20
25.4331
 11
-161.5
 21
23.4989
  0
LINE
  8
0
 10
-161.5
 20
23.4989
 11
-161.53
 21
22.5383
  0
LINE
  8
0
 10
-161.53
 20
22.5383
 11
-161.562
 21
22.3343
  0
LINE
  8
0
 10
-161.562
 20
22.3343
 11
-161.61
 21
22.267
  0
LINE
  8
0
 10
-161.61
 20
22.267
 11
-161.678
 21
22.3009
  0
LINE
  8
0
 10
-161.678
 20
22.3009
 11
-161.768
 21
22.4005
  0
LINE
  8
0
 10
-161.768
 20
22.4005
 11
-162.351
 21
23.074
  0
LINE
  8
0
 10
-162.351
 20
23.074
 11
-163.161
 21
23.9287
  0
LINE
  8
0
 10
-163.161
 20
23.9287
 11
-164.047
 21
24.7131
  0
LINE
  8
0
 10
-164.047
 20
24.7131
 11
-164.98
 21
25.3766
  0
LINE
  8
0
 10
-164.98
 20
25.3766
 11
-165.954
 21
25.929
  0
LINE
  8
0
 10
-165.954
 20
25.929
 11
-166.952
 21
26.4211
  0
LINE
  8
0
 10
-166.952
 20
26.4211
 11
-167.958
 21
26.894
  0
LINE
  8
0
 10
-167.958
 20
26.894
 11
-168.989
 21
27.3067
  0
LINE
  8
0
 10
-168.989
 20
27.3067
 11
-170.065
 21
27.6082
  0
LINE
  8
0
 10
-170.065
 20
27.6082
 11
-171.192
 21
27.7889
  0
LINE
  8
0
 10
-171.192
 20
27.7889
 11
-172.38
 21
27.859
  0
LINE
  8
0
 10
-172.38
 20
27.859
 11
-173.68
 21
27.869
  0
LINE
  8
0
 10
-173.68
 20
27.869
 11
-175.123
 21
27.851
  0
LINE
  8
0
 10
-175.123
 20
27.851
 11
-175.866
 21
27.8082
  0
LINE
  8
0
 10
-175.866
 20
27.8082
 11
-176.6
 21
27.7249
  0
LINE
  8
0
 10
-176.6
 20
27.7249
 11
-177.309
 21
27.5899
  0
LINE
  8
0
 10
-177.309
 20
27.5899
 11
-177.992
 21
27.4007
  0
LINE
  8
0
 10
-177.992
 20
27.4007
 11
-178.647
 21
27.1575
  0
LINE
  8
0
 10
-178.647
 20
27.1575
 11
-179.276
 21
26.8602
  0
LINE
  8
0
 10
-179.276
 20
26.8602
 11
-179.879
 21
26.5112
  0
LINE
  8
0
 10
-179.879
 20
26.5112
 11
-180.461
 21
26.1216
  0
LINE
  8
0
 10
-180.461
 20
26.1216
 11
-181.592
 21
25.2749
  0
LINE
  8
0
 10
-181.592
 20
25.2749
 11
-182.697
 21
24.4043
  0
LINE
  8
0
 10
-182.697
 20
24.4043
 11
-183.7
 21
23.4993
  0
LINE
  8
0
 10
-183.7
 20
23.4993
 11
-184.135
 21
23.0238
  0
LINE
  8
0
 10
-184.135
 20
23.0238
 11
-184.519
 21
22.5309
  0
LINE
  8
0
 10
-184.519
 20
22.5309
 11
-184.852
 21
22.0208
  0
LINE
  8
0
 10
-184.852
 20
22.0208
 11
-185.135
 21
21.4935
  0
LINE
  8
0
 10
-185.135
 20
21.4935
 11
-185.369
 21
20.9495
  0
LINE
  8
0
 10
-185.369
 20
20.9495
 11
-185.565
 21
20.3926
  0
LINE
  8
0
 10
-185.565
 20
20.3926
 11
-185.894
 21
19.2573
  0
LINE
  8
0
 10
-185.894
 20
19.2573
 11
-186.2
 21
18.0831
  0
LINE
  8
0
 10
-186.2
 20
18.0831
 11
-186.467
 21
16.7105
  0
LINE
  8
0
 10
-186.467
 20
16.7105
 11
-186.663
 21
14.9744
  0
LINE
  8
0
 10
-186.663
 20
14.9744
 11
-186.78
 21
12.8415
  0
LINE
  8
0
 10
-186.78
 20
12.8415
 11
-186.825
 21
10.4586
  0
LINE
  8
0
 10
-186.825
 20
10.4586
 11
-186.832
 21
8.55945
  0
LINE
  8
0
 10
-186.832
 20
8.55945
 11
-186.832
 21
-26.4406
  0
LINE
  8
0
 10
-186.832
 20
-26.4406
 11
-186.825
 21
-28.2666
  0
LINE
  8
0
 10
-186.825
 20
-28.2666
 11
-186.78
 21
-30.5651
  0
LINE
  8
0
 10
-186.78
 20
-30.5651
 11
-186.663
 21
-32.6378
  0
LINE
  8
0
 10
-186.663
 20
-32.6378
 11
-186.467
 21
-34.345
  0
LINE
  8
0
 10
-186.467
 20
-34.345
 11
-186.2
 21
-35.7172
  0
LINE
  8
0
 10
-186.2
 20
-35.7172
 11
-185.894
 21
-36.9067
  0
LINE
  8
0
 10
-185.894
 20
-36.9067
 11
-185.565
 21
-38.0598
  0
LINE
  8
0
 10
-185.565
 20
-38.0598
 11
-185.37
 21
-38.6256
  0
LINE
  8
0
 10
-185.37
 20
-38.6256
 11
-185.137
 21
-39.1785
  0
LINE
  8
0
 10
-185.137
 20
-39.1785
 11
-184.857
 21
-39.7147
  0
LINE
  8
0
 10
-184.857
 20
-39.7147
 11
-184.527
 21
-40.2337
  0
LINE
  8
0
 10
-184.527
 20
-40.2337
 11
-184.148
 21
-40.7354
  0
LINE
  8
0
 10
-184.148
 20
-40.7354
 11
-183.719
 21
-41.2199
  0
LINE
  8
0
 10
-183.719
 20
-41.2199
 11
-182.729
 21
-42.1428
  0
LINE
  8
0
 10
-182.729
 20
-42.1428
 11
-181.64
 21
-43.0311
  0
LINE
  8
0
 10
-181.64
 20
-43.0311
 11
-180.526
 21
-43.8954
  0
LINE
  8
0
 10
-180.526
 20
-43.8954
 11
-179.953
 21
-44.293
  0
LINE
  8
0
 10
-179.953
 20
-44.293
 11
-179.361
 21
-44.6493
  0
LINE
  8
0
 10
-179.361
 20
-44.6493
 11
-178.746
 21
-44.9527
  0
LINE
  8
0
 10
-178.746
 20
-44.9527
 11
-178.105
 21
-45.2008
  0
LINE
  8
0
 10
-178.105
 20
-45.2008
 11
-177.44
 21
-45.3939
  0
LINE
  8
0
 10
-177.44
 20
-45.3939
 11
-176.749
 21
-45.5318
  0
LINE
  8
0
 10
-176.749
 20
-45.5318
 11
-176.037
 21
-45.6168
  0
LINE
  8
0
 10
-176.037
 20
-45.6168
 11
-175.317
 21
-45.6605
  0
LINE
  8
0
 10
-175.317
 20
-45.6605
 11
-173.931
 21
-45.6789
  0
LINE
  8
0
 10
-173.931
 20
-45.6789
 11
-172.699
 21
-45.6677
  0
LINE
  8
0
 10
-165.155
 20
-33.0994
 11
-165.651
 21
-33.0331
  0
LINE
  8
0
 10
-165.651
 20
-33.0331
 11
-166.064
 21
-32.8626
  0
LINE
  8
0
 10
-166.064
 20
-32.8626
 11
-166.389
 21
-32.5785
  0
LINE
  8
0
 10
-166.389
 20
-32.5785
 11
-166.632
 21
-32.1901
  0
LINE
  8
0
 10
-166.632
 20
-32.1901
 11
-166.832
 21
-31.7449
  0
LINE
  8
0
 10
-166.832
 20
-31.7449
 11
-167.02
 21
-31.2697
  0
LINE
  8
0
 10
-167.02
 20
-31.2697
 11
-167.185
 21
-30.6706
  0
LINE
  8
0
 10
-167.185
 20
-30.6706
 11
-167.305
 21
-29.8449
  0
LINE
  8
0
 10
-167.305
 20
-29.8449
 11
-167.377
 21
-28.7717
  0
LINE
  8
0
 10
-167.377
 20
-28.7717
 11
-167.409
 21
-26.5297
  0
LINE
  8
0
 10
-167.409
 20
-26.5297
 11
-167.409
 21
9.18347
  0
LINE
  8
0
 10
-167.409
 20
9.18347
 11
-167.376
 21
11.3364
  0
LINE
  8
0
 10
-167.376
 20
11.3364
 11
-167.3
 21
12.356
  0
LINE
  8
0
 10
-167.3
 20
12.356
 11
-167.175
 21
13.1283
  0
LINE
  8
0
 10
-167.175
 20
13.1283
 11
-167.004
 21
13.6738
  0
LINE
  8
0
 10
-167.004
 20
13.6738
 11
-166.808
 21
14.0956
  0
LINE
  8
0
 10
-166.808
 20
14.0956
 11
-166.6
 21
14.4884
  0
LINE
  8
0
 10
-166.6
 20
14.4884
 11
-166.345
 21
14.8311
  0
LINE
  8
0
 10
-166.345
 20
14.8311
 11
-166.003
 21
15.0817
  0
LINE
  8
0
 10
-166.003
 20
15.0817
 11
-165.567
 21
15.2321
  0
LINE
  8
0
 10
-165.567
 20
15.2321
 11
-165.045
 21
15.2907
  0
LINE
  8
0
 10
-165.045
 20
15.2907
 11
-164.471
 21
15.2991
  0
LINE
  8
0
 10
-164.471
 20
15.2991
 11
-163.891
 21
15.2898
  0
LINE
  8
0
 10
-163.891
 20
15.2898
 11
-163.356
 21
15.2247
  0
LINE
  8
0
 10
-163.356
 20
15.2247
 11
-162.91
 21
15.0576
  0
LINE
  8
0
 10
-162.91
 20
15.0576
 11
-162.563
 21
14.779
  0
LINE
  8
0
 10
-162.563
 20
14.779
 11
-162.305
 21
14.3983
  0
LINE
  8
0
 10
-162.305
 20
14.3983
 11
-162.096
 21
13.9618
  0
LINE
  8
0
 10
-162.096
 20
13.9618
 11
-161.898
 21
13.48
  0
LINE
  8
0
 10
-161.898
 20
13.48
 11
-161.713
 21
12.7821
  0
LINE
  8
0
 10
-161.713
 20
12.7821
 11
-161.629
 21
12.2665
  0
LINE
  8
0
 10
-161.629
 20
12.2665
 11
-161.56
 21
11.5076
  0
LINE
  8
0
 10
-161.56
 20
11.5076
 11
-161.513
 21
10.3705
  0
LINE
  8
0
 10
-161.513
 20
10.3705
 11
-161.495
 21
8.71983
  0
LINE
  8
0
 10
-161.495
 20
8.71983
 11
-161.495
 21
-24.7823
  0
LINE
  8
0
 10
-161.495
 20
-24.7823
 11
-161.53
 21
-27.8358
  0
LINE
  8
0
 10
-161.53
 20
-27.8358
 11
-161.608
 21
-29.2632
  0
LINE
  8
0
 10
-161.608
 20
-29.2632
 11
-161.738
 21
-30.323
  0
LINE
  8
0
 10
-161.738
 20
-30.323
 11
-161.916
 21
-31.0457
  0
LINE
  8
0
 10
-161.916
 20
-31.0457
 11
-162.12
 21
-31.5844
  0
LINE
  8
0
 10
-162.12
 20
-31.5844
 11
-162.338
 21
-32.082
  0
LINE
  8
0
 10
-162.338
 20
-32.082
 11
-162.607
 21
-32.5161
  0
LINE
  8
0
 10
-162.607
 20
-32.5161
 11
-162.971
 21
-32.8336
  0
LINE
  8
0
 10
-162.971
 20
-32.8336
 11
-163.44
 21
-33.0241
  0
LINE
  8
0
 10
-163.44
 20
-33.0241
 11
-164.001
 21
-33.0983
  0
LINE
  8
0
 10
-164.001
 20
-33.0983
 11
-164.594
 21
-33.1089
  0
LINE
  8
0
 10
-164.594
 20
-33.1089
 11
-165.155
 21
-33.0994
  0
LINE
  8
0
 10
162.858
 20
-171.34
 11
167.95
 21
-170.664
  0
LINE
  8
0
 10
167.95
 20
-170.664
 11
170.874
 21
-170.233
  0
LINE
  8
0
 10
170.874
 20
-170.233
 11
174.025
 21
-169.718
  0
LINE
  8
0
 10
174.025
 20
-169.718
 11
177.384
 21
-169.104
  0
LINE
  8
0
 10
177.384
 20
-169.104
 11
180.93
 21
-168.376
  0
LINE
  8
0
 10
180.93
 20
-168.376
 11
184.645
 21
-167.517
  0
LINE
  8
0
 10
184.645
 20
-167.517
 11
188.51
 21
-166.512
  0
LINE
  8
0
 10
188.51
 20
-166.512
 11
192.505
 21
-165.345
  0
LINE
  8
0
 10
192.505
 20
-165.345
 11
196.611
 21
-164.001
  0
LINE
  8
0
 10
196.611
 20
-164.001
 11
200.809
 21
-162.464
  0
LINE
  8
0
 10
200.809
 20
-162.464
 11
202.936
 21
-161.619
  0
LINE
  8
0
 10
202.936
 20
-161.619
 11
205.079
 21
-160.719
  0
LINE
  8
0
 10
205.079
 20
-160.719
 11
207.235
 21
-159.763
  0
LINE
  8
0
 10
207.235
 20
-159.763
 11
209.402
 21
-158.749
  0
LINE
  8
0
 10
209.402
 20
-158.749
 11
211.578
 21
-157.675
  0
LINE
  8
0
 10
211.578
 20
-157.675
 11
213.76
 21
-156.539
  0
LINE
  8
0
 10
213.76
 20
-156.539
 11
215.945
 21
-155.339
  0
LINE
  8
0
 10
215.945
 20
-155.339
 11
218.132
 21
-154.074
  0
LINE
  8
0
 10
218.132
 20
-154.074
 11
220.318
 21
-152.74
  0
LINE
  8
0
 10
220.318
 20
-152.74
 11
222.5
 21
-151.337
  0
LINE
  8
0
 10
222.5
 20
-151.337
 11
224.676
 21
-149.863
  0
LINE
  8
0
 10
224.676
 20
-149.863
 11
226.847
 21
-148.319
  0
LINE
  8
0
 10
226.847
 20
-148.319
 11
229.012
 21
-146.708
  0
LINE
  8
0
 10
229.012
 20
-146.708
 11
231.172
 21
-145.031
  0
LINE
  8
0
 10
231.172
 20
-145.031
 11
233.326
 21
-143.292
  0
LINE
  8
0
 10
233.326
 20
-143.292
 11
235.476
 21
-141.493
  0
LINE
  8
0
 10
235.476
 20
-141.493
 11
237.62
 21
-139.635
  0
LINE
  8
0
 10
237.62
 20
-139.635
 11
239.76
 21
-137.722
  0
LINE
  8
0
 10
239.76
 20
-137.722
 11
244.027
 21
-133.735
  0
LINE
  8
0
 10
244.027
 20
-133.735
 11
248.278
 21
-129.551
  0
LINE
  8
0
 10
248.278
 20
-129.551
 11
252.514
 21
-125.187
  0
LINE
  8
0
 10
252.514
 20
-125.187
 11
256.736
 21
-120.662
  0
LINE
  8
0
 10
256.736
 20
-120.662
 11
260.946
 21
-115.994
  0
LINE
  8
0
 10
260.946
 20
-115.994
 11
265.146
 21
-111.2
  0
LINE
  8
0
 10
265.146
 20
-111.2
 11
269.337
 21
-106.299
  0
LINE
  8
0
 10
269.337
 20
-106.299
 11
273.521
 21
-101.308
  0
LINE
  8
0
 10
273.521
 20
-101.308
 11
281.871
 21
-91.1279
  0
LINE
  8
0
 10
281.871
 20
-91.1279
 11
290.21
 21
-80.8048
  0
LINE
  8
0
 10
290.21
 20
-80.8048
 11
298.55
 21
-70.4852
  0
LINE
  8
0
 10
298.55
 20
-70.4852
 11
302.727
 21
-65.3768
  0
LINE
  8
0
 10
302.727
 20
-65.3768
 11
306.911
 21
-60.3302
  0
LINE
  8
0
 10
306.911
 20
-60.3302
 11
311.104
 21
-55.366
  0
LINE
  8
0
 10
311.104
 20
-55.366
 11
315.31
 21
-50.5046
  0
LINE
  8
0
 10
315.31
 20
-50.5046
 11
319.531
 21
-45.7667
  0
LINE
  8
0
 10
319.531
 20
-45.7667
 11
323.769
 21
-41.1728
  0
LINE
  8
0
 10
323.769
 20
-41.1728
 11
328.028
 21
-36.7437
  0
LINE
  8
0
 10
328.028
 20
-36.7437
 11
332.308
 21
-32.4997
  0
LINE
  8
0
 10
332.308
 20
-32.4997
 11
334.457
 21
-30.4536
  0
LINE
  8
0
 10
334.457
 20
-30.4536
 11
336.613
 21
-28.4616
  0
LINE
  8
0
 10
336.613
 20
-28.4616
 11
338.776
 21
-26.5261
  0
LINE
  8
0
 10
338.776
 20
-26.5261
 11
340.946
 21
-24.6498
  0
LINE
  8
0
 10
340.946
 20
-24.6498
 11
343.123
 21
-22.8353
  0
LINE
  8
0
 10
343.123
 20
-22.8353
 11
345.308
 21
-21.085
  0
LINE
  8
0
 10
345.308
 20
-21.085
 11
347.501
 21
-19.4017
  0
LINE
  8
0
 10
347.501
 20
-19.4017
 11
349.703
 21
-17.7878
  0
LINE
  8
0
 10
349.703
 20
-17.7878
 11
351.913
 21
-16.2459
  0
LINE
  8
0
 10
351.913
 20
-16.2459
 11
354.132
 21
-14.7787
  0
LINE
  8
0
 10
354.132
 20
-14.7787
 11
356.36
 21
-13.3886
  0
LINE
  8
0
 10
356.36
 20
-13.3886
 11
358.598
 21
-12.0783
  0
LINE
  8
0
 10
358.598
 20
-12.0783
 11
360.846
 21
-10.8495
  0
LINE
  8
0
 10
360.846
 20
-10.8495
 11
363.1
 21
-9.70032
  0
LINE
  8
0
 10
363.1
 20
-9.70032
 11
365.36
 21
-8.62825
  0
LINE
  8
0
 10
365.36
 20
-8.62825
 11
367.621
 21
-7.63066
  0
LINE
  8
0
 10
367.621
 20
-7.63066
 11
369.881
 21
-6.70493
  0
LINE
  8
0
 10
369.881
 20
-6.70493
 11
372.139
 21
-5.8484
  0
LINE
  8
0
 10
372.139
 20
-5.8484
 11
374.39
 21
-5.0585
  0
LINE
  8
0
 10
374.39
 20
-5.0585
 11
376.632
 21
-4.33258
  0
LINE
  8
0
 10
376.632
 20
-4.33258
 11
378.864
 21
-3.66803
  0
LINE
  8
0
 10
378.864
 20
-3.66803
 11
381.081
 21
-3.06224
  0
LINE
  8
0
 10
381.081
 20
-3.06224
 11
383.281
 21
-2.51257
  0
LINE
  8
0
 10
383.281
 20
-2.51257
 11
385.463
 21
-2.01643
  0
LINE
  8
0
 10
385.463
 20
-2.01643
 11
387.622
 21
-1.57118
  0
LINE
  8
0
 10
387.622
 20
-1.57118
 11
389.757
 21
-1.17419
  0
LINE
  8
0
 10
389.757
 20
-1.17419
 11
393.942
 21
-0.514603
  0
LINE
  8
0
 10
393.942
 20
-0.514603
 11
397.997
 21
-0.0166779
  0
LINE
  8
0
 10
397.997
 20
-0.0166779
 11
401.9
 21
0.340515
  0
LINE
  8
0
 10
401.9
 20
0.340515
 11
405.63
 21
0.577957
  0
LINE
  8
0
 10
405.63
 20
0.577957
 11
409.167
 21
0.716583
  0
LINE
  8
0
 10
409.167
 20
0.716583
 11
412.488
 21
0.777328
  0
LINE
  8
0
 10
412.488
 20
0.777328
 11
415.573
 21
0.781189
  0
LINE
  8
0
 10
415.573
 20
0.781189
 11
420.948
 21
0.701965
  0
LINE
  8
0
 10
420.948
 20
0.701965
 11
433.757
 21
0.448059
  0
LINE
  8
0
 10
433.757
 20
0.448059
 11
433.757
 21
35.9962
  0
LINE
  8
0
 10
433.757
 20
35.9962
 11
433.732
 21
38.3387
  0
LINE
  8
0
 10
433.732
 20
38.3387
 11
433.674
 21
39.2779
  0
LINE
  8
0
 10
433.674
 20
39.2779
 11
433.56
 21
40.0721
  0
LINE
  8
0
 10
433.56
 20
40.0721
 11
433.372
 21
40.7285
  0
LINE
  8
0
 10
433.372
 20
40.7285
 11
433.092
 21
41.2541
  0
LINE
  8
0
 10
433.092
 20
41.2541
 11
432.912
 21
41.4702
  0
LINE
  8
0
 10
432.912
 20
41.4702
 11
432.701
 21
41.6563
  0
LINE
  8
0
 10
432.701
 20
41.6563
 11
432.181
 21
41.9422
  0
LINE
  8
0
 10
432.181
 20
41.9422
 11
431.513
 21
42.1189
  0
LINE
  8
0
 10
431.513
 20
42.1189
 11
430.678
 21
42.1938
  0
LINE
  8
0
 10
430.678
 20
42.1938
 11
429.659
 21
42.1739
  0
LINE
  8
0
 10
429.659
 20
42.1739
 11
428.437
 21
42.0665
  0
LINE
  8
0
 10
428.437
 20
42.0665
 11
425.309
 21
41.6178
  0
LINE
  8
0
 10
425.309
 20
41.6178
 11
421.146
 21
40.9053
  0
LINE
  8
0
 10
421.146
 20
40.9053
 11
395.119
 21
36.3258
  0
LINE
  8
0
 10
395.119
 20
36.3258
 11
379.413
 21
33.4956
  0
LINE
  8
0
 10
379.413
 20
33.4956
 11
364.26
 21
30.6768
  0
LINE
  8
0
 10
364.26
 20
30.6768
 11
357.382
 21
29.3286
  0
LINE
  8
0
 10
357.382
 20
29.3286
 11
354.118
 21
28.6358
  0
LINE
  8
0
 10
354.118
 20
28.6358
 11
350.947
 21
27.9061
  0
LINE
  8
0
 10
350.947
 20
27.9061
 11
347.853
 21
27.1211
  0
LINE
  8
0
 10
347.853
 20
27.1211
 11
344.818
 21
26.2624
  0
LINE
  8
0
 10
344.818
 20
26.2624
 11
341.826
 21
25.3117
  0
LINE
  8
0
 10
341.826
 20
25.3117
 11
338.86
 21
24.2506
  0
LINE
  8
0
 10
338.86
 20
24.2506
 11
335.902
 21
23.0607
  0
LINE
  8
0
 10
335.902
 20
23.0607
 11
332.936
 21
21.7237
  0
LINE
  8
0
 10
332.936
 20
21.7237
 11
329.945
 21
20.2212
  0
LINE
  8
0
 10
329.945
 20
20.2212
 11
326.912
 21
18.5349
  0
LINE
  8
0
 10
326.912
 20
18.5349
 11
323.819
 21
16.6463
  0
LINE
  8
0
 10
323.819
 20
16.6463
 11
320.65
 21
14.5372
  0
LINE
  8
0
 10
320.65
 20
14.5372
 11
317.388
 21
12.1891
  0
LINE
  8
0
 10
317.388
 20
12.1891
 11
314.016
 21
9.58369
  0
LINE
  8
0
 10
314.016
 20
9.58369
 11
310.52
 21
6.70856
  0
LINE
  8
0
 10
310.52
 20
6.70856
 11
306.906
 21
3.57498
  0
LINE
  8
0
 10
306.906
 20
3.57498
 11
303.18
 21
0.200195
  0
LINE
  8
0
 10
303.18
 20
0.200195
 11
299.35
 21
-3.39856
  0
LINE
  8
0
 10
299.35
 20
-3.39856
 11
295.426
 21
-7.2041
  0
LINE
  8
0
 10
295.426
 20
-7.2041
 11
291.413
 21
-11.1992
  0
LINE
  8
0
 10
291.413
 20
-11.1992
 11
287.322
 21
-15.3665
  0
LINE
  8
0
 10
287.322
 20
-15.3665
 11
283.158
 21
-19.6889
  0
LINE
  8
0
 10
283.158
 20
-19.6889
 11
278.931
 21
-24.1492
  0
LINE
  8
0
 10
278.931
 20
-24.1492
 11
274.649
 21
-28.73
  0
LINE
  8
0
 10
274.649
 20
-28.73
 11
265.948
 21
-38.1847
  0
LINE
  8
0
 10
265.948
 20
-38.1847
 11
257.121
 21
-47.9149
  0
LINE
  8
0
 10
257.121
 20
-47.9149
 11
239.343
 21
-67.6465
  0
LINE
  8
0
 10
239.343
 20
-67.6465
 11
230.546
 21
-77.3441
  0
LINE
  8
0
 10
230.546
 20
-77.3441
 11
221.929
 21
-86.7097
  0
LINE
  8
0
 10
221.929
 20
-86.7097
 11
217.717
 21
-91.2162
  0
LINE
  8
0
 10
217.717
 20
-91.2162
 11
213.583
 21
-95.5775
  0
LINE
  8
0
 10
213.583
 20
-95.5775
 11
209.539
 21
-99.7729
  0
LINE
  8
0
 10
209.539
 20
-99.7729
 11
205.597
 21
-103.782
  0
LINE
  8
0
 10
205.597
 20
-103.782
 11
201.767
 21
-107.583
  0
LINE
  8
0
 10
201.767
 20
-107.583
 11
198.061
 21
-111.156
  0
LINE
  8
0
 10
198.061
 20
-111.156
 11
194.49
 21
-114.48
  0
LINE
  8
0
 10
194.49
 20
-114.48
 11
191.065
 21
-117.535
  0
LINE
  8
0
 10
191.065
 20
-117.535
 11
187.798
 21
-120.299
  0
LINE
  8
0
 10
187.798
 20
-120.299
 11
184.7
 21
-122.752
  0
LINE
  8
0
 10
184.7
 20
-122.752
 11
181.775
 21
-124.881
  0
LINE
  8
0
 10
181.775
 20
-124.881
 11
180.368
 21
-125.829
  0
LINE
  8
0
 10
180.368
 20
-125.829
 11
178.993
 21
-126.704
  0
LINE
  8
0
 10
178.993
 20
-126.704
 11
177.646
 21
-127.509
  0
LINE
  8
0
 10
177.646
 20
-127.509
 11
176.321
 21
-128.248
  0
LINE
  8
0
 10
176.321
 20
-128.248
 11
175.015
 21
-128.924
  0
LINE
  8
0
 10
175.015
 20
-128.924
 11
173.723
 21
-129.539
  0
LINE
  8
0
 10
173.723
 20
-129.539
 11
172.44
 21
-130.098
  0
LINE
  8
0
 10
172.44
 20
-130.098
 11
171.162
 21
-130.603
  0
LINE
  8
0
 10
171.162
 20
-130.603
 11
169.885
 21
-131.058
  0
LINE
  8
0
 10
169.885
 20
-131.058
 11
168.605
 21
-131.467
  0
LINE
  8
0
 10
168.605
 20
-131.467
 11
167.316
 21
-131.831
  0
LINE
  8
0
 10
167.316
 20
-131.831
 11
166.014
 21
-132.156
  0
LINE
  8
0
 10
166.014
 20
-132.156
 11
163.355
 21
-132.697
  0
LINE
  8
0
 10
163.355
 20
-132.697
 11
160.592
 21
-133.116
  0
LINE
  8
0
 10
160.592
 20
-133.116
 11
157.689
 21
-133.44
  0
LINE
  8
0
 10
157.689
 20
-133.44
 11
154.612
 21
-133.694
  0
LINE
  8
0
 10
154.612
 20
-133.694
 11
151.324
 21
-133.905
  0
LINE
  8
0
 10
151.324
 20
-133.905
 11
143.975
 21
-134.304
  0
LINE
  8
0
 10
143.975
 20
-134.304
 11
139.843
 21
-134.543
  0
LINE
  8
0
 10
139.843
 20
-134.543
 11
135.359
 21
-134.845
  0
LINE
  8
0
 10
135.359
 20
-134.845
 11
130.501
 21
-135.229
  0
LINE
  8
0
 10
130.501
 20
-135.229
 11
125.31
 21
-135.692
  0
LINE
  8
0
 10
125.31
 20
-135.692
 11
114.147
 21
-136.814
  0
LINE
  8
0
 10
114.147
 20
-136.814
 11
102.307
 21
-138.136
  0
LINE
  8
0
 10
102.307
 20
-138.136
 11
90.2248
 21
-139.581
  0
LINE
  8
0
 10
90.2248
 20
-139.581
 11
78.3392
 21
-141.071
  0
LINE
  8
0
 10
78.3392
 20
-141.071
 11
67.0867
 21
-142.529
  0
LINE
  8
0
 10
67.0867
 20
-142.529
 11
48.2289
 21
-145.045
  0
LINE
  8
0
 10
48.2289
 20
-145.045
 11
41.3843
 21
-145.979
  0
LINE
  8
0
 10
41.3843
 20
-145.979
 11
36.2407
 21
-146.758
  0
LINE
  8
0
 10
36.2407
 20
-146.758
 11
34.2309
 21
-147.122
  0
LINE
  8
0
 10
34.2309
 20
-147.122
 11
32.5551
 21
-147.487
  0
LINE
  8
0
 10
32.5551
 20
-147.487
 11
31.1832
 21
-147.866
  0
LINE
  8
0
 10
31.1832
 20
-147.866
 11
30.0846
 21
-148.272
  0
LINE
  8
0
 10
30.0846
 20
-148.272
 11
29.229
 21
-148.719
  0
LINE
  8
0
 10
29.229
 20
-148.719
 11
28.8829
 21
-148.962
  0
LINE
  8
0
 10
28.8829
 20
-148.962
 11
28.5861
 21
-149.22
  0
LINE
  8
0
 10
28.5861
 20
-149.22
 11
28.3348
 21
-149.495
  0
LINE
  8
0
 10
28.3348
 20
-149.495
 11
28.1254
 21
-149.788
  0
LINE
  8
0
 10
28.1254
 20
-149.788
 11
27.8166
 21
-150.437
  0
LINE
  8
0
 10
27.8166
 20
-150.437
 11
27.6292
 21
-151.179
  0
LINE
  8
0
 10
27.6292
 20
-151.179
 11
27.5331
 21
-152.029
  0
LINE
  8
0
 10
27.5331
 20
-152.029
 11
27.4976
 21
-152.998
  0
LINE
  8
0
 10
27.4976
 20
-152.998
 11
27.4926
 21
-154.102
  0
LINE
  8
0
 10
27.4926
 20
-154.102
 11
27.4926
 21
-172.891
  0
LINE
  8
0
 10
27.4926
 20
-172.891
 11
150.726
 21
-172.891
  0
LINE
  8
0
 10
150.726
 20
-172.891
 11
162.858
 21
-171.34
  0
LINE
  8
0
 10
3.99321
 20
-34.8562
 11
3.98495
 21
-33.7533
  0
LINE
  8
0
 10
3.98495
 20
-33.7533
 11
3.92711
 21
-33.1869
  0
LINE
  8
0
 10
3.92711
 20
-33.1869
 11
3.86411
 21
-33.049
  0
LINE
  8
0
 10
3.86411
 20
-33.049
 11
3.77011
 21
-32.9782
  0
LINE
  8
0
 10
3.77011
 20
-32.9782
 11
3.46439
 21
-32.9484
  0
LINE
  8
0
 10
3.46439
 20
-32.9484
 11
2.36914
 21
-32.9428
  0
LINE
  8
0
 10
2.36914
 20
-32.9428
 11
1.04858
 21
-32.9038
  0
LINE
  8
0
 10
1.04858
 20
-32.9038
 11
-0.0241394
 21
-32.8035
  0
LINE
  8
0
 10
-0.0241394
 20
-32.8035
 11
-0.754364
 21
-32.6364
  0
LINE
  8
0
 10
-0.754364
 20
-32.6364
 11
-0.994537
 21
-32.5284
  0
LINE
  8
0
 10
-0.994537
 20
-32.5284
 11
-1.17049
 21
-32.4079
  0
LINE
  8
0
 10
-1.17049
 20
-32.4079
 11
-1.41542
 21
-32.1461
  0
LINE
  8
0
 10
-1.41542
 20
-32.1461
 11
-1.62723
 21
-31.8355
  0
LINE
  8
0
 10
-1.62723
 20
-31.8355
 11
-1.72467
 21
-31.5995
  0
LINE
  8
0
 10
-1.72467
 20
-31.5995
 11
-1.812
 21
-31.2665
  0
LINE
  8
0
 10
-1.812
 20
-31.2665
 11
-1.94724
 21
-30.2234
  0
LINE
  8
0
 10
-1.94724
 20
-30.2234
 11
-2.02838
 21
-28.6633
  0
LINE
  8
0
 10
-2.02838
 20
-28.6633
 11
-2.06445
 21
-25.1152
  0
LINE
  8
0
 10
-2.06445
 20
-25.1152
 11
-2.06445
 21
13.6408
  0
LINE
  8
0
 10
-2.06445
 20
13.6408
 11
3.17599
 21
13.6408
  0
LINE
  8
0
 10
3.17599
 20
13.6408
 11
3.17599
 21
24.8737
  0
LINE
  8
0
 10
3.17599
 20
24.8737
 11
-2.06445
 21
24.8737
  0
LINE
  8
0
 10
-2.06445
 20
24.8737
 11
-2.06445
 21
36.0529
  0
LINE
  8
0
 10
-2.06445
 20
36.0529
 11
-21.5355
 21
36.0529
  0
LINE
  8
0
 10
-21.5355
 20
36.0529
 11
-21.5355
 21
24.8737
  0
LINE
  8
0
 10
-21.5355
 20
24.8737
 11
-25.7182
 21
24.8737
  0
LINE
  8
0
 10
-25.7182
 20
24.8737
 11
-25.7182
 21
13.6408
  0
LINE
  8
0
 10
-25.7182
 20
13.6408
 11
-21.5355
 21
13.6408
  0
LINE
  8
0
 10
-21.5355
 20
13.6408
 11
-21.5355
 21
-23.5877
  0
LINE
  8
0
 10
-21.5355
 20
-23.5877
 11
-21.5061
 21
-29.0422
  0
LINE
  8
0
 10
-21.5061
 20
-29.0422
 11
-21.44
 21
-31.6063
  0
LINE
  8
0
 10
-21.44
 20
-31.6063
 11
-21.33
 21
-33.5264
  0
LINE
  8
0
 10
-21.33
 20
-33.5264
 11
-21.1794
 21
-34.856
  0
LINE
  8
0
 10
-21.1794
 20
-34.856
 11
-21.0067
 21
-35.8636
  0
LINE
  8
0
 10
-21.0067
 20
-35.8636
 11
-20.8191
 21
-36.813
  0
LINE
  8
0
 10
-20.8191
 20
-36.813
 11
-20.5634
 21
-37.7357
  0
LINE
  8
0
 10
-20.5634
 20
-37.7357
 11
-20.1827
 21
-38.6094
  0
LINE
  8
0
 10
-20.1827
 20
-38.6094
 11
-19.6659
 21
-39.4296
  0
LINE
  8
0
 10
-19.6659
 20
-39.4296
 11
-19.0242
 21
-40.2007
  0
LINE
  8
0
 10
-19.0242
 20
-40.2007
 11
-18.3144
 21
-40.9451
  0
LINE
  8
0
 10
-18.3144
 20
-40.9451
 11
-17.5886
 21
-41.6739
  0
LINE
  8
0
 10
-17.5886
 20
-41.6739
 11
-16.8347
 21
-42.3358
  0
LINE
  8
0
 10
-16.8347
 20
-42.3358
 11
-16.0294
 21
-42.8752
  0
LINE
  8
0
 10
-16.0294
 20
-42.8752
 11
-15.1681
 21
-43.2808
  0
LINE
  8
0
 10
-15.1681
 20
-43.2808
 11
-14.2552
 21
-43.5639
  0
LINE
  8
0
 10
-14.2552
 20
-43.5639
 11
-13.3144
 21
-43.78
  0
LINE
  8
0
 10
-13.3144
 20
-43.78
 11
-12.3425
 21
-43.9808
  0
LINE
  8
0
 10
-12.3425
 20
-43.9808
 11
-11.2123
 21
-44.1559
  0
LINE
  8
0
 10
-11.2123
 20
-44.1559
 11
-9.79211
 21
-44.2841
  0
LINE
  8
0
 10
-9.79211
 20
-44.2841
 11
-8.05534
 21
-44.361
  0
LINE
  8
0
 10
-8.05534
 20
-44.361
 11
-4.58043
 21
-44.3951
  0
LINE
  8
0
 10
-4.58043
 20
-44.3951
 11
3.99321
 21
-44.3951
  0
LINE
  8
0
 10
3.99321
 20
-44.3951
 11
3.99321
 21
-34.8562
  0
LINE
  8
0
 10
108.797
 20
-45.6649
 11
110.805
 21
-45.5674
  0
LINE
  8
0
 10
110.805
 20
-45.5674
 11
111.752
 21
-45.463
  0
LINE
  8
0
 10
111.752
 20
-45.463
 11
112.653
 21
-45.3167
  0
LINE
  8
0
 10
112.653
 20
-45.3167
 11
113.511
 21
-45.1287
  0
LINE
  8
0
 10
113.511
 20
-45.1287
 11
114.323
 21
-44.8988
  0
LINE
  8
0
 10
114.323
 20
-44.8988
 11
115.093
 21
-44.629
  0
LINE
  8
0
 10
115.093
 20
-44.629
 11
115.829
 21
-44.3277
  0
LINE
  8
0
 10
115.829
 20
-44.3277
 11
117.246
 21
-43.673
  0
LINE
  8
0
 10
117.246
 20
-43.673
 11
118.639
 21
-42.9905
  0
LINE
  8
0
 10
118.639
 20
-42.9905
 11
119.315
 21
-42.6231
  0
LINE
  8
0
 10
119.315
 20
-42.6231
 11
119.97
 21
-42.2244
  0
LINE
  8
0
 10
119.97
 20
-42.2244
 11
120.594
 21
-41.7856
  0
LINE
  8
0
 10
120.594
 20
-41.7856
 11
121.188
 21
-41.305
  0
LINE
  8
0
 10
121.188
 20
-41.305
 11
121.752
 21
-40.7827
  0
LINE
  8
0
 10
121.752
 20
-40.7827
 11
122.285
 21
-40.2185
  0
LINE
  8
0
 10
122.285
 20
-40.2185
 11
123.27
 21
-38.9788
  0
LINE
  8
0
 10
123.27
 20
-38.9788
 11
124.194
 21
-37.6555
  0
LINE
  8
0
 10
124.194
 20
-37.6555
 11
125.093
 21
-36.3216
  0
LINE
  8
0
 10
125.093
 20
-36.3216
 11
125.91
 21
-35.0078
  0
LINE
  8
0
 10
125.91
 20
-35.0078
 11
126.574
 21
-33.7307
  0
LINE
  8
0
 10
126.574
 20
-33.7307
 11
127.071
 21
-32.4938
  0
LINE
  8
0
 10
127.071
 20
-32.4938
 11
127.417
 21
-31.2936
  0
LINE
  8
0
 10
127.417
 20
-31.2936
 11
127.679
 21
-30.1135
  0
LINE
  8
0
 10
127.679
 20
-30.1135
 11
127.922
 21
-28.9155
  0
LINE
  8
0
 10
127.922
 20
-28.9155
 11
128.134
 21
-27.5906
  0
LINE
  8
0
 10
128.134
 20
-27.5906
 11
128.29
 21
-26.0327
  0
LINE
  8
0
 10
128.29
 20
-26.0327
 11
128.383
 21
-24.2207
  0
LINE
  8
0
 10
128.383
 20
-24.2207
 11
128.424
 21
-20.735
  0
LINE
  8
0
 10
128.424
 20
-20.735
 11
128.424
 21
-14.762
  0
LINE
  8
0
 10
128.424
 20
-14.762
 11
110.011
 21
-14.762
  0
LINE
  8
0
 10
110.011
 20
-14.762
 11
110.011
 21
-24.7111
  0
LINE
  8
0
 10
110.011
 20
-24.7111
 11
109.97
 21
-27.4613
  0
LINE
  8
0
 10
109.97
 20
-27.4613
 11
109.876
 21
-28.7952
  0
LINE
  8
0
 10
109.876
 20
-28.7952
 11
109.721
 21
-29.8415
  0
LINE
  8
0
 10
109.721
 20
-29.8415
 11
109.509
 21
-30.6244
  0
LINE
  8
0
 10
109.509
 20
-30.6244
 11
109.266
 21
-31.2634
  0
LINE
  8
0
 10
109.266
 20
-31.2634
 11
109.007
 21
-31.8658
  0
LINE
  8
0
 10
109.007
 20
-31.8658
 11
108.687
 21
-32.3913
  0
LINE
  8
0
 10
108.687
 20
-32.3913
 11
108.487
 21
-32.6027
  0
LINE
  8
0
 10
108.487
 20
-32.6027
 11
108.256
 21
-32.7757
  0
LINE
  8
0
 10
108.256
 20
-32.7757
 11
107.994
 21
-32.9103
  0
LINE
  8
0
 10
107.994
 20
-32.9103
 11
107.702
 21
-33.0064
  0
LINE
  8
0
 10
107.702
 20
-33.0064
 11
107.042
 21
-33.0961
  0
LINE
  8
0
 10
107.042
 20
-33.0961
 11
106.357
 21
-33.1089
  0
LINE
  8
0
 10
106.357
 20
-33.1089
 11
105.73
 21
-33.0992
  0
LINE
  8
0
 10
105.73
 20
-33.0992
 11
105.187
 21
-33.0317
  0
LINE
  8
0
 10
105.187
 20
-33.0317
 11
104.738
 21
-32.8578
  0
LINE
  8
0
 10
104.738
 20
-32.8578
 11
104.386
 21
-32.5681
  0
LINE
  8
0
 10
104.386
 20
-32.5681
 11
104.121
 21
-32.1721
  0
LINE
  8
0
 10
104.121
 20
-32.1721
 11
103.905
 21
-31.7182
  0
LINE
  8
0
 10
103.905
 20
-31.7182
 11
103.701
 21
-31.2308
  0
LINE
  8
0
 10
103.701
 20
-31.2308
 11
103.523
 21
-30.6008
  0
LINE
  8
0
 10
103.523
 20
-30.6008
 11
103.393
 21
-29.7093
  0
LINE
  8
0
 10
103.393
 20
-29.7093
 11
103.315
 21
-28.5325
  0
LINE
  8
0
 10
103.315
 20
-28.5325
 11
103.28
 21
-26.0482
  0
LINE
  8
0
 10
103.28
 20
-26.0482
 11
103.28
 21
-10.1619
  0
LINE
  8
0
 10
103.28
 20
-10.1619
 11
128.424
 21
-10.1619
  0
LINE
  8
0
 10
128.424
 20
-10.1619
 11
128.424
 21
0.399246
  0
LINE
  8
0
 10
128.424
 20
0.399246
 11
128.409
 21
2.80463
  0
LINE
  8
0
 10
128.409
 20
2.80463
 11
128.306
 21
5.87747
  0
LINE
  8
0
 10
128.306
 20
5.87747
 11
128.194
 21
7.35707
  0
LINE
  8
0
 10
128.194
 20
7.35707
 11
128.038
 21
8.74028
  0
LINE
  8
0
 10
128.038
 20
8.74028
 11
127.837
 21
10.0271
  0
LINE
  8
0
 10
127.837
 20
10.0271
 11
127.592
 21
11.2175
  0
LINE
  8
0
 10
127.592
 20
11.2175
 11
127.305
 21
12.3155
  0
LINE
  8
0
 10
127.305
 20
12.3155
 11
126.983
 21
13.3413
  0
LINE
  8
0
 10
126.983
 20
13.3413
 11
126.285
 21
15.2723
  0
LINE
  8
0
 10
126.285
 20
15.2723
 11
125.55
 21
17.1556
  0
LINE
  8
0
 10
125.55
 20
17.1556
 11
125.141
 21
18.068
  0
LINE
  8
0
 10
125.141
 20
18.068
 11
124.682
 21
18.9453
  0
LINE
  8
0
 10
124.682
 20
18.9453
 11
124.161
 21
19.7777
  0
LINE
  8
0
 10
124.161
 20
19.7777
 11
123.573
 21
20.5633
  0
LINE
  8
0
 10
123.573
 20
20.5633
 11
122.918
 21
21.3021
  0
LINE
  8
0
 10
122.918
 20
21.3021
 11
122.198
 21
21.9941
  0
LINE
  8
0
 10
122.198
 20
21.9941
 11
121.415
 21
22.6413
  0
LINE
  8
0
 10
121.415
 20
22.6413
 11
120.582
 21
23.2534
  0
LINE
  8
0
 10
120.582
 20
23.2534
 11
118.833
 21
24.4191
  0
LINE
  8
0
 10
118.833
 20
24.4191
 11
117.042
 21
25.5451
  0
LINE
  8
0
 10
117.042
 20
25.5451
 11
116.11
 21
26.0632
  0
LINE
  8
0
 10
116.11
 20
26.0632
 11
115.132
 21
26.5274
  0
LINE
  8
0
 10
115.132
 20
26.5274
 11
114.098
 21
26.9227
  0
LINE
  8
0
 10
114.098
 20
26.9227
 11
113.004
 21
27.2461
  0
LINE
  8
0
 10
113.004
 20
27.2461
 11
111.85
 21
27.4977
  0
LINE
  8
0
 10
111.85
 20
27.4977
 11
110.637
 21
27.6774
  0
LINE
  8
0
 10
110.637
 20
27.6774
 11
109.369
 21
27.7882
  0
LINE
  8
0
 10
109.369
 20
27.7882
 11
108.073
 21
27.8451
  0
LINE
  8
0
 10
108.073
 20
27.8451
 11
105.513
 21
27.869
  0
LINE
  8
0
 10
105.513
 20
27.869
 11
103.151
 21
27.8492
  0
LINE
  8
0
 10
103.151
 20
27.8492
 11
102.045
 21
27.802
  0
LINE
  8
0
 10
102.045
 20
27.802
 11
100.978
 21
27.7101
  0
LINE
  8
0
 10
100.978
 20
27.7101
 11
99.944
 21
27.5611
  0
LINE
  8
0
 10
99.944
 20
27.5611
 11
98.9424
 21
27.3524
  0
LINE
  8
0
 10
98.9424
 20
27.3524
 11
97.9729
 21
27.0841
  0
LINE
  8
0
 10
97.9729
 20
27.0841
 11
97.0353
 21
26.7561
  0
LINE
  8
0
 10
97.0353
 20
26.7561
 11
96.1286
 21
26.3712
  0
LINE
  8
0
 10
96.1286
 20
26.3712
 11
95.2458
 21
25.9415
  0
LINE
  8
0
 10
95.2458
 20
25.9415
 11
93.5205
 21
25.0073
  0
LINE
  8
0
 10
93.5205
 20
25.0073
 11
91.8258
 21
24.036
  0
LINE
  8
0
 10
91.8258
 20
24.036
 11
91.016
 21
23.5176
  0
LINE
  8
0
 10
91.016
 20
23.5176
 11
90.2512
 21
22.96
  0
LINE
  8
0
 10
90.2512
 20
22.96
 11
89.5441
 21
22.3521
  0
LINE
  8
0
 10
89.5441
 20
22.3521
 11
88.897
 21
21.6918
  0
LINE
  8
0
 10
88.897
 20
21.6918
 11
88.31
 21
20.9791
  0
LINE
  8
0
 10
88.31
 20
20.9791
 11
87.7832
 21
20.2141
  0
LINE
  8
0
 10
87.7832
 20
20.2141
 11
87.314
 21
19.399
  0
LINE
  8
0
 10
87.314
 20
19.399
 11
86.8898
 21
18.5445
  0
LINE
  8
0
 10
86.8898
 20
18.5445
 11
86.1167
 21
16.77
  0
LINE
  8
0
 10
86.1167
 20
16.77
 11
85.3791
 21
14.9508
  0
LINE
  8
0
 10
85.3791
 20
14.9508
 11
85.0398
 21
13.99
  0
LINE
  8
0
 10
85.0398
 20
13.99
 11
84.7358
 21
12.9678
  0
LINE
  8
0
 10
84.7358
 20
12.9678
 11
84.4768
 21
11.8671
  0
LINE
  8
0
 10
84.4768
 20
11.8671
 11
84.265
 21
10.6845
  0
LINE
  8
0
 10
84.265
 20
10.6845
 11
84.1002
 21
9.41992
  0
LINE
  8
0
 10
84.1002
 20
9.41992
 11
83.9825
 21
8.0735
  0
LINE
  8
0
 10
83.9825
 20
8.0735
 11
83.8726
 21
5.29149
  0
LINE
  8
0
 10
83.8726
 20
5.29149
 11
83.8569
 21
3.12129
  0
LINE
  8
0
 10
83.8569
 20
3.12129
 11
83.8569
 21
-19.4928
  0
LINE
  8
0
 10
83.8569
 20
-19.4928
 11
83.864
 21
-21.3358
  0
LINE
  8
0
 10
83.864
 20
-21.3358
 11
83.9131
 21
-23.6814
  0
LINE
  8
0
 10
83.9131
 20
-23.6814
 11
84.0393
 21
-25.8488
  0
LINE
  8
0
 10
84.0393
 20
-25.8488
 11
84.2498
 21
-27.702
  0
LINE
  8
0
 10
84.2498
 20
-27.702
 11
84.5372
 21
-29.2671
  0
LINE
  8
0
 10
84.5372
 20
-29.2671
 11
84.8667
 21
-30.6751
  0
LINE
  8
0
 10
84.8667
 20
-30.6751
 11
85.2143
 21
-32.0521
  0
LINE
  8
0
 10
85.2143
 20
-32.0521
 11
85.6293
 21
-33.4001
  0
LINE
  8
0
 10
85.6293
 20
-33.4001
 11
86.1671
 21
-34.695
  0
LINE
  8
0
 10
86.1671
 20
-34.695
 11
86.8392
 21
-35.932
  0
LINE
  8
0
 10
86.8392
 20
-35.932
 11
87.6342
 21
-37.1158
  0
LINE
  8
0
 10
87.6342
 20
-37.1158
 11
88.4964
 21
-38.2706
  0
LINE
  8
0
 10
88.4964
 20
-38.2706
 11
89.3845
 21
-39.4104
  0
LINE
  8
0
 10
89.3845
 20
-39.4104
 11
89.8556
 21
-39.9612
  0
LINE
  8
0
 10
89.8556
 20
-39.9612
 11
90.3593
 21
-40.4889
  0
LINE
  8
0
 10
90.3593
 20
-40.4889
 11
90.905
 21
-40.9873
  0
LINE
  8
0
 10
90.905
 20
-40.9873
 11
91.4941
 21
-41.4551
  0
LINE
  8
0
 10
91.4941
 20
-41.4551
 11
92.1269
 21
-41.8922
  0
LINE
  8
0
 10
92.1269
 20
-41.8922
 11
92.8034
 21
-42.2987
  0
LINE
  8
0
 10
92.8034
 20
-42.2987
 11
94.2722
 21
-43.0299
  0
LINE
  8
0
 10
94.2722
 20
-43.0299
 11
95.8282
 21
-43.6998
  0
LINE
  8
0
 10
95.8282
 20
-43.6998
 11
97.4088
 21
-44.3457
  0
LINE
  8
0
 10
97.4088
 20
-44.3457
 11
99.0492
 21
-44.9093
  0
LINE
  8
0
 10
99.0492
 20
-44.9093
 11
99.9097
 21
-45.136
  0
LINE
  8
0
 10
99.9097
 20
-45.136
 11
100.8
 21
-45.3215
  0
LINE
  8
0
 10
100.8
 20
-45.3215
 11
101.721
 21
-45.4659
  0
LINE
  8
0
 10
101.721
 20
-45.4659
 11
102.671
 21
-45.569
  0
LINE
  8
0
 10
102.671
 20
-45.569
 11
104.655
 21
-45.6651
  0
LINE
  8
0
 10
104.655
 20
-45.6651
 11
106.715
 21
-45.6789
  0
LINE
  8
0
 10
106.715
 20
-45.6789
 11
108.797
 21
-45.6649
  0
LINE
  8
0
 10
103.281
 20
1.3918
 11
103.281
 21
7.24596
  0
LINE
  8
0
 10
103.281
 20
7.24596
 11
103.307
 21
10.3171
  0
LINE
  8
0
 10
103.307
 20
10.3171
 11
103.367
 21
11.7357
  0
LINE
  8
0
 10
103.367
 20
11.7357
 11
103.467
 21
12.7687
  0
LINE
  8
0
 10
103.467
 20
12.7687
 11
103.604
 21
13.4483
  0
LINE
  8
0
 10
103.604
 20
13.4483
 11
103.761
 21
13.9351
  0
LINE
  8
0
 10
103.761
 20
13.9351
 11
103.932
 21
14.3803
  0
LINE
  8
0
 10
103.932
 20
14.3803
 11
104.167
 21
14.7686
  0
LINE
  8
0
 10
104.167
 20
14.7686
 11
104.519
 21
15.0528
  0
LINE
  8
0
 10
104.519
 20
15.0528
 11
105
 21
15.2233
  0
LINE
  8
0
 10
105
 20
15.2233
 11
105.593
 21
15.2896
  0
LINE
  8
0
 10
105.593
 20
15.2896
 11
106.218
 21
15.2991
  0
LINE
  8
0
 10
106.218
 20
15.2991
 11
106.793
 21
15.2879
  0
LINE
  8
0
 10
106.793
 20
15.2879
 11
107.289
 21
15.2099
  0
LINE
  8
0
 10
107.289
 20
15.2099
 11
107.696
 21
15.0093
  0
LINE
  8
0
 10
107.696
 20
15.0093
 11
108.01
 21
14.675
  0
LINE
  8
0
 10
108.01
 20
14.675
 11
108.24
 21
14.2181
  0
LINE
  8
0
 10
108.24
 20
14.2181
 11
108.424
 21
13.6944
  0
LINE
  8
0
 10
108.424
 20
13.6944
 11
108.597
 21
13.1323
  0
LINE
  8
0
 10
108.597
 20
13.1323
 11
108.748
 21
12.4076
  0
LINE
  8
0
 10
108.748
 20
12.4076
 11
108.858
 21
11.3846
  0
LINE
  8
0
 10
108.858
 20
11.3846
 11
108.924
 21
10.0363
  0
LINE
  8
0
 10
108.924
 20
10.0363
 11
108.953
 21
7.1924
  0
LINE
  8
0
 10
108.953
 20
7.1924
 11
108.953
 21
1.3918
  0
LINE
  8
0
 10
108.953
 20
1.3918
 11
103.281
 21
1.3918
  0
LINE
  8
0
 10
-223.246
 20
4.4763
 11
-223.217
 21
8.59053
  0
LINE
  8
0
 10
-223.217
 20
8.59053
 11
-223.151
 21
10.4928
  0
LINE
  8
0
 10
-223.151
 20
10.4928
 11
-223.041
 21
11.8801
  0
LINE
  8
0
 10
-223.041
 20
11.8801
 11
-222.89
 21
12.7956
  0
LINE
  8
0
 10
-222.89
 20
12.7956
 11
-222.717
 21
13.4537
  0
LINE
  8
0
 10
-222.717
 20
13.4537
 11
-222.53
 21
14.056
  0
LINE
  8
0
 10
-222.53
 20
14.056
 11
-222.279
 21
14.5814
  0
LINE
  8
0
 10
-222.279
 20
14.5814
 11
-222.111
 21
14.7929
  0
LINE
  8
0
 10
-222.111
 20
14.7929
 11
-221.911
 21
14.9659
  0
LINE
  8
0
 10
-221.911
 20
14.9659
 11
-221.678
 21
15.1004
  0
LINE
  8
0
 10
-221.678
 20
15.1004
 11
-221.414
 21
15.1966
  0
LINE
  8
0
 10
-221.414
 20
15.1966
 11
-220.801
 21
15.2863
  0
LINE
  8
0
 10
-220.801
 20
15.2863
 11
-220.132
 21
15.2991
  0
LINE
  8
0
 10
-220.132
 20
15.2991
 11
-219.476
 21
15.2879
  0
LINE
  8
0
 10
-219.476
 20
15.2879
 11
-218.893
 21
15.2099
  0
LINE
  8
0
 10
-218.893
 20
15.2099
 11
-218.644
 21
15.1264
  0
LINE
  8
0
 10
-218.644
 20
15.1264
 11
-218.428
 21
15.0093
  0
LINE
  8
0
 10
-218.428
 20
15.0093
 11
-218.244
 21
14.8589
  0
LINE
  8
0
 10
-218.244
 20
14.8589
 11
-218.091
 21
14.675
  0
LINE
  8
0
 10
-218.091
 20
14.675
 11
-217.872
 21
14.2181
  0
LINE
  8
0
 10
-217.872
 20
14.2181
 11
-217.717
 21
13.6944
  0
LINE
  8
0
 10
-217.717
 20
13.6944
 11
-217.576
 21
13.1197
  0
LINE
  8
0
 10
-217.576
 20
13.1197
 11
-217.453
 21
12.3066
  0
LINE
  8
0
 10
-217.453
 20
12.3066
 11
-217.363
 21
11.0563
  0
LINE
  8
0
 10
-217.363
 20
11.0563
 11
-217.309
 21
9.32906
  0
LINE
  8
0
 10
-217.309
 20
9.32906
 11
-217.285
 21
5.57584
  0
LINE
  8
0
 10
-217.285
 20
5.57584
 11
-217.285
 21
-44.3951
  0
LINE
  8
0
 10
-217.285
 20
-44.3951
 11
-197.862
 21
-44.3951
  0
LINE
  8
0
 10
-197.862
 20
-44.3951
 11
-197.862
 21
6.38419
  0
LINE
  8
0
 10
-197.862
 20
6.38419
 11
-197.868
 21
8.54472
  0
LINE
  8
0
 10
-197.868
 20
8.54472
 11
-197.912
 21
11.2592
  0
LINE
  8
0
 10
-197.912
 20
11.2592
 11
-198.027
 21
13.6962
  0
LINE
  8
0
 10
-198.027
 20
13.6962
 11
-198.217
 21
15.6898
  0
LINE
  8
0
 10
-198.217
 20
15.6898
 11
-198.477
 21
17.2769
  0
LINE
  8
0
 10
-198.477
 20
17.2769
 11
-198.775
 21
18.6421
  0
LINE
  8
0
 10
-198.775
 20
18.6421
 11
-199.095
 21
19.961
  0
LINE
  8
0
 10
-199.095
 20
19.961
 11
-199.285
 21
20.6027
  0
LINE
  8
0
 10
-199.285
 20
20.6027
 11
-199.51
 21
21.2231
  0
LINE
  8
0
 10
-199.51
 20
21.2231
 11
-199.78
 21
21.8162
  0
LINE
  8
0
 10
-199.78
 20
21.8162
 11
-200.097
 21
22.3809
  0
LINE
  8
0
 10
-200.097
 20
22.3809
 11
-200.461
 21
22.9171
  0
LINE
  8
0
 10
-200.461
 20
22.9171
 11
-200.872
 21
23.425
  0
LINE
  8
0
 10
-200.872
 20
23.425
 11
-201.328
 21
23.9056
  0
LINE
  8
0
 10
-201.328
 20
23.9056
 11
-201.82
 21
24.3649
  0
LINE
  8
0
 10
-201.82
 20
24.3649
 11
-202.862
 21
25.2481
  0
LINE
  8
0
 10
-202.862
 20
25.2481
 11
-203.932
 21
26.1036
  0
LINE
  8
0
 10
-203.932
 20
26.1036
 11
-204.491
 21
26.4971
  0
LINE
  8
0
 10
-204.491
 20
26.4971
 11
-205.079
 21
26.8498
  0
LINE
  8
0
 10
-205.079
 20
26.8498
 11
-205.703
 21
27.1501
  0
LINE
  8
0
 10
-205.703
 20
27.1501
 11
-206.365
 21
27.3959
  0
LINE
  8
0
 10
-206.365
 20
27.3959
 11
-207.065
 21
27.587
  0
LINE
  8
0
 10
-207.065
 20
27.587
 11
-207.803
 21
27.7234
  0
LINE
  8
0
 10
-207.803
 20
27.7234
 11
-208.576
 21
27.8076
  0
LINE
  8
0
 10
-208.576
 20
27.8076
 11
-209.367
 21
27.8508
  0
LINE
  8
0
 10
-209.367
 20
27.8508
 11
-210.922
 21
27.869
  0
LINE
  8
0
 10
-210.922
 20
27.869
 11
-212.344
 21
27.8555
  0
LINE
  8
0
 10
-212.344
 20
27.8555
 11
-213.643
 21
27.7606
  0
LINE
  8
0
 10
-213.643
 20
27.7606
 11
-214.259
 21
27.6589
  0
LINE
  8
0
 10
-214.259
 20
27.6589
 11
-214.856
 21
27.5165
  0
LINE
  8
0
 10
-214.856
 20
27.5165
 11
-215.433
 21
27.3332
  0
LINE
  8
0
 10
-215.433
 20
27.3332
 11
-215.991
 21
27.1091
  0
LINE
  8
0
 10
-215.991
 20
27.1091
 11
-217.054
 21
26.5517
  0
LINE
  8
0
 10
-217.054
 20
26.5517
 11
-218.078
 21
25.913
  0
LINE
  8
0
 10
-218.078
 20
25.913
 11
-219.089
 21
25.2479
  0
LINE
  8
0
 10
-219.089
 20
25.2479
 11
-220.061
 21
24.5015
  0
LINE
  8
0
 10
-220.061
 20
24.5015
 11
-220.521
 21
24.0737
  0
LINE
  8
0
 10
-220.521
 20
24.0737
 11
-220.962
 21
23.6051
  0
LINE
  8
0
 10
-220.962
 20
23.6051
 11
-221.784
 21
22.5454
  0
LINE
  8
0
 10
-221.784
 20
22.5454
 11
-222.505
 21
21.3908
  0
LINE
  8
0
 10
-222.505
 20
21.3908
 11
-223.011
 21
20.4809
  0
LINE
  8
0
 10
-223.011
 20
20.4809
 11
-223.146
 21
20.2552
  0
LINE
  8
0
 10
-223.146
 20
20.2552
 11
-223.184
 21
20.2386
  0
LINE
  8
0
 10
-223.184
 20
20.2386
 11
-223.206
 21
20.305
  0
LINE
  8
0
 10
-223.206
 20
20.305
 11
-223.162
 21
21.6811
  0
LINE
  8
0
 10
-223.162
 20
21.6811
 11
-222.91
 21
26.5853
  0
LINE
  8
0
 10
-222.91
 20
26.5853
 11
-242.669
 21
26.5853
  0
LINE
  8
0
 10
-242.669
 20
26.5853
 11
-242.669
 21
-44.3951
  0
LINE
  8
0
 10
-242.669
 20
-44.3951
 11
-223.246
 21
-44.3951
  0
LINE
  8
0
 10
-223.246
 20
-44.3951
 11
-223.246
 21
4.4763
  0
LINE
  8
0
 10
-50.6496
 20
-45.6624
 11
-49.5592
 21
-45.6231
  0
LINE
  8
0
 10
-49.5592
 20
-45.6231
 11
-48.5068
 21
-45.5466
  0
LINE
  8
0
 10
-48.5068
 20
-45.5466
 11
-47.4944
 21
-45.4227
  0
LINE
  8
0
 10
-47.4944
 20
-45.4227
 11
-46.5226
 21
-45.2491
  0
LINE
  8
0
 10
-46.5226
 20
-45.2491
 11
-45.5913
 21
-45.026
  0
LINE
  8
0
 10
-45.5913
 20
-45.026
 11
-44.7006
 21
-44.7532
  0
LINE
  8
0
 10
-44.7006
 20
-44.7532
 11
-43.8488
 21
-44.433
  0
LINE
  8
0
 10
-43.8488
 20
-44.433
 11
-43.0274
 21
-44.0755
  0
LINE
  8
0
 10
-43.0274
 20
-44.0755
 11
-41.4354
 21
-43.2986
  0
LINE
  8
0
 10
-41.4354
 20
-43.2986
 11
-39.8757
 21
-42.4911
  0
LINE
  8
0
 10
-39.8757
 20
-42.4911
 11
-39.1313
 21
-42.0609
  0
LINE
  8
0
 10
-39.1313
 20
-42.0609
 11
-38.4292
 21
-41.5989
  0
LINE
  8
0
 10
-38.4292
 20
-41.5989
 11
-37.7815
 21
-41.0963
  0
LINE
  8
0
 10
-37.7815
 20
-41.0963
 11
-37.1903
 21
-40.5514
  0
LINE
  8
0
 10
-37.1903
 20
-40.5514
 11
-36.6557
 21
-39.9641
  0
LINE
  8
0
 10
-36.6557
 20
-39.9641
 11
-36.1777
 21
-39.3345
  0
LINE
  8
0
 10
-36.1777
 20
-39.3345
 11
-35.7539
 21
-38.6643
  0
LINE
  8
0
 10
-35.7539
 20
-38.6643
 11
-35.3725
 21
-37.9623
  0
LINE
  8
0
 10
-35.3725
 20
-37.9623
 11
-34.6806
 21
-36.5055
  0
LINE
  8
0
 10
-34.6806
 20
-36.5055
 11
-34.0216
 21
-35.005
  0
LINE
  8
0
 10
-34.0216
 20
-35.005
 11
-33.7183
 21
-34.1994
  0
LINE
  8
0
 10
-33.7183
 20
-34.1994
 11
-33.4467
 21
-33.3273
  0
LINE
  8
0
 10
-33.4467
 20
-33.3273
 11
-33.2153
 21
-32.3704
  0
LINE
  8
0
 10
-33.2153
 20
-32.3704
 11
-33.026
 21
-31.3248
  0
LINE
  8
0
 10
-33.026
 20
-31.3248
 11
-32.8787
 21
-30.1907
  0
LINE
  8
0
 10
-32.8787
 20
-30.1907
 11
-32.7736
 21
-28.968
  0
LINE
  8
0
 10
-32.7736
 20
-28.968
 11
-32.6754
 21
-26.2988
  0
LINE
  8
0
 10
-32.6754
 20
-26.2988
 11
-32.6614
 21
-23.5284
  0
LINE
  8
0
 10
-32.6614
 20
-23.5284
 11
-32.6797
 21
-20.8802
  0
LINE
  8
0
 10
-32.6797
 20
-20.8802
 11
-32.7234
 21
-19.6374
  0
LINE
  8
0
 10
-32.7234
 20
-19.6374
 11
-32.8083
 21
-18.4617
  0
LINE
  8
0
 10
-32.8083
 20
-18.4617
 11
-32.946
 21
-17.3613
  0
LINE
  8
0
 10
-32.946
 20
-17.3613
 11
-33.1388
 21
-16.3377
  0
LINE
  8
0
 10
-33.1388
 20
-16.3377
 11
-33.3867
 21
-15.3911
  0
LINE
  8
0
 10
-33.3867
 20
-15.3911
 11
-33.6896
 21
-14.5213
  0
LINE
  8
0
 10
-33.6896
 20
-14.5213
 11
-34.0455
 21
-13.7253
  0
LINE
  8
0
 10
-34.0455
 20
-13.7253
 11
-34.4426
 21
-12.9868
  0
LINE
  8
0
 10
-34.4426
 20
-12.9868
 11
-35.3056
 21
-11.6061
  0
LINE
  8
0
 10
-35.3056
 20
-11.6061
 11
-36.2274
 21
-10.2473
  0
LINE
  8
0
 10
-36.2274
 20
-10.2473
 11
-36.764
 21
-9.56099
  0
LINE
  8
0
 10
-36.764
 20
-9.56099
 11
-37.3916
 21
-8.86629
  0
LINE
  8
0
 10
-37.3916
 20
-8.86629
 11
-38.1353
 21
-8.16086
  0
LINE
  8
0
 10
-38.1353
 20
-8.16086
 11
-39.0002
 21
-7.44432
  0
LINE
  8
0
 10
-39.0002
 20
-7.44432
 11
-39.9863
 21
-6.71666
  0
LINE
  8
0
 10
-39.9863
 20
-6.71666
 11
-41.0936
 21
-5.97789
  0
LINE
  8
0
 10
-41.0936
 20
-5.97789
 11
-42.3133
 21
-5.23032
  0
LINE
  8
0
 10
-42.3133
 20
-5.23032
 11
-43.6018
 21
-4.48608
  0
LINE
  8
0
 10
-43.6018
 20
-4.48608
 11
-46.1763
 21
-3.06569
  0
LINE
  8
0
 10
-46.1763
 20
-3.06569
 11
-50.4031
 21
-0.715073
  0
LINE
  8
0
 10
-50.4031
 20
-0.715073
 11
-51.9806
 21
0.236572
  0
LINE
  8
0
 10
-51.9806
 20
0.236572
 11
-53.1996
 21
1.05009
  0
LINE
  8
0
 10
-53.1996
 20
1.05009
 11
-54.0898
 21
1.73691
  0
LINE
  8
0
 10
-54.0898
 20
1.73691
 11
-54.8007
 21
2.3546
  0
LINE
  8
0
 10
-54.8007
 20
2.3546
 11
-55.4705
 21
2.95877
  0
LINE
  8
0
 10
-55.4705
 20
2.95877
 11
-56.0722
 21
3.55067
  0
LINE
  8
0
 10
-56.0722
 20
3.55067
 11
-56.5489
 21
4.12013
  0
LINE
  8
0
 10
-56.5489
 20
4.12013
 11
-56.8894
 21
4.66501
  0
LINE
  8
0
 10
-56.8894
 20
4.66501
 11
-57.1051
 21
5.18753
  0
LINE
  8
0
 10
-57.1051
 20
5.18753
 11
-57.2527
 21
5.69775
  0
LINE
  8
0
 10
-57.2527
 20
5.69775
 11
-57.3861
 21
6.21791
  0
LINE
  8
0
 10
-57.3861
 20
6.21791
 11
-57.5024
 21
6.81064
  0
LINE
  8
0
 10
-57.5024
 20
6.81064
 11
-57.5875
 21
7.53604
  0
LINE
  8
0
 10
-57.5875
 20
7.53604
 11
-57.6386
 21
8.40633
  0
LINE
  8
0
 10
-57.6386
 20
8.40633
 11
-57.6613
 21
10.39
  0
LINE
  8
0
 10
-57.6613
 20
10.39
 11
-57.6557
 21
11.2671
  0
LINE
  8
0
 10
-57.6557
 20
11.2671
 11
-57.6159
 21
12.0228
  0
LINE
  8
0
 10
-57.6159
 20
12.0228
 11
-57.5138
 21
12.6747
  0
LINE
  8
0
 10
-57.5138
 20
12.6747
 11
-57.3436
 21
13.2263
  0
LINE
  8
0
 10
-57.3436
 20
13.2263
 11
-57.1108
 21
13.686
  0
LINE
  8
0
 10
-57.1108
 20
13.686
 11
-56.844
 21
14.0956
  0
LINE
  8
0
 10
-56.844
 20
14.0956
 11
-56.5659
 21
14.4884
  0
LINE
  8
0
 10
-56.5659
 20
14.4884
 11
-56.2537
 21
14.8311
  0
LINE
  8
0
 10
-56.2537
 20
14.8311
 11
-55.8792
 21
15.0818
  0
LINE
  8
0
 10
-55.8792
 20
15.0818
 11
-55.4365
 21
15.2321
  0
LINE
  8
0
 10
-55.4365
 20
15.2321
 11
-54.926
 21
15.2907
  0
LINE
  8
0
 10
-54.926
 20
15.2907
 11
-54.3494
 21
15.2991
  0
LINE
  8
0
 10
-54.3494
 20
15.2991
 11
-53.7242
 21
15.2899
  0
LINE
  8
0
 10
-53.7242
 20
15.2899
 11
-53.1301
 21
15.2262
  0
LINE
  8
0
 10
-53.1301
 20
15.2262
 11
-52.6463
 21
15.0625
  0
LINE
  8
0
 10
-52.6463
 20
15.0625
 11
-52.2887
 21
14.7894
  0
LINE
  8
0
 10
-52.2887
 20
14.7894
 11
-52.0469
 21
14.4163
  0
LINE
  8
0
 10
-52.0469
 20
14.4163
 11
-51.8681
 21
13.9886
  0
LINE
  8
0
 10
-51.8681
 20
13.9886
 11
-51.7033
 21
13.5267
  0
LINE
  8
0
 10
-51.7033
 20
13.5267
 11
-51.5596
 21
12.9143
  0
LINE
  8
0
 10
-51.5596
 20
12.9143
 11
-51.4544
 21
12.0262
  0
LINE
  8
0
 10
-51.4544
 20
12.0262
 11
-51.3913
 21
10.8372
  0
LINE
  8
0
 10
-51.3913
 20
10.8372
 11
-51.3632
 21
8.30383
  0
LINE
  8
0
 10
-51.3632
 20
8.30383
 11
-51.3632
 21
3.90584
  0
LINE
  8
0
 10
-51.3632
 20
3.90584
 11
-34.1518
 21
3.90584
  0
LINE
  8
0
 10
-34.1518
 20
3.90584
 11
-34.1518
 21
8.61882
  0
LINE
  8
0
 10
-34.1518
 20
8.61882
 11
-34.1798
 21
11.4329
  0
LINE
  8
0
 10
-34.1798
 20
11.4329
 11
-34.2429
 21
12.8616
  0
LINE
  8
0
 10
-34.2429
 20
12.8616
 11
-34.348
 21
14.0539
  0
LINE
  8
0
 10
-34.348
 20
14.0539
 11
-34.4918
 21
15.0298
  0
LINE
  8
0
 10
-34.4918
 20
15.0298
 11
-34.6566
 21
15.8875
  0
LINE
  8
0
 10
-34.6566
 20
15.8875
 11
-34.8379
 21
16.7284
  0
LINE
  8
0
 10
-34.8379
 20
16.7284
 11
-35.0972
 21
17.5872
  0
LINE
  8
0
 10
-35.0972
 20
17.5872
 11
-35.4999
 21
18.4787
  0
LINE
  8
0
 10
-35.4999
 20
18.4787
 11
-36.0588
 21
19.4059
  0
LINE
  8
0
 10
-36.0588
 20
19.4059
 11
-36.7609
 21
20.3657
  0
LINE
  8
0
 10
-36.7609
 20
20.3657
 11
-37.5412
 21
21.3434
  0
LINE
  8
0
 10
-37.5412
 20
21.3434
 11
-38.3488
 21
22.3161
  0
LINE
  8
0
 10
-38.3488
 20
22.3161
 11
-39.2425
 21
23.2408
  0
LINE
  8
0
 10
-39.2425
 20
23.2408
 11
-39.7468
 21
23.6712
  0
LINE
  8
0
 10
-39.7468
 20
23.6712
 11
-40.2942
 21
24.0776
  0
LINE
  8
0
 10
-40.2942
 20
24.0776
 11
-40.8847
 21
24.4601
  0
LINE
  8
0
 10
-40.8847
 20
24.4601
 11
-41.5182
 21
24.8186
  0
LINE
  8
0
 10
-41.5182
 20
24.8186
 11
-42.9001
 21
25.4719
  0
LINE
  8
0
 10
-42.9001
 20
25.4719
 11
-44.3681
 21
26.0771
  0
LINE
  8
0
 10
-44.3681
 20
26.0771
 11
-45.8636
 21
26.662
  0
LINE
  8
0
 10
-45.8636
 20
26.662
 11
-47.4383
 21
27.1723
  0
LINE
  8
0
 10
-47.4383
 20
27.1723
 11
-48.2784
 21
27.3776
  0
LINE
  8
0
 10
-48.2784
 20
27.3776
 11
-49.1581
 21
27.5456
  0
LINE
  8
0
 10
-49.1581
 20
27.5456
 11
-51.0361
 21
27.7696
  0
LINE
  8
0
 10
-51.0361
 20
27.7696
 11
-53.0598
 21
27.8566
  0
LINE
  8
0
 10
-53.0598
 20
27.8566
 11
-55.1667
 21
27.869
  0
LINE
  8
0
 10
-55.1667
 20
27.869
 11
-57.2826
 21
27.8538
  0
LINE
  8
0
 10
-57.2826
 20
27.8538
 11
-59.3374
 21
27.7473
  0
LINE
  8
0
 10
-59.3374
 20
27.7473
 11
-60.3217
 21
27.633
  0
LINE
  8
0
 10
-60.3217
 20
27.633
 11
-61.2735
 21
27.4731
  0
LINE
  8
0
 10
-61.2735
 20
27.4731
 11
-62.1927
 21
27.2675
  0
LINE
  8
0
 10
-62.1927
 20
27.2675
 11
-63.0793
 21
27.0163
  0
LINE
  8
0
 10
-63.0793
 20
27.0163
 11
-63.9348
 21
26.7212
  0
LINE
  8
0
 10
-63.9348
 20
26.7212
 11
-64.7659
 21
26.3918
  0
LINE
  8
0
 10
-64.7659
 20
26.3918
 11
-66.3873
 21
25.6761
  0
LINE
  8
0
 10
-66.3873
 20
25.6761
 11
-67.9783
 21
24.9322
  0
LINE
  8
0
 10
-67.9783
 20
24.9322
 11
-68.7373
 21
24.5362
  0
LINE
  8
0
 10
-68.7373
 20
24.5362
 11
-69.4522
 21
24.1115
  0
LINE
  8
0
 10
-69.4522
 20
24.1115
 11
-70.111
 21
23.6498
  0
LINE
  8
0
 10
-70.111
 20
23.6498
 11
-70.7112
 21
23.1497
  0
LINE
  8
0
 10
-70.7112
 20
23.1497
 11
-71.2529
 21
22.6112
  0
LINE
  8
0
 10
-71.2529
 20
22.6112
 11
-71.7359
 21
22.0343
  0
LINE
  8
0
 10
-71.7359
 20
22.0343
 11
-72.1628
 21
21.4205
  0
LINE
  8
0
 10
-72.1628
 20
21.4205
 11
-72.5457
 21
20.7778
  0
LINE
  8
0
 10
-72.5457
 20
20.7778
 11
-73.2382
 21
19.4445
  0
LINE
  8
0
 10
-73.2382
 20
19.4445
 11
-73.8973
 21
18.0673
  0
LINE
  8
0
 10
-73.8973
 20
18.0673
 11
-74.2006
 21
17.3206
  0
LINE
  8
0
 10
-74.2006
 20
17.3206
 11
-74.4723
 21
16.5041
  0
LINE
  8
0
 10
-74.4723
 20
16.5041
 11
-74.7036
 21
15.5984
  0
LINE
  8
0
 10
-74.7036
 20
15.5984
 11
-74.8929
 21
14.5996
  0
LINE
  8
0
 10
-74.8929
 20
14.5996
 11
-75.0402
 21
13.5078
  0
LINE
  8
0
 10
-75.0402
 20
13.5078
 11
-75.1454
 21
12.323
  0
LINE
  8
0
 10
-75.1454
 20
12.323
 11
-75.2434
 21
9.74005
  0
LINE
  8
0
 10
-75.2434
 20
9.74005
 11
-75.2574
 21
7.18051
  0
LINE
  8
0
 10
-75.2574
 20
7.18051
 11
-75.2444
 21
4.95052
  0
LINE
  8
0
 10
-75.2444
 20
4.95052
 11
-75.1534
 21
2.99792
  0
LINE
  8
0
 10
-75.1534
 20
2.99792
 11
-75.0557
 21
2.08444
  0
LINE
  8
0
 10
-75.0557
 20
2.08444
 11
-74.919
 21
1.20494
  0
LINE
  8
0
 10
-74.919
 20
1.20494
 11
-74.7432
 21
0.359421
  0
LINE
  8
0
 10
-74.7432
 20
0.359421
 11
-74.5284
 21
-0.452072
  0
LINE
  8
0
 10
-74.5284
 20
-0.452072
 11
-73.9945
 21
-1.98456
  0
LINE
  8
0
 10
-73.9945
 20
-1.98456
 11
-73.3825
 21
-3.44904
  0
LINE
  8
0
 10
-73.3825
 20
-3.44904
 11
-72.7111
 21
-4.90903
  0
LINE
  8
0
 10
-72.7111
 20
-4.90903
 11
-72.2884
 21
-5.65187
  0
LINE
  8
0
 10
-72.2884
 20
-5.65187
 11
-71.7613
 21
-6.41017
  0
LINE
  8
0
 10
-71.7613
 20
-6.41017
 11
-71.1007
 21
-7.18831
  0
LINE
  8
0
 10
-71.1007
 20
-7.18831
 11
-70.3009
 21
-7.98705
  0
LINE
  8
0
 10
-70.3009
 20
-7.98705
 11
-69.3619
 21
-8.8064
  0
LINE
  8
0
 10
-69.3619
 20
-8.8064
 11
-68.2837
 21
-9.64635
  0
LINE
  8
0
 10
-68.2837
 20
-9.64635
 11
-67.0692
 21
-10.5077
  0
LINE
  8
0
 10
-67.0692
 20
-10.5077
 11
-65.7333
 21
-11.3946
  0
LINE
  8
0
 10
-65.7333
 20
-11.3946
 11
-62.7682
 21
-13.2643
  0
LINE
  8
0
 10
-62.7682
 20
-13.2643
 11
-56.6598
 21
-17.0859
  0
LINE
  8
0
 10
-56.6598
 20
-17.0859
 11
-54.3981
 21
-18.5612
  0
LINE
  8
0
 10
-54.3981
 20
-18.5612
 11
-52.8937
 21
-19.6176
  0
LINE
  8
0
 10
-52.8937
 20
-19.6176
 11
-52.0841
 21
-20.29
  0
LINE
  8
0
 10
-52.0841
 20
-20.29
 11
-51.6571
 21
-20.7528
  0
LINE
  8
0
 10
-51.6571
 20
-20.7528
 11
-51.3072
 21
-21.2071
  0
LINE
  8
0
 10
-51.3072
 20
-21.2071
 11
-51.1478
 21
-21.4837
  0
LINE
  8
0
 10
-51.1478
 20
-21.4837
 11
-51.0054
 21
-21.8196
  0
LINE
  8
0
 10
-51.0054
 20
-21.8196
 11
-50.785
 21
-22.7222
  0
LINE
  8
0
 10
-50.785
 20
-22.7222
 11
-50.6529
 21
-23.9413
  0
LINE
  8
0
 10
-50.6529
 20
-23.9413
 11
-50.6014
 21
-25.4313
  0
LINE
  8
0
 10
-50.6014
 20
-25.4313
 11
-50.5941
 21
-26.9635
  0
LINE
  8
0
 10
-50.5941
 20
-26.9635
 11
-50.5998
 21
-28.3114
  0
LINE
  8
0
 10
-50.5998
 20
-28.3114
 11
-50.6395
 21
-29.4374
  0
LINE
  8
0
 10
-50.6395
 20
-29.4374
 11
-50.7416
 21
-30.3501
  0
LINE
  8
0
 10
-50.7416
 20
-30.3501
 11
-50.9119
 21
-31.0511
  0
LINE
  8
0
 10
-50.9119
 20
-31.0511
 11
-51.1446
 21
-31.5579
  0
LINE
  8
0
 10
-51.1446
 20
-31.5579
 11
-51.4113
 21
-31.9589
  0
LINE
  8
0
 10
-51.4113
 20
-31.9589
 11
-51.6925
 21
-32.3342
  0
LINE
  8
0
 10
-51.6925
 20
-32.3342
 11
-52.0257
 21
-32.6617
  0
LINE
  8
0
 10
-52.0257
 20
-32.6617
 11
-52.4544
 21
-32.9013
  0
LINE
  8
0
 10
-52.4544
 20
-32.9013
 11
-52.9872
 21
-33.045
  0
LINE
  8
0
 10
-52.9872
 20
-33.045
 11
-53.6136
 21
-33.1009
  0
LINE
  8
0
 10
-53.6136
 20
-33.1009
 11
-54.2799
 21
-33.1089
  0
LINE
  8
0
 10
-54.2799
 20
-33.1089
 11
-54.9262
 21
-33.097
  0
LINE
  8
0
 10
-54.9262
 20
-33.097
 11
-55.5072
 21
-33.0138
  0
LINE
  8
0
 10
-55.5072
 20
-33.0138
 11
-55.7614
 21
-32.9247
  0
LINE
  8
0
 10
-55.7614
 20
-32.9247
 11
-55.989
 21
-32.7998
  0
LINE
  8
0
 10
-55.989
 20
-32.7998
 11
-56.1901
 21
-32.6393
  0
LINE
  8
0
 10
-56.1901
 20
-32.6393
 11
-56.3646
 21
-32.4432
  0
LINE
  8
0
 10
-56.3646
 20
-32.4432
 11
-56.6429
 21
-31.9559
  0
LINE
  8
0
 10
-56.6429
 20
-31.9559
 11
-56.868
 21
-31.3972
  0
LINE
  8
0
 10
-56.868
 20
-31.3972
 11
-57.0799
 21
-30.7988
  0
LINE
  8
0
 10
-57.0799
 20
-30.7988
 11
-57.2647
 21
-30.0332
  0
LINE
  8
0
 10
-57.2647
 20
-30.0332
 11
-57.4
 21
-28.9612
  0
LINE
  8
0
 10
-57.4
 20
-28.9612
 11
-57.4811
 21
-27.5549
  0
LINE
  8
0
 10
-57.4811
 20
-27.5549
 11
-57.5171
 21
-24.5981
  0
LINE
  8
0
 10
-57.5171
 20
-24.5981
 11
-57.5171
 21
-19.469
  0
LINE
  8
0
 10
-57.5171
 20
-19.469
 11
-74.7286
 21
-19.469
  0
LINE
  8
0
 10
-74.7286
 20
-19.469
 11
-74.7286
 21
-23.8789
  0
LINE
  8
0
 10
-74.7286
 20
-23.8789
 11
-74.715
 21
-25.9442
  0
LINE
  8
0
 10
-74.715
 20
-25.9442
 11
-74.6191
 21
-28.5623
  0
LINE
  8
0
 10
-74.6191
 20
-28.5623
 11
-74.5165
 21
-29.8081
  0
LINE
  8
0
 10
-74.5165
 20
-29.8081
 11
-74.3728
 21
-30.9604
  0
LINE
  8
0
 10
-74.3728
 20
-30.9604
 11
-74.188
 21
-32.019
  0
LINE
  8
0
 10
-74.188
 20
-32.019
 11
-73.9621
 21
-32.9841
  0
LINE
  8
0
 10
-73.9621
 20
-32.9841
 11
-73.6969
 21
-33.8594
  0
LINE
  8
0
 10
-73.6969
 20
-33.8594
 11
-73.4008
 21
-34.6646
  0
LINE
  8
0
 10
-73.4008
 20
-34.6646
 11
-72.7575
 21
-36.1578
  0
LINE
  8
0
 10
-72.7575
 20
-36.1578
 11
-72.0776
 21
-37.6072
  0
LINE
  8
0
 10
-72.0776
 20
-37.6072
 11
-71.6947
 21
-38.3082
  0
LINE
  8
0
 10
-71.6947
 20
-38.3082
 11
-71.2604
 21
-38.9808
  0
LINE
  8
0
 10
-71.2604
 20
-38.9808
 11
-70.7604
 21
-39.6171
  0
LINE
  8
0
 10
-70.7604
 20
-39.6171
 11
-70.1917
 21
-40.2155
  0
LINE
  8
0
 10
-70.1917
 20
-40.2155
 11
-69.5544
 21
-40.7761
  0
LINE
  8
0
 10
-69.5544
 20
-40.7761
 11
-68.8486
 21
-41.2987
  0
LINE
  8
0
 10
-68.8486
 20
-41.2987
 11
-68.077
 21
-41.7851
  0
LINE
  8
0
 10
-68.077
 20
-41.7851
 11
-67.2539
 21
-42.243
  0
LINE
  8
0
 10
-67.2539
 20
-42.243
 11
-65.522
 21
-43.1114
  0
LINE
  8
0
 10
-65.522
 20
-43.1114
 11
-63.7522
 21
-43.9494
  0
LINE
  8
0
 10
-63.7522
 20
-43.9494
 11
-62.8396
 21
-44.3349
  0
LINE
  8
0
 10
-62.8396
 20
-44.3349
 11
-61.8935
 21
-44.6804
  0
LINE
  8
0
 10
-61.8935
 20
-44.6804
 11
-60.9046
 21
-44.9746
  0
LINE
  8
0
 10
-60.9046
 20
-44.9746
 11
-59.8712
 21
-45.2153
  0
LINE
  8
0
 10
-59.8712
 20
-45.2153
 11
-58.7932
 21
-45.4026
  0
LINE
  8
0
 10
-58.7932
 20
-45.4026
 11
-57.6707
 21
-45.5363
  0
LINE
  8
0
 10
-57.6707
 20
-45.5363
 11
-56.5067
 21
-45.6187
  0
LINE
  8
0
 10
-56.5067
 20
-45.6187
 11
-55.3168
 21
-45.6611
  0
LINE
  8
0
 10
-55.3168
 20
-45.6611
 11
-52.9338
 21
-45.6789
  0
LINE
  8
0
 10
-52.9338
 20
-45.6789
 11
-50.6496
 21
-45.6624
  0
LINE
  8
0
 10
162.86
 20
-45.6624
 11
163.95
 21
-45.6231
  0
LINE
  8
0
 10
163.95
 20
-45.6231
 11
165.003
 21
-45.5466
  0
LINE
  8
0
 10
165.003
 20
-45.5466
 11
166.015
 21
-45.4227
  0
LINE
  8
0
 10
166.015
 20
-45.4227
 11
166.987
 21
-45.2491
  0
LINE
  8
0
 10
166.987
 20
-45.2491
 11
167.918
 21
-45.026
  0
LINE
  8
0
 10
167.918
 20
-45.026
 11
168.809
 21
-44.7532
  0
LINE
  8
0
 10
168.809
 20
-44.7532
 11
169.661
 21
-44.433
  0
LINE
  8
0
 10
169.661
 20
-44.433
 11
170.482
 21
-44.0755
  0
LINE
  8
0
 10
170.482
 20
-44.0755
 11
172.074
 21
-43.2986
  0
LINE
  8
0
 10
172.074
 20
-43.2986
 11
173.634
 21
-42.4911
  0
LINE
  8
0
 10
173.634
 20
-42.4911
 11
174.378
 21
-42.0609
  0
LINE
  8
0
 10
174.378
 20
-42.0609
 11
175.08
 21
-41.5989
  0
LINE
  8
0
 10
175.08
 20
-41.5989
 11
175.728
 21
-41.0963
  0
LINE
  8
0
 10
175.728
 20
-41.0963
 11
176.319
 21
-40.5514
  0
LINE
  8
0
 10
176.319
 20
-40.5514
 11
176.854
 21
-39.9641
  0
LINE
  8
0
 10
176.854
 20
-39.9641
 11
177.332
 21
-39.3345
  0
LINE
  8
0
 10
177.332
 20
-39.3345
 11
177.756
 21
-38.6643
  0
LINE
  8
0
 10
177.756
 20
-38.6643
 11
178.137
 21
-37.9623
  0
LINE
  8
0
 10
178.137
 20
-37.9623
 11
178.829
 21
-36.5055
  0
LINE
  8
0
 10
178.829
 20
-36.5055
 11
179.488
 21
-35.005
  0
LINE
  8
0
 10
179.488
 20
-35.005
 11
179.791
 21
-34.1994
  0
LINE
  8
0
 10
179.791
 20
-34.1994
 11
180.063
 21
-33.3273
  0
LINE
  8
0
 10
180.063
 20
-33.3273
 11
180.294
 21
-32.3704
  0
LINE
  8
0
 10
180.294
 20
-32.3704
 11
180.484
 21
-31.3248
  0
LINE
  8
0
 10
180.484
 20
-31.3248
 11
180.631
 21
-30.1907
  0
LINE
  8
0
 10
180.631
 20
-30.1907
 11
180.736
 21
-28.968
  0
LINE
  8
0
 10
180.736
 20
-28.968
 11
180.834
 21
-26.2988
  0
LINE
  8
0
 10
180.834
 20
-26.2988
 11
180.848
 21
-23.5284
  0
LINE
  8
0
 10
180.848
 20
-23.5284
 11
180.83
 21
-20.8802
  0
LINE
  8
0
 10
180.83
 20
-20.8802
 11
180.786
 21
-19.6374
  0
LINE
  8
0
 10
180.786
 20
-19.6374
 11
180.701
 21
-18.4617
  0
LINE
  8
0
 10
180.701
 20
-18.4617
 11
180.564
 21
-17.3613
  0
LINE
  8
0
 10
180.564
 20
-17.3613
 11
180.371
 21
-16.3377
  0
LINE
  8
0
 10
180.371
 20
-16.3377
 11
180.123
 21
-15.3911
  0
LINE
  8
0
 10
180.123
 20
-15.3911
 11
179.82
 21
-14.5213
  0
LINE
  8
0
 10
179.82
 20
-14.5213
 11
179.464
 21
-13.7253
  0
LINE
  8
0
 10
179.464
 20
-13.7253
 11
179.067
 21
-12.9868
  0
LINE
  8
0
 10
179.067
 20
-12.9868
 11
178.204
 21
-11.6061
  0
LINE
  8
0
 10
178.204
 20
-11.6061
 11
177.282
 21
-10.2473
  0
LINE
  8
0
 10
177.282
 20
-10.2473
 11
176.746
 21
-9.56099
  0
LINE
  8
0
 10
176.746
 20
-9.56099
 11
176.118
 21
-8.86629
  0
LINE
  8
0
 10
176.118
 20
-8.86629
 11
175.374
 21
-8.16086
  0
LINE
  8
0
 10
175.374
 20
-8.16086
 11
174.509
 21
-7.44432
  0
LINE
  8
0
 10
174.509
 20
-7.44432
 11
173.523
 21
-6.71666
  0
LINE
  8
0
 10
173.523
 20
-6.71666
 11
172.416
 21
-5.97789
  0
LINE
  8
0
 10
172.416
 20
-5.97789
 11
171.196
 21
-5.23032
  0
LINE
  8
0
 10
171.196
 20
-5.23032
 11
169.908
 21
-4.48608
  0
LINE
  8
0
 10
169.908
 20
-4.48608
 11
167.333
 21
-3.06569
  0
LINE
  8
0
 10
167.333
 20
-3.06569
 11
163.106
 21
-0.715073
  0
LINE
  8
0
 10
163.106
 20
-0.715073
 11
161.529
 21
0.236572
  0
LINE
  8
0
 10
161.529
 20
0.236572
 11
160.31
 21
1.05009
  0
LINE
  8
0
 10
160.31
 20
1.05009
 11
159.42
 21
1.73691
  0
LINE
  8
0
 10
159.42
 20
1.73691
 11
158.709
 21
2.3546
  0
LINE
  8
0
 10
158.709
 20
2.3546
 11
158.039
 21
2.95877
  0
LINE
  8
0
 10
158.039
 20
2.95877
 11
157.437
 21
3.55067
  0
LINE
  8
0
 10
157.437
 20
3.55067
 11
156.961
 21
4.12013
  0
LINE
  8
0
 10
156.961
 20
4.12013
 11
156.62
 21
4.66501
  0
LINE
  8
0
 10
156.62
 20
4.66501
 11
156.404
 21
5.18753
  0
LINE
  8
0
 10
156.404
 20
5.18753
 11
156.257
 21
5.69775
  0
LINE
  8
0
 10
156.257
 20
5.69775
 11
156.123
 21
6.21791
  0
LINE
  8
0
 10
156.123
 20
6.21791
 11
156.007
 21
6.81064
  0
LINE
  8
0
 10
156.007
 20
6.81064
 11
155.922
 21
7.53604
  0
LINE
  8
0
 10
155.922
 20
7.53604
 11
155.871
 21
8.40633
  0
LINE
  8
0
 10
155.871
 20
8.40633
 11
155.848
 21
10.39
  0
LINE
  8
0
 10
155.848
 20
10.39
 11
155.854
 21
11.2671
  0
LINE
  8
0
 10
155.854
 20
11.2671
 11
155.894
 21
12.0228
  0
LINE
  8
0
 10
155.894
 20
12.0228
 11
155.996
 21
12.6747
  0
LINE
  8
0
 10
155.996
 20
12.6747
 11
156.166
 21
13.2263
  0
LINE
  8
0
 10
156.166
 20
13.2263
 11
156.399
 21
13.686
  0
LINE
  8
0
 10
156.399
 20
13.686
 11
156.665
 21
14.0956
  0
LINE
  8
0
 10
156.665
 20
14.0956
 11
156.944
 21
14.4884
  0
LINE
  8
0
 10
156.944
 20
14.4884
 11
157.256
 21
14.8311
  0
LINE
  8
0
 10
157.256
 20
14.8311
 11
157.63
 21
15.0818
  0
LINE
  8
0
 10
157.63
 20
15.0818
 11
158.073
 21
15.2321
  0
LINE
  8
0
 10
158.073
 20
15.2321
 11
158.584
 21
15.2907
  0
LINE
  8
0
 10
158.584
 20
15.2907
 11
159.16
 21
15.2991
  0
LINE
  8
0
 10
159.16
 20
15.2991
 11
159.785
 21
15.2899
  0
LINE
  8
0
 10
159.785
 20
15.2899
 11
160.379
 21
15.2262
  0
LINE
  8
0
 10
160.379
 20
15.2262
 11
160.863
 21
15.0625
  0
LINE
  8
0
 10
160.863
 20
15.0625
 11
161.221
 21
14.7894
  0
LINE
  8
0
 10
161.221
 20
14.7894
 11
161.463
 21
14.4163
  0
LINE
  8
0
 10
161.463
 20
14.4163
 11
161.641
 21
13.9886
  0
LINE
  8
0
 10
161.641
 20
13.9886
 11
161.806
 21
13.5267
  0
LINE
  8
0
 10
161.806
 20
13.5267
 11
161.95
 21
12.9143
  0
LINE
  8
0
 10
161.95
 20
12.9143
 11
162.055
 21
12.0262
  0
LINE
  8
0
 10
162.055
 20
12.0262
 11
162.118
 21
10.8372
  0
LINE
  8
0
 10
162.118
 20
10.8372
 11
162.146
 21
8.30383
  0
LINE
  8
0
 10
162.146
 20
8.30383
 11
162.146
 21
3.90584
  0
LINE
  8
0
 10
162.146
 20
3.90584
 11
179.358
 21
3.90584
  0
LINE
  8
0
 10
179.358
 20
3.90584
 11
179.358
 21
8.61882
  0
LINE
  8
0
 10
179.358
 20
8.61882
 11
179.33
 21
11.4329
  0
LINE
  8
0
 10
179.33
 20
11.4329
 11
179.267
 21
12.8616
  0
LINE
  8
0
 10
179.267
 20
12.8616
 11
179.161
 21
14.0539
  0
LINE
  8
0
 10
179.161
 20
14.0539
 11
179.018
 21
15.0298
  0
LINE
  8
0
 10
179.018
 20
15.0298
 11
178.853
 21
15.8875
  0
LINE
  8
0
 10
178.853
 20
15.8875
 11
178.672
 21
16.7284
  0
LINE
  8
0
 10
178.672
 20
16.7284
 11
178.412
 21
17.5872
  0
LINE
  8
0
 10
178.412
 20
17.5872
 11
178.01
 21
18.4787
  0
LINE
  8
0
 10
178.01
 20
18.4787
 11
177.451
 21
19.4059
  0
LINE
  8
0
 10
177.451
 20
19.4059
 11
176.749
 21
20.3657
  0
LINE
  8
0
 10
176.749
 20
20.3657
 11
175.968
 21
21.3434
  0
LINE
  8
0
 10
175.968
 20
21.3434
 11
175.161
 21
22.3161
  0
LINE
  8
0
 10
175.161
 20
22.3161
 11
174.267
 21
23.2408
  0
LINE
  8
0
 10
174.267
 20
23.2408
 11
173.763
 21
23.6712
  0
LINE
  8
0
 10
173.763
 20
23.6712
 11
173.215
 21
24.0776
  0
LINE
  8
0
 10
173.215
 20
24.0776
 11
172.625
 21
24.4601
  0
LINE
  8
0
 10
172.625
 20
24.4601
 11
171.991
 21
24.8186
  0
LINE
  8
0
 10
171.991
 20
24.8186
 11
170.609
 21
25.4719
  0
LINE
  8
0
 10
170.609
 20
25.4719
 11
169.141
 21
26.0771
  0
LINE
  8
0
 10
169.141
 20
26.0771
 11
167.646
 21
26.662
  0
LINE
  8
0
 10
167.646
 20
26.662
 11
166.071
 21
27.1723
  0
LINE
  8
0
 10
166.071
 20
27.1723
 11
165.231
 21
27.3776
  0
LINE
  8
0
 10
165.231
 20
27.3776
 11
164.351
 21
27.5456
  0
LINE
  8
0
 10
164.351
 20
27.5456
 11
162.473
 21
27.7696
  0
LINE
  8
0
 10
162.473
 20
27.7696
 11
160.45
 21
27.8566
  0
LINE
  8
0
 10
160.45
 20
27.8566
 11
158.343
 21
27.869
  0
LINE
  8
0
 10
158.343
 20
27.869
 11
156.227
 21
27.8538
  0
LINE
  8
0
 10
156.227
 20
27.8538
 11
154.172
 21
27.7473
  0
LINE
  8
0
 10
154.172
 20
27.7473
 11
153.188
 21
27.633
  0
LINE
  8
0
 10
153.188
 20
27.633
 11
152.236
 21
27.4731
  0
LINE
  8
0
 10
152.236
 20
27.4731
 11
151.317
 21
27.2675
  0
LINE
  8
0
 10
151.317
 20
27.2675
 11
150.43
 21
27.0163
  0
LINE
  8
0
 10
150.43
 20
27.0163
 11
149.575
 21
26.7212
  0
LINE
  8
0
 10
149.575
 20
26.7212
 11
148.744
 21
26.3918
  0
LINE
  8
0
 10
148.744
 20
26.3918
 11
147.122
 21
25.6761
  0
LINE
  8
0
 10
147.122
 20
25.6761
 11
145.531
 21
24.9322
  0
LINE
  8
0
 10
145.531
 20
24.9322
 11
144.772
 21
24.5362
  0
LINE
  8
0
 10
144.772
 20
24.5362
 11
144.057
 21
24.1115
  0
LINE
  8
0
 10
144.057
 20
24.1115
 11
143.398
 21
23.6498
  0
LINE
  8
0
 10
143.398
 20
23.6498
 11
142.798
 21
23.1497
  0
LINE
  8
0
 10
142.798
 20
23.1497
 11
142.257
 21
22.6112
  0
LINE
  8
0
 10
142.257
 20
22.6112
 11
141.774
 21
22.0343
  0
LINE
  8
0
 10
141.774
 20
22.0343
 11
141.347
 21
21.4205
  0
LINE
  8
0
 10
141.347
 20
21.4205
 11
140.964
 21
20.7778
  0
LINE
  8
0
 10
140.964
 20
20.7778
 11
140.271
 21
19.4445
  0
LINE
  8
0
 10
140.271
 20
19.4445
 11
139.612
 21
18.0673
  0
LINE
  8
0
 10
139.612
 20
18.0673
 11
139.309
 21
17.3206
  0
LINE
  8
0
 10
139.309
 20
17.3206
 11
139.037
 21
16.5041
  0
LINE
  8
0
 10
139.037
 20
16.5041
 11
138.806
 21
15.5984
  0
LINE
  8
0
 10
138.806
 20
15.5984
 11
138.617
 21
14.5996
  0
LINE
  8
0
 10
138.617
 20
14.5996
 11
138.469
 21
13.5078
  0
LINE
  8
0
 10
138.469
 20
13.5078
 11
138.364
 21
12.323
  0
LINE
  8
0
 10
138.364
 20
12.323
 11
138.266
 21
9.74005
  0
LINE
  8
0
 10
138.266
 20
9.74005
 11
138.252
 21
7.18051
  0
LINE
  8
0
 10
138.252
 20
7.18051
 11
138.265
 21
4.95052
  0
LINE
  8
0
 10
138.265
 20
4.95052
 11
138.356
 21
2.99792
  0
LINE
  8
0
 10
138.356
 20
2.99792
 11
138.454
 21
2.08444
  0
LINE
  8
0
 10
138.454
 20
2.08444
 11
138.591
 21
1.20494
  0
LINE
  8
0
 10
138.591
 20
1.20494
 11
138.766
 21
0.359421
  0
LINE
  8
0
 10
138.766
 20
0.359421
 11
138.981
 21
-0.452072
  0
LINE
  8
0
 10
138.981
 20
-0.452072
 11
139.515
 21
-1.98456
  0
LINE
  8
0
 10
139.515
 20
-1.98456
 11
140.127
 21
-3.44904
  0
LINE
  8
0
 10
140.127
 20
-3.44904
 11
140.798
 21
-4.90903
  0
LINE
  8
0
 10
140.798
 20
-4.90903
 11
141.221
 21
-5.65187
  0
LINE
  8
0
 10
141.221
 20
-5.65187
 11
141.748
 21
-6.41017
  0
LINE
  8
0
 10
141.748
 20
-6.41017
 11
142.409
 21
-7.18831
  0
LINE
  8
0
 10
142.409
 20
-7.18831
 11
143.209
 21
-7.98705
  0
LINE
  8
0
 10
143.209
 20
-7.98705
 11
144.148
 21
-8.8064
  0
LINE
  8
0
 10
144.148
 20
-8.8064
 11
145.226
 21
-9.64635
  0
LINE
  8
0
 10
145.226
 20
-9.64635
 11
146.44
 21
-10.5077
  0
LINE
  8
0
 10
146.44
 20
-10.5077
 11
147.776
 21
-11.3946
  0
LINE
  8
0
 10
147.776
 20
-11.3946
 11
150.741
 21
-13.2643
  0
LINE
  8
0
 10
150.741
 20
-13.2643
 11
156.85
 21
-17.0859
  0
LINE
  8
0
 10
156.85
 20
-17.0859
 11
159.111
 21
-18.5612
  0
LINE
  8
0
 10
159.111
 20
-18.5612
 11
160.616
 21
-19.6176
  0
LINE
  8
0
 10
160.616
 20
-19.6176
 11
161.425
 21
-20.29
  0
LINE
  8
0
 10
161.425
 20
-20.29
 11
161.852
 21
-20.7528
  0
LINE
  8
0
 10
161.852
 20
-20.7528
 11
162.202
 21
-21.2071
  0
LINE
  8
0
 10
162.202
 20
-21.2071
 11
162.362
 21
-21.4837
  0
LINE
  8
0
 10
162.362
 20
-21.4837
 11
162.504
 21
-21.8196
  0
LINE
  8
0
 10
162.504
 20
-21.8196
 11
162.725
 21
-22.7222
  0
LINE
  8
0
 10
162.725
 20
-22.7222
 11
162.857
 21
-23.9413
  0
LINE
  8
0
 10
162.857
 20
-23.9413
 11
162.908
 21
-25.4313
  0
LINE
  8
0
 10
162.908
 20
-25.4313
 11
162.915
 21
-26.9635
  0
LINE
  8
0
 10
162.915
 20
-26.9635
 11
162.91
 21
-28.3114
  0
LINE
  8
0
 10
162.91
 20
-28.3114
 11
162.87
 21
-29.4374
  0
LINE
  8
0
 10
162.87
 20
-29.4374
 11
162.768
 21
-30.3501
  0
LINE
  8
0
 10
162.768
 20
-30.3501
 11
162.598
 21
-31.0511
  0
LINE
  8
0
 10
162.598
 20
-31.0511
 11
162.365
 21
-31.5579
  0
LINE
  8
0
 10
162.365
 20
-31.5579
 11
162.098
 21
-31.9589
  0
LINE
  8
0
 10
162.098
 20
-31.9589
 11
161.817
 21
-32.3342
  0
LINE
  8
0
 10
161.817
 20
-32.3342
 11
161.484
 21
-32.6617
  0
LINE
  8
0
 10
161.484
 20
-32.6617
 11
161.055
 21
-32.9013
  0
LINE
  8
0
 10
161.055
 20
-32.9013
 11
160.522
 21
-33.045
  0
LINE
  8
0
 10
160.522
 20
-33.045
 11
159.896
 21
-33.1009
  0
LINE
  8
0
 10
159.896
 20
-33.1009
 11
159.23
 21
-33.1089
  0
LINE
  8
0
 10
159.23
 20
-33.1089
 11
158.583
 21
-33.097
  0
LINE
  8
0
 10
158.583
 20
-33.097
 11
158.002
 21
-33.0138
  0
LINE
  8
0
 10
158.002
 20
-33.0138
 11
157.748
 21
-32.9247
  0
LINE
  8
0
 10
157.748
 20
-32.9247
 11
157.52
 21
-32.7998
  0
LINE
  8
0
 10
157.52
 20
-32.7998
 11
157.319
 21
-32.6393
  0
LINE
  8
0
 10
157.319
 20
-32.6393
 11
157.145
 21
-32.4432
  0
LINE
  8
0
 10
157.145
 20
-32.4432
 11
156.867
 21
-31.9559
  0
LINE
  8
0
 10
156.867
 20
-31.9559
 11
156.641
 21
-31.3972
  0
LINE
  8
0
 10
156.641
 20
-31.3972
 11
156.43
 21
-30.7988
  0
LINE
  8
0
 10
156.43
 20
-30.7988
 11
156.245
 21
-30.0332
  0
LINE
  8
0
 10
156.245
 20
-30.0332
 11
156.11
 21
-28.9612
  0
LINE
  8
0
 10
156.11
 20
-28.9612
 11
156.028
 21
-27.5549
  0
LINE
  8
0
 10
156.028
 20
-27.5549
 11
155.992
 21
-24.5981
  0
LINE
  8
0
 10
155.992
 20
-24.5981
 11
155.992
 21
-19.469
  0
LINE
  8
0
 10
155.992
 20
-19.469
 11
138.781
 21
-19.469
  0
LINE
  8
0
 10
138.781
 20
-19.469
 11
138.781
 21
-23.8789
  0
LINE
  8
0
 10
138.781
 20
-23.8789
 11
138.795
 21
-25.9442
  0
LINE
  8
0
 10
138.795
 20
-25.9442
 11
138.89
 21
-28.5623
  0
LINE
  8
0
 10
138.89
 20
-28.5623
 11
138.993
 21
-29.8081
  0
LINE
  8
0
 10
138.993
 20
-29.8081
 11
139.137
 21
-30.9604
  0
LINE
  8
0
 10
139.137
 20
-30.9604
 11
139.322
 21
-32.019
  0
LINE
  8
0
 10
139.322
 20
-32.019
 11
139.547
 21
-32.9841
  0
LINE
  8
0
 10
139.547
 20
-32.9841
 11
139.813
 21
-33.8594
  0
LINE
  8
0
 10
139.813
 20
-33.8594
 11
140.109
 21
-34.6646
  0
LINE
  8
0
 10
140.109
 20
-34.6646
 11
140.752
 21
-36.1578
  0
LINE
  8
0
 10
140.752
 20
-36.1578
 11
141.432
 21
-37.6072
  0
LINE
  8
0
 10
141.432
 20
-37.6072
 11
141.815
 21
-38.3082
  0
LINE
  8
0
 10
141.815
 20
-38.3082
 11
142.249
 21
-38.9808
  0
LINE
  8
0
 10
142.249
 20
-38.9808
 11
142.749
 21
-39.6171
  0
LINE
  8
0
 10
142.749
 20
-39.6171
 11
143.318
 21
-40.2155
  0
LINE
  8
0
 10
143.318
 20
-40.2155
 11
143.955
 21
-40.7761
  0
LINE
  8
0
 10
143.955
 20
-40.7761
 11
144.661
 21
-41.2987
  0
LINE
  8
0
 10
144.661
 20
-41.2987
 11
145.433
 21
-41.7851
  0
LINE
  8
0
 10
145.433
 20
-41.7851
 11
146.256
 21
-42.243
  0
LINE
  8
0
 10
146.256
 20
-42.243
 11
147.988
 21
-43.1114
  0
LINE
  8
0
 10
147.988
 20
-43.1114
 11
149.757
 21
-43.9494
  0
LINE
  8
0
 10
149.757
 20
-43.9494
 11
150.67
 21
-44.3349
  0
LINE
  8
0
 10
150.67
 20
-44.3349
 11
151.616
 21
-44.6804
  0
LINE
  8
0
 10
151.616
 20
-44.6804
 11
152.605
 21
-44.9746
  0
LINE
  8
0
 10
152.605
 20
-44.9746
 11
153.638
 21
-45.2153
  0
LINE
  8
0
 10
153.638
 20
-45.2153
 11
154.716
 21
-45.4026
  0
LINE
  8
0
 10
154.716
 20
-45.4026
 11
155.839
 21
-45.5363
  0
LINE
  8
0
 10
155.839
 20
-45.5363
 11
157.003
 21
-45.6187
  0
LINE
  8
0
 10
157.003
 20
-45.6187
 11
158.193
 21
-45.6611
  0
LINE
  8
0
 10
158.193
 20
-45.6611
 11
160.576
 21
-45.6789
  0
LINE
  8
0
 10
160.576
 20
-45.6789
 11
162.86
 21
-45.6624
  0
LINE
  8
0
 10
31.8018
 20
-15.2197
 11
31.8338
 21
-9.89893
  0
LINE
  8
0
 10
31.8338
 20
-9.89893
 11
31.9059
 21
-7.39046
  0
LINE
  8
0
 10
31.9059
 20
-7.39046
 11
32.0261
 21
-5.50383
  0
LINE
  8
0
 10
32.0261
 20
-5.50383
 11
32.1904
 21
-4.18723
  0
LINE
  8
0
 10
32.1904
 20
-4.18723
 11
32.3787
 21
-3.18152
  0
LINE
  8
0
 10
32.3787
 20
-3.18152
 11
32.5843
 21
-2.23637
  0
LINE
  8
0
 10
32.5843
 20
-2.23637
 11
32.8701
 21
-1.3436
  0
LINE
  8
0
 10
32.8701
 20
-1.3436
 11
33.0664
 21
-0.932114
  0
LINE
  8
0
 10
33.0664
 20
-0.932114
 11
33.3028
 21
-0.546814
  0
LINE
  8
0
 10
33.3028
 20
-0.546814
 11
33.5792
 21
-0.187698
  0
LINE
  8
0
 10
33.5792
 20
-0.187698
 11
33.8957
 21
0.145218
  0
LINE
  8
0
 10
33.8957
 20
0.145218
 11
34.6356
 21
0.741196
  0
LINE
  8
0
 10
34.6356
 20
0.741196
 11
35.4556
 21
1.28482
  0
LINE
  8
0
 10
35.4556
 20
1.28482
 11
36.3086
 21
1.80856
  0
LINE
  8
0
 10
36.3086
 20
1.80856
 11
36.7721
 21
2.04955
  0
LINE
  8
0
 10
36.7721
 20
2.04955
 11
37.2799
 21
2.26547
  0
LINE
  8
0
 10
37.2799
 20
2.26547
 11
37.8442
 21
2.44931
  0
LINE
  8
0
 10
37.8442
 20
2.44931
 11
38.4677
 21
2.59976
  0
LINE
  8
0
 10
38.4677
 20
2.59976
 11
39.892
 21
2.80035
  0
LINE
  8
0
 10
39.892
 20
2.80035
 11
41.4588
 21
2.87834
  0
LINE
  8
0
 10
41.4588
 20
2.87834
 11
42.6992
 21
2.8895
  0
LINE
  8
0
 10
42.6992
 20
2.8895
 11
42.8949
 21
2.89761
  0
LINE
  8
0
 10
42.8949
 20
2.89761
 11
43.042
 21
2.95454
  0
LINE
  8
0
 10
43.042
 20
2.95454
 11
43.1474
 21
3.10904
  0
LINE
  8
0
 10
43.1474
 20
3.10904
 11
43.218
 21
3.4099
  0
LINE
  8
0
 10
43.218
 20
3.4099
 11
43.2829
 21
4.64587
  0
LINE
  8
0
 10
43.2829
 20
4.64587
 11
43.2921
 21
7.05276
  0
LINE
  8
0
 10
43.2921
 20
7.05276
 11
43.2921
 21
23.7058
  0
LINE
  8
0
 10
43.2921
 20
23.7058
 11
43.2782
 21
26.1116
  0
LINE
  8
0
 10
43.2782
 20
26.1116
 11
43.2451
 21
26.8492
  0
LINE
  8
0
 10
43.2451
 20
26.8492
 11
43.1806
 21
27.3405
  0
LINE
  8
0
 10
43.1806
 20
27.3405
 11
43.0744
 21
27.6335
  0
LINE
  8
0
 10
43.0744
 20
27.6335
 11
42.9158
 21
27.7764
  0
LINE
  8
0
 10
42.9158
 20
27.7764
 11
42.6945
 21
27.8171
  0
LINE
  8
0
 10
42.6945
 20
27.8171
 11
42.4
 21
27.8037
  0
LINE
  8
0
 10
42.4
 20
27.8037
 11
41.5809
 21
27.7353
  0
LINE
  8
0
 10
41.5809
 20
27.7353
 11
40.5307
 21
27.5993
  0
LINE
  8
0
 10
40.5307
 20
27.5993
 11
39.3528
 21
27.3526
  0
LINE
  8
0
 10
39.3528
 20
27.3526
 11
38.7482
 21
27.1744
  0
LINE
  8
0
 10
38.7482
 20
27.1744
 11
38.1505
 21
26.9524
  0
LINE
  8
0
 10
38.1505
 20
26.9524
 11
37.5705
 21
26.6821
  0
LINE
  8
0
 10
37.5705
 20
26.6821
 11
37.0103
 21
26.3625
  0
LINE
  8
0
 10
37.0103
 20
26.3625
 11
36.4698
 21
25.9939
  0
LINE
  8
0
 10
36.4698
 20
25.9939
 11
35.9491
 21
25.5761
  0
LINE
  8
0
 10
35.9491
 20
25.5761
 11
35.4481
 21
25.1091
  0
LINE
  8
0
 10
35.4481
 20
25.1091
 11
34.967
 21
24.5929
  0
LINE
  8
0
 10
34.967
 20
24.5929
 11
34.5056
 21
24.0276
  0
LINE
  8
0
 10
34.5056
 20
24.0276
 11
34.064
 21
23.4131
  0
LINE
  8
0
 10
34.064
 20
23.4131
 11
33.2442
 21
22.0622
  0
LINE
  8
0
 10
33.2442
 20
22.0622
 11
32.5279
 21
20.6683
  0
LINE
  8
0
 10
32.5279
 20
20.6683
 11
31.9392
 21
19.3849
  0
LINE
  8
0
 10
31.9392
 20
19.3849
 11
31.5026
 21
18.3658
  0
LINE
  8
0
 10
31.5026
 20
18.3658
 11
31.2338
 21
17.758
  0
LINE
  8
0
 10
31.2338
 20
17.758
 11
31.1574
 21
17.6465
  0
LINE
  8
0
 10
31.1574
 20
17.6465
 11
31.1153
 21
17.6824
  0
LINE
  8
0
 10
31.1153
 20
17.6824
 11
31.121
 21
18.2532
  0
LINE
  8
0
 10
31.121
 20
18.2532
 11
31.2248
 21
19.5849
  0
LINE
  8
0
 10
31.2248
 20
19.5849
 11
31.8018
 21
26.5853
  0
LINE
  8
0
 10
31.8018
 20
26.5853
 11
12.3787
 21
26.5853
  0
LINE
  8
0
 10
12.3787
 20
26.5853
 11
12.3787
 21
-44.3951
  0
LINE
  8
0
 10
12.3787
 20
-44.3951
 11
31.8018
 21
-44.3951
  0
LINE
  8
0
 10
31.8018
 20
-44.3951
 11
31.8018
 21
-15.2197
  0
LINE
  8
0
 10
72.5429
 20
26.5853
 11
52.5429
 21
26.5853
  0
LINE
  8
0
 10
52.5429
 20
26.5853
 11
52.5429
 21
-44.3951
  0
LINE
  8
0
 10
52.5429
 20
-44.3951
 11
72.5429
 21
-44.3951
  0
LINE
  8
0
 10
72.5429
 20
-44.3951
 11
72.5429
 21
26.5853
  0
LINE
  8
0
 10
-115.644
 20
-45.6664
 11
-114.397
 21
-45.5793
  0
LINE
  8
0
 10
-114.397
 20
-45.5793
 11
-113.227
 21
-45.3553
  0
LINE
  8
0
 10
-113.227
 20
-45.3553
 11
-112.13
 21
-44.9813
  0
LINE
  8
0
 10
-112.13
 20
-44.9813
 11
-111.101
 21
-44.4696
  0
LINE
  8
0
 10
-111.101
 20
-44.4696
 11
-110.109
 21
-43.8833
  0
LINE
  8
0
 10
-110.109
 20
-43.8833
 11
-109.13
 21
-43.2728
  0
LINE
  8
0
 10
-109.13
 20
-43.2728
 11
-108.19
 21
-42.5877
  0
LINE
  8
0
 10
-108.19
 20
-42.5877
 11
-107.322
 21
-41.7648
  0
LINE
  8
0
 10
-107.322
 20
-41.7648
 11
-106.532
 21
-40.792
  0
LINE
  8
0
 10
-106.532
 20
-40.792
 11
-105.841
 21
-39.7322
  0
LINE
  8
0
 10
-105.841
 20
-39.7322
 11
-105.358
 21
-38.8969
  0
LINE
  8
0
 10
-105.358
 20
-38.8969
 11
-105.229
 21
-38.6816
  0
LINE
  8
0
 10
-105.229
 20
-38.6816
 11
-105.191
 21
-38.6472
  0
LINE
  8
0
 10
-105.191
 20
-38.6472
 11
-105.168
 21
-38.6707
  0
LINE
  8
0
 10
-105.168
 20
-38.6707
 11
-105.189
 21
-39.4808
  0
LINE
  8
0
 10
-105.189
 20
-39.4808
 11
-105.47
 21
-44.3951
  0
LINE
  8
0
 10
-105.47
 20
-44.3951
 11
-85.7102
 21
-44.3951
  0
LINE
  8
0
 10
-85.7102
 20
-44.3951
 11
-85.7102
 21
26.5853
  0
LINE
  8
0
 10
-85.7102
 20
26.5853
 11
-105.133
 21
26.5853
  0
LINE
  8
0
 10
-105.133
 20
26.5853
 11
-105.133
 21
-22.1495
  0
LINE
  8
0
 10
-105.133
 20
-22.1495
 11
-105.156
 21
-26.5981
  0
LINE
  8
0
 10
-105.156
 20
-26.5981
 11
-105.207
 21
-28.615
  0
LINE
  8
0
 10
-105.207
 20
-28.615
 11
-105.292
 21
-30.0392
  0
LINE
  8
0
 10
-105.292
 20
-30.0392
 11
-105.409
 21
-30.9199
  0
LINE
  8
0
 10
-105.409
 20
-30.9199
 11
-105.542
 21
-31.5042
  0
LINE
  8
0
 10
-105.542
 20
-31.5042
 11
-105.69
 21
-32.0279
  0
LINE
  8
0
 10
-105.69
 20
-32.0279
 11
-105.912
 21
-32.4849
  0
LINE
  8
0
 10
-105.912
 20
-32.4849
 11
-106.071
 21
-32.6687
  0
LINE
  8
0
 10
-106.071
 20
-32.6687
 11
-106.267
 21
-32.8191
  0
LINE
  8
0
 10
-106.267
 20
-32.8191
 11
-106.5
 21
-32.9361
  0
LINE
  8
0
 10
-106.5
 20
-32.9361
 11
-106.769
 21
-33.0198
  0
LINE
  8
0
 10
-106.769
 20
-33.0198
 11
-107.403
 21
-33.0978
  0
LINE
  8
0
 10
-107.403
 20
-33.0978
 11
-108.098
 21
-33.1089
  0
LINE
  8
0
 10
-108.098
 20
-33.1089
 11
-108.774
 21
-33.0981
  0
LINE
  8
0
 10
-108.774
 20
-33.0981
 11
-109.373
 21
-33.0227
  0
LINE
  8
0
 10
-109.373
 20
-33.0227
 11
-109.851
 21
-32.8288
  0
LINE
  8
0
 10
-109.851
 20
-32.8288
 11
-110.041
 21
-32.6834
  0
LINE
  8
0
 10
-110.041
 20
-32.6834
 11
-110.199
 21
-32.5056
  0
LINE
  8
0
 10
-110.199
 20
-32.5056
 11
-110.427
 21
-32.064
  0
LINE
  8
0
 10
-110.427
 20
-32.064
 11
-110.59
 21
-31.5577
  0
LINE
  8
0
 10
-110.59
 20
-31.5577
 11
-110.739
 21
-30.9938
  0
LINE
  8
0
 10
-110.739
 20
-30.9938
 11
-110.869
 21
-30.1491
  0
LINE
  8
0
 10
-110.869
 20
-30.1491
 11
-110.964
 21
-28.7896
  0
LINE
  8
0
 10
-110.964
 20
-28.7896
 11
-111.021
 21
-26.8685
  0
LINE
  8
0
 10
-111.021
 20
-26.8685
 11
-111.047
 21
-22.6368
  0
LINE
  8
0
 10
-111.047
 20
-22.6368
 11
-111.047
 21
26.5853
  0
LINE
  8
0
 10
-111.047
 20
26.5853
 11
-130.47
 21
26.5853
  0
LINE
  8
0
 10
-130.47
 20
26.5853
 11
-130.47
 21
-22.304
  0
LINE
  8
0
 10
-130.47
 20
-22.304
 11
-130.451
 21
-27.0482
  0
LINE
  8
0
 10
-130.451
 20
-27.0482
 11
-130.339
 21
-31.1223
  0
LINE
  8
0
 10
-130.339
 20
-31.1223
 11
-130.243
 21
-32.4427
  0
LINE
  8
0
 10
-130.243
 20
-32.4427
 11
-130.133
 21
-33.5101
  0
LINE
  8
0
 10
-130.133
 20
-33.5101
 11
-130.014
 21
-34.5336
  0
LINE
  8
0
 10
-130.014
 20
-34.5336
 11
-129.851
 21
-35.5471
  0
LINE
  8
0
 10
-129.851
 20
-35.5471
 11
-129.61
 21
-36.5422
  0
LINE
  8
0
 10
-129.61
 20
-36.5422
 11
-129.283
 21
-37.5173
  0
LINE
  8
0
 10
-129.283
 20
-37.5173
 11
-128.876
 21
-38.474
  0
LINE
  8
0
 10
-128.876
 20
-38.474
 11
-128.427
 21
-39.4206
  0
LINE
  8
0
 10
-128.427
 20
-39.4206
 11
-127.959
 21
-40.3578
  0
LINE
  8
0
 10
-127.959
 20
-40.3578
 11
-127.429
 21
-41.2482
  0
LINE
  8
0
 10
-127.429
 20
-41.2482
 11
-126.783
 21
-42.0527
  0
LINE
  8
0
 10
-126.783
 20
-42.0527
 11
-126.011
 21
-42.7638
  0
LINE
  8
0
 10
-126.011
 20
-42.7638
 11
-125.123
 21
-43.3889
  0
LINE
  8
0
 10
-125.123
 20
-43.3889
 11
-124.172
 21
-43.9672
  0
LINE
  8
0
 10
-124.172
 20
-43.9672
 11
-123.2
 21
-44.5259
  0
LINE
  8
0
 10
-123.2
 20
-44.5259
 11
-122.166
 21
-45.0132
  0
LINE
  8
0
 10
-122.166
 20
-45.0132
 11
-121.608
 21
-45.2094
  0
LINE
  8
0
 10
-121.608
 20
-45.2094
 11
-121.018
 21
-45.3699
  0
LINE
  8
0
 10
-121.018
 20
-45.3699
 11
-119.746
 21
-45.5838
  0
LINE
  8
0
 10
-119.746
 20
-45.5838
 11
-118.367
 21
-45.667
  0
LINE
  8
0
 10
-118.367
 20
-45.667
 11
-116.971
 21
-45.6789
  0
LINE
  8
0
 10
-116.971
 20
-45.6789
 11
-115.644
 21
-45.6664
  0
ENDSEC
  0
SECTION
  2
OBJECTS
  0
DICTIONARY
  0
ENDSEC
  0
EOF
